<?xml version="1.0" standalone="no"?>
<!DOCTYPE svg PUBLIC "-//W3C//DTD SVG 20010904//EN"
 "http://www.w3.org/TR/2001/REC-SVG-20010904/DTD/svg10.dtd">
<svg version="1.0" xmlns="http://www.w3.org/2000/svg"
 width="440.000000pt" height="505.000000pt" viewBox="0 0 440.000000 505.000000"
 preserveAspectRatio="xMidYMid meet">

<g transform="translate(0.000000,505.000000) scale(0.100000,-0.100000)"
fill="#000000" stroke="none">
<path d="M1550 4662 c-349 -213 -833 -509 -1075 -656 -242 -148 -445 -274
-452 -280 -10 -9 -13 -298 -13 -1285 l-1 -1274 42 -24 c24 -13 525 -276 1115
-584 l1072 -560 1068 581 c588 320 1075 586 1082 592 9 8 12 275 12 1273 0
1189 -1 1263 -17 1277 -10 8 -326 205 -703 438 -377 232 -757 467 -845 522
-88 55 -169 105 -179 111 -11 7 -45 28 -75 47 -62 39 -63 39 -153 93 -79 47
-93 55 -145 90 -23 15 -55 27 -70 27 -20 0 -217 -115 -663 -388z m550 -255 l0
-283 -622 -106 c-342 -59 -623 -106 -625 -105 -4 4 1222 775 1235 776 9 1 12
-62 12 -282z m838 -102 c330 -209 599 -381 598 -382 -1 -2 -1163 212 -1203
222 l-23 5 0 239 c0 232 5 305 20 299 4 -2 277 -174 608 -383z m-1575 -1403
c-285 -485 -521 -878 -524 -874 -10 11 -532 1462 -528 1466 5 5 1563 293 1567
290 2 -1 -230 -398 -515 -882z m1962 748 c429 -67 783 -122 786 -123 4 -1
-111 -336 -255 -744 l-262 -743 -540 857 c-296 471 -543 862 -547 870 -7 11
-3 13 15 9 13 -3 374 -60 803 -126z m-546 -894 c309 -516 560 -941 558 -943
-2 -2 -513 -2 -1135 -1 l-1131 3 567 947 c312 520 570 943 574 940 3 -4 259
-430 567 -946z m-2334 -454 c166 -431 195 -516 184 -526 -16 -15 -388 -256
-395 -256 -7 0 -5 1267 2 1285 4 9 8 15 9 13 2 -2 92 -234 200 -516z m3745
-152 c0 -341 -3 -620 -6 -620 -19 0 -385 234 -381 244 10 27 357 944 366 969
6 15 13 27 15 27 3 0 6 -279 6 -620z m-870 -578 c0 -4 -103 -127 -228 -273
-126 -145 -367 -426 -536 -624 -169 -198 -310 -361 -314 -362 -4 -1 -47 47
-97 105 -49 58 -290 331 -535 605 -245 275 -451 507 -458 518 -8 10 -11 23 -7
29 7 12 2175 15 2175 2z m525 -189 c96 -64 173 -118 170 -121 -11 -11 -1086
-590 -1083 -583 3 8 731 821 736 821 1 0 81 -52 177 -117z m-2680 -323 c164
-190 312 -360 329 -379 30 -33 25 -31 -99 33 -447 231 -975 511 -975 517 0 3
84 63 186 132 l185 125 38 -41 c20 -23 172 -197 336 -387z"/>
</g>
</svg>
