<?xml version="1.0" encoding="UTF-8" standalone="no"?>
<!DOCTYPE svg PUBLIC "-//W3C//DTD SVG 1.1//EN" "http://www.w3.org/Graphics/SVG/1.1/DTD/svg11.dtd">
<svg width="100%" height="100%" viewBox="0 0 512 512" version="1.1" xmlns="http://www.w3.org/2000/svg" xmlns:xlink="http://www.w3.org/1999/xlink" xml:space="preserve" xmlns:serif="http://www.serif.com/" style="fill-rule:evenodd;clip-rule:evenodd;stroke-linejoin:round;stroke-miterlimit:2;">
    <rect x="0" y="0" width="512" height="512" style="fill-rule:nonzero;"/>
    <path d="M256.438,14.188C124.118,14.188 16.656,121.648 16.656,253.968C16.656,386.288 124.118,493.75 256.436,493.75C388.756,493.75 496.219,386.29 496.219,253.97C496.219,121.65 388.756,14.187 256.436,14.187L256.438,14.188ZM256.438,32.094C379.091,32.094 478.313,131.316 478.313,253.969C478.313,258.489 478.173,262.983 477.906,267.437C446.961,275.587 409.836,253.213 392.5,223.593C344.94,289.643 302.764,296.785 263.344,222.03C226.402,289.58 159.172,295.186 126.219,242.094C92.495,288.077 69.569,294.15 35.155,270.656C34.747,265.15 34.53,259.58 34.53,253.969C34.53,131.315 133.784,32.093 256.437,32.093L256.438,32.094ZM394.938,277.314C415.15,317.54 453.541,304.85 476.906,278.874C472.176,321.334 455.511,360.128 430.312,391.874C396.569,410.456 371.444,399.074 340.75,346.25C298.867,421.004 230.938,413.864 180.406,347.813C162.86,376.031 117.486,397.657 83.126,392.593C61.243,365.263 45.681,332.649 38.686,296.937C62.176,319.042 102.576,326.114 123.094,293.312C155.462,341.968 223.496,344.848 263.344,288.25C287.17,322.297 349.309,352.84 394.938,277.312L394.938,277.314ZM177.813,401.5C226.293,477.028 315.436,446.516 340.75,412.47C357.947,432.1 378.3,433.266 398.438,424.53C359.976,456.582 310.482,475.875 256.438,475.875C201.746,475.875 151.724,456.118 113.063,423.375C137.233,431.583 163.615,428.095 177.813,401.5Z" style="fill:rgb(43,111,159);fill-rule:nonzero;"/>
</svg>
