<?xml version="1.0" encoding="UTF-8" standalone="no"?>
<!DOCTYPE svg PUBLIC "-//W3C//DTD SVG 1.1//EN" "http://www.w3.org/Graphics/SVG/1.1/DTD/svg11.dtd">
<svg width="100%" height="100%" viewBox="0 0 512 512" version="1.1" xmlns="http://www.w3.org/2000/svg" xmlns:xlink="http://www.w3.org/1999/xlink" xml:space="preserve" xmlns:serif="http://www.serif.com/" style="fill-rule:evenodd;clip-rule:evenodd;stroke-linejoin:round;stroke-miterlimit:2;">
    <rect x="0" y="0" width="512" height="512" style="fill-rule:nonzero;"/>
    <path d="M432.3,28.66C418.9,28.66 405.7,35.09 391.8,48.64C387.8,52.58 384,56.7 380.2,60.76C383.9,66.35 386.3,73.4 387.9,79.22C393.5,73.07 399,66.81 404.4,61.46C414.5,51.48 423.5,45.87 431.3,46.8C447.4,48.7 455,53.35 460.9,59.61C466.8,65.87 471,74.73 477.3,84.79L492.5,75.21C487,66.39 482.5,56.26 474,47.2C459.4,35.07 445.7,28.65 432.3,28.66ZM113.7,45.63C60.35,45.86 36,63.19 18.04,81.51L30.9,94.11C48.32,76.34 65.93,62.36 120.9,63.79L155.4,96.31L170.4,96.31C170.2,87.37 162.6,78.91 157.8,73.81C142.9,57.67 133.7,45.59 113.7,45.63Z" style="fill:rgb(149,143,143);fill-rule:nonzero;"/>
    <path d="M260.4,55.42C266.5,55.43 272.5,55.52 278.5,55.72C291.4,71.24 290.9,87.99 291.2,106.7C292,123.5 310.3,117.3 309.2,106.5C309,91.81 309.2,73.98 300.6,56.84C320.2,58.23 339.7,60.76 357.9,64.88C361.6,65.72 364.1,68 366.6,72.95C369.2,77.91 371.1,85.12 372.5,92.51L372.4,92.51C391.5,196.9 405.5,295.5 416.7,388.9C409.8,389.7 402.9,391.6 396.3,393.9L391,325.4C385,336.8 379,332.3 373,326.8L378.7,400.7C372.7,403.3 367.7,405.7 363.8,407.7C360.9,403.9 357.5,399.6 354,396L354.2,357.8C349.6,364.7 344.1,366.7 336.2,357.8L336.1,381.7C332.7,380.2 329,379.3 324.9,379.2C308.4,378.9 294.7,390.5 283.3,401.8C284.6,345.2 283.8,288.5 281.1,231.9C276.4,239.7 271.7,244 263.1,232.7C265.8,289.2 266.6,345.6 265.3,402.1C263.8,398.5 262.2,394.8 260.4,391C255.4,380.6 249.4,370 242,361.4C241,360.3 240.1,359.2 239,358.1C239.2,336.7 240,318.8 239.3,301.2C232,311.8 226.6,307.4 221.3,301.8C221.8,315.3 221.4,329.6 221.2,346.2C218.8,345.5 216.3,345 213.7,344.8L213.6,344.8C202,344.1 192,350.2 183.6,357.8C181.9,359.3 180.3,361 178.7,362.7C185.6,271.9 188.9,181.5 188.4,91.81C188.4,82.59 177.7,69.74 170.4,60.79C181.8,59.41 195.5,58.06 210.7,57.06C215,63.5 218.4,74.68 219.6,83.29C221.8,93.21 238.4,92.51 237.4,80.87C236.4,73.37 234.6,64.37 230.8,55.99C240.2,55.63 250.3,55.42 260.4,55.42ZM275.5,129.5C270.5,138.1 264.7,140.1 257.7,131.5C260.7,158.8 261.8,173 261.4,189C267.1,197.3 273,198.9 279.4,189.4C279.8,172.4 278.7,157 275.5,129.5ZM224,107C220.2,117.5 214.9,121.5 206,108.2C209.5,162.2 208.4,215.5 205.3,268.5C208,283.6 223.5,280.5 223.3,269.5C226.4,216.1 227.5,162 224,107ZM327.8,156.7C322.9,163.9 317.3,167.2 309.8,157.9C313.2,208.2 314.1,247.1 315.4,311.9C323.6,323.2 328.4,316.9 333.4,311.5C332.1,246.7 331.2,207.4 327.8,156.7ZM351.2,86.94C349.8,98.41 343.7,99.21 333.8,91.51C344.4,132.5 354,208.6 360.5,253.6C364.1,264.4 377.4,268.6 378.3,251C371.8,206.4 362.6,130.7 351.2,86.94Z" style="fill:rgb(43,111,159);"/>
    <path d="M81.8,337.5C101.2,338 103.2,391.6 103.2,391.6C103.2,391.6 72.1,380.6 68.42,366.8C65.64,356.4 71.07,337.2 81.8,337.5ZM129.2,337.1C134.1,332.7 146,334.9 150.7,339.7C156,345.1 150.1,362.5 150.1,362.5C150.1,362.5 123.3,349.3 127.5,339.4C127.9,338.5 128.4,337.7 129.2,337.1ZM448.7,333.3C454.9,333.5 459.7,344 458.9,350.3C457.9,359.2 439.1,368.3 439.1,368.3C433.5,357.2 435.7,335.6 447.4,333.4C447.8,333.3 448.2,333.3 448.7,333.3ZM478.5,353.8C491.3,353.1 496.4,377.2 492.9,389.5C489.4,401.9 461.7,412.4 461.7,412.4C461.7,412.4 458.2,354.9 478.5,353.8ZM195.7,371.1C208.1,360.1 215.7,359.7 228.4,373.1C234.1,379.8 239.6,389.2 244.1,398.8C253.2,417.8 258.5,436.9 258.5,436.9L263.6,455.2L274.6,439.7C274.6,439.7 282.5,428.5 293.2,417.5C304,406.4 318.1,397.1 324.7,397.2C326.9,397.2 335.8,402.8 342.4,409.9C348.9,417 353.7,424.3 353.7,424.3L358.3,431.3L365.7,427.1C365.7,427.1 377.5,420.4 392.1,414.6C406.6,408.9 424.2,405.3 431.5,407.7C446.7,412.6 464.8,420.9 476.5,432.2C487.2,442.4 493,453.7 489.5,470.1C389.3,490.8 199,484.5 78.44,469.7C69.35,458.4 67.94,450.5 69.35,444.1C72.02,433.2 83.37,421.2 96.78,421.7C117.7,422.5 132.6,428.2 154.6,439.3L158.2,430.6C158.2,430.6 165.8,412.4 177,394.6C182.7,385.7 189.2,377 195.7,371.1ZM35.58,384C42.69,384.1 51.33,387.9 55.52,392.5C63.39,401.3 56.51,427.8 56.51,427.8C56.51,427.8 17.46,402.9 25.73,388.5C27.6,385.2 31.31,383.9 35.58,384Z" style="fill:white;"/>
</svg>
