<?xml version="1.0" encoding="UTF-8" standalone="no"?>
<!DOCTYPE svg PUBLIC "-//W3C//DTD SVG 1.1//EN" "http://www.w3.org/Graphics/SVG/1.1/DTD/svg11.dtd">
<svg width="100%" height="100%" viewBox="0 0 512 512" version="1.1" xmlns="http://www.w3.org/2000/svg" xmlns:xlink="http://www.w3.org/1999/xlink" xml:space="preserve" xmlns:serif="http://www.serif.com/" style="fill-rule:evenodd;clip-rule:evenodd;stroke-linejoin:round;stroke-miterlimit:2;">
    <rect x="0" y="0" width="512" height="512" style="fill-rule:nonzero;"/>
    <path d="M283.75,170.936C194.225,181.69 66.158,359.648 43.625,494.97L134.875,494.97C135.895,361.016 205.989,212.925 283.75,170.937L283.75,170.936ZM316.156,184.626C239.396,233.682 201.582,393.358 206.344,494.969L284.781,494.969C243.568,414.229 261.574,242.303 316.157,184.624L316.156,184.626ZM338.031,210.844C303.345,293.074 312.326,401.921 363.189,494.969L441.189,494.969C365.584,441.195 321.099,304.514 338.032,210.843L338.031,210.844Z" style="fill:rgb(43,111,159);fill-rule:nonzero;"/>
    <path d="M319.406,75.157C430.647,74.083 525.842,169.276 482.844,235.563C480.982,173.693 444.212,161.569 426.22,246.156C420.622,210.032 412.772,183.546 404.28,166.626C383.753,209.211 385.593,260.945 401.53,308.281C419.525,361.727 455.847,408.243 494.187,427.437L494.187,448C445.586,428.38 404.353,375.165 383.843,314.25C365.639,260.183 364.113,198.898 392.249,149.313C378.546,136.584 365.129,147.242 358.219,180.938C349.364,131.499 296.006,112.793 291.406,162.063C276.21,131.633 230.61,122.733 184.188,159.563C173.641,169.417 163.585,179.813 153.625,190.22C147.227,196.905 140.88,203.571 134.5,210.095C78.839,278.575 72.835,313.614 18.905,346.407L18.905,256.531C42.175,255.398 61.421,246.923 79.905,233.781C100.431,219.19 119.609,198.746 140.125,177.313C149.432,167.59 159.08,157.65 169.312,148C215.016,96.032 268.864,75.647 319.406,75.157Z" style="fill:white;"/>
</svg>
