<?xml version="1.0" encoding="UTF-8" standalone="no"?>
<!DOCTYPE svg PUBLIC "-//W3C//DTD SVG 1.1//EN" "http://www.w3.org/Graphics/SVG/1.1/DTD/svg11.dtd">
<svg width="100%" height="100%" viewBox="0 0 512 512" version="1.1" xmlns="http://www.w3.org/2000/svg" xmlns:xlink="http://www.w3.org/1999/xlink" xml:space="preserve" xmlns:serif="http://www.serif.com/" style="fill-rule:evenodd;clip-rule:evenodd;stroke-linejoin:round;stroke-miterlimit:2;">
    <rect x="0" y="0" width="512" height="512" style="fill-rule:nonzero;"/>
    <path d="M256,21.95L250.6,25.98C187.5,73.41 125.4,104.5 30.58,120.3L23.08,121.5L23.08,129.1C23.08,148.1 31.48,177.8 45.18,214.2C58.78,250.7 77.98,293 100.2,333.4C122.5,373.8 147.6,412.3 174,441.1C200.1,470 227.5,490 256,490C284.5,490 311.9,470 338.2,441.1C364.4,412.3 389.5,373.8 411.9,333.4C434.1,293 453.2,250.7 466.9,214.2C480.5,177.8 488.9,148.1 488.9,129.1L488.9,121.5L481.5,120.3C386.9,104.5 324.6,73.41 261.4,25.98L256,21.95ZM256,44.15C317.1,89.19 380.4,120.3 470.4,136.5C468.5,151.7 461.4,177.9 450.1,208C446,218.8 441.5,230.2 436.4,242L288,242L288,193.1L352,209.1L256,97.14L160,209.1L224,193.1L224,242L75.57,242C70.57,230.2 65.98,218.8 61.88,208C50.68,177.9 43.48,151.7 41.58,136.5C131.6,120.3 194.8,89.19 256,44.15Z" style="fill:rgb(255,209,0);fill-rule:nonzero;"/>
</svg>
