<?xml version="1.0" encoding="UTF-8" standalone="no"?>
<!DOCTYPE svg PUBLIC "-//W3C//DTD SVG 1.1//EN" "http://www.w3.org/Graphics/SVG/1.1/DTD/svg11.dtd">
<svg width="100%" height="100%" viewBox="0 0 512 512" version="1.1" xmlns="http://www.w3.org/2000/svg" xmlns:xlink="http://www.w3.org/1999/xlink" xml:space="preserve" xmlns:serif="http://www.serif.com/" style="fill-rule:evenodd;clip-rule:evenodd;stroke-linejoin:round;stroke-miterlimit:2;">
    <rect x="0" y="0" width="512" height="512" style="fill-rule:nonzero;"/>
    <path d="M418.176,280.486C439.556,249.751 460.714,219.316 482.299,188.219C451.958,184.133 422.413,180.171 392.411,176.085C406.011,136.996 419.366,98.576 433.146,58.935C391.899,82.481 351.865,105.348 311.43,128.397C301.09,94.064 290.727,60.038 280.207,25.099C261.977,57.597 244.409,89.064 226.604,120.775C192.885,88.513 159.774,56.746 125.441,23.934C133.244,69.244 140.867,113.089 148.427,157.667C104.463,150.658 61.594,144.012 17.441,137.114C49.333,174.313 80.493,210.662 111.841,247.311C83.909,272.981 56.16,298.472 27.812,324.694C64.46,332.867 99.77,340.854 135.992,349.026C122.756,378.477 109.771,407.384 96.415,437.087C120.133,430.803 123.095,430.071 145.718,423.969C145.718,423.969 168.068,355.506 178.584,339.222C183.39,331.932 183.851,325.262 182.259,317.04C175.591,282.922 169.51,248.72 163.151,214.593C162.761,212.659 162.681,211.258 164.694,209.946C188.672,193.257 201.038,188.702 238.491,162.166C255.786,181.865 272.961,201.643 290.488,221.813C284.514,227.237 278.569,232.692 272.651,238.177C272.191,238.637 271.029,238.867 270.327,238.637C263.807,236.694 257.297,234.761 250.739,232.669C243.031,225.377 237.059,217.376 230.931,211.187C229.228,217.547 227.475,223.514 226.044,229.644C235.028,240.589 237.28,243.828 242.948,249.414C244.11,250.584 244.809,252.438 244.809,253.99C246.358,285.602 245.419,316.636 246.943,343.8C250.317,344.732 253.382,345.503 257.139,346.595C256.366,312.465 255.786,278.885 254.895,245.075C256.948,245.075 258.89,246.087 260.513,248.952C280.201,281.257 297.846,312.993 315.463,342.407C318.407,340.695 321.321,338.992 324.306,337.28C322.793,341.853 317.712,348.185 314.992,352.102C305.604,366.829 289.899,374.129 276.997,382.965C261.373,407.727 248.75,433.041 238.74,450.623L253.529,488.066C253.899,488.184 279.719,448.914 292.437,428.976C313.627,447.693 334.424,466.112 355.827,485.011C357.377,443.969 359.023,404.21 360.519,363.963C405.223,367.807 449.282,371.586 494.559,375.493C468.549,343.049 443.39,311.889 418.176,280.486ZM253.733,163.406C266.681,155.344 279.32,147.584 292.239,139.681C298.628,150.688 304.718,161.544 310.885,172.559C300.26,179.149 289.715,185.748 278.778,192.408C270.597,182.794 262.185,173.261 253.733,163.406ZM304.917,222.433C298.627,215.063 292.349,207.921 285.72,200.25C296.775,193.5 307.782,186.68 319.027,179.77C324.767,189.855 330.395,199.7 336.093,209.783C319.258,220.258 302.623,230.413 286.259,240.498C286.149,240.266 286.029,240.187 285.8,240.028C292.117,234.289 298.398,228.552 304.917,222.433ZM278.779,257.173C299.329,244.534 319.609,232.126 340.199,219.408C346.327,229.954 352.145,240.268 358.314,251.124C337.794,263.843 317.435,276.251 296.774,288.968C290.756,278.193 284.789,267.718 278.779,257.173ZM319.258,328.206C313.519,318.051 307.782,308.126 302.083,297.881C321.321,286.095 340.429,274.307 359.827,262.371C365.525,272.444 371.265,282.45 376.962,292.616C357.652,304.631 338.496,316.349 319.258,328.206Z" style="fill:rgb(255,55,55);fill-rule:nonzero;"/>
</svg>
