<?xml version="1.0" encoding="UTF-8" standalone="no"?>
<!DOCTYPE svg PUBLIC "-//W3C//DTD SVG 1.1//EN" "http://www.w3.org/Graphics/SVG/1.1/DTD/svg11.dtd">
<svg width="100%" height="100%" viewBox="0 0 512 512" version="1.1" xmlns="http://www.w3.org/2000/svg" xmlns:xlink="http://www.w3.org/1999/xlink" xml:space="preserve" xmlns:serif="http://www.serif.com/" style="fill-rule:evenodd;clip-rule:evenodd;stroke-linejoin:round;stroke-miterlimit:2;">
    <rect x="0" y="0" width="512" height="512" style="fill-rule:nonzero;"/>
    <path d="M273.922,16.73C282.945,45.069 293.697,83.834 302.207,110.553C294.238,111.985 250.368,103.069 223.461,145.859C204.848,176.466 199.445,209.669 205.469,244.814C205.631,246.024 205.942,247.367 205.252,248.596C176.724,250.866 148.009,253.161 117.779,255.566C135.48,239.536 153.175,223.498 170.863,207.453C132.152,196.837 94.33,186.491 56.51,176.117L56.348,175.065C86.496,168.123 116.645,161.205 148.01,153.965C120.102,131.678 65.344,88.048 65.344,88.048C65.344,88.048 150.116,89.398 183.318,96.018C173.187,77.135 168.215,30.752 168.215,30.752L250.799,82.836C258.444,61.008 265.927,39.585 273.922,16.73Z" style="fill:rgb(99,245,96);"/>
    <path d="M332.572,250.73L329.14,268.643L328.33,272.99L332.707,273.666C365.936,278.611 396.731,278.772 420.152,274.584C431.904,272.505 441.819,269.37 449.355,264.967C450.274,264.427 451.167,263.888 452.031,263.293L446.115,294.009C445.251,298.386 442.062,302.412 435.795,306.059C429.581,309.705 420.559,312.704 409.537,314.594C387.467,318.376 357.344,317.997 324.576,312.406L320.443,311.676L319.66,315.836L316.283,334.529L219.436,270.857L332.572,250.73Z" style="fill:rgb(140,137,137);"/>
    <path d="M295.221,123.143C308.631,122.925 323.445,126.254 338.73,135.215C357.424,146.155 364.152,167.633 369.095,187.625C391.167,193.973 410.643,201.779 425.285,210.316C436.091,216.557 444.385,223.122 449.49,229.281C449.788,229.66 450.113,230.037 450.41,230.416C454.787,236.115 456.3,241.167 455.406,245.57C454.596,249.92 451.326,253.946 445.086,257.619C442.223,259.267 438.711,260.78 434.766,262.158C429.957,251 420.044,239.139 406.05,228.254C396.676,220.986 385.304,214.369 372.58,208.805C374.228,226.985 372.39,244.706 366.42,261.59C359.64,261.238 353.021,261.184 345.943,260.348L347.241,253.541L351.321,232.225L329.951,236.035L223.514,254.945C218.895,239.358 217.301,223.012 219.029,205.75C221.11,184.841 227.755,165.58 240.344,148.695C249.155,136.906 269.623,123.559 295.221,123.143ZM245.801,183.814C239.696,185.057 235.021,190.189 235.021,196.619C235.021,203.967 240.965,209.937 248.34,209.937C255.661,209.937 261.631,203.969 261.631,196.621C261.631,195.596 261.254,194.649 261.037,193.703C259.794,197.457 256.336,200.215 252.203,200.215C246.935,200.215 242.695,195.972 242.695,190.705C242.695,187.975 243.937,185.57 245.801,183.814ZM295.994,182.464C289.24,183.789 284.08,189.489 284.08,196.594L284.08,196.612C284.08,204.664 290.705,211.289 298.757,211.289L298.798,211.289C306.848,211.289 313.473,204.664 313.473,196.614L313.473,196.594C313.473,195.432 313.067,194.432 312.824,193.352C311.42,197.513 307.637,200.564 303.044,200.564L303.021,200.564C297.284,200.564 292.564,195.844 292.564,190.107L292.564,190.082C292.564,187.029 293.914,184.383 295.994,182.464ZM247.584,307.217L308.068,347.01L326.98,359.438L330.978,337.178L332.518,328.775C347.862,330.936 362.748,332.018 376.904,332.018C389.627,332.018 401.297,331.128 411.697,329.398C412.211,329.831 412.912,330.046 413.426,330.505C426.933,342.095 433.984,357.439 437.848,374.215C445.492,407.497 443.254,454.984 443.496,489.158C441.107,489.158 433.24,489.29 421.555,489.51L421.555,401.244L406.955,401.244L406.955,489.793C364.823,490.63 294.849,492.138 238.873,493.362L238.873,406.492L209.672,406.492L209.672,494C175.813,494.744 152.143,495.27 152.143,495.27C152.143,495.27 151.737,410.899 152.25,403.523C153.25,388.802 156.949,374.564 162.838,360.949C173.158,336.987 191.582,322.128 216.274,314.916C226.377,311.944 236.914,309.729 247.584,307.217Z" style="fill:rgb(197,191,191);"/>
</svg>
