<?xml version="1.0" encoding="UTF-8" standalone="no"?>
<!DOCTYPE svg PUBLIC "-//W3C//DTD SVG 1.1//EN" "http://www.w3.org/Graphics/SVG/1.1/DTD/svg11.dtd">
<svg width="100%" height="100%" viewBox="0 0 512 512" version="1.1" xmlns="http://www.w3.org/2000/svg" xmlns:xlink="http://www.w3.org/1999/xlink" xml:space="preserve" xmlns:serif="http://www.serif.com/" style="fill-rule:evenodd;clip-rule:evenodd;stroke-linejoin:round;stroke-miterlimit:2;">
    <rect x="0" y="0" width="512" height="512" style="fill-rule:nonzero;"/>
    <path d="M185,23.42C238.7,68.86 190.5,93.73 177.2,99.74C136.7,118.1 89.55,75.13 77.7,32.39C63.43,75.61 30.56,164.5 88.87,200.5C53.1,240.4 53.14,237.5 23.65,192.6C15.2,233.9 20.81,305.2 39.34,356.7C41.38,334.6 44.38,313.2 50.57,296L51.66,293L54.44,291.3C100.3,264.1 140.5,255.3 171.7,251.2C168.7,238.9 167,225.7 167,212C167,209 167.1,206 167.2,203.1L85.14,162.4L120.6,147.5L75.26,102.3L165,153.3L135.8,165.5L167.8,196.1C170.3,169.7 179,146 192.1,127.6C207.8,105.5 230.5,91 256,91C281.5,91 304.2,105.5 319.9,127.6C333.1,146.1 341.8,170 344.3,196.5L384.4,155.2L346.3,144.3L430.4,74.17L387.5,134.7L432.7,149L344.5,198.7C344.9,205 345.1,210.5 344.9,216.2C351.1,215.3 357.4,214.7 363.6,214.6C369.4,214.6 375.1,215 380.3,215.9C395.1,220.1 421.1,261.7 425.4,273.6C422.5,287.9 412.4,299 403,308.4L447.9,404.3C453.8,416.9 450.7,432.7 448.4,444.6C446,456.6 439.1,468.1 426.7,472.1C403,477.1 386.2,464.4 372.4,449.1C372.6,464.3 372.4,479.2 372,494L466.4,494C493.8,461.9 494.6,423.8 491.3,382.9C466.6,408.4 446.2,368.6 433.9,341.3C463.2,368 504,298.4 493.2,234.6C487.8,250.4 450.6,261.6 434.2,206.9C484.6,193.9 488.6,128.5 494.7,96.94C473.5,123.8 461.4,139 429.1,121.2C467.9,92.85 436.2,47.94 402.4,30.2C425.4,63.93 345.1,120 321.3,96.69C306.6,45.5 237.3,16 185,23.42ZM149.6,356.9C136.6,360.9 122.8,360.5 111.5,358.5C104.2,382.6 104.1,406.9 102,433.1C107,445.6 111,454.9 112.4,466.3C108.3,476.9 102.4,487.3 95.93,494L140.6,494C138.8,450.5 145.7,402.4 149.6,356.9Z" style="fill:rgb(197,57,57);fill-rule:nonzero;"/>
    <path d="M256,109C274.7,109 292,119.5 305.2,138C310.5,145.4 315,153.9 318.5,163.4C296.1,176.8 273,189.8 261.6,213C263,217.6 265.1,223.3 266.3,228.7C277.6,224.5 293.9,221.5 307.2,225.9C312.8,219.4 311.1,213.7 310,208C299.2,210.4 281.7,212.3 273.6,216.8C281,207.6 291.7,200.7 308.8,199.4L318.8,164.4C324.5,180.4 327.5,201.5 326.7,220.3C322.1,221.8 315.2,223.2 312.2,227.9C305.2,240.7 306.9,263 309.1,280.1C307.8,282.1 306.6,284.1 305.2,286C292,304.5 274.7,315 256,315C237.3,315 220,304.5 206.8,286C193.5,267.5 185,241.2 185,212C185,195.6 187.7,180.1 192.4,166.4L202.8,199.8C222.6,200.8 234.1,209.5 241.7,220.8C229.8,206 209.1,205 202,217.6L246.4,228.2C247.9,223 248.9,217.5 250.3,212.2C238.5,189.6 215.6,177.2 193.1,164.5C196.7,154.6 201.3,145.6 206.8,138C220,119.5 237.3,109 256,109ZM216.7,243.8C214.9,243.8 213.4,244.6 212.3,246.6C203.4,262.7 215.9,281.8 231.7,291.3C231.7,291.3 243.5,275.9 256.8,274.9C270.3,273.8 284.6,288.5 284.6,288.5C292,282.4 307,261.8 296,248.5C285.9,236.4 272.4,256.8 256.5,257.7C238.8,258.8 224.5,243.8 216.7,243.8ZM326.9,239.6C339.6,235.3 360.1,232.9 375.4,233.4C388.7,243 401.2,261.1 406.4,274.3C402.7,284.4 389.5,293.7 381.8,305.5L430.4,409.4C432.1,422 435.4,447.7 421.2,455C406.3,459.5 391.6,443.4 382,432.6L357,314.6C350.1,312 343.2,309.4 336.3,306.9C332.7,300 328.2,286.4 326.1,272.7C323.9,259.3 324.7,246.2 326.9,239.6ZM177.3,268.7C181.2,278.8 186.2,288.2 192.1,296.4C207.8,318.5 230.5,333 256,333C278.9,333 299.5,321.2 314.9,302.9C316.9,308.5 320,315.4 323.8,321.4L341.4,328C342.1,332.2 342.7,336.1 343.4,339.8C354.2,393.7 355.4,444.2 353.9,494L158.8,494C156.9,448.3 165.5,394 168.9,342.6L170.1,323.6C147.7,339.6 129.1,343.6 99.92,337L97.03,344.8C87.95,370.3 87.98,403.1 83.7,436.3C87.73,445 91.44,453.5 93.87,464.3C87.55,479.9 69.73,490.8 51.76,493.3C35.75,494.6 31.09,475.6 28.29,461.2L52.17,420C55.92,384.3 56.53,344.2 66.6,305.2C110.2,279.9 147.4,272.4 177.3,268.7Z" style="fill:rgb(249,97,97);"/>
</svg>
