<?xml version="1.0" encoding="UTF-8" standalone="no"?>
<!DOCTYPE svg PUBLIC "-//W3C//DTD SVG 1.1//EN" "http://www.w3.org/Graphics/SVG/1.1/DTD/svg11.dtd">
<svg width="100%" height="100%" viewBox="0 0 512 512" version="1.1" xmlns="http://www.w3.org/2000/svg" xmlns:xlink="http://www.w3.org/1999/xlink" xml:space="preserve" xmlns:serif="http://www.serif.com/" style="fill-rule:evenodd;clip-rule:evenodd;stroke-linejoin:round;stroke-miterlimit:2;">
    <rect x="0" y="0" width="512" height="512" style="fill-rule:nonzero;"/>
    <path d="M26.996,47.947C38.722,92.753 83.172,177.907 94.492,290.881C87.895,367.375 71.832,389.691 71.832,443.621C71.832,471.223 83.162,481.659 95.086,481.659C106.748,481.659 118.806,469.836 118.806,440.763C118.806,384.157 101.869,366.923 95.523,289.113C101.995,205.463 155.238,243.18 155.238,291.878C155.238,179.226 257.228,206.718 271.262,257.108C266.098,292.218 256.234,303.055 256.234,332.476C256.234,349.109 264.744,361.336 272.974,361.336C281.39,361.336 289.384,349.903 289.384,334.11C289.384,306.157 280.081,293.044 274.869,258.285C290.316,220.605 390.413,223.702 390.714,256.531C387.304,282.945 377.95,288.661 377.95,307.691C377.95,317.405 384.53,324.546 390.893,324.546C397.399,324.546 403.578,317.869 403.578,308.646C403.578,290.211 394.414,282.808 390.982,255.792C405.12,206.632 477.552,235.925 482.99,182.494C431.77,228.404 125.815,209.254 26.996,47.949L26.996,47.947ZM155.846,314.167C151.17,345.969 138.211,354.447 138.211,375.891C138.211,386.533 146.803,394.237 155.847,394.237C164.691,394.237 173.835,385.997 173.835,374.787C173.835,352.449 160.371,346.03 155.847,314.167L155.846,314.167Z" style="fill:rgb(242,19,19);fill-rule:nonzero;"/>
</svg>
