<?xml version="1.0" encoding="UTF-8" standalone="no"?>
<!DOCTYPE svg PUBLIC "-//W3C//DTD SVG 1.1//EN" "http://www.w3.org/Graphics/SVG/1.1/DTD/svg11.dtd">
<svg width="100%" height="100%" viewBox="0 0 512 512" version="1.1" xmlns="http://www.w3.org/2000/svg" xmlns:xlink="http://www.w3.org/1999/xlink" xml:space="preserve" xmlns:serif="http://www.serif.com/" style="fill-rule:evenodd;clip-rule:evenodd;stroke-linejoin:round;stroke-miterlimit:2;">
    <rect x="0" y="0" width="512" height="512" style="fill-rule:nonzero;"/>
    <path d="M245.9,220.1C244.4,227.1 242.9,234 241.4,240.9C252.8,252.6 264.2,264.3 275.5,276C275.9,276.2 276.2,276.4 276.5,276.5C277.9,269.1 279.2,261.7 280.5,254.3C269,242.9 257.4,231.5 245.9,220.1ZM217.7,231C211.9,232.2 206.1,233.3 200.3,234.5C205.3,239.4 210.2,244.4 215.2,249.3C217.1,245.9 220.2,233.4 217.7,231ZM306.7,236.5C305.6,243.4 304.4,250.3 303.3,257.2C305.1,259.4 306.9,261.5 308.7,263.7L309.2,264.2C314.6,261 320.1,257.9 325.5,254.8L325.5,254.3C319.2,248.3 313,242.4 306.7,236.5Z" style="fill:rgb(104,177,168);fill-rule:nonzero;"/>
    <path d="M93.46,20.72C116.7,46.6 140,72.53 163.2,98.41C160.9,108.3 158.6,118.2 156.3,128.1C186.8,153.8 217.3,179.6 247.8,205.3C240.3,206.9 232.6,208.6 225.1,210.2C198.4,187.5 171.6,164.7 144.9,141.9C135.7,145.6 126.5,149.2 117.2,152.8C87.87,134.2 58.48,115.6 29.13,96.92C52.24,94.79 75.3,92.62 98.41,90.49C96.77,67.23 95.09,43.98 93.46,20.72ZM317.6,272.6C354.1,317.6 390.5,362.6 427,407.7L428.4,407.7L441.3,370.5C455.2,410.8 469,451 482.9,491.3C446.7,469.4 410.6,447.4 374.5,425.5C374.7,425 374.9,424.5 375,424C387.7,422.4 400.4,420.7 413.1,419C375.8,372.9 338.5,326.7 301.3,280.5L301.3,280C306.7,277.5 312.2,275 317.6,272.6Z" style="fill:rgb(139,101,23);"/>
</svg>
