<?xml version="1.0" encoding="UTF-8" standalone="no"?>
<!DOCTYPE svg PUBLIC "-//W3C//DTD SVG 1.1//EN" "http://www.w3.org/Graphics/SVG/1.1/DTD/svg11.dtd">
<svg width="100%" height="100%" viewBox="0 0 512 512" version="1.1" xmlns="http://www.w3.org/2000/svg" xmlns:xlink="http://www.w3.org/1999/xlink" xml:space="preserve" xmlns:serif="http://www.serif.com/" style="fill-rule:evenodd;clip-rule:evenodd;stroke-linejoin:round;stroke-miterlimit:2;">
    <rect x="0" y="0" width="512" height="512" style="fill-rule:nonzero;"/>
    <g>
        <path d="M147.1,60.55C76.239,99.972 32.107,174.911 32,256C32,378.883 133.117,480 256,480C355.193,479.948 443.091,414.015 470.9,318.8C431.703,360.312 377.093,383.908 320,384C205.895,384 112,290.105 112,176C112.035,134.899 124.252,94.715 147.1,60.55Z" style="fill:rgb(222,134,192);fill-rule:nonzero;"/>
        <path d="M294.8,26.57L301,37.12L290.9,102.5L328.2,80.36L336,93.53L277.1,128.6L270.8,118L281,52.59L245.8,73.54L238,60.37L294.8,26.57ZM391.6,112.6L462.7,142.3L457.2,155.5L388.9,191.4L435.6,210.9L428.7,227.4L355,196.6L360.5,183.4L428.8,147.5L384.7,129.1L391.6,112.6ZM276.6,176.6L283.1,194.8L247.7,292.7L311.9,269.7L320,292.4L218.6,328.6L212.1,310.5L247.5,212.6L186.9,234.3L178.8,211.6L276.6,176.6Z" style="fill:rgb(255,0,159);"/>
    </g>
</svg>
