<?xml version="1.0" encoding="UTF-8" standalone="no"?>
<!DOCTYPE svg PUBLIC "-//W3C//DTD SVG 1.1//EN" "http://www.w3.org/Graphics/SVG/1.1/DTD/svg11.dtd">
<svg width="100%" height="100%" viewBox="0 0 512 512" version="1.1" xmlns="http://www.w3.org/2000/svg" xmlns:xlink="http://www.w3.org/1999/xlink" xml:space="preserve" xmlns:serif="http://www.serif.com/" style="fill-rule:evenodd;clip-rule:evenodd;stroke-linejoin:round;stroke-miterlimit:2;">
    <rect x="0" y="0" width="512" height="512" style="fill-rule:nonzero;"/>
    <path d="M255.094,18.97C192.626,18.97 136.629,46.947 98.938,91.03L17.468,49.97L17.468,70.875L125.812,125.563C124.332,130.547 123.094,135.823 123.094,141.813C123.094,181.586 155.53,214.513 199.531,229.5L209.595,232.938L211.689,222.5C215.594,203.015 223.341,191.45 225.751,174.28C227.877,159.132 224.521,141.708 210.813,115.47C237.329,109.28 258.897,105.818 274.688,106.25C289.84,106.66 299.208,110.12 305.095,116.28C309.663,121.063 312.835,128.443 314.065,139.562C304.587,139.047 296.417,140.216 289.563,143.437C280.059,147.904 273.806,156.879 272.438,166.594C269.703,186.024 281.363,207.53 301.72,227.344L305.844,231.344L311.281,229.5C355.086,214.442 387.095,181.424 387.095,141.812C387.095,135.949 386.247,130.406 384.875,125.032L492.75,70.843L492.75,49.906L411.125,90.906C373.435,46.903 317.493,18.969 255.095,18.969L255.094,18.97ZM255.094,37.656C310.284,37.656 359.807,61.546 393.969,99.531L372.124,110.501C342.441,80.051 300.974,61.126 255.094,61.126C209.118,61.126 167.591,80.129 137.904,110.689L116.03,99.689C150.2,61.599 199.817,37.657 255.094,37.657L255.094,37.656ZM492.75,92.626L408.406,134.344L492.75,123.75L492.75,92.625L492.75,92.626ZM17.47,93.031L17.47,123.845L100.938,134.345L17.468,93.032L17.47,93.031ZM492.75,149.281L410.594,157.721L492.75,175.657L492.75,149.28L492.75,149.281ZM17.47,149.375L17.47,175.47L98.75,157.72L17.47,149.375ZM109.188,182.876L17.468,200.156L17.468,230.096L109.188,182.876ZM400.156,182.876L492.75,230.564L492.75,200.344L400.156,182.876ZM121.28,205.75L23.062,259.28C21.194,258.31 19.335,257.32 17.469,256.313L17.469,277.438C32.721,285.252 47.999,291.878 63.062,297.25C81.72,346.316 118.636,386.45 165.499,409.25L111.124,492.594L133.437,492.594L229.062,346.064L232.874,340.187L228.311,334.875C220.101,325.291 213.181,310.842 209.311,293.905L206.843,283.063L196.593,287.375C189.448,290.367 181.205,292.469 172.093,293.688L160.187,239.094L143.717,294.719C135.163,294.316 126.165,293.331 116.843,291.749L138.905,221.124L86.311,284.749C77.235,282.141 68.001,278.994 58.655,275.374L121.28,205.749L121.28,205.75ZM388.063,205.75L450.938,275.625C441.554,279.235 432.261,282.323 423.156,284.905L370.436,221.125L392.5,291.813C383.144,293.353 374.133,294.313 365.562,294.656L349.156,239.094L337.312,293.374C328.739,292.151 320.937,290.154 314.125,287.344L303.969,283.156L301.469,293.876C297.549,310.716 290.291,325.186 281.905,334.844L277.28,340.156L281.156,346.062L376.75,492.594L399.063,492.594L344.656,409.219C391.552,386.414 428.531,346.319 447.186,297.219C462.231,291.861 477.503,285.246 492.75,277.436L492.75,256.28C490.728,257.37 488.71,258.452 486.687,259.5L388.062,205.75L388.063,205.75ZM423.75,304.594C405.195,343.606 373.527,375.139 334.406,393.5L321.531,373.812C351.351,360.522 376.467,338.552 393.657,311.125C403.457,309.575 413.513,307.395 423.751,304.595L423.75,304.594ZM86.406,304.624C96.679,307.449 106.792,309.652 116.626,311.219C133.802,338.596 158.856,360.533 188.626,373.811L175.781,393.531C136.654,375.171 104.967,343.641 86.407,304.624L86.406,304.624ZM244.344,389.531L215.78,492.595L244.344,492.595L244.344,389.53L244.344,389.531ZM265.844,389.53L265.844,492.595L294.406,492.595L265.844,389.53ZM223.031,393.439L158.721,492.595L195.281,492.595L223.031,393.439ZM287.157,393.439L314.907,492.595L351.47,492.595L287.156,393.439L287.157,393.439Z" style="fill:rgb(221,220,102);fill-rule:nonzero;"/>
</svg>
