<?xml version="1.0" encoding="UTF-8" standalone="no"?>
<!DOCTYPE svg PUBLIC "-//W3C//DTD SVG 1.1//EN" "http://www.w3.org/Graphics/SVG/1.1/DTD/svg11.dtd">
<svg width="100%" height="100%" viewBox="0 0 512 512" version="1.1" xmlns="http://www.w3.org/2000/svg" xmlns:xlink="http://www.w3.org/1999/xlink" xml:space="preserve" xmlns:serif="http://www.serif.com/" style="fill-rule:evenodd;clip-rule:evenodd;stroke-linejoin:round;stroke-miterlimit:2;">
    <rect x="0" y="0" width="512" height="512" style="fill-rule:nonzero;"/>
    <path d="M370.06,77.686C359.416,77.771 348.64,79.622 338.244,83.546C323.614,89.076 321.141,100.82 325.738,107.441C339.848,136.976 344.19,169.805 329.518,197.541C312.35,171.618 285.628,155.126 256,155.126C226.374,155.126 199.653,171.622 182.484,197.546C167.812,169.812 172.149,136.986 186.256,107.456C190.862,100.836 188.394,89.086 173.756,83.562C132.176,67.872 84.506,85.318 63.596,116.382C94.256,107.682 130.586,88.467 166.646,109.227C167.321,109.617 167.988,109.962 168.643,110.272C155.313,143.375 153.059,181.157 174.066,212.662C170.523,220.336 167.73,228.576 165.803,237.25C138.959,220.155 126.451,188.757 124.283,155.54L124.113,155.55C124.095,146.924 110.587,137.198 93.653,143.53C52.03,159.1 27.61,203.606 32.32,240.76C49.323,214.573 70.978,175.275 110.23,166.072C114.598,201.269 130.626,235.409 163.316,253.158C162.943,257.176 162.744,261.258 162.744,265.404C162.744,268.387 162.841,271.254 163.027,274.018C137.972,268.283 116.852,250.373 101.221,227.608C101.183,227.548 101.137,227.488 101.097,227.428C100.744,226.912 100.377,226.408 100.03,225.888L99.95,225.938C94.177,219.458 81.004,218.036 71.02,230.154C42.76,264.444 45.94,303.82 57.16,337.27C58.81,305.703 65.258,272.9 95.885,245.6C113.59,267.713 137.295,285.093 165.315,289.734C167.651,299.718 171.515,307.936 176.637,314.754C155.567,317.118 133.327,311.651 112.787,301.506L112.757,301.57C105.461,298.107 95.267,302.398 93.355,317.695C87.88,361.525 107.545,404.951 133.345,419.425C120.011,395.471 109.54,360.52 119.545,321.115C119.568,321.025 119.58,320.938 119.602,320.848C142.1,329.533 166.622,333.062 189.802,327.638C194.642,331.168 200.115,334.098 206.09,336.496C196.802,338.962 187.215,348.754 186.43,362.786C184.615,395.696 214.615,408.82 237.535,402.49C219.19,393.94 210.445,364.69 223.84,350.35C223.492,346.424 222.414,343.365 220.834,341.088C231.57,343.6 243.418,344.8 256,344.8C269.92,344.8 282.943,343.337 294.55,340.244C292.623,342.587 291.3,345.918 290.904,350.35C304.299,364.69 295.556,393.94 277.211,402.49C300.131,408.82 330.131,395.695 328.315,362.785C327.488,347.841 316.669,337.7 306.858,336.105C312.468,333.778 317.628,330.975 322.216,327.631C345.389,333.045 369.904,329.513 392.396,320.829C392.419,320.926 392.431,321.019 392.456,321.116C402.446,360.521 391.99,395.456 378.656,419.426C404.456,404.966 424.121,361.541 418.646,317.696C416.734,302.396 406.536,298.106 399.241,301.573L399.201,301.491C378.668,311.631 356.439,317.101 335.376,314.743C340.49,307.929 344.352,299.718 346.686,289.741C374.706,285.104 398.412,267.715 416.116,245.601C446.743,272.901 453.19,305.705 454.841,337.257C466.061,303.807 469.241,264.447 440.981,230.142C430.997,218.032 417.824,219.459 412.051,225.942L411.971,225.889C411.624,226.409 411.258,226.914 410.905,227.429C410.865,227.491 410.819,227.549 410.78,227.611C395.147,250.376 374.026,268.293 348.97,274.024C349.158,271.259 349.256,268.39 349.256,265.404C349.256,261.258 349.056,257.171 348.684,253.151C381.367,235.401 397.406,201.269 401.764,166.061C441.01,175.281 462.664,214.574 479.664,240.745C484.374,203.59 459.954,159.087 418.33,143.517C401.402,137.191 387.896,146.927 387.883,155.552L387.701,155.542C385.548,188.762 373.035,220.144 346.198,237.24C344.272,228.568 341.478,220.33 337.938,212.658C358.944,181.15 356.688,143.365 343.355,110.26C344.011,109.95 344.679,109.604 345.355,109.213C381.415,88.453 417.76,107.683 448.405,116.368C432.723,93.068 401.989,77.432 370.06,77.688L370.06,77.686ZM210.58,244.42C230.035,244.42 245.8,260.186 245.8,279.64C245.8,299.08 230.035,314.86 210.58,314.86C191.14,314.86 175.36,299.096 175.36,279.64C175.36,260.2 191.125,244.42 210.58,244.42ZM301.42,244.42C320.86,244.42 336.64,260.186 336.64,279.64C336.64,299.08 320.875,314.86 301.42,314.86C281.98,314.86 266.2,299.096 266.2,279.64C266.2,260.2 281.965,244.42 301.42,244.42ZM204.414,253.39C194.694,253.39 186.804,261.28 186.804,271C186.804,280.72 194.694,288.61 204.414,288.61C214.134,288.61 222.024,280.72 222.024,271C222.024,261.28 214.134,253.39 204.414,253.39ZM295.256,253.39C285.536,253.39 277.646,261.28 277.646,271C277.646,280.72 285.536,288.61 295.256,288.61C304.976,288.61 312.866,280.72 312.866,271C312.866,261.28 304.976,253.39 295.256,253.39ZM226.074,288.82C221.214,288.82 217.27,292.765 217.27,297.625C217.27,302.485 221.214,306.43 226.074,306.43C230.934,306.43 234.881,302.485 234.881,297.625C234.881,292.765 230.935,288.82 226.075,288.82L226.074,288.82ZM316.914,288.82C312.054,288.82 308.109,292.765 308.109,297.625C308.109,302.485 312.053,306.43 316.913,306.43C321.773,306.43 325.72,302.485 325.72,297.625C325.72,292.765 321.774,288.82 316.914,288.82Z" style="fill:rgb(70,162,88);fill-rule:nonzero;"/>
</svg>
