<?xml version="1.0" encoding="UTF-8" standalone="no"?>
<!DOCTYPE svg PUBLIC "-//W3C//DTD SVG 1.1//EN" "http://www.w3.org/Graphics/SVG/1.1/DTD/svg11.dtd">
<svg width="100%" height="100%" viewBox="0 0 512 512" version="1.1" xmlns="http://www.w3.org/2000/svg" xmlns:xlink="http://www.w3.org/1999/xlink" xml:space="preserve" xmlns:serif="http://www.serif.com/" style="fill-rule:evenodd;clip-rule:evenodd;stroke-linejoin:round;stroke-miterlimit:2;">
    <rect x="0" y="0" width="512" height="512" style="fill-rule:nonzero;"/>
    <path d="M255.063,15.47C123.555,15.47 16.406,122.59 16.406,254.094C16.406,385.598 123.558,491.75 255.062,491.75C386.567,491.75 493.687,385.6 493.687,254.094C493.687,122.59 386.57,15.469 255.062,15.469L255.063,15.47ZM255.063,33.813C376.47,33.813 474.343,132.69 474.343,254.093C474.343,375.501 376.466,473.406 255.063,473.406C133.659,473.406 35.75,375.496 35.75,254.094C35.75,132.69 133.655,33.814 255.063,33.814L255.063,33.813ZM255.031,53.093C144.045,53.093 54.281,142.856 54.281,253.843C54.281,364.831 144.045,454.593 255.031,454.593C366.021,454.593 455.781,364.831 455.781,253.843C455.781,142.856 366.021,53.093 255.031,53.093ZM254.188,69.625L266.501,132.345L317.501,111.25L271.407,157.344L277.627,189.031L265.127,192.376L273,221.72L302.313,213.844L299.063,201.75L330.406,191.03L347.219,128.22L354.436,182.78L414.749,162.156L366.436,204.312L408.811,237.312L347.186,221.125L322.936,242.281L312.906,232.251L291.436,253.751L312.906,275.221L322.124,266.001L346.812,287.564L409.5,270.78L365.937,304.25L414.157,346.313L353.187,325.469L345.781,378.655L328.971,317.155L298.751,306.843L302.314,293.53L273,285.657L265.125,315L277.625,318.344L271.405,349.969L317.5,396.029L266.5,374.969L254.187,437.719L241.812,374.686L192.219,394.811L236.905,349.718L230.78,318.528L243.937,314.998L236.062,285.654L206.719,293.529L210.343,307.062L181.063,317.092L164.28,378.5L156.906,325.344L96,346.188L144.188,304.125L100.594,270.625L163.344,287.438L187.374,266.468L196.124,275.218L217.594,253.75L196.124,232.25L186.531,241.844L162.971,221.281L101.251,237.501L143.721,204.471L95.376,162.281L155.656,182.907L162.846,128.377L179.656,191.127L210.032,201.501L206.722,213.845L236.065,221.72L243.94,192.375L230.752,188.845L236.908,157.595L192.221,112.469L241.814,132.593L254.189,69.623L254.188,69.625Z" style="fill:url(#_Radial1);fill-rule:nonzero;"/>
    <defs>
        <radialGradient id="_Radial1" cx="0" cy="0" r="1" gradientUnits="userSpaceOnUse" gradientTransform="matrix(477.281,0,0,476.281,16.406,253.609)"><stop offset="0" style="stop-color:rgb(5,0,255);stop-opacity:1"/><stop offset="1" style="stop-color:rgb(17,211,236);stop-opacity:0.99"/></radialGradient>
    </defs>
</svg>
