<?xml version="1.0" encoding="UTF-8" standalone="no"?>
<!DOCTYPE svg PUBLIC "-//W3C//DTD SVG 1.1//EN" "http://www.w3.org/Graphics/SVG/1.1/DTD/svg11.dtd">
<svg width="100%" height="100%" viewBox="0 0 512 512" version="1.1" xmlns="http://www.w3.org/2000/svg" xmlns:xlink="http://www.w3.org/1999/xlink" xml:space="preserve" xmlns:serif="http://www.serif.com/" style="fill-rule:evenodd;clip-rule:evenodd;stroke-linejoin:round;stroke-miterlimit:2;">
    <rect x="0" y="0" width="512" height="512" style="fill-rule:nonzero;"/>
    <path d="M256,28.2C357.2,28.2 439,110 439,211.2C439,312.4 357.2,394.2 256,394.2C154.8,394.2 73,312.4 73,211.2C73,110 154.8,28.2 256,28.2ZM256,74.2C180.4,74.2 119,135.6 119,211.2C119,286.8 180.4,348.2 256,348.2C331.6,348.2 393,286.8 393,211.2C393,135.6 331.6,74.2 256,74.2Z" style="fill:rgb(200,200,200);fill-rule:nonzero;"/>
    <path d="M256,92.2C267.3,92.2 278.3,93.8 288.7,96.7L255,196.4L235.9,107.9L213.7,176.8L199.4,133.3L177.8,220.8L152,153.2C172.3,116.8 211.3,92.2 256,92.2ZM303.1,101.9C312.2,105.3 334.9,116.5 341.1,128L322.4,173.1L303.1,101.9ZM428.7,313.9L410.1,397.6L400.4,367.3L381.8,430.3L362.9,381.4C389.8,364.4 412.4,341.3 428.7,313.9ZM91.23,326.2C98.85,337.1 107.5,347.2 117.1,356.4L98.09,416.5L91.23,326.2ZM128.3,366.3C148.4,382.9 171.7,395.6 197.2,403.4L170.2,483.8L154.5,413.9L137.9,454.7L128.3,366.3ZM338.3,394.6L312.8,470.6L287.9,419.7L267.9,453.7L251.3,422.8L232.1,480.2L215.3,408.1C228.5,410.8 242.1,412.2 256,412.2C285.3,412.2 313.2,405.9 338.3,394.6Z" style="fill:rgb(0,145,255);"/>
</svg>
