<?xml version="1.0" encoding="UTF-8" standalone="no"?>
<!DOCTYPE svg PUBLIC "-//W3C//DTD SVG 1.1//EN" "http://www.w3.org/Graphics/SVG/1.1/DTD/svg11.dtd">
<svg width="100%" height="100%" viewBox="0 0 512 512" version="1.1" xmlns="http://www.w3.org/2000/svg" xmlns:xlink="http://www.w3.org/1999/xlink" xml:space="preserve" xmlns:serif="http://www.serif.com/" style="fill-rule:evenodd;clip-rule:evenodd;stroke-linejoin:round;stroke-miterlimit:2;">
    <rect x="0" y="0" width="512" height="512" style="fill-rule:nonzero;"/>
    <path d="M377.305,19.355L372.095,39.875L356.93,25.104L344.37,37.998L359.535,52.77L339.16,58.518L344.049,75.842L364.424,70.094L359.214,90.614L376.66,95.043L381.871,74.523L397.037,89.295L409.596,76.4L394.428,61.627L414.805,55.879L409.918,38.557L389.543,44.305L394.752,23.785L377.305,19.355ZM296.105,100.6L265.387,129.99L288.781,155.094C284.153,158.504 280.164,162.83 277.023,167.844L252.891,141.945L229.601,164.23L236.805,202.445L269.455,195.255C269.548,201.466 270.739,207.499 272.791,212.891L240.129,220.082L247.332,258.297L276.832,268.957L289.678,234.891C294.368,238.198 299.596,240.516 305.084,241.723L292.658,274.676L331.568,288.734L362.288,259.342L338.893,234.238C343.521,230.828 347.51,226.503 350.65,221.49L374.783,247.387L398.074,225.104L390.871,186.889L358.219,194.079C358.125,187.868 356.936,181.835 354.885,176.443L387.545,169.25L380.342,131.035L350.842,120.375L337.996,154.443C333.306,151.136 328.078,148.817 322.59,147.609L335.016,114.659L296.105,100.6ZM443.643,150.46L426.83,156.89L434.393,176.664L413.484,173.326L410.646,191.102L431.553,194.439L418.209,210.877L432.184,222.221L445.527,205.783L453.09,225.559L469.902,219.129L462.342,199.355L483.246,202.693L486.084,184.918L465.18,181.58L478.521,165.145L464.549,153.799L451.205,170.234L443.643,150.46ZM307.928,163.31L336.006,173.457L341.916,204.813L319.748,226.021L291.67,215.877L285.758,184.521L307.928,163.31Z" style="fill:rgb(0,129,255);fill-rule:nonzero;"/>
    <path d="M205.387,75.766C206.865,75.774 208.339,75.938 209.783,76.254C243.037,85.476 208.768,141.534 202.627,175.078C191.243,237.26 182.633,310.074 238.488,337.908C274.614,355.911 301.255,326.775 356.26,299.613C388.184,283.849 431.238,324.885 410.096,332.395C363.366,348.455 306.273,390.675 280.982,431.621C272.379,445.548 267.039,460.4 243.959,465.408L223.973,494L18,494L46.094,462.223C66.386,440.029 43.852,362.518 35.139,309.457C21.399,273.778 32.581,130.883 48.414,130.416C65.729,129.905 70.009,140 67.516,155.582C62.552,208.395 54.779,253.002 69.209,306.352L86.11,300.156C80.28,279.621 78.174,248.412 79.57,222.604C82.04,178.17 85.244,79.328 127.326,87.707C146.305,91.486 142.332,114.297 131.785,161.889C121.239,209.48 114.021,248.313 129.484,304.23L146.832,299.432C133.131,249.888 136.4,215.563 147.66,166.373C155.46,132.298 177.32,75.65 205.387,75.766Z" style="fill:rgb(165,165,165);"/>
</svg>
