<?xml version="1.0" encoding="UTF-8" standalone="no"?>
<!DOCTYPE svg PUBLIC "-//W3C//DTD SVG 1.1//EN" "http://www.w3.org/Graphics/SVG/1.1/DTD/svg11.dtd">
<svg width="100%" height="100%" viewBox="0 0 512 512" version="1.1" xmlns="http://www.w3.org/2000/svg" xmlns:xlink="http://www.w3.org/1999/xlink" xml:space="preserve" xmlns:serif="http://www.serif.com/" style="fill-rule:evenodd;clip-rule:evenodd;stroke-linejoin:round;stroke-miterlimit:2;">
    <rect x="0" y="0" width="512" height="512" style="fill-rule:nonzero;"/>
    <path d="M356.262,19.27C349.082,45.942 340.846,72.707 331.146,99.863C346.551,72.523 361.844,45.349 377.869,19.27L356.26,19.27L356.262,19.27ZM495.84,179.29C459.763,197.27 420.997,213.326 380.205,227.18C419.113,221.01 458.087,215.075 495.84,211.41L495.84,179.29ZM20.45,235.078L20.45,273.625C52.32,269.041 84.91,267.932 117.982,269.535C84.255,259.345 50.575,249.185 20.452,235.078L20.45,235.078ZM134.334,383.695C96.411,414.415 58.727,445.177 20.449,470.715L20.449,494.658L50.233,494.658C74.253,456.898 102.598,419.893 134.333,383.695L134.334,383.695ZM310.707,418.153C322.053,443.626 333.081,469.333 343.412,494.661L366.772,494.661C347.377,470.761 328.667,445.021 310.707,418.153Z" style="fill:rgb(255,123,0);fill-rule:nonzero;"/>
    <path d="M328.548,19.115C321.351,74.331 306.781,143.504 315.753,151.929C322.475,158.242 349.872,107.225 371.007,74.755C347.143,134.932 324.193,180.193 335.769,200.815C344.918,217.117 368.129,205.62 399.506,188.423C369.469,216.161 353.333,239.151 358.616,256.461C369.1,290.807 418.2,304.266 505.946,334.994C460.892,329.148 398.873,317.429 388.456,327.816C381.465,334.788 425.127,360.706 450.109,378.668C412.365,365.489 364.785,345.666 355.885,352.942C349.46,358.195 379.247,386.375 395.435,406.185C364.467,384.9 336.11,355.148 306.445,354.138C262.826,352.653 237.839,405.071 216.292,485.153C221.957,447.135 239.01,387.593 226.762,386.443C209.391,384.811 167.418,446.743 136.028,492.933C157.951,426.506 177.863,388.664 164.528,364.906C152.487,343.456 107.309,356.499 87.751,367.896C110.794,346.148 159.639,302.391 159.639,283.968C159.639,257.153 111.253,226.979 22.029,201.581C75.665,210.038 144.821,225.554 152.895,214.744C159.204,206.294 107.19,176.941 75.537,156.114C131.257,180.011 166.565,196.161 182.352,186.951C192.782,180.868 186.977,156.305 171.507,125.603C198.679,156.668 223.041,178.535 241.667,175.893C280.964,170.32 297.938,118.335 328.548,19.115ZM289.574,222.158C280.224,222.158 272.644,229.74 272.644,239.09C272.644,248.44 280.224,256.02 289.574,256.02C298.924,256.02 306.504,248.44 306.504,239.09C306.504,229.738 298.924,222.158 289.574,222.158ZM237.514,223.756C222.004,223.756 209.435,236.326 209.435,251.836C209.435,261.56 214.378,270.128 221.888,275.168C218.279,279.01 216.051,284.165 216.051,289.852C216.051,301.711 225.665,311.326 237.525,311.326C249.385,311.326 258.998,301.712 258.998,289.852C258.998,284.16 256.77,279.001 253.156,275.158C260.658,270.116 265.596,261.554 265.596,251.836C265.596,236.326 253.022,223.756 237.514,223.756ZM286.27,263.455C276.918,263.455 269.338,271.037 269.338,280.387C269.338,289.737 276.92,297.317 286.27,297.317C295.62,297.317 303.2,289.737 303.2,280.387C303.2,271.035 295.62,263.455 286.27,263.455Z" style="fill:rgb(226,47,47);"/>
    <path d="M461.385,19.27L495.842,19.27L495.842,63.655C448.578,91.682 402.192,129.345 355.678,167.025C397.655,119.143 433.49,69.988 461.385,19.27ZM128.495,295.051L128.495,295.053C89.877,318.492 51.445,342.116 20.451,370.756L20.451,319.363C56.254,315.343 92.342,307.041 128.495,295.051ZM336.404,394.791L336.406,394.791C380.603,433.541 425.894,467.583 472.48,494.661L412.912,494.661C389.63,461.205 363.211,427.884 336.404,394.791Z" style="fill:rgb(193,87,87);"/>
    <path d="M20.45,19.27L67.758,19.27C94.443,61.626 128.015,103.731 161.783,145.416C115.703,105.02 68.97,70.067 20.45,42.63L20.45,19.27ZM196.24,19.27L232.451,19.27C234.817,57.873 239.708,97.45 244.715,137.24C230.743,96.23 214.705,56.626 196.24,19.27ZM283.842,404.721L283.844,404.721C285.866,435.491 289.26,465.578 293.77,494.661L273.33,494.661C277.452,465.221 280.667,434.981 283.842,404.721Z" style="fill:rgb(152,110,70);"/>
</svg>
