<?xml version="1.0" encoding="UTF-8" standalone="no"?>
<!DOCTYPE svg PUBLIC "-//W3C//DTD SVG 1.1//EN" "http://www.w3.org/Graphics/SVG/1.1/DTD/svg11.dtd">
<svg width="100%" height="100%" viewBox="0 0 512 512" version="1.1" xmlns="http://www.w3.org/2000/svg" xmlns:xlink="http://www.w3.org/1999/xlink" xml:space="preserve" xmlns:serif="http://www.serif.com/" style="fill-rule:evenodd;clip-rule:evenodd;stroke-linejoin:round;stroke-miterlimit:2;">
    <rect x="0" y="0" width="512" height="512" style="fill-rule:nonzero;"/>
    <path d="M159.361,28.344C108.009,28.974 79.821,84.647 80.117,115.301C81.621,162.647 114.298,194.657 154.937,230.064C190.288,260.863 231.028,293.347 255.844,340.051C255.894,339.959 255.949,339.871 256,339.779C256.051,339.871 256.105,339.959 256.156,340.051C280.972,293.347 321.712,260.863 357.062,230.064C397.702,194.657 430.379,162.647 431.882,115.301C432.179,84.647 403.991,28.974 352.639,28.344C314.636,27.878 270,54 256,96C242,54 197.364,27.878 159.361,28.344Z" style="fill:rgb(255,0,119);fill-rule:nonzero;"/>
    <path d="M60.17,198.06C67.95,198.18 75.569,207.149 76.723,220.71C80.597,266.247 70.839,327.752 124.41,341.02C83.778,239.551 113.351,243.343 119.148,247.078C146.906,264.964 150.889,309.302 168.004,333.777C184.487,348.494 203.503,355.655 209.547,390.109C214.744,419.736 217.185,463.425 188.094,479.293C160.983,492.75 123.964,489.814 127.56,473.84C131.413,456.73 133.68,452.022 128,432C80.054,409.257 73.335,381.112 58.352,344.493C37.919,294.558 42.197,282.095 42.275,237.942C42.327,209.153 51.352,197.923 60.17,198.06ZM451.83,198.06C460.648,197.923 469.673,209.153 469.725,237.943C469.803,282.095 474.081,294.558 453.648,344.493C438.665,381.111 431.946,409.256 384,431.999C378.32,452.021 380.587,456.729 384.439,473.839C388.036,489.813 351.017,492.748 323.906,479.292C294.815,463.424 297.256,419.735 302.453,390.108C308.496,355.654 327.514,348.493 343.996,333.777C361.112,309.301 365.094,264.963 392.852,247.077C398.649,243.342 428.223,239.549 387.59,341.019C441.161,327.751 431.403,266.246 435.277,220.71C436.431,207.148 444.05,198.18 451.83,198.06Z" style="fill:rgb(193,193,193);"/>
</svg>
