<?xml version="1.0" encoding="UTF-8" standalone="no"?>
<!DOCTYPE svg PUBLIC "-//W3C//DTD SVG 1.1//EN" "http://www.w3.org/Graphics/SVG/1.1/DTD/svg11.dtd">
<svg width="100%" height="100%" viewBox="0 0 512 512" version="1.1" xmlns="http://www.w3.org/2000/svg" xmlns:xlink="http://www.w3.org/1999/xlink" xml:space="preserve" xmlns:serif="http://www.serif.com/" style="fill-rule:evenodd;clip-rule:evenodd;stroke-linejoin:round;stroke-miterlimit:2;">
    <rect x="0" y="0" width="512" height="512" style="fill-rule:nonzero;"/>
    <path d="M372.48,31.215C294.83,31.215 256,96.945 256,96.945C256,96.945 217.17,31.225 139.52,31.225C102.38,31.225 31.75,64.945 31.75,156.355C31.75,317.595 256,480.785 256,480.785C256,480.785 480.25,317.595 480.25,156.355C480.25,64.935 409.62,31.225 372.48,31.215ZM160,129L352,129L352,147L160,147L160,129ZM183,160L201,160L201,336L183,336L183,160ZM216,160L296,160C296,160 288,240 256,240C224,240 216,160 216,160ZM311,160L329,160L329,336L311,336L311,160ZM256,256C288,256 296,336 296,336L216,336C216,336 224,256 256,256ZM160,349L352,349L352,367L160,367L160,349Z" style="fill:rgb(255,176,85);fill-rule:nonzero;"/>
</svg>
