<?xml version="1.0" encoding="UTF-8" standalone="no"?>
<!DOCTYPE svg PUBLIC "-//W3C//DTD SVG 1.1//EN" "http://www.w3.org/Graphics/SVG/1.1/DTD/svg11.dtd">
<svg width="100%" height="100%" viewBox="0 0 512 512" version="1.1" xmlns="http://www.w3.org/2000/svg" xmlns:xlink="http://www.w3.org/1999/xlink" xml:space="preserve" xmlns:serif="http://www.serif.com/" style="fill-rule:evenodd;clip-rule:evenodd;stroke-linejoin:round;stroke-miterlimit:2;">
    <rect x="0" y="0" width="512" height="512" style="fill-rule:nonzero;"/>
    <path d="M54.184,19.512L170.204,164.35C158.398,174.09 148.804,186.416 142.281,200.445L20.493,142.73L20.493,205.723L134.476,224.895C133.356,230.951 132.769,237.19 132.769,243.565C132.769,247.067 132.946,250.53 133.289,253.943L60.913,281.643L140.38,282.33C144.545,292.503 150.297,301.864 157.328,310.105L20.492,441.7L20.492,494.184L67.828,494.184L173.698,325.534C185.342,334.329 198.91,340.699 213.643,343.9L189.943,494.184L294.22,494.184L253.25,344.69C261.918,343.166 270.214,340.55 277.994,336.99L315.256,379.258L293.93,327.893C300.815,323.101 307.09,317.491 312.61,311.201L495.143,457.811L495.143,348.556L329.43,284.865C333.72,275.143 336.548,264.638 337.625,253.627L422.325,227.697L335.545,220.689C333.285,210.799 329.59,201.447 324.693,192.864L495.145,105.466L495.145,23.924L311.918,175.15C306.588,169.2 300.576,163.87 294.006,159.29L309.539,120.908L279.571,150.875C269.963,146.28 259.537,143.135 248.575,141.727L269.89,19.512L229.77,19.512L231.04,140.99C212.023,141.798 194.324,147.806 179.334,157.63L94.102,19.51L54.184,19.51L54.184,19.512Z" style="fill:rgb(255,245,90);fill-rule:nonzero;"/>
</svg>
