<?xml version="1.0" encoding="UTF-8" standalone="no"?>
<!DOCTYPE svg PUBLIC "-//W3C//DTD SVG 1.1//EN" "http://www.w3.org/Graphics/SVG/1.1/DTD/svg11.dtd">
<svg width="100%" height="100%" viewBox="0 0 512 512" version="1.1" xmlns="http://www.w3.org/2000/svg" xmlns:xlink="http://www.w3.org/1999/xlink" xml:space="preserve" xmlns:serif="http://www.serif.com/" style="fill-rule:evenodd;clip-rule:evenodd;stroke-linejoin:round;stroke-miterlimit:2;">
    <rect x="0" y="0" width="512" height="512" style="fill-rule:nonzero;"/>
    <path d="M227.438,18.594L207.313,87.97C155.608,102.97 114.047,139.846 92.125,187.03L18.719,196.844L76.719,239.938C74.885,253.783 74.624,268.041 76.093,282.531C77.985,301.203 82.643,318.934 89.593,335.376L56.03,398.596L118.72,382.626C128.76,394.431 140.25,404.928 152.875,413.846L156.938,485.846L201.594,438.346C205.117,439.5 208.674,440.558 212.281,441.501L212.281,492.595L230.971,492.595L230.971,445.345C240.419,446.781 250.076,447.455 259.876,447.375L259.876,492.595L278.564,492.595L278.564,446.28C295.299,444.444 311.274,440.402 326.22,434.47L374.53,464.97L376.344,467.156L376.344,492.594L395.031,492.594L395.031,460.5L392.939,457.937L380.345,442.5L371.875,408.156C391.488,392.692 407.765,373.379 419.688,351.469L487.126,354.124L437.813,302.718C441.771,284.408 442.959,265.188 440.97,245.56C439.154,227.66 434.822,210.613 428.344,194.748L429.094,195.811L474.188,136.748L401.094,148.778C367.424,107.258 316.224,81.151 260.124,80.718L227.437,18.592L227.438,18.594ZM258.781,99.374C277.601,99.374 295.801,102.597 312.814,108.531L317.439,149.126L351.626,128.156C390.203,154.586 417.283,197.189 422.376,247.438C422.556,249.213 422.722,250.984 422.846,252.751L374.563,268.876L419.751,297.906C410.935,340.049 385.875,376.802 350.781,400.532L350.781,235.75C351.798,229.545 351.991,223.198 351.189,216.72C343.986,158.58 270.712,157.203 250.345,209.97C213.967,164.87 149.575,189.988 156.689,247.156C160.263,275.874 185.783,296.834 212.282,314.376L212.282,422.156C157.405,406.133 113.557,362.12 99,305L128.72,280.03L93.906,258.625C94.889,227.215 104.794,197.708 121.376,172.812L162.686,176.594L146.876,142.969C172.178,119.619 204.992,103.963 241.936,100.219C247.599,99.644 253.212,99.374 258.781,99.374ZM332.095,278.312L332.095,411.437C315.728,419.595 297.718,425.159 278.565,427.5L278.563,348.437C288.799,328.334 314.116,304.927 332.095,278.312ZM230.97,326.31C241.847,333.128 251.996,339.526 259.875,345.81L259.875,428.717C250.055,428.81 240.382,428.019 230.969,426.434L230.969,326.313L230.97,326.31Z" style="fill:url(#_Linear1);fill-rule:nonzero;"/>
    <defs>
        <linearGradient id="_Linear1" x1="0" y1="0" x2="1" y2="0" gradientUnits="userSpaceOnUse" gradientTransform="matrix(468.407,0,0,474.003,18.719,255.593)"><stop offset="0" style="stop-color:rgb(7,224,62);stop-opacity:1"/><stop offset="0.53" style="stop-color:rgb(23,188,95);stop-opacity:1"/><stop offset="1" style="stop-color:rgb(80,65,208);stop-opacity:1"/></linearGradient>
    </defs>
</svg>
