<?xml version="1.0" encoding="UTF-8" standalone="no"?>
<!DOCTYPE svg PUBLIC "-//W3C//DTD SVG 1.1//EN" "http://www.w3.org/Graphics/SVG/1.1/DTD/svg11.dtd">
<svg width="100%" height="100%" viewBox="0 0 512 512" version="1.1" xmlns="http://www.w3.org/2000/svg" xmlns:xlink="http://www.w3.org/1999/xlink" xml:space="preserve" xmlns:serif="http://www.serif.com/" style="fill-rule:evenodd;clip-rule:evenodd;stroke-linejoin:round;stroke-miterlimit:2;">
    <rect x="0" y="0" width="512" height="512" style="fill-rule:nonzero;"/>
    <path d="M246.344,28.938L246.344,28.935C335.522,28.972 428.071,73.352 489.154,161.935C465.291,196.985 418.832,214.468 398.844,284.31L398.844,354.22C403.027,362.766 407.374,370.95 407.374,381.78C407.374,395.019 398.617,404.562 389.279,404.562C380.146,404.562 370.593,394.568 370.593,380.624C370.593,368.404 375.696,359.986 380.153,351.029L380.153,291.249C363.696,242.413 326.743,277.866 311.403,343.843L311.623,343.843L311.623,428.405C317.338,439.555 324.436,448.521 324.436,462.969C324.436,476.585 312.992,486.313 302.248,486.313C291.263,486.313 281.218,477.052 281.218,464.125C281.218,451.268 287.526,442.31 292.936,431.812L292.936,356.97C276.199,305.584 236.957,289.247 221.279,325.72L221.279,403.874C227.057,418.302 234.499,425.638 234.499,434.936C234.499,453.776 224.812,459.436 212.905,459.436C200.732,459.436 188.969,452.821 188.969,434.936C188.969,423.014 196.23,416.538 202.594,406.061L202.594,325.469C178.107,270.441 112.752,247.684 96.75,279.844L96.75,312.126C101.315,321.346 108.625,327.789 108.625,339.156C108.627,348.729 96.228,358.406 87.03,358.406C77.63,358.406 66,349.402 66,340.312C66,329.11 73.3,322.043 78.062,311.906L78.062,261.938C68.766,226.018 44.93,200.772 23.688,161.938C71.348,73.208 157.164,28.901 246.344,28.938ZM246.781,50.938L246.782,50.936C167.558,51.526 90.772,88.756 49.938,161.906C182.663,275.444 313.094,275.251 462.907,166.844C412.861,88.714 328.521,50.332 246.781,50.938Z" style="fill:rgb(255,0,99);fill-rule:nonzero;"/>
    <path d="M251.469,66.969C296.439,66.969 332.906,103.436 332.906,148.406C332.906,193.378 296.44,229.812 251.47,229.812C206.499,229.812 170.064,193.376 170.064,148.406C170.064,103.437 206.498,66.97 251.469,66.969ZM250.938,116.031C234.807,116.031 221.72,129.089 221.72,145.219C221.72,161.349 234.808,174.439 250.938,174.439C267.069,174.439 280.126,161.351 280.126,145.221C280.126,129.091 267.068,116.031 250.938,116.031Z" style="fill:rgb(164,0,255);"/>
</svg>
