<?xml version="1.0" encoding="UTF-8" standalone="no"?>
<!DOCTYPE svg PUBLIC "-//W3C//DTD SVG 1.1//EN" "http://www.w3.org/Graphics/SVG/1.1/DTD/svg11.dtd">
<svg width="100%" height="100%" viewBox="0 0 512 512" version="1.1" xmlns="http://www.w3.org/2000/svg" xmlns:xlink="http://www.w3.org/1999/xlink" xml:space="preserve" xmlns:serif="http://www.serif.com/" style="fill-rule:evenodd;clip-rule:evenodd;stroke-linejoin:round;stroke-miterlimit:2;">
    <rect x="0" y="0" width="512" height="512" style="fill-rule:nonzero;"/>
    <path d="M105.3,331.24C53.834,347.914 20.62,373.176 20.62,401.195C20.62,451.361 125.433,492.303 254.81,492.301C384.184,492.301 489,451.361 489,401.196C489,373.176 455.785,347.916 404.318,331.241C431.465,344.157 448.118,360.471 448.118,378.421C448.118,419.835 361.616,453.257 254.808,453.257C148.003,453.257 61.498,419.835 61.498,378.421C61.498,360.471 78.154,344.157 105.301,331.241L105.3,331.24ZM174.215,345.068C145.963,354.121 127.495,367.178 127.495,382.486C127.495,409.726 184.56,432.106 254.809,432.106C325.056,432.106 382.124,409.726 382.124,382.486C382.124,367.176 363.654,354.121 335.404,345.068C350.344,352.105 359.931,360.466 359.931,370.285C359.931,392.773 312.801,410.957 254.808,410.957C196.814,410.957 149.684,392.771 149.684,370.285C149.684,360.465 159.274,352.105 174.214,345.068L174.215,345.068Z" style="fill:rgb(214,0,199);fill-rule:nonzero;"/>
    <path d="M160.45,21.785L160.45,21.783C180.463,21.745 200.825,27.95 218.738,41.308L269.658,114.413L217.358,108.565L306.683,257.573L279.881,147.609L324.826,158.865L285.293,44.312C348.966,-1.956 447.623,29.278 445.33,125.048C442.75,232.803 297.652,268.727 254.8,383.163C207.683,268.72 58.094,239.693 60.777,125.049L60.78,125.049C62.273,61.189 110.25,21.881 160.45,21.785Z" style="fill:rgb(123,0,255);"/>
</svg>
