<?xml version="1.0" encoding="UTF-8" standalone="no"?>
<!DOCTYPE svg PUBLIC "-//W3C//DTD SVG 1.1//EN" "http://www.w3.org/Graphics/SVG/1.1/DTD/svg11.dtd">
<svg width="100%" height="100%" viewBox="0 0 512 512" version="1.1" xmlns="http://www.w3.org/2000/svg" xmlns:xlink="http://www.w3.org/1999/xlink" xml:space="preserve" xmlns:serif="http://www.serif.com/" style="fill-rule:evenodd;clip-rule:evenodd;stroke-linejoin:round;stroke-miterlimit:2;">
    <rect x="0" y="0" width="512" height="512" style="fill-rule:nonzero;"/>
    <g>
        <path d="M305.038,82.425C303.376,81.43 301.781,80.31 300.138,79.294C296.441,77.006 292.744,74.761 289.142,72.337C303.03,54.687 324.649,46.311 346.593,46.506C390.929,46.899 438.779,82.764 438.779,147.286C438.779,160.451 437.064,172.43 433.904,183.286C442.328,181.219 451.428,182.033 461.028,187.006C481.602,197.659 490.308,219.094 471.968,244.349C477.271,208.567 449.698,181.057 416.718,217.569L416.593,217.506C416.543,217.57 416.486,217.63 416.436,217.693C402.289,235.732 382.596,248.348 360.219,257.976C347.95,263.253 334.814,267.674 321.156,271.57C296.35,281.414 274.875,292.62 256.75,304.787C259.34,304.466 261.916,304.25 264.47,304.194C298.207,303.446 328.034,325.844 333.877,372.444C336.187,390.876 332.86,415.106 313.407,423.786C292.251,433.226 266.343,426.027 258.031,395.943C281.16,420.746 318.461,417.914 314.094,377.818C306.563,308.179 227.797,316.795 193.187,373.535C173.828,415.154 183.688,458.63 223.25,493.16L75.812,493.16C53.69,456.16 48.583,414.532 64.436,377.192C77.075,347.424 102.609,321.014 141.499,301.504C182.685,279.108 163.313,246.358 127.937,242.284C135.223,239.489 142.07,238.201 148.313,238.221C167.037,238.284 180.367,249.971 184.093,266.941C185.519,273.433 185.244,279.37 183.719,284.783C190.046,282.837 196.6,281.03 203.406,279.377C256.048,266.595 311.707,258.51 352.844,240.815C373.412,231.967 390.16,220.863 401.72,206.127C413.278,191.392 420.095,172.907 420.095,147.282C420.095,91.775 381.063,65.496 346.407,65.188C329.938,65.043 314.941,70.864 305.038,82.425Z" style="fill:rgb(128,224,107);"/>
        <path d="M301.233,87.565C301.049,87.853 300.867,88.144 300.687,88.438C413.201,98.918 364.513,270.937 291.937,213.594C228.187,272.495 154.666,100.6 275.47,88.688C276.406,88.595 277.33,88.512 278.25,88.438C277.959,88.387 277.668,88.336 277.377,88.283C281.272,88.108 285.169,87.956 289.054,87.648C291.661,87.442 294.341,86.677 296.962,86.79C298.377,86.851 299.811,87.226 301.233,87.565Z" style="fill:rgb(239,56,56);"/>
        <path d="M277.377,88.283C277.049,88.224 276.722,88.163 276.396,88.102C279.855,84.834 282.776,81.16 285.25,77.102C285.671,76.412 285.914,75.761 286.257,75.042C286.581,74.362 286.951,73.706 287.328,73.055C287.48,73.421 287.63,73.79 287.778,74.161C288.091,73.736 288.396,73.298 288.718,72.881C288.858,72.699 289,72.517 289.142,72.337C292.744,74.761 296.441,77.006 300.138,79.294C301.781,80.31 303.376,81.43 305.038,82.425C304.522,83.028 304.019,83.647 303.531,84.281C302.726,85.328 301.964,86.422 301.233,87.565C299.811,87.226 298.377,86.851 296.962,86.79C294.341,86.677 291.661,87.442 289.054,87.648C285.169,87.956 281.272,88.108 277.377,88.283Z" style="fill:rgb(149,131,101);"/>
        <path d="M276.396,88.102C231.515,79.618 198.298,48.223 183.628,18.631C222.893,18.454 270.381,32.318 287.328,73.055C286.951,73.706 286.581,74.362 286.257,75.042C285.914,75.761 285.671,76.412 285.25,77.102C282.776,81.16 279.855,84.834 276.396,88.102Z" style="fill:rgb(112,219,103);"/>
        <path d="M183.628,18.631C183.626,18.631 183.625,18.631 183.623,18.631L183.625,18.625C183.626,18.627 183.627,18.629 183.628,18.631Z" style="fill:white;"/>
    </g>
</svg>
