<?xml version="1.0" encoding="UTF-8" standalone="no"?>
<!DOCTYPE svg PUBLIC "-//W3C//DTD SVG 1.1//EN" "http://www.w3.org/Graphics/SVG/1.1/DTD/svg11.dtd">
<svg width="100%" height="100%" viewBox="0 0 512 512" version="1.1" xmlns="http://www.w3.org/2000/svg" xmlns:xlink="http://www.w3.org/1999/xlink" xml:space="preserve" xmlns:serif="http://www.serif.com/" style="fill-rule:evenodd;clip-rule:evenodd;stroke-linejoin:round;stroke-miterlimit:2;">
    <rect x="0" y="0" width="512" height="512" style="fill-rule:nonzero;"/>
    <g>
        <path d="M161.565,19.282C161.564,19.282 161.563,19.282 161.562,19.282L161.563,19.28C161.564,19.281 161.564,19.281 161.565,19.282ZM445.53,202.813C444.69,214.913 440.892,226.341 434.97,236.72C424.617,254.86 408.522,270.477 391.094,285.313C356.238,314.983 316.037,342.469 302.781,370.531C290.226,397.114 289.897,419.783 296.595,437.814C299.515,445.674 303.805,452.708 309.22,458.782C362.928,431.995 410.95,377.872 423.03,320.752C423.106,380.398 392.4,439.439 336.406,477.658C372.208,492.203 422.688,482.692 458.126,429.908C474.544,405.452 489.684,362.608 488.938,317.033C488.304,278.345 476.674,237.803 445.531,202.816L445.53,202.813Z" style="fill:rgb(120,255,0);fill-rule:nonzero;"/>
        <path d="M161.565,19.282C216.645,21.665 259.999,45.445 292.47,76.876C330.004,113.211 352.434,160.111 358.97,193.376C373.195,265.778 339.003,315.161 297.22,332.031C294.547,333.111 291.85,334.066 289.127,334.874L297.907,331.344C312.661,255.005 289.823,182.171 241.471,133.937C256.087,156.406 265.612,183.187 270.357,211.402C277.467,253.683 273.843,299.185 260.531,338.22C251.245,337.648 242.065,335.436 233.345,331.438C213.073,322.148 194.801,303.252 183.405,271.438C171.265,237.543 181.669,182.925 185.845,131.031C187.931,105.085 188.327,79.644 182.125,56.937C178.306,42.959 171.657,30.016 161.565,19.282Z" style="fill:rgb(38,162,87);"/>
        <path d="M20.656,276.283L20.658,276.284C27.438,286.349 36.429,294.379 46.752,300.409C64.785,310.943 86.524,316.403 109.032,320.533C154.05,328.798 202.59,332.488 228.095,350.158C252.257,366.899 263.913,386.381 267.127,405.346C268.527,413.61 268.311,421.851 266.657,429.814C206.753,433.479 138.115,410.617 99.095,367.189C128.839,418.879 184.941,454.652 252.531,459.752C228.795,490.25 180.351,507.27 123.281,479.282C96.838,466.315 62.292,436.779 40.156,396.939C21.364,363.115 11.173,322.161 20.656,276.283Z" style="fill:rgb(76,205,59);"/>
    </g>
</svg>
