<?xml version="1.0" encoding="UTF-8" standalone="no"?>
<!DOCTYPE svg PUBLIC "-//W3C//DTD SVG 1.1//EN" "http://www.w3.org/Graphics/SVG/1.1/DTD/svg11.dtd">
<svg width="100%" height="100%" viewBox="0 0 512 512" version="1.1" xmlns="http://www.w3.org/2000/svg" xmlns:xlink="http://www.w3.org/1999/xlink" xml:space="preserve" xmlns:serif="http://www.serif.com/" style="fill-rule:evenodd;clip-rule:evenodd;stroke-linejoin:round;stroke-miterlimit:2;">
    <rect x="0" y="0" width="512" height="512" style="fill-rule:nonzero;"/>
    <g>
        <path d="M182.3,27.76C140.64,29.31 110.32,40.4 95.225,61.33C80.229,82.123 76.152,103.355 80.713,121.957L51.813,159.85L95.963,150.033C105.023,159.933 117.415,167.873 132.457,172.913L132.459,172.916C139.253,175.193 146.983,175.636 155.206,174.568L182.401,209.791L184.301,165.595C196.248,160.015 208.191,152.285 219.019,143.163C245.519,120.84 268.603,120.795 290.356,144.213C298.364,152.831 303.516,166.508 304.358,183.589L263.058,189.147L301.752,213.763C298.876,227.585 293.617,242.583 285.518,258.241C278.498,267.979 267.93,269.858 256.458,272.511L256.458,272.501C229.761,277.975 211.725,290.183 199.723,306.801L159.428,297.839L186.432,333.247C180.867,349.707 178.437,368.332 177.772,387.903C176.996,410.827 169.396,426.825 156.398,437.071L132.725,406.407L130.902,448.797C127.132,449.69 123.174,450.377 119.025,450.851C86.365,454.571 65.837,437.361 61.139,407.329L103.379,389.687L61.833,376.617C70.15,339.977 106.956,332.391 146.303,361.677C136.093,331.631 108.51,315.067 82.063,318.567L47.368,287.867L53.705,330.974C36.783,344.618 25.372,368.43 26.703,399.446L26.705,399.444C27.775,424.354 35.692,443.869 48.675,457.886L43.072,501.419L71.98,474.896C86.02,481.606 102.698,484.801 121.123,484.421C149.928,483.827 171.513,473.144 186.381,455.909L230.547,465.731L202.44,428.881C207.346,416.525 210.294,402.675 211.345,387.903C214.338,345.797 222.325,320.903 261.011,306.713C283.411,301.933 292.471,317.836 305.011,331.831C316.774,346.001 329.693,358.533 343.371,368.407L337.415,414.685L370.865,383.991C399.541,395.828 430.185,394.647 459.739,372.483L501.511,389.64L479.911,348.217C495.215,316.277 487.348,269.574 456.231,232.145L474.399,197.295L438.134,212.193C412.298,181.227 404.382,147.833 406.499,113.801L443.005,112.231L410.12,86.845C413.947,67.702 420.24,48.508 427.655,29.571C390.903,63.016 373.753,117.228 382.647,168.183L355.604,189.06L388.314,190.465C395.244,210.958 406.804,230.283 423.456,246.732C434.428,257.572 441.891,268.622 446.473,279.272L407.543,304.039L452.063,310.032C451.013,323.219 445.253,334.299 436.493,341.442C400.353,370.905 364.828,345.462 336.666,316.542L336.662,316.538C325.359,302.138 307.418,292.715 316.978,270.984C317.478,269.984 317.958,268.984 318.438,267.986C318.753,267.393 319.068,266.799 319.422,266.186C320.125,264.971 320.615,263.789 320.93,262.644C343.546,212.406 342.518,165.528 323.527,133.916L344.124,94.414L304.058,110.874C285.858,95.077 265.81,90.934 245.34,94.967L216.37,61.093L216.69,105.528C210.08,109.036 203.498,113.222 196.986,117.98C173.943,134.82 157.156,143.01 144.531,137.914C116.068,126.421 109.361,107.384 114.824,88.238L156.746,97.561L129.59,61.955C143.16,45.795 163.19,32.479 182.3,27.758L182.3,27.76Z" style="fill:rgb(137,196,81);fill-rule:nonzero;"/>
    </g>
</svg>
