<?xml version="1.0" encoding="UTF-8" standalone="no"?>
<!DOCTYPE svg PUBLIC "-//W3C//DTD SVG 1.1//EN" "http://www.w3.org/Graphics/SVG/1.1/DTD/svg11.dtd">
<svg width="100%" height="100%" viewBox="0 0 512 512" version="1.1" xmlns="http://www.w3.org/2000/svg" xmlns:xlink="http://www.w3.org/1999/xlink" xml:space="preserve" xmlns:serif="http://www.serif.com/" style="fill-rule:evenodd;clip-rule:evenodd;stroke-linejoin:round;stroke-miterlimit:2;">
    <rect x="0" y="0" width="512" height="512" style="fill-rule:nonzero;"/>
    <path d="M18,494L54.35,163.6C61.078,271.22 58.436,395.42 89.906,459.27C101.111,374.344 105.613,291.09 100.468,210.26C115.693,281.95 136.011,351.94 139.936,427.4C147.331,371.465 152.603,315.88 171.734,257.99C170.974,323.18 154.574,382.89 184.411,415.46C198.844,364.45 213.403,313.56 215.871,250.58C237.141,312.442 234.213,386.4 240.819,455.6C249.236,387.54 256.099,197.76 287.726,137.43C284.616,262.41 283.864,361.37 315.124,411.66C346.021,372.987 348.69,297.22 349.404,225.32C371.216,287.07 385.861,357.42 387.261,443.66C395.887,371.705 405.928,299.75 430.651,227.8C424.903,316.09 429.367,384.75 450.176,421.97C463.936,366.42 475.68,310.87 479.296,255.31C497.716,338.09 492.296,414.9 496.002,494L18,494Z" style="fill:rgb(178,221,104);fill-rule:nonzero;"/>
</svg>
