<?xml version="1.0" encoding="UTF-8" standalone="no"?>
<!DOCTYPE svg PUBLIC "-//W3C//DTD SVG 1.1//EN" "http://www.w3.org/Graphics/SVG/1.1/DTD/svg11.dtd">
<svg width="100%" height="100%" viewBox="0 0 512 512" version="1.1" xmlns="http://www.w3.org/2000/svg" xmlns:xlink="http://www.w3.org/1999/xlink" xml:space="preserve" xmlns:serif="http://www.serif.com/" style="fill-rule:evenodd;clip-rule:evenodd;stroke-linejoin:round;stroke-miterlimit:2;">
    <rect x="0" y="0" width="512" height="512" style="fill-rule:nonzero;"/>
    <g>
        <path d="M332.594,201.938L288.406,286.406L397.469,295.594L459.593,287.656L424.063,308.156L437.593,317.344L494.53,327.906L494.53,235.406L455.22,205.876L462.72,239.594L399.875,214.906L404.063,241.031L332.593,201.938L332.594,201.938ZM203.531,202.531L74.157,242.97L94.782,207.72L21.908,235.406L21.908,452.876L110.658,405.906L121.128,361.406L80.378,361.406L129.938,340.656L173.346,314.626L203.53,202.53L203.531,202.531ZM346.657,310.063L318.845,339.657L352.907,379.97L420.657,400.687L477.313,413.531L426.063,428.907L494.533,449.157L494.533,346.907L432.22,335.345L430.312,334.97L428.687,333.875L400.25,314.562L346.656,310.062L346.657,310.063ZM184.97,329.406L141.75,355.344L127.875,414.344L126.905,418.469L123.155,420.436L21.905,474.03L21.905,491.875L494.531,491.875L494.531,468.655L406.407,442.595L394.813,439.155L401.063,428.813L408.47,416.5L346.125,397.437L333.595,411.5L393.125,480.03L285.281,427.75L303.031,401.094L277.407,383.688L196.877,469.313L224.407,412.406L158.595,399.812L237.595,385.187L261.22,336.344L184.97,329.406Z" style="fill:rgb(213,206,147);fill-rule:nonzero;"/>
    </g>
</svg>
