<?xml version="1.0" encoding="UTF-8" standalone="no"?>
<!DOCTYPE svg PUBLIC "-//W3C//DTD SVG 1.1//EN" "http://www.w3.org/Graphics/SVG/1.1/DTD/svg11.dtd">
<svg width="100%" height="100%" viewBox="0 0 512 512" version="1.1" xmlns="http://www.w3.org/2000/svg" xmlns:xlink="http://www.w3.org/1999/xlink" xml:space="preserve" xmlns:serif="http://www.serif.com/" style="fill-rule:evenodd;clip-rule:evenodd;stroke-linejoin:round;stroke-miterlimit:2;">
    <rect x="0" y="0" width="512" height="512" style="fill-rule:nonzero;"/>
    <path d="M17.607,15.518L17.607,88.418L225.837,278.5L114.91,254.926L259.773,369.188C261.343,354.02 274.159,342.188 289.743,342.188C306.385,342.188 319.879,355.678 319.879,372.322C319.879,388.962 306.389,402.457 289.743,402.457C278.907,402.457 269.409,396.735 264.099,388.147L159.019,385.219L315.686,457.026L190.936,479.876L234.058,495.122L355.094,495.122C356.056,489.52 357.26,483.998 358.691,478.567C345.301,474.351 335.586,461.837 335.586,447.052C335.586,428.808 350.376,414.015 368.626,414.015C374.892,414.015 380.753,415.761 385.746,418.792C391.676,409.937 398.246,401.632 405.356,393.982C400.524,389.742 396.952,384.102 395.286,377.688C391.326,381.045 386.204,383.074 380.606,383.074C368.063,383.074 357.893,372.907 357.893,360.361C357.893,347.818 368.06,337.648 380.605,337.648C389.368,337.648 396.97,342.613 400.758,349.883C406.708,341.958 416.184,336.83 426.858,336.83C439.772,336.83 450.933,344.334 456.221,355.22C468.349,349.052 481.011,344.495 493.906,341.795L493.906,274.502L486.271,209.039L448.219,314.139L409.231,149.481L380.558,261.171L287.518,100.593L297.768,220.411L99.375,15.518L17.606,15.518L17.607,15.518ZM285.697,256.965C294.38,256.965 301.73,262.668 304.209,270.533C309.555,265.941 316.501,263.16 324.103,263.16C340.978,263.16 354.663,276.84 354.663,293.72C354.663,310.595 340.983,324.28 324.103,324.28C307.359,324.28 293.766,310.81 293.553,294.113C291.15,295.179 288.495,295.783 285.696,295.783C274.978,295.783 266.288,287.093 266.288,276.373C266.288,265.655 274.974,256.965 285.695,256.965L285.697,256.965ZM397.947,282.049C408.667,282.049 417.357,290.737 417.357,301.459C417.357,312.176 408.667,320.866 397.947,320.866C387.229,320.866 378.539,312.179 378.539,301.458C378.539,290.738 387.225,282.048 397.946,282.048L397.947,282.049Z" style="fill:url(#_Linear1);fill-rule:nonzero;"/>
    <defs>
        <linearGradient id="_Linear1" x1="0" y1="0" x2="1" y2="0" gradientUnits="userSpaceOnUse" gradientTransform="matrix(476.3,0,0,479.604,17.606,255.32)"><stop offset="0" style="stop-color:rgb(255,255,0);stop-opacity:1"/><stop offset="1" style="stop-color:white;stop-opacity:1"/></linearGradient>
    </defs>
</svg>
