<?xml version="1.0" encoding="UTF-8" standalone="no"?>
<!DOCTYPE svg PUBLIC "-//W3C//DTD SVG 1.1//EN" "http://www.w3.org/Graphics/SVG/1.1/DTD/svg11.dtd">
<svg width="100%" height="100%" viewBox="0 0 512 512" version="1.1" xmlns="http://www.w3.org/2000/svg" xmlns:xlink="http://www.w3.org/1999/xlink" xml:space="preserve" xmlns:serif="http://www.serif.com/" style="fill-rule:evenodd;clip-rule:evenodd;stroke-linejoin:round;stroke-miterlimit:2;">
    <rect x="0" y="0" width="512" height="512" style="fill-rule:nonzero;"/>
    <path d="M423,89C377.2,122.1 342,145.9 310.6,159.2C315.7,168.6 321.6,176.6 328.4,183.4C335.2,190.2 343.2,196.1 352.7,201.3C366.1,169.9 389.9,134.7 423,89ZM89.06,89.06C122.2,134.8 145.9,169.9 159.2,201.2C168.6,196.1 176.6,190.2 183.4,183.4C190.2,176.6 196.1,168.6 201.2,159.2C169.9,145.9 134.8,122.2 89.06,89.06ZM352.7,310.5C343.2,315.7 335.2,321.6 328.4,328.4C321.6,335.2 315.7,343.2 310.5,352.7C342,366 377.2,389.8 423,423C389.8,377.2 366,342 352.7,310.5ZM159.2,310.6C145.9,342 122.1,377.2 89,423C134.7,389.9 169.9,366.1 201.3,352.7C196.1,343.2 190.2,335.2 183.4,328.4C176.6,321.6 168.6,315.7 159.2,310.6Z" style="fill:rgb(204,156,39);fill-rule:nonzero;"/>
    <path d="M255.9,19.77C270.3,109.6 282.4,163 315.7,196.2C348.9,229.4 402.3,241.5 492.2,255.9C402.3,270.3 348.9,282.4 315.6,315.6C282.4,348.9 270.3,402.3 255.9,492.2C241.5,402.3 229.4,348.9 196.2,315.7C163,282.4 109.6,270.3 19.77,255.9C109.6,241.5 163,229.4 196.2,196.2C229.4,163 241.5,109.6 255.9,19.77Z" style="fill:rgb(255,251,0);"/>
</svg>
