<?xml version="1.0" encoding="UTF-8" standalone="no"?>
<!DOCTYPE svg PUBLIC "-//W3C//DTD SVG 1.1//EN" "http://www.w3.org/Graphics/SVG/1.1/DTD/svg11.dtd">
<svg width="100%" height="100%" viewBox="0 0 512 512" version="1.1" xmlns="http://www.w3.org/2000/svg" xmlns:xlink="http://www.w3.org/1999/xlink" xml:space="preserve" xmlns:serif="http://www.serif.com/" style="fill-rule:evenodd;clip-rule:evenodd;stroke-linejoin:round;stroke-miterlimit:2;">
    <rect x="0" y="0" width="512" height="512" style="fill-rule:nonzero;"/>
    <path d="M373.773,42.58C358.297,42.507 341.523,46.9 325.623,55.73C307.451,65.82 293.598,79.94 285.807,95.365C280.87,105.138 278.387,115.72 279.273,125.845C137.038,161.78 139.083,253.125 130.303,337.842C121.473,423.052 161.721,440.898 214.323,448.018C138.521,446.285 148.589,447.521 100.535,447.654C100.535,447.654 54.575,493.614 51.039,496.444C103.601,494.184 395.159,520.314 396.315,465.124C397.108,427.301 318.129,409.948 260.47,390.148C239.194,382.842 230.85,297.646 260.27,221.028C280.314,282.286 325.906,361.065 347.518,364.922C372.06,365.138 429.53,243.026 460.961,198.242C432.808,182.475 398.081,214.639 383.606,238.477C384.218,251.562 385.214,269.743 389.173,273.677L348.226,315.99C322.076,272.378 304.9,210.28 297.606,157.24C297.349,157.366 297.108,157.496 296.856,157.623C297.041,157.403 297.236,157.186 297.423,156.965C305.313,162.438 315.04,165.605 325.321,166.525C342.534,168.067 361.844,163.775 380.017,153.685C398.189,143.595 412.043,129.471 419.835,114.045C427.625,98.619 429.315,81.183 421.272,66.697C413.23,52.212 397.535,44.427 380.322,42.885C378.172,42.692 375.986,42.59 373.775,42.58L373.773,42.58Z" style="fill:rgb(0,255,188);fill-rule:nonzero;"/>
</svg>
