<?xml version="1.0" encoding="UTF-8" standalone="no"?>
<!DOCTYPE svg PUBLIC "-//W3C//DTD SVG 1.1//EN" "http://www.w3.org/Graphics/SVG/1.1/DTD/svg11.dtd">
<svg width="100%" height="100%" viewBox="0 0 512 512" version="1.1" xmlns="http://www.w3.org/2000/svg" xmlns:xlink="http://www.w3.org/1999/xlink" xml:space="preserve" xmlns:serif="http://www.serif.com/" style="fill-rule:evenodd;clip-rule:evenodd;stroke-linejoin:round;stroke-miterlimit:2;">
    <rect x="0" y="0" width="512" height="512" style="fill-rule:nonzero;"/>
    <g>
        <path d="M310.537,18.758L295.6,74.506C282.527,71.693 269.446,70.346 256.533,70.35L256.533,89.012C267.839,89.022 279.293,90.199 290.75,92.602L276.262,146.668C279.234,147.211 282.208,147.874 285.178,148.67C288.288,149.504 291.33,150.468 294.305,151.543L308.807,97.42C319.934,101.063 330.434,105.785 340.232,111.426L349.57,95.252C338.388,88.798 326.38,83.434 313.652,79.34L329.887,18.758L310.537,18.758ZM208.4,76.756C176.938,85.253 148.135,101.908 125.072,124.937L138.222,138.087C146.372,129.927 155.322,122.661 164.906,116.383L192.842,164.77C197.969,161.213 203.386,158.09 209.032,155.436L181.084,107.026C191.309,101.852 202.078,97.726 213.217,94.729L208.4,76.755L208.4,76.756ZM388.068,124.861L374.914,138.017C383.069,146.181 390.332,155.144 396.604,164.739L347.912,192.853C351.462,197.985 354.576,203.407 357.222,209.058L405.947,180.928C411.115,191.158 415.239,201.931 418.225,213.075L436.195,208.259C427.722,176.779 411.085,147.949 388.068,124.862L388.068,124.861ZM95.518,163.435C89.076,174.61 83.718,186.605 79.633,199.323L18.896,183.048L18.896,202.396L74.8,217.373C71.995,230.433 70.67,243.499 70.678,256.398L89.33,256.398C89.338,245.105 90.487,233.664 92.883,222.218L146.73,236.646C147.284,233.569 147.963,230.489 148.787,227.414C149.592,224.409 150.519,221.47 151.549,218.592L97.706,204.164C101.34,193.048 106.052,182.558 111.679,172.766L95.517,163.434L95.518,163.435ZM257.541,183.919C256.646,183.922 255.753,183.941 254.861,183.979C223.973,185.239 196.036,206.339 187.631,237.709C177.284,276.319 200.339,316.249 238.948,326.595C277.558,336.94 317.488,313.885 327.833,275.275C338.178,236.668 315.125,196.737 276.517,186.392C270.182,184.695 263.811,183.898 257.542,183.92L257.541,183.919ZM257.531,202.577C258.818,202.577 260.113,202.622 261.411,202.714L255.913,223.091C256.813,223.019 257.719,222.971 258.638,222.971C264.28,222.971 269.593,224.369 274.261,226.827L279.554,207.21C300.842,216.567 313.664,238.568 311.372,261.666L292.222,256.498C292.222,256.516 292.225,256.534 292.225,256.553C292.225,263.137 290.321,269.275 287.047,274.459L306.379,279.673C296.586,300.368 274.677,312.653 251.805,310.063L257.19,290.103C250.607,289.823 244.52,287.646 239.45,284.108L233.86,304.814C214.03,295.086 202.148,274.134 204.03,252.061L225.084,257.741C225.07,257.345 225.054,256.951 225.054,256.551C225.054,250.371 226.729,244.587 229.641,239.613L208.759,233.98C217.254,215.364 235.486,203.382 255.536,202.613C256.199,202.588 256.864,202.575 257.53,202.573L257.531,202.577ZM423.884,256.399C423.864,267.699 422.698,279.149 420.286,290.599L365.944,276.039C365.397,279.046 364.73,282.059 363.924,285.063C363.101,288.137 362.15,291.143 361.091,294.083L415.437,308.646C411.787,319.763 407.057,330.254 401.413,340.044L417.585,349.382C424.045,338.209 429.418,326.212 433.521,313.492L494.175,329.744L494.175,310.398L438.37,295.445C441.192,282.38 442.532,269.308 442.54,256.4L423.883,256.4L423.884,256.399ZM95.027,299.672L77.057,304.486C85.544,335.921 102.175,364.708 125.167,387.764L138.324,374.609C130.182,366.459 122.928,357.515 116.66,347.939L165.057,320C161.487,314.882 158.349,309.472 155.68,303.832L107.31,331.76C102.144,321.547 98.018,310.795 95.027,299.672ZM319.992,347.622C314.87,351.185 309.458,354.314 303.814,356.977L331.926,405.667C321.706,410.824 310.946,414.941 299.814,417.922L304.629,435.887C336.083,427.427 364.889,410.817 387.969,387.834L374.817,374.684C366.659,382.824 357.705,390.074 348.117,396.336L319.991,347.621L319.992,347.622ZM218.81,361.08L204.32,415.15C193.216,411.51 182.737,406.79 172.957,401.158L163.619,417.332C174.782,423.778 186.769,429.139 199.474,433.232L183.181,494.032L202.531,494.032L217.524,438.072C230.577,440.887 243.639,442.244 256.534,442.25L256.534,423.576C245.246,423.558 233.809,422.396 222.37,419.992L236.87,365.882C233.757,365.324 230.643,364.638 227.53,363.805C224.56,363.009 221.655,362.095 218.81,361.08Z" style="fill:rgb(69,255,120);fill-rule:nonzero;"/>
    </g>
</svg>
