<?xml version="1.0" encoding="UTF-8" standalone="no"?>
<!DOCTYPE svg PUBLIC "-//W3C//DTD SVG 1.1//EN" "http://www.w3.org/Graphics/SVG/1.1/DTD/svg11.dtd">
<svg width="100%" height="100%" viewBox="0 0 512 512" version="1.1" xmlns="http://www.w3.org/2000/svg" xmlns:xlink="http://www.w3.org/1999/xlink" xml:space="preserve" xmlns:serif="http://www.serif.com/" style="fill-rule:evenodd;clip-rule:evenodd;stroke-linejoin:round;stroke-miterlimit:2;">
    <rect x="0" y="0" width="512" height="512" style="fill-rule:nonzero;"/>
    <path d="M141.395,133.525L141.393,133.527C128.723,133.527 118.115,144.377 118.115,158.677C118.115,172.975 128.723,183.824 141.393,183.824C154.063,183.824 164.67,172.974 164.67,158.676C164.67,144.378 154.063,133.526 141.394,133.526L141.395,133.525ZM369.348,133.525L369.348,133.527C356.678,133.527 346.072,144.377 346.072,158.677C346.072,172.975 356.679,183.824 369.348,183.824C382.018,183.824 392.625,172.974 392.625,158.676C392.625,144.378 382.017,133.526 369.348,133.526L369.348,133.525Z" style="fill:rgb(135,125,125);fill-rule:nonzero;"/>
    <path d="M176,22L224,70L256,22L288,70L336,22L336,108C256,140 256,140 176,108L176,22Z" style="fill:rgb(255,182,0);"/>
    <path d="M335.543,130.31L335.543,130.313C329.503,138.134 325.902,148.036 325.902,158.676C325.902,183.294 345.169,203.994 369.349,203.994C369.939,203.994 370.524,203.971 371.109,203.946C383.687,218.822 392.214,235.716 394.904,253.866C350.541,230.232 304.494,218.31 258.344,218.246C212.227,218.182 166.009,229.964 121.279,253.754C124.112,235.578 132.891,218.692 145.666,203.772C167.805,201.506 184.842,181.826 184.842,158.676C184.852,148.534 181.536,138.664 175.404,130.586C181.264,129.868 187.458,130.963 193.548,134.479C231.568,156.43 282.404,156.957 321.338,134.477C325.979,131.798 330.801,130.505 335.543,130.31ZM437.744,226.9C449.78,227.068 461.421,230.388 472.406,239.182C503.588,270.409 473.898,326.181 406.406,398.369C427.864,403.126 455.934,412.866 492.844,428.746C462.062,428.765 439.387,439.721 446.125,458.525C413.791,438.732 397.657,448.07 377.781,462.62C370.181,454.704 364.597,450.395 364.113,437.65C361.141,416.365 365.365,406.933 375.029,396.775C384.693,386.618 401.368,376.791 421.132,361.511L428.152,356.081L423.462,348.551C412.696,331.268 407.502,309.689 411.762,293.793C417.637,271.862 415.994,250.594 409.068,231.137C418.784,228.546 428.383,226.77 437.744,226.9ZM73.67,227.018C84.832,226.987 96.407,229.365 106.832,232.236C100.111,251.356 98.513,272.225 104.295,293.796C108.453,309.324 103.326,331.329 92.596,348.556L87.904,356.086L94.924,361.514C114.689,376.795 131.365,386.62 141.029,396.777C150.693,406.935 154.915,416.369 151.943,437.652C150.529,447.795 140.452,454.071 134.219,462.621C114.344,448.072 98.207,438.735 65.875,458.527C72.613,439.724 49.938,428.766 19.156,428.746C56.066,412.868 84.138,403.127 105.594,398.371C38.102,326.184 8.412,270.411 39.594,239.184C48.902,230.179 61.02,227.052 73.67,227.018ZM258.34,236.557L258.342,236.557C304.453,236.623 350.453,249.651 395.303,275.441C394.805,279.92 393.966,284.355 392.793,288.707C387.283,309.273 392.209,331.72 402.273,351.01C386.385,362.645 371.934,371.535 360.799,383.24C350.659,393.901 344.265,407.763 343.85,425.773C344.625,442.139 352.76,465.742 366.27,486.197C341.679,471.96 324.135,470.865 320.982,489.69C306.885,471.907 295.284,469.304 281.994,481.654C285.648,450.989 292.742,429.853 298.788,417.496C313.584,380.413 341.728,355.26 372.918,333.133L361.557,317.117C322.806,344.607 284.835,379.716 272.473,436.526C262.873,437.336 253.251,437.391 243.623,436.686C231.297,379.783 193.286,344.636 154.498,317.119L143.139,333.133C174.065,355.073 201.985,379.99 216.881,416.557C223.022,428.767 230.394,450.202 234.139,481.654C220.852,469.303 209.251,471.906 195.154,489.689C191.998,470.864 174.453,471.96 149.863,486.197C163.053,466.226 171.115,443.261 172.211,426.953C172.051,408.373 165.616,394.13 155.256,383.24C144.121,371.536 129.667,362.646 113.777,351.012C123.854,331.645 128.715,309.069 123.262,288.715L123.262,288.712C122.087,284.347 121.253,279.897 120.768,275.402C166.04,249.384 212.244,236.492 258.34,236.557Z" style="fill:rgb(71,239,82);"/>
</svg>
