<?xml version="1.0" encoding="UTF-8" standalone="no"?>
<!DOCTYPE svg PUBLIC "-//W3C//DTD SVG 1.1//EN" "http://www.w3.org/Graphics/SVG/1.1/DTD/svg11.dtd">
<svg width="100%" height="100%" viewBox="0 0 512 512" version="1.1" xmlns="http://www.w3.org/2000/svg" xmlns:xlink="http://www.w3.org/1999/xlink" xml:space="preserve" xmlns:serif="http://www.serif.com/" style="fill-rule:evenodd;clip-rule:evenodd;stroke-linejoin:round;stroke-miterlimit:2;">
    <rect x="0" y="0" width="512" height="512" style="fill-rule:nonzero;"/>
    <path d="M229.3,23.6C228,23.6 226.6,23.7 225.3,23.71C204.1,24.74 184.6,32.22 175.6,42.25C164.4,54.76 159,88.39 172.4,124.7C184.8,158.3 211.9,194.1 260.5,219C274,181.7 277.9,118.7 277.1,70.44L295.1,70.16C295.8,116.8 293.2,176.1 279.9,218.1C314.1,201.6 344.7,185.2 366.3,163.4C391,138.5 405.2,106.9 402.2,56.37C402,52.52 399.2,47.65 392.8,42.8C386.5,37.95 376.9,33.56 365.8,30.87C343.7,25.5 315.7,26.9 293.6,39.63L288.4,42.6L283.7,39.01C270.8,29.28 252,24.08 233.3,23.62L229.3,23.62L229.3,23.6ZM89.18,161.3C86.47,161.3 83.76,161.4 81.04,161.6C60.69,163.2 36.98,178.4 28.05,200.7C19.12,223 22.72,253.1 60.37,288.9L63.5,291.9L63.14,296.2C59.45,339.6 63.68,368 71.27,385C78.86,402.1 88.8,408.3 100.3,410.3C111.7,412.2 125.3,409 137.1,403.4C148.9,397.9 158.9,389.8 162.3,385.4L162.3,385.3C197.3,340.9 213.5,295.2 232.3,248.5C152.1,294.9 119.7,289.8 89.42,294.2L86.84,276.4C122.1,271.3 147.6,278.6 232.4,227.5C187.5,195.6 141.3,162.3 91.88,161.3L89.18,161.3ZM394,218.6C390.2,218.7 386.3,219 382.3,219.4C355.1,222.2 326.2,232.2 298.1,238.9C334.1,284.5 359,322.9 401.6,351.3L391.6,366.3C347,336.5 321.1,297.8 287.4,254.7C281,286.9 276.2,319.4 278.1,348.6C280.3,383.6 291.5,413.4 320.5,435.3C337.3,448 350.9,453.3 361.5,454.1C372.1,454.9 380.3,451.7 388.2,445.2C403.8,432.2 415.8,404.7 424.6,377.5L425.8,373.9L429.3,372.2C469.4,352.8 484.3,330.7 487.4,310.1C490.5,289.4 481.3,268.5 468,252.5C446.1,226.1 422.5,218.4 396.5,218.6L394,218.6ZM255.6,236.2C214.8,328 233.1,404.8 252.6,488.4L270.2,484.4C250.7,400.6 233.6,330.2 272,243.6L255.6,236.2Z" style="fill:rgb(93,255,0);fill-rule:nonzero;"/>
</svg>
