<?xml version="1.0" encoding="UTF-8" standalone="no"?>
<!DOCTYPE svg PUBLIC "-//W3C//DTD SVG 1.1//EN" "http://www.w3.org/Graphics/SVG/1.1/DTD/svg11.dtd">
<svg width="100%" height="100%" viewBox="0 0 512 512" version="1.1" xmlns="http://www.w3.org/2000/svg" xmlns:xlink="http://www.w3.org/1999/xlink" xml:space="preserve" xmlns:serif="http://www.serif.com/" style="fill-rule:evenodd;clip-rule:evenodd;stroke-linejoin:round;stroke-miterlimit:2;">
    <rect x="0" y="0" width="512" height="512" style="fill-rule:nonzero;"/>
    <path d="M386.97,319.28C386.765,319.486 386.58,319.702 386.375,319.906C313.595,392.686 195.123,393.061 122.345,320.281C122.067,320.006 121.805,319.716 121.531,319.439C109.544,328.922 102.721,339.823 102.721,351.439C102.721,387.962 170.036,417.564 254.064,417.564C338.091,417.564 406.157,387.964 406.157,351.439C406.157,339.759 399.187,328.802 386.97,319.282L386.97,319.28ZM426.687,373.844C404.462,406.134 335.495,429.75 254.062,429.75C172.89,429.75 104.108,406.29 81.656,374.156C69.018,385.456 61.936,398.208 61.936,411.719C61.938,458.647 147.482,496.749 254,496.749C360.518,496.749 446.97,458.649 446.97,411.719C446.97,398.082 439.657,385.221 426.687,373.843L426.687,373.844Z" style="fill:rgb(216,205,107);fill-rule:nonzero;"/>
    <path d="M254.563,20.751C297.523,20.751 340.48,37.137 373.25,69.907C438.79,135.446 438.79,241.743 373.25,307.281C307.712,372.82 201.102,373.134 135.562,307.594C70.023,242.056 70.335,135.446 135.875,69.906C168.645,37.137 211.603,20.751 254.563,20.751ZM254.406,39.22L254.404,39.22C216.226,39.139 178.04,53.676 148.842,82.876C123.158,108.559 108.777,141.244 105.685,174.781C108.107,169.629 111.321,164.958 115.373,160.906C144.258,132.02 204.326,145.297 249.56,190.53C294.794,235.766 308.039,295.834 279.154,324.72C272.48,331.394 264.154,335.826 254.718,338.126C292.925,338.086 331.12,323.473 360.278,294.313C410.554,244.038 417.32,167.122 380.968,109.438C386.08,124.095 384.897,138.041 376.374,146.563C361.937,161.001 331.92,154.391 309.312,131.781C286.703,109.173 280.062,79.125 294.499,64.688C302.453,56.733 315.146,55.204 328.719,59.188C305.769,45.944 280.086,39.273 254.406,39.22Z" style="fill:rgb(82,107,189);"/>
</svg>
