<?xml version="1.0" encoding="UTF-8" standalone="no"?>
<!DOCTYPE svg PUBLIC "-//W3C//DTD SVG 1.1//EN" "http://www.w3.org/Graphics/SVG/1.1/DTD/svg11.dtd">
<svg width="100%" height="100%" viewBox="0 0 512 512" version="1.1" xmlns="http://www.w3.org/2000/svg" xmlns:xlink="http://www.w3.org/1999/xlink" xml:space="preserve" xmlns:serif="http://www.serif.com/" style="fill-rule:evenodd;clip-rule:evenodd;stroke-linejoin:round;stroke-miterlimit:2;">
    <rect x="0" y="0" width="512" height="512" style="fill-rule:nonzero;"/>
    <path d="M156.055,191.658C130.83,195.182 108.061,199.953 88.881,205.707C67.768,212.041 50.949,219.595 40.066,227.314C29.184,235.034 24.998,242.112 24.998,248C24.998,253.888 29.184,260.967 40.066,268.686C50.949,276.404 67.768,283.959 88.881,290.293C131.106,302.96 190.455,311.002 256,311.002C321.545,311.002 380.894,302.96 423.12,290.293C444.232,283.959 461.05,276.405 471.934,268.686C482.816,260.966 487.002,253.888 487.002,248C487.002,242.112 482.816,235.033 471.934,227.314C461.051,219.596 444.232,212.041 423.119,205.707C403.939,199.953 381.169,195.182 355.945,191.658L355.047,195.127C356.914,199.521 358.505,204.027 359.809,208.619C400.562,216.604 424.409,228.837 424.486,241.797C424.42,258.03 387.186,272.815 328.726,279.822C323.966,280.618 318.921,281.317 313.541,281.939C295.805,283.993 275.196,284.999 254.68,284.999C234.163,284.999 213.775,283.993 196.455,281.936C189.714,281.135 183.508,280.25 177.859,279.152C122.362,271.875 87.564,257.487 87.514,241.797C87.531,228.844 111.294,216.611 151.971,208.613C153.288,203.858 154.91,199.192 156.828,194.646L156.055,191.658ZM129.059,367.488L121.109,478.781C122.049,479.531 124.289,480.837 127.579,482.09C134.343,484.667 145.177,487.15 158.319,489.098C184.601,492.991 220.333,495.002 256,495.002C291.667,495.002 327.399,492.992 353.682,489.098C366.823,487.151 377.657,484.667 384.422,482.09C387.712,480.837 389.95,479.531 390.891,478.781L382.945,367.533C293.792,389.812 209.628,386.37 129.059,367.488Z" style="fill:rgb(221,164,164);fill-rule:nonzero;"/>
    <path d="M167.549,17.846C175.385,17.903 182.568,21.625 186.576,29.643L186.868,30.225L187.238,30.758C193.811,40.206 200.66,60.25 206.777,82.606C212.894,104.961 218.694,129.807 225.434,150.756L237.207,146.968C243.053,145.688 249.119,144.998 255.363,144.998C263.053,144.995 270.709,146.033 278.121,148.082L278,148L286.566,150.755C293.306,129.807 299.106,104.961 305.222,82.605C311.34,60.25 318.189,40.206 324.762,30.758L325.133,30.225L325.424,29.643C331.255,17.981 343.801,15.405 355.305,19.98C360.183,21.921 364.678,25.026 367.961,29.512C360.965,31.888 354.697,36.459 349.494,42.094C341.055,51.232 334.387,63.372 328.5,76.854C316.726,103.817 308.314,136.423 301.609,159.709L318.904,170.689C325.727,146.993 334.108,108.988 344.994,84.057C350.437,71.591 356.567,60.965 362.717,54.305C366.49,50.219 369.886,47.721 373.307,46.539C373.369,49.394 373.134,52.486 372.54,55.836L338.09,188.823L325.551,180.303C341.854,201.244 349.751,229.156 344.094,257.437C338.985,259.253 331.33,261.093 322.098,262.586C322.68,260.483 322.998,258.276 322.998,256C322.998,242.3 311.7,231.002 298,231.002C284.3,231.002 273.002,242.3 273.002,256C273.002,259.679 273.825,263.312 275.412,266.632C268.578,266.872 261.625,267.002 254.68,267.002C248.591,267.002 242.525,266.897 236.551,266.713C238.117,263.457 238.998,259.823 238.998,256C238.998,242.3 227.7,231.002 214,231.002C200.3,231.002 189.002,242.3 189.002,256C189.004,258.32 189.333,260.629 189.981,262.857C180.463,261.327 172.701,259.383 167.931,257.603C162.258,229.667 169.511,202.127 185.021,181.273L173.911,188.822L139.461,55.836C138.866,52.485 138.631,49.394 138.693,46.539C142.114,47.721 145.51,50.219 149.283,54.305C155.433,60.964 161.563,71.591 167.006,84.057C177.892,108.988 186.273,146.993 193.096,170.689L210.39,159.709C203.686,136.423 195.274,103.817 183.5,76.854C177.613,63.372 170.945,51.232 162.506,42.094C157.303,36.459 151.035,31.888 144.039,29.512C147.322,25.026 151.817,21.92 156.695,19.98C160.29,18.551 163.987,17.82 167.549,17.846Z" style="fill:rgb(197,197,197);"/>
    <path d="M132.529,318.889C168.877,325.34 210.99,328.999 256,328.999C301.009,328.999 343.123,325.34 379.471,318.889L381.643,349.313C293.309,371.962 210.497,368.476 130.357,349.308L132.529,318.889Z" style="fill:rgb(109,91,194);"/>
</svg>
