<?xml version="1.0" encoding="UTF-8" standalone="no"?>
<!DOCTYPE svg PUBLIC "-//W3C//DTD SVG 1.1//EN" "http://www.w3.org/Graphics/SVG/1.1/DTD/svg11.dtd">
<svg width="100%" height="100%" viewBox="0 0 512 512" version="1.1" xmlns="http://www.w3.org/2000/svg" xmlns:xlink="http://www.w3.org/1999/xlink" xml:space="preserve" xmlns:serif="http://www.serif.com/" style="fill-rule:evenodd;clip-rule:evenodd;stroke-linejoin:round;stroke-miterlimit:2;">
    <rect x="0" y="0" width="512" height="512" style="fill-rule:nonzero;"/>
    <path d="M245.813,23.188C244.585,23.182 243.358,23.215 242.156,23.281C232.053,23.841 222.51,26.963 212,34.531L232.72,231.313C224.326,233.44 216.044,235.783 207.906,238.407L137.72,57.812C130.688,56.106 120.278,57.512 110.594,62.438C100.346,67.651 91.56,76.278 87.781,85.375L155.03,261.5C147.616,265.845 140.44,270.637 133.53,275.97L59.187,181.72C42.847,182.418 24.222,196.175 21.625,214.375C28.89,222.693 93.978,297.77 126,357.405C136.3,376.589 155.543,408.13 165.188,427.469C171.018,439.162 181.192,451.707 193.031,459.811C204.871,467.915 217.731,471.631 230.938,468.093L343.845,437.873C349.338,436.403 353.041,432.483 357.065,425.936C361.085,419.391 364.6,410.799 369.97,402.936C390.58,372.751 420.402,326.851 485.156,290.874C482.46,275.821 477.751,266.304 472.436,261.311C466.406,255.644 459.238,253.939 448.75,255.468C430.688,258.098 405.252,272.531 379.156,292.342C377.476,293.732 375.838,295.144 374.219,296.562L367.219,235.31L409.719,79.592C405.241,72.237 395.913,66.334 384.874,63.622C374,60.952 362.368,61.924 354.594,65.217L315.844,215.091C306.479,216.671 297.112,218.261 287.78,219.903L273.69,27.5C263.633,24.98 254.406,23.228 245.815,23.187L245.813,23.188ZM234.343,255L264.5,311.625L318.906,277.719L285.126,331.905L341.562,362L277.405,359.812L279.593,423.844L249.563,367.5L195.28,401.313L229.25,346.875L172.72,316.75L236.5,318.906L234.344,255L234.343,255Z" style="fill:rgb(102,243,184);fill-rule:nonzero;"/>
</svg>
