<?xml version="1.0" encoding="UTF-8" standalone="no"?>
<!DOCTYPE svg PUBLIC "-//W3C//DTD SVG 1.1//EN" "http://www.w3.org/Graphics/SVG/1.1/DTD/svg11.dtd">
<svg width="100%" height="100%" viewBox="0 0 512 512" version="1.1" xmlns="http://www.w3.org/2000/svg" xmlns:xlink="http://www.w3.org/1999/xlink" xml:space="preserve" xmlns:serif="http://www.serif.com/" style="fill-rule:evenodd;clip-rule:evenodd;stroke-linejoin:round;stroke-miterlimit:2;">
    <rect x="0" y="0" width="512" height="512" style="fill-rule:nonzero;"/>
    <path d="M217,233L217,247L295,247L295,233L217,233ZM217,265L217,279L295,279L295,265L217,265Z" style="fill:white;fill-rule:nonzero;"/>
    <path d="M170.1,267.6L175.1,267.6C183,267.6 191.1,268 199,268.7L199,297L247,297L247,483.2C173.7,458.1 100.9,470 29.8,484.1L103.2,278.7C117.5,272.6 143,268.1 170.1,267.6ZM336.9,267.6L341.9,267.6C369,268.1 394.5,272.6 408.8,278.7L482.2,484.1C411.1,470 338.3,458.1 265,483.2L265,297L313,297L313,268.7C320.9,268 329,267.6 336.9,267.6Z" style="fill:rgb(241,226,156);"/>
    <path d="M256,25C285,25 306,39.08 320.7,59.29C335.4,79.51 343,106 343,128C343,141 336,155.8 328.5,167C321,178.2 313.6,185.6 313.6,185.6L312.1,187.1L302.8,215L284,215L317.3,98.07L256,118.5L194.7,98.07L228,215L209.2,215L199.9,187.1L198.4,185.6C198.4,185.6 191,178.2 183.5,167C176,155.8 169,141 169,128C169,106 176.6,79.51 191.3,59.29C206,39.08 227,25 256,25ZM221.3,125.9L256,137.5L290.7,125.9L265.2,215L246.8,215L221.3,125.9Z" style="fill:rgb(255,211,0);"/>
    <path d="M51.34,23.63L131.3,55.64L124.7,72.36L44.66,40.35L51.34,23.63ZM460.7,23.64L467.3,40.36L387.3,72.36L380.7,55.64L460.7,23.64ZM384,119L480,119L480,137L384,137L384,119ZM32,119.1L128,119.1L128,137.1L32,137.1L32,119.1ZM387.3,183.6L467.3,215.6L460.7,232.4L380.7,200.4L387.3,183.6ZM124.7,183.7L131.3,200.5L51.34,232.5L44.66,215.7L124.7,183.7Z" style="fill:rgb(206,207,131);"/>
</svg>
