<?xml version="1.0" encoding="UTF-8" standalone="no"?>
<!DOCTYPE svg PUBLIC "-//W3C//DTD SVG 1.1//EN" "http://www.w3.org/Graphics/SVG/1.1/DTD/svg11.dtd">
<svg width="100%" height="100%" viewBox="0 0 512 512" version="1.1" xmlns="http://www.w3.org/2000/svg" xmlns:xlink="http://www.w3.org/1999/xlink" xml:space="preserve" xmlns:serif="http://www.serif.com/" style="fill-rule:evenodd;clip-rule:evenodd;stroke-linejoin:round;stroke-miterlimit:2;">
    <rect x="0" y="0" width="512" height="512" style="fill-rule:nonzero;"/>
    <path d="M227.54,25.87L447.499,230.649C504.307,290.645 503.319,385.53 444.537,444.313C385.753,503.098 290.867,504.086 230.873,447.276L20.17,219.052L205.068,354.619L35.878,129.186L200.835,258.318L20.775,26.128L20.78,26.128L259.07,198.92L136.947,33.96L356.537,203.15L227.54,25.87ZM355.988,248.725L355.989,248.723C328.596,248.723 301.201,259.173 280.301,280.073C238.501,321.874 238.501,389.647 280.301,431.449C322.101,473.249 389.874,473.249 431.674,431.449C473.474,389.649 473.474,321.875 431.674,280.075C410.774,259.175 383.382,248.725 355.988,248.725Z" style="fill:rgb(255,145,0);fill-rule:nonzero;"/>
    <path d="M349.255,269.459C360.931,269.419 371.047,272.619 378.179,278.579C386.956,285.913 390.148,295.809 388.394,307.689C386.639,319.571 379.311,333.116 366.177,344.586C339.909,367.523 302.232,371.005 284.677,356.338C275.899,349.004 272.708,339.108 274.461,327.228C276.215,315.346 283.544,301.799 296.678,290.331C312.274,276.712 332.188,269.516 349.255,269.459ZM396.827,393.827C402.709,393.807 407.487,395.405 410.627,397.987C414.49,401.166 415.753,404.941 414.94,410.353C414.13,415.764 410.572,422.515 403.77,428.361C390.165,440.058 370.558,441.208 362.828,434.851C358.964,431.672 357.702,427.897 358.514,422.487C359.326,417.077 362.883,410.325 369.686,404.477C377.763,397.533 388.23,393.857 396.827,393.827Z" style="fill:rgb(255,74,0);"/>
</svg>
