<?xml version="1.0" encoding="UTF-8" standalone="no"?>
<!DOCTYPE svg PUBLIC "-//W3C//DTD SVG 1.1//EN" "http://www.w3.org/Graphics/SVG/1.1/DTD/svg11.dtd">
<svg width="100%" height="100%" viewBox="0 0 512 512" version="1.1" xmlns="http://www.w3.org/2000/svg" xmlns:xlink="http://www.w3.org/1999/xlink" xml:space="preserve" xmlns:serif="http://www.serif.com/" style="fill-rule:evenodd;clip-rule:evenodd;stroke-linejoin:round;stroke-miterlimit:2;">
    <rect x="0" y="0" width="512" height="512" style="fill-rule:nonzero;"/>
    <g>
        <path d="M314.78,19.47C295.94,52.47 290.997,92.356 320.656,89.03C344.726,86.334 337.006,48.726 314.781,19.47L314.78,19.47ZM192.563,23.47C175.468,57.27 172.613,97.324 202.063,92.688C225.963,88.924 216.29,51.705 192.563,23.468L192.563,23.47ZM414.688,98.813C392.73,129.178 383.983,168.117 413.875,168.5C438.137,168.812 434.038,130.56 414.688,98.812L414.688,98.813ZM96.625,102.063C79.9,134.972 79,173.245 103.25,171.22C133.13,168.722 121.118,130.677 96.625,102.063ZM314.219,110.437C258.609,112.699 263.897,229.164 316.811,227.031C368.829,224.943 368.929,108.221 314.218,110.438L314.219,110.437ZM207.124,112.281C206.296,112.297 205.476,112.365 204.624,112.438C149.204,117.223 160.699,233.285 213.437,228.751C264.47,224.371 259.309,111.331 207.124,112.281ZM124.249,195.721C122.637,195.701 121.007,195.786 119.311,196.001C64.165,202.991 81.086,318.507 133.561,311.876C183.536,305.566 174.206,196.296 124.249,195.72L124.249,195.721ZM402.874,197.064C347.221,196.037 344.387,312.566 397.344,313.564C449.398,314.55 457.628,198.082 402.874,197.064ZM257.874,264.282C200.854,265.54 244.886,324.468 144.094,358.722C65.971,385.27 113.286,465.255 180.154,465.532C216.856,465.686 229.954,436.715 259.999,436.846C294.115,436.99 296.843,462.98 346.779,463.19C410.539,463.453 447.444,382.99 374.499,355.658C281.624,320.86 320.499,264.872 260.686,264.283C259.729,264.275 258.779,264.263 257.874,264.283L257.874,264.282Z" style="fill:rgb(192,166,122);fill-rule:nonzero;"/>
    </g>
</svg>
