<?xml version="1.0" encoding="UTF-8" standalone="no"?>
<!DOCTYPE svg PUBLIC "-//W3C//DTD SVG 1.1//EN" "http://www.w3.org/Graphics/SVG/1.1/DTD/svg11.dtd">
<svg width="100%" height="100%" viewBox="0 0 512 512" version="1.1" xmlns="http://www.w3.org/2000/svg" xmlns:xlink="http://www.w3.org/1999/xlink" xml:space="preserve" xmlns:serif="http://www.serif.com/" style="fill-rule:evenodd;clip-rule:evenodd;stroke-linejoin:round;stroke-miterlimit:2;">
    <rect x="0" y="0" width="512" height="512" style="fill-rule:nonzero;"/>
    <path d="M36.482,18.307L104.57,127.177L38.326,184.732L136.844,302.217L121.66,363.407L153.367,410.764C146.262,415.732 139.567,421.24 133.327,427.227L68.268,346.8L98.546,331.662L18.356,208.949L18.356,287.869L44.296,322.829L26.634,354.369L60.468,387.854L35.868,425.337L96.318,479.743C94.328,484.179 92.514,488.713 90.903,493.347L408.099,493.347C406.173,487.801 403.962,482.395 401.495,477.134L465.525,411.642L414.253,352.88L416.665,343.008L434.315,307.17L473.202,336.334L493.647,312.281L493.647,218.105L455.937,282.188L420.033,250.428L384.575,395.646L345.805,410.858C335.921,403.934 325.252,398.053 313.948,393.37L388.878,288.506L365.206,248.828L413.679,176.482L319.896,183.986L365.73,104.356L399.644,135.539L468.859,18.306L447.159,18.306L395.293,106.149L361.185,74.789L297.292,185.794L271.772,187.837L367.678,18.307L233.498,18.307L179.856,263.532L265.729,240.63L237.409,289.836L183.713,305.834L191.343,390.926C183.705,393.736 176.335,397.084 169.273,400.926L141.793,359.883L157.273,297.493L150.63,289.568L91.41,186.978L177.155,141.475L129.917,18.307L36.482,18.307ZM320.357,226.062L234.357,381.312C225.907,382.06 217.639,383.422 209.605,385.369L203.689,319.379L249.884,305.616L291.198,233.836L320.355,226.062L320.357,226.062ZM353.689,266.008L366.562,287.584L295.538,386.979C289.031,385.139 282.358,383.684 275.548,382.632L353.688,266.007L353.689,266.008ZM408.829,375.092L440.093,410.922L392.173,459.936C383.983,446.726 374.029,434.746 362.623,424.334L400.427,409.5L408.829,375.092ZM74.018,401.268L117.68,444.48C113.148,450.23 108.983,456.285 105.22,462.61L60.293,422.18L74.018,401.268Z" style="fill:rgb(246,219,151);fill-rule:nonzero;"/>
</svg>
