<?xml version="1.0" encoding="UTF-8" standalone="no"?>
<!DOCTYPE svg PUBLIC "-//W3C//DTD SVG 1.1//EN" "http://www.w3.org/Graphics/SVG/1.1/DTD/svg11.dtd">
<svg width="100%" height="100%" viewBox="0 0 512 512" version="1.1" xmlns="http://www.w3.org/2000/svg" xmlns:xlink="http://www.w3.org/1999/xlink" xml:space="preserve" xmlns:serif="http://www.serif.com/" style="fill-rule:evenodd;clip-rule:evenodd;stroke-linejoin:round;stroke-miterlimit:2;">
    <rect x="0" y="0" width="512" height="512" style="fill-rule:nonzero;"/>
    <path d="M33.125,19.406L135.5,128.22L216.5,105.063L235.22,99.719L227.656,117.655L181.531,227.435L315.813,157.435L341.97,143.78L328.436,170L256.5,309.25L347.75,252.125L370.72,237.75L361.5,263.22L326.875,358.844L397.875,322.469L419.063,311.624L410.906,334L376.969,427.063L422.093,420.375L426.623,419.719L429.936,422.874L494.249,484.344L463.749,403.844L487.062,356.936L414.562,396.468L465.624,255.31L374.436,302.78L446.78,159.967L318.563,242.777L421.875,70.063L239.03,168.69L269.47,69.127L165.625,94.377L33.125,19.407L33.125,19.406Z" style="fill:rgb(215,196,27);fill-rule:nonzero;"/>
    <path d="M18.155,30.78L18.157,30.78L125.781,145.155L129.656,149.312L135.156,147.749L202.906,128.374L154.28,244.061L144.25,267.969L167.22,255.969L298.28,187.656L224.22,331L208.566,361.313L237.504,343.221L334.724,282.346L301.254,374.782L293.16,397.095L314.284,386.281L385.191,349.971L354.033,435.408L348.659,450.158L364.189,447.846L420.314,439.532L483.472,499.876L390.002,468.314L303.502,482.781L349.157,390.501L242.657,443.501L289.597,341.281L149.347,420.344L250.377,234.938L60.127,334.594L159.032,167.782L64.907,214.562L96.031,139.03L18.155,30.78Z" style="fill:rgb(210,186,106);"/>
</svg>
