<?xml version="1.0" encoding="UTF-8" standalone="no"?>
<!DOCTYPE svg PUBLIC "-//W3C//DTD SVG 1.1//EN" "http://www.w3.org/Graphics/SVG/1.1/DTD/svg11.dtd">
<svg width="100%" height="100%" viewBox="0 0 512 512" version="1.1" xmlns="http://www.w3.org/2000/svg" xmlns:xlink="http://www.w3.org/1999/xlink" xml:space="preserve" xmlns:serif="http://www.serif.com/" style="fill-rule:evenodd;clip-rule:evenodd;stroke-linejoin:round;stroke-miterlimit:2;">
    <rect x="0" y="0" width="512" height="512" style="fill-rule:nonzero;"/>
    <path d="M84.565,288.232C84.71,288.419 84.855,288.608 85,288.8C84.853,288.61 84.708,288.421 84.565,288.232ZM443.194,460.37C443.197,460.578 443.199,460.788 443.2,461C443.197,460.789 443.195,460.579 443.194,460.37ZM59.674,98.08C59.677,98.288 59.679,98.498 59.68,98.71C59.677,98.498 59.675,98.288 59.674,98.08ZM374.945,70.972C375.129,71.076 375.314,71.182 375.5,71.29C375.313,71.184 375.128,71.078 374.945,70.972ZM216.743,315.191C216.863,315.491 216.982,315.794 217.1,316.1C216.978,315.795 216.859,315.492 216.743,315.191ZM273.494,496.37C273.497,496.578 273.499,496.788 273.5,497C273.497,496.789 273.495,496.579 273.494,496.37ZM170.412,459.372C170.709,460.04 171.005,460.716 171.3,461.4C170.998,460.721 170.702,460.045 170.412,459.372ZM237.39,147.299C237.396,147.795 237.399,148.295 237.4,148.8C237.393,148.296 237.39,147.796 237.39,147.299ZM307.287,306.488C307.296,307.252 307.3,308.023 307.3,308.8C307.291,308.024 307.287,307.253 307.287,306.488ZM431,66.28C428.3,85.08 419,94.88 402.5,94.78C416.6,96.78 430.9,98.38 431,123.3C430.7,102.8 441.9,95.18 459.5,94.78C442.6,94.08 430.6,87.48 431,66.28ZM120.3,116.4C104.5,170.1 72.54,164.4 40.95,159.8C76.6,170 90.3,197.1 84.28,239.2C96.94,193.2 126.9,186.6 163.7,195.8C126.1,183.7 106.8,160.4 120.3,116.4ZM444.1,159.7C431,181.3 414.6,188.5 394.4,179.8C410.7,189.5 427.4,198.9 414.5,229.4C424.8,204.2 442.4,200.7 464.2,209.4C443.9,199.7 432.6,185.5 444.1,159.7ZM415.9,256.1C389.3,320.8 347.2,347.8 288.1,332.5C336.7,352.3 386.9,371 364.5,460.4C382,386.7 428.9,369.7 492.4,383.9C432.5,366.4 395.5,331.9 415.9,256.1ZM269.3,356.5C247.5,377.1 226.3,380.1 206.1,363.8C221.6,380.1 237.7,396.2 213.3,427.1C233.1,401.5 254.5,403 276.6,419.8C256.4,402.4 248,382.3 269.3,356.5Z" style="fill:rgb(203,132,223);fill-rule:nonzero;"/>
    <path d="M237.39,147.299C236.72,92.667 204.816,89.189 173.5,84.73C210.6,84.93 231.3,62.83 237.4,20.73C236.6,68.43 263.5,83.23 301.5,84.73C262.333,85.719 237.35,102.331 237.39,147.299ZM307.287,306.488C306.401,226.701 259.462,221.538 213.7,215.1C268,215.4 298.5,183 307.3,121.4C306.2,191.2 345.6,212.9 401.1,215.1C343.868,216.583 307.349,240.929 307.287,306.488ZM170.412,459.372C139.173,389.052 95.671,402.311 52.62,414C100.8,393.6 115.6,353.3 99.94,295.5C125.5,357.6 168.6,361.8 218.6,342.6C168.481,365.732 145.43,401.275 170.412,459.372Z" style="fill:rgb(255,0,88);"/>
    <path d="M374.945,70.972C353.851,59.03 345.323,70.477 336.5,81.56C344.9,67.35 341.2,54.38 326.3,42.59C344.4,53.6 356.1,46.56 365.2,32.31C356.789,47.558 357.68,60.946 374.945,70.972ZM216.743,315.191C206.577,289.808 188.635,285.999 166.2,294.4C187.4,284.8 199.3,270.3 187.9,243.5C201,266.1 217.8,273.7 238.8,265.2C222.062,274.807 204.736,284.12 216.743,315.191ZM273.494,496.37C273.157,472.073 258.98,470.483 245,468.5C261.5,468.6 270.8,458.8 273.5,440C273.1,461.2 285.1,467.8 302,468.5C284.581,468.896 273.432,476.344 273.494,496.37Z" style="fill:rgb(251,175,175);"/>
    <path d="M59.674,98.08C59.337,73.763 45.16,72.173 31.18,70.19C47.68,70.29 56.98,60.49 59.68,41.69C59.28,62.89 71.28,69.49 88.18,70.19C70.762,70.586 59.612,78.054 59.674,98.08ZM84.565,288.232C69.701,269.043 57.43,276.366 45.09,283.2C58.33,273.3 59.86,259.9 50.7,243.2C63.14,260.4 76.69,258.5 90.61,248.8C76.962,259.671 72.534,272.301 84.565,288.232ZM443.194,460.37C442.857,436.073 428.68,434.483 414.7,432.5C431.2,432.6 440.5,422.8 443.2,404C442.8,425.2 454.8,431.8 471.7,432.5C454.281,432.896 443.132,440.344 443.194,460.37Z" style="fill:white;"/>
</svg>
