<?xml version="1.0" encoding="UTF-8" standalone="no"?>
<!DOCTYPE svg PUBLIC "-//W3C//DTD SVG 1.1//EN" "http://www.w3.org/Graphics/SVG/1.1/DTD/svg11.dtd">
<svg width="100%" height="100%" viewBox="0 0 512 512" version="1.1" xmlns="http://www.w3.org/2000/svg" xmlns:xlink="http://www.w3.org/1999/xlink" xml:space="preserve" xmlns:serif="http://www.serif.com/" style="fill-rule:evenodd;clip-rule:evenodd;stroke-linejoin:round;stroke-miterlimit:2;">
    <rect x="0" y="0" width="512" height="512" style="fill-rule:nonzero;"/>
    <path d="M333.78,20.188C373.753,20.188 413.713,35.4 444.155,65.845C505.043,126.731 505.042,225.739 444.155,286.625C385.487,345.292 291.435,347.422 230.187,293.032L214.437,308.812L201.187,295.562L216.969,279.814C162.579,218.564 164.708,124.511 223.375,65.844C253.82,35.4 293.81,20.188 333.78,20.188ZM333.78,38.75C298.63,38.75 263.467,52.19 236.593,79.063C185.067,130.589 182.949,212.525 230.219,266.565L230.437,266.345C232.462,268.661 234.543,270.951 236.75,273.157C238.988,275.394 241.306,277.514 243.656,279.564L243.438,279.781C297.478,327.049 379.412,324.932 430.938,273.406C484.682,219.663 484.683,132.808 430.938,79.063C404.065,52.19 368.93,38.75 333.78,38.75ZM40,456.813L24,472.78L37.22,486L53.188,470L40,456.812L40,456.813Z" style="fill:rgb(186,186,186);fill-rule:nonzero;"/>
    <path d="M333.781,57.562C364.091,57.562 394.381,69.162 417.561,92.342C444.554,119.336 455.814,155.992 451.374,191.062C447.078,144.531 412.254,106.834 367.124,98.186C369.836,100.026 372.404,102.123 374.779,104.499C399.365,129.084 395.099,173.244 365.219,203.124C335.339,233.004 291.178,237.271 266.595,212.686C252.565,198.659 247.96,178.264 252.125,157.779C246.197,170.891 242.905,185.456 242.905,200.779C242.905,234.586 258.965,264.632 283.875,283.719C271.602,278.014 260.11,270.079 249.97,259.937C203.608,213.577 203.608,138.705 249.97,92.343C273.15,69.163 303.471,57.562 333.781,57.562Z" style="fill:rgb(0,223,255);"/>
    <path d="M176.907,297.688L211.47,332.25L76.656,467.063L42.094,432.5L176.907,297.688Z" style="fill:rgb(153,131,59);"/>
</svg>
