<?xml version="1.0" encoding="UTF-8" standalone="no"?>
<!DOCTYPE svg PUBLIC "-//W3C//DTD SVG 1.1//EN" "http://www.w3.org/Graphics/SVG/1.1/DTD/svg11.dtd">
<svg width="100%" height="100%" viewBox="0 0 512 512" version="1.1" xmlns="http://www.w3.org/2000/svg" xmlns:xlink="http://www.w3.org/1999/xlink" xml:space="preserve" xmlns:serif="http://www.serif.com/" style="fill-rule:evenodd;clip-rule:evenodd;stroke-linejoin:round;stroke-miterlimit:2;">
    <rect x="0" y="0" width="512" height="512" style="fill-rule:nonzero;"/>
    <path d="M402.6,164.6C402.6,85.68 336.9,18.13 256,18.13C174.9,18.13 109.4,83.62 109.4,164.6L109.4,236.9L159,236.9L159,167.8C159,114.1 202.4,70.54 256,70.54C309.5,70.54 353,112.2 353,164.6L402.6,164.6ZM86.9,255.6C72.2,278.4 64,304.7 64,332.4C64,420.7 149,493.9 256,493.9C363,493.9 448,420.7 448,332.4C448,304.7 439.7,278.4 425.1,255.6L86.9,255.6ZM255.7,279.5C278,279.5 296.6,297.5 296.6,319.8C296.6,336.6 286,351 271.5,357.1L304.2,455.3L207.8,455.3L239.9,357.1C225.4,351 215.4,336.5 215.4,319.8C215.4,297.5 233.4,279.5 255.7,279.5Z" style="fill:rgb(216,119,170);fill-rule:nonzero;"/>
</svg>
