<?xml version="1.0" encoding="UTF-8" standalone="no"?>
<!DOCTYPE svg PUBLIC "-//W3C//DTD SVG 1.1//EN" "http://www.w3.org/Graphics/SVG/1.1/DTD/svg11.dtd">
<svg width="100%" height="100%" viewBox="0 0 512 512" version="1.1" xmlns="http://www.w3.org/2000/svg" xmlns:xlink="http://www.w3.org/1999/xlink" xml:space="preserve" xmlns:serif="http://www.serif.com/" style="fill-rule:evenodd;clip-rule:evenodd;stroke-linejoin:round;stroke-miterlimit:2;">
    <rect x="0" y="0" width="512" height="512" style="fill-rule:nonzero;"/>
    <path d="M186.344,83.094C143.026,88.78 95.694,106.391 43.844,137.624C68.831,234.727 100.389,292.662 136.624,325.594C121.066,298.334 112.094,266.324 112.094,232.156C112.094,170.226 141.516,115.316 186.344,83.094ZM445.625,239.314C444.375,273.307 434.283,304.947 417.687,331.594C441.679,326.999 465.827,323.801 489.907,323.781C475.983,293.196 461.271,264.933 445.625,239.314Z" style="fill:white;fill-rule:nonzero;"/>
    <path d="M228.188,81.312L228.19,81.312C248.572,82.337 267.998,86.209 286.532,92.719C245.51,178.349 227.82,267.623 254.032,363.719C229.189,365.06 205.266,362.744 182.626,354.156C150.934,324.796 130.781,281.162 130.781,232.156C130.781,162.506 171.485,103.686 228.188,81.312ZM320.5,108.094C359.48,129.869 394.23,164.144 425.5,208.561C426.541,216.255 427.094,224.135 427.094,232.155C427.094,272.453 413.463,309.102 391,337.187C356.64,344.943 322.817,354.213 290.22,359.593C321.615,303.572 334.51,241.974 331.25,179.749C327.588,181.502 323.486,182.469 319.156,182.469C303.67,182.469 291.126,169.919 291.126,154.436C291.126,138.956 303.67,126.406 319.156,126.406C321.036,126.406 322.88,126.585 324.656,126.938C323.42,120.646 322.052,114.364 320.5,108.094Z" style="fill:rgb(221,206,51);"/>
    <path d="M230.844,47.688C403.268,47.181 495.938,149.434 495.938,292.75C441.95,144.504 339.666,41.874 139.844,56.468C172.274,50.613 202.629,47.771 230.844,47.688ZM18.625,156.564L18.625,156.56C115.88,532.286 306.578,348.125 493.063,343.717C249.36,479.842 36.78,459.957 18.625,156.564ZM487.155,369.125C408.235,490.623 196.371,524.106 66.125,408.25C219.811,480.754 360.095,448.201 487.155,369.125Z" style="fill:rgb(201,193,193);"/>
</svg>
