<?xml version="1.0" encoding="UTF-8" standalone="no"?>
<!DOCTYPE svg PUBLIC "-//W3C//DTD SVG 1.1//EN" "http://www.w3.org/Graphics/SVG/1.1/DTD/svg11.dtd">
<svg width="100%" height="100%" viewBox="0 0 512 512" version="1.1" xmlns="http://www.w3.org/2000/svg" xmlns:xlink="http://www.w3.org/1999/xlink" xml:space="preserve" xmlns:serif="http://www.serif.com/" style="fill-rule:evenodd;clip-rule:evenodd;stroke-linejoin:round;stroke-miterlimit:2;">
    <rect x="0" y="0" width="512" height="512" style="fill-rule:nonzero;"/>
    <path d="M257.617,20.717C250.534,20.706 243.375,21.165 236.148,22.064C204.948,25.934 177.071,38.41 153.582,61.574C134.992,79.897 122.652,102.357 119.782,129.848C116.373,162.838 126.767,191.008 147.9,214.039C154.692,221.425 157.695,228.621 157.508,239.069C157.211,255.497 158.482,271.951 159.158,289.377C180.185,276.956 200.372,264.993 220.832,252.897C233.008,274.275 244.887,295.167 257.311,316.873C269.459,295.356 281.205,274.573 293.137,253.629C312.89,265.429 332.377,277.089 352.51,289.186C353.024,272.246 354.243,256.387 353.756,240.586C353.403,229.516 355.569,220.91 364.012,214.363C366.689,212.28 368.719,209.007 370.857,206.055C391.425,177.449 398.569,145.707 388.017,110.557C378.247,78.055 357.246,55.862 330.318,40.195C307.252,26.79 282.915,20.755 257.618,20.717L257.617,20.717ZM340.416,125.924C358.358,125.79 366.58,136.994 362.82,156.398C358.467,178.777 339.9,195.121 320.146,194.066C298.766,192.927 281.451,175.311 279.121,152.174C278.935,150.363 279.556,147.576 280.721,146.627C291.379,138.022 326.425,126.034 340.416,125.924ZM175.262,125.954C188.979,126.819 204.756,133.502 220.346,140.864C222.643,141.971 224.754,143.649 227.109,144.328C232.956,145.979 233.197,150.441 232.359,155.638C228.599,177.855 209.355,195.122 189.574,194.039C167.141,192.821 149.982,174.77 148.412,150.688C147.329,134.098 155.178,125.736 175.262,125.953L175.262,125.954ZM255.877,182.51C263.317,200.724 270.297,217.745 277.523,235.44L234.336,235.44C241.48,217.852 248.488,200.803 255.876,182.51L255.877,182.51Z" style="fill:white;fill-rule:nonzero;"/>
    <path d="M239.705,324.35C242.663,329.533 245.632,334.73 248.625,339.955L257.367,355.234L266.025,339.906C268.384,335.726 270.734,331.567 273.082,327.415C279.615,344.246 287.683,360.463 296.143,376.525C302.801,389.215 309.727,402.098 314.084,415.684C324.961,449.483 305.367,484.553 265.481,490.586C232.521,495.569 201.561,473.324 195.851,440.742C193.255,425.804 196.961,412.084 203.591,398.959C212.008,382.234 220.967,365.701 229.301,348.869C233.088,341.182 236.391,333.307 239.285,325.326C239.412,324.983 239.559,324.669 239.705,324.35ZM239.758,365.32C239.151,365.315 238.443,366.048 237.633,367.703C231.004,381.261 223.588,394.468 216.986,408.078C212.55,417.198 209.491,426.669 211.332,437.248C214.739,457.491 231.168,473.62 250.572,475.244C273.034,477.138 292.219,464.772 298.549,444.07C299.984,439.442 300.311,434.572 301.201,429.809C300.795,429.754 300.443,429.673 300.039,429.59C299.524,430.295 299.063,430.97 298.549,431.65C287.321,447.696 266.915,450.511 251.895,438.036C241.53,429.43 239.234,417.901 241.4,405.346C243.493,392.903 243.467,365.352 239.758,365.32Z" style="fill:rgb(0,255,39);"/>
</svg>
