<?xml version="1.0" encoding="UTF-8" standalone="no"?>
<!DOCTYPE svg PUBLIC "-//W3C//DTD SVG 1.1//EN" "http://www.w3.org/Graphics/SVG/1.1/DTD/svg11.dtd">
<svg width="100%" height="100%" viewBox="0 0 512 512" version="1.1" xmlns="http://www.w3.org/2000/svg" xmlns:xlink="http://www.w3.org/1999/xlink" xml:space="preserve" xmlns:serif="http://www.serif.com/" style="fill-rule:evenodd;clip-rule:evenodd;stroke-linejoin:round;stroke-miterlimit:2;">
    <rect x="0" y="0" width="512" height="512" style="fill-rule:nonzero;"/>
    <path d="M39.344,15C38.566,15 37.79,15.045 37,15.125C24.355,16.413 15.15,27.698 16.437,40.345C17.725,52.989 29.011,62.195 41.657,60.905C54.3,59.62 63.506,48.334 62.218,35.688C61.01,23.832 51.01,14.997 39.343,15L39.344,15ZM160.531,24.125C160.071,24.125 159.594,24.14 159.126,24.188C151.646,24.948 146.208,31.645 146.97,39.125C147.73,46.605 154.426,52.043 161.906,51.281C169.386,50.521 174.824,43.856 174.062,36.376C173.348,29.363 167.432,24.124 160.532,24.126L160.531,24.125ZM84.72,42.063C84.26,42.063 83.81,42.077 83.344,42.125C75.864,42.887 70.394,49.582 71.156,57.063C71.918,64.543 78.613,69.981 86.094,69.219C93.574,68.456 99.012,61.792 98.25,54.312C97.536,47.299 91.62,42.06 84.72,42.062L84.72,42.063ZM194.438,53.875C193.691,53.875 192.946,53.892 192.188,53.969C180.052,55.204 171.202,66.051 172.438,78.187C173.673,90.322 184.521,99.172 196.656,97.937C208.791,96.701 217.611,85.853 216.376,73.717C215.216,62.341 205.632,53.871 194.436,53.874L194.438,53.875ZM119.53,77.72C118.208,77.72 116.876,77.77 115.53,77.906C107.853,78.688 100.924,81.674 95.28,86.126C90.192,81.946 83.506,79.718 76.437,80.436C62.365,81.871 52.097,94.426 53.531,108.5C54.965,122.573 67.553,132.808 81.626,131.375C82.109,131.325 82.59,131.263 83.064,131.187C87.544,142.604 97.146,151.223 108.814,154.531C107.512,157.994 106.976,161.791 107.376,165.721C108.761,179.319 120.933,189.231 134.532,187.845C148.132,186.46 158.012,174.319 156.627,160.72C155.935,153.92 152.567,148.034 147.657,144.03C155.364,136.028 159.653,124.824 158.439,112.906C156.386,92.74 139.377,77.713 119.533,77.719L119.53,77.72ZM228.406,121.125C226.423,121.125 224.422,121.201 222.406,121.405C190.156,124.691 166.684,153.499 169.969,185.75C170.463,190.618 171.541,195.28 173.124,199.688C156.174,207.426 145.224,225.308 147.218,244.875C149.718,269.439 171.652,287.315 196.218,284.813C200.346,284.393 204.28,283.408 207.968,281.969C208.015,283.327 208.108,284.689 208.248,286.061C211.358,316.603 236.264,339.653 265.968,341.343C260.984,356.543 259.023,372.997 260.748,389.937C260.798,390.427 260.848,390.917 260.904,391.405C260.592,391.429 260.28,391.435 259.967,391.468C240.234,393.476 225.894,411.11 227.903,430.842C229.913,450.572 247.515,464.945 267.247,462.936C275.184,462.126 282.263,458.793 287.747,453.811C312.009,482.651 349.647,499.385 389.967,495.279C454.73,488.685 501.874,430.826 495.277,366.062C491.243,326.44 468.027,293.415 435.777,275.249C437.684,267.784 438.323,259.859 437.497,251.749C433.727,214.719 400.651,187.759 363.622,191.529C338.374,194.101 317.834,210.309 308.497,232.093C298.552,223.973 286.107,218.947 272.684,218.28C282.929,206.476 288.454,190.652 286.747,173.875C283.667,143.639 258.155,121.117 228.403,121.125L228.406,121.125ZM337.186,122.845C336.192,122.845 335.199,122.897 334.188,123C318.008,124.648 306.228,139.1 307.875,155.28C309.523,171.462 323.975,183.242 340.155,181.594C356.337,179.946 368.117,165.494 366.469,149.314C364.923,134.144 352.113,122.84 337.186,122.844L337.186,122.845ZM396.75,149.188C396.29,149.188 395.81,149.234 395.344,149.281C387.864,150.044 382.426,156.708 383.188,164.188C383.948,171.668 390.645,177.108 398.125,176.345C405.605,175.583 411.043,168.919 410.281,161.439C409.568,154.426 403.651,149.187 396.751,149.189L396.75,149.188ZM61.562,202.375C61.102,202.375 60.655,202.39 60.188,202.438C52.708,203.198 47.238,209.863 48,217.344C48.635,223.584 53.41,228.389 59.313,229.374C58.758,231.976 58.591,234.712 58.875,237.5C60.34,251.888 73.175,262.37 87.563,260.906C101.95,259.441 112.433,246.576 110.969,232.186C109.503,217.8 96.669,207.316 82.279,208.781C79.419,209.074 76.707,209.823 74.219,210.938C72.191,205.843 67.195,202.374 61.562,202.376L61.562,202.375ZM105.688,278.281C105.018,278.281 104.336,278.307 103.656,278.376C92.773,279.484 84.86,289.211 85.969,300.096C87.076,310.978 96.803,318.891 107.687,317.782C118.57,316.675 126.482,306.979 125.374,296.096C124.334,285.893 115.726,278.281 105.686,278.283L105.688,278.281ZM154.468,315.531C153.001,315.533 151.523,315.599 150.031,315.751C126.158,318.181 108.788,339.533 111.221,363.407C113.651,387.281 134.971,404.651 158.845,402.22C169.07,401.177 178.11,396.658 184.907,389.97C190.067,392.932 196.162,394.367 202.532,393.72C218.714,392.07 230.494,377.618 228.846,361.437C227.198,345.257 212.746,333.477 196.566,335.125C194.783,335.305 193.071,335.648 191.408,336.125C183.668,323.632 169.824,315.527 154.471,315.531L154.468,315.531Z" style="fill:rgb(211,255,0);fill-rule:nonzero;"/>
</svg>
