<?xml version="1.0" encoding="UTF-8" standalone="no"?>
<!DOCTYPE svg PUBLIC "-//W3C//DTD SVG 1.1//EN" "http://www.w3.org/Graphics/SVG/1.1/DTD/svg11.dtd">
<svg width="100%" height="100%" viewBox="0 0 512 512" version="1.1" xmlns="http://www.w3.org/2000/svg" xmlns:xlink="http://www.w3.org/1999/xlink" xml:space="preserve" xmlns:serif="http://www.serif.com/" style="fill-rule:evenodd;clip-rule:evenodd;stroke-linejoin:round;stroke-miterlimit:2;">
    <rect x="0" y="0" width="512" height="512" style="fill-rule:nonzero;"/>
    <g>
        <path d="M73.09,23.21L74.29,23.21C81.19,23.52 87.09,27.95 91.49,33.1C96.89,39.45 100.9,47.92 103.2,57.69C105.6,67.46 105.9,76.82 104,84.91C103.5,87.08 102.8,89.26 101.9,91.33C107.1,91.57 112.2,93.92 116.5,96.93C123.2,101.8 129.2,109 133.9,117.9C138.6,126.8 141.2,135.8 141.5,144.1C141.6,149.9 140.5,156 137,160.7C143.6,159 150.5,161.1 156.1,164.5C163.3,168.7 169.8,175.4 175.3,183.9C180.7,192.3 184.1,201.1 185,209.3C185.3,212.3 185.3,215.4 184.8,218.4C189.8,217.6 195.1,218.7 199.8,220.5C207.4,223.6 214.9,229.2 221.6,236.8C228.2,244.3 232.9,252.4 235,260.5C236.1,264.5 236.6,268.9 235.9,273.1C241.5,269.9 248.4,268.3 256,268.3C263.7,268.3 270.5,269.9 276.2,273.1C275.5,269 275.9,264.6 277,260.5C279.2,252.4 283.8,244.3 290.5,236.7C297.1,229.1 304.6,223.6 312.4,220.4C317,218.5 322.3,217.5 327.3,218.3C326.8,215.3 326.8,212.2 327.1,209.3C328,201 331.3,192.3 336.8,183.8C342.3,175.3 348.8,168.7 356,164.4C361.6,161.1 368.4,158.9 374.8,160.6C371.5,155.9 370.4,149.8 370.5,144C370.7,135.7 373.3,126.7 378,117.9C382.7,108.9 388.7,101.8 395.5,96.96C399.7,93.87 404.8,91.5 410.1,91.26C409.2,89.22 408.5,87.08 408,84.94C406.2,76.87 406.4,67.51 408.8,57.74C411.1,47.98 415.1,39.52 420.5,33.17C425.8,26.81 433.7,21.58 442.7,23.75C451.7,25.92 456.3,34.14 458.1,42.23C460,50.32 459.7,59.69 457.4,69.46C455,79.23 451,87.7 445.7,94.02C441.2,99.31 435.2,103.8 428.1,104C429.3,107.5 429.8,111.4 429.6,115.1C429.5,123.4 426.9,132.3 422.2,141.3C417.5,150.1 411.5,157.3 404.8,162.1C399,166.3 391.8,169.1 384.7,167.3C388.4,172.4 389.2,179.1 388.6,185.4C387.6,193.7 384.3,202.4 378.8,210.9C373.4,219.4 366.8,226 359.7,230.3C354.5,233.3 348.3,235.4 342.4,234.4C342.9,238.3 342.4,242.3 341.4,246.1C339.2,254.1 334.6,262.2 327.9,269.8C321.3,277.4 313.8,282.9 306,286.1C301,288.1 295.2,289.2 289.8,288C290.9,290.1 291.8,292.3 292.5,294.5C293.2,296.6 293.8,298.7 294.3,300.8C287.9,301.5 282.1,302.9 276.8,305C276.4,303.3 276,301.6 275.5,300.1C273.8,295.3 271.7,292 269,289.9C266.2,287.8 262.5,286.3 256,286.3C249.5,286.3 245.8,287.8 243,289.9C240.3,292 238.2,295.3 236.5,300.1C236,301.6 235.6,303.3 235.2,305C229.9,302.9 224.1,301.5 217.7,300.8C218.2,298.7 218.8,296.6 219.5,294.5C220.2,292.3 221.1,290.1 222.1,288.1C216.8,289.2 211,288.1 206,286.1C198.3,283 190.8,277.4 184.1,269.9C177.5,262.3 172.8,254.2 170.7,246.2C169.7,242.4 169.2,238.3 169.7,234.5C163.7,235.5 157.5,233.4 152.4,230.3C145.2,226.1 138.7,219.4 133.2,210.9C127.8,202.5 124.4,193.7 123.5,185.5C122.8,179.2 123.6,172.5 127.3,167.3C120.2,169.2 113,166.3 107.2,162.3C100.4,157.4 94.49,150.2 89.69,141.3C84.99,132.4 82.39,123.5 82.19,115.1C82.19,111.4 82.59,107.5 83.89,103.9C76.79,103.7 70.69,99.24 66.29,94.03C60.99,87.67 56.99,79.2 54.59,69.43C52.29,59.66 51.99,50.3 53.79,42.21C55.79,34.1 60.29,25.89 69.29,23.72C70.59,23.41 71.79,23.25 73.09,23.21ZM71.29,46.3C70.39,50.8 70.29,57.84 72.09,65.25C73.89,72.65 77.09,78.9 80.09,82.46C82.49,85.31 83.99,85.77 84.19,85.71C84.49,85.61 85.59,84.54 86.49,80.92C87.39,76.41 87.49,69.38 85.69,61.97C83.89,54.56 80.69,48.32 77.79,44.75C75.29,41.91 73.79,41.44 73.49,41.5C73.29,41.6 72.19,42.67 71.29,46.3ZM434.3,44.75C431.3,48.3 428.1,54.55 426.3,61.96C424.5,69.37 424.5,76.4 425.6,80.92C426.4,84.46 427.5,85.6 427.8,85.67C428.1,85.77 429.6,85.22 431.9,82.44C434.9,78.9 438.1,72.64 439.9,65.24C441.7,57.83 441.7,50.8 440.6,46.28C439.8,42.73 438.7,41.59 438.4,41.52C438.1,41.42 436.6,41.97 434.3,44.75ZM405.9,111.5C402.1,114.2 397.5,119.5 393.9,126.2C390.4,132.9 388.6,139.7 388.5,144.4C388.4,148 389.2,149.4 389.5,149.5C389.7,149.7 391.3,149.5 394.3,147.4C398.1,144.7 402.7,139.5 406.3,132.7C409.8,126 411.6,119.2 411.7,114.6C411.8,111.1 411,109.6 410.8,109.4C410.5,109.3 408.9,109.4 405.9,111.5ZM100.2,114.6C100.4,119.2 102.1,126.1 105.6,132.8C109.2,139.5 113.9,144.8 117.6,147.5C120.6,149.7 122.2,149.8 122.6,149.8C122.7,149.6 123.5,148.3 123.5,144.4C123.3,139.8 121.6,133 118,126.2C114.5,119.5 109.8,114.3 106,111.5C102.9,109.3 101.4,109.3 101.1,109.4C100.9,109.5 100.1,110.9 100.2,114.6ZM365.2,179.8C361.1,182.2 356.1,187 351.9,193.4C347.8,199.8 345.5,206.5 345,211.1C344.6,214.7 345.3,216.1 345.6,216.3C345.8,216.5 347.4,216.5 350.5,214.6C354.5,212.3 359.6,207.4 363.7,201C367.8,194.6 370.1,188 370.6,183.3C371.1,179.7 370.4,178.3 370.2,178.1C369.9,177.9 368.3,178 365.2,179.8ZM141.8,178C141.6,178.4 141,179.8 141.4,183.4C142,188 144.2,194.7 148.4,201.1C152.5,207.5 157.6,212.3 161.5,214.7C164.9,216.7 166.5,216.5 166.7,216.4C166.8,216.3 167.5,214.8 167.1,211.2C166.5,206.6 164.3,199.9 160.1,193.5C156,187.1 150.9,182.3 146.9,179.9C143.5,177.9 142,178.1 141.8,178ZM319.1,237.1C314.7,238.8 309,242.8 304,248.5C298.9,254.2 295.7,260.4 294.4,264.9C293.5,268.5 293.9,270 294.2,270.2C294.4,270.4 296,270.6 299.3,269.3C303.7,267.5 309.4,263.5 314.4,257.8C319.5,252.1 322.7,245.9 324,241.4C324.9,237.9 324.5,236.3 324.3,236.1C324,235.9 322.4,235.7 319.1,237.1ZM188.1,241.5C189.3,245.9 192.6,252.1 197.6,257.9C202.7,263.6 208.4,267.6 212.7,269.4C216.2,270.8 217.7,270.5 217.9,270.3C218.1,270.1 218.6,268.7 217.6,265C216.4,260.5 213.1,254.3 208.1,248.6C203.1,242.9 197.3,238.9 193,237.1C189.5,235.7 188,236 187.8,236.2C187.6,236.4 187.2,238 188.1,241.5Z" style="fill:rgb(217,81,81);fill-rule:nonzero;"/>
        <g id="pokecog.svg" transform="matrix(0.422119,0.0717559,-0.0717559,0.422119,256,402.387)">
            <g transform="matrix(1,0,0,1,-256,-256)">
                <g>
                    <path d="M235.045,25.752L193.27,33.967L200.164,69.914C180.861,75.824 162.167,84.344 145.521,95.766L121.687,67.986L89.04,96.158L113.473,124.146C99.978,138.6 88.145,155.349 79.313,173.926L44.64,161.813L30.437,202.465L65.111,214.575C60.571,234.407 59.511,254.688 61.054,274.199L24.507,280.884L32.513,323.254L68.46,316.358C74.37,335.661 83.695,353.968 95.117,370.613L67.34,394.45L94.912,426.89L122.692,403.053C137.229,416.693 153.742,428.308 172.472,437.211L160.357,471.886L201.01,486.086L213.12,451.416C233.322,456.111 253.474,457.301 273.342,455.683L280.236,491.63L322.01,483.416L315.115,447.469C334.419,441.557 353.115,433.039 369.76,421.616L393.596,449.394L426.242,421.224L401.809,393.234C415.164,378.929 426.962,362.398 435.757,344.054L470.431,356.167L484.631,315.515L449.958,303.403C454.612,283.369 455.783,262.895 454.228,243.183L490.771,236.495L482.768,194.125L446.82,201.019C440.91,181.715 431.583,163.411 420.16,146.765L447.94,122.929L420.367,90.491L392.587,114.327C378.049,100.687 361.537,89.07 342.807,80.167L354.712,46.091L314.062,31.891L314.062,31.894L302.16,65.97C281.96,61.272 261.81,60.083 241.94,61.7L235.045,25.752ZM258.223,113.355C286.233,113.46 314.513,121.642 339.406,138.595C398.414,178.781 418.528,254.722 390.518,317.725L333.453,278.863C341.703,247.481 330.075,212.973 301.738,193.673C273.398,174.373 237.511,176.521 211.33,195.693L154.014,156.66C181.974,128.25 219.84,113.212 258.224,113.355L258.223,113.355ZM124.7,199.582L181.59,238.326C173.167,269.8 184.538,304.633 212.98,324.002C241.42,343.372 278.48,341.522 304.68,322.154L361.305,360.719C312.958,410.046 234.785,419.229 175.691,378.985C116.6,338.742 96.51,262.64 124.7,199.582ZM257.57,213.872C266.233,213.902 274.978,216.432 282.672,221.67C303.188,235.643 308.502,263.634 294.529,284.15C280.557,304.667 252.562,309.977 232.046,296.006C211.53,282.034 206.219,254.042 220.19,233.526C228.924,220.703 243.132,213.819 257.57,213.871L257.57,213.872Z" style="fill:url(#_Linear1);fill-rule:nonzero;"/>
                </g>
            </g>
        </g>
    </g>
    <defs>
        <linearGradient id="_Linear1" x1="0" y1="0" x2="1" y2="0" gradientUnits="userSpaceOnUse" gradientTransform="matrix(466.264,0,0,465.878,24.507,258.691)"><stop offset="0" style="stop-color:rgb(183,183,183);stop-opacity:1"/><stop offset="0.3" style="stop-color:rgb(201,201,201);stop-opacity:1"/><stop offset="0.6" style="stop-color:white;stop-opacity:1"/><stop offset="0.78" style="stop-color:rgb(202,198,198);stop-opacity:1"/><stop offset="1" style="stop-color:rgb(188,183,183);stop-opacity:1"/></linearGradient>
    </defs>
</svg>
