<?xml version="1.0" encoding="UTF-8" standalone="no"?>
<!DOCTYPE svg PUBLIC "-//W3C//DTD SVG 1.1//EN" "http://www.w3.org/Graphics/SVG/1.1/DTD/svg11.dtd">
<svg width="100%" height="100%" viewBox="0 0 512 512" version="1.1" xmlns="http://www.w3.org/2000/svg" xmlns:xlink="http://www.w3.org/1999/xlink" xml:space="preserve" xmlns:serif="http://www.serif.com/" style="fill-rule:evenodd;clip-rule:evenodd;stroke-linejoin:round;stroke-miterlimit:2;">
    <rect x="0" y="0" width="512" height="512" style="fill-rule:nonzero;"/>
    <path d="M95.92,25.17C81.19,24.85 66.67,30.57 56.68,44.36C37.39,71.04 33.01,104.8 38.61,139.5C44.22,174.2 59.69,210.1 81.16,242.9C118.2,299.5 172.9,347.4 229,359.6L229,340.9C181.2,328.4 130.4,285.2 96.22,233.1C75.9,202 61.46,168.1 56.38,136.6C51.3,105.2 55.45,76.79 71.26,54.92C77.22,46.7 83.27,43.44 91.19,43.04C93.84,42.91 96.69,43.04 99.81,43.52C112.3,45.22 128.3,52.35 145.5,61.54C177.2,78.46 212.3,102.5 247,106.2L247,87.91C219.8,83.78 185.9,62.71 154,45.66C136.3,36.17 119.1,27.96 102.2,25.67C100.1,25.39 98.03,25.22 95.92,25.17ZM416,25.17C413.9,25.17 411.8,25.38 409.7,25.67C392.9,27.96 375.7,36.17 358,45.66C326.1,62.71 292.2,83.78 265,87.91L265,106.1C299.7,102.4 334.8,78.45 366.5,61.53C383.7,52.34 399.7,45.21 412.2,43.51C424.7,41.81 432.8,43.95 440.7,54.92C456.5,76.79 460.7,105.2 455.6,136.6C450.5,168.1 436.1,202 415.8,233.1C381.6,285.2 330.8,328.4 283,340.9L283,359.6C339.1,347.4 393.8,299.5 430.8,242.9C452.3,210.1 467.8,174.2 473.4,139.5C479,104.8 474.6,71.04 455.3,44.37C445.3,30.57 430.8,24.86 416,25.17Z" style="fill:rgb(113,87,87);fill-rule:nonzero;"/>
    <path d="M247,344.2C250,344.4 253,344.6 256,344.6C259,344.6 262,344.4 265,344.2L265,376.6L247,376.6L247,344.2Z" style="fill:rgb(228,206,137);"/>
    <path d="M234.7,394.6L277.3,394.6L287.8,401.6L256,422.8L224.2,401.6L234.7,394.6ZM217,418.4L239.8,433.6L217,448.8L217,418.4ZM295,418.4L295,448.8L272.2,433.6L295,418.4ZM256,444.4L287.8,465.6L256,486.8L224.2,465.6L256,444.4Z" style="fill:rgb(255,0,132);"/>
</svg>
