<?xml version="1.0" encoding="UTF-8" standalone="no"?>
<!DOCTYPE svg PUBLIC "-//W3C//DTD SVG 1.1//EN" "http://www.w3.org/Graphics/SVG/1.1/DTD/svg11.dtd">
<svg width="100%" height="100%" viewBox="0 0 512 512" version="1.1" xmlns="http://www.w3.org/2000/svg" xmlns:xlink="http://www.w3.org/1999/xlink" xml:space="preserve" xmlns:serif="http://www.serif.com/" style="fill-rule:evenodd;clip-rule:evenodd;stroke-linejoin:round;stroke-miterlimit:2;">
    <rect x="0" y="0" width="512" height="512" style="fill-rule:nonzero;"/>
    <g>
        <g>
            <path d="M252.328,175.233L252.355,175.218L252.407,175.248L252.38,175.263L252.328,175.233Z" style="fill:url(#_Linear1);"/>
            <path d="M252.38,175.263L239.168,182.851L252.328,175.233L252.38,175.263Z" style="fill:url(#_Linear2);"/>
            <path d="M252.753,269.506L309,302.295L309,368.38L252.436,401.357L195.87,368.38L195.87,367.656L252.753,269.506Z" style="fill:url(#_Linear3);"/>
            <path d="M286.59,195.029L286.59,195.037L390.637,255.27L390.637,415.334L252.354,495.387L114.07,415.334L114.07,255.27L217.14,195.603L217.14,195.5L235.829,184.768L235.829,184.783L239.168,182.851L252.38,175.263L286.59,195.029ZM371.949,278.938L343.231,295.493L343.231,378.033L371.946,394.586L371.949,278.938ZM333.493,393.99L262.277,435.473L262.277,468.047L361.907,410.37L333.493,393.99ZM171.723,394.365L143.377,410.706L243.587,468.719L243.587,436.225L171.723,394.365ZM132.759,278.27L132.759,395.257L161.345,378.777L161.345,294.75L132.759,278.27ZM262.277,202.556L262.279,235.366L335.812,278.196L364.436,261.694L262.277,202.556ZM243.589,201.886L140.849,261.362L169.407,277.824L243.589,234.614L243.589,201.886ZM252.288,251.176L252.29,251.175L252.288,251.176L180.036,293.263L180.033,377.577L252.289,419.663L324.542,377.577L324.544,293.261L252.288,251.176Z" style="fill:url(#_Linear4);"/>
        </g>
        <path d="M217.14,195.5L217.14,156.699C217.14,155.08 217.291,153.502 217.554,151.967L203.681,143.842C198.267,148.415 191.294,151.187 183.717,151.187C166.695,151.187 152.687,137.211 152.687,120.187C152.687,117.912 152.945,115.694 153.419,113.552C147.499,109.787 141.692,105.982 135.937,102.072C131.793,104.142 127.134,105.312 122.217,105.312C105.195,105.312 91.187,91.336 91.187,74.312C91.187,72.402 91.371,70.533 91.709,68.715C86.038,63.968 80.266,58.941 74.352,53.595C62.522,60.291 47.097,58.629 37.062,48.595C29.065,40.595 26.389,29.173 29.018,18.877L49.433,18.877C45.416,23.762 45.697,30.791 50.281,35.377C55.168,40.265 62.831,40.264 67.718,35.377C72.304,30.792 72.586,23.764 68.568,18.877L88.985,18.877C90.76,25.827 90.108,33.282 87.045,39.857C91.735,44.091 96.32,48.097 100.835,51.924C106.419,46.586 113.963,43.282 122.223,43.282C139.246,43.282 153.223,57.29 153.223,74.315C153.223,79.477 151.93,84.358 149.663,88.655C154.017,91.561 158.441,94.413 162.911,97.251C168.433,92.232 175.746,89.157 183.723,89.157C200.746,89.157 214.753,103.165 214.753,120.189C214.753,122.849 214.411,125.435 213.769,127.905C217.952,130.363 222.349,132.954 226.716,135.527C227.467,134.863 228.246,134.242 229.053,133.677C235.873,128.891 244.027,127.041 252.023,127.173C260.017,127.305 268.045,129.419 274.737,134.187C275.871,134.993 276.955,135.909 277.983,136.903C282.486,134.326 287,131.743 291.23,129.298C290.331,126.413 289.847,123.354 289.847,120.188C289.847,103.166 303.854,89.156 320.879,89.156C329.259,89.156 336.899,92.556 342.499,98.036C346.796,95.203 351.051,92.321 355.296,89.363C352.786,84.896 351.348,79.763 351.348,74.313C351.348,57.291 365.354,43.281 382.378,43.281C390.592,43.281 398.1,46.548 403.675,51.836C407.586,48.507 411.589,45.038 415.709,41.402C411.989,34.466 411.074,26.374 412.989,18.874L433.403,18.874C429.386,23.76 429.668,30.789 434.253,35.374C439.14,40.264 446.803,40.262 451.69,35.374C456.276,30.79 456.558,23.762 452.54,18.874L472.953,18.874C475.583,29.174 472.906,40.596 464.908,48.594C455.307,58.194 440.772,60.13 429.172,54.416C423.551,59.392 418.127,64.082 412.854,68.532C413.213,70.409 413.407,72.339 413.407,74.312C413.407,91.336 399.4,105.312 382.377,105.312C377.737,105.312 373.327,104.267 369.357,102.412C363.391,106.652 357.426,110.723 351.379,114.71C351.701,116.491 351.877,118.319 351.877,120.186C351.877,137.21 337.9,151.186 320.877,151.186C313.851,151.186 307.341,148.801 302.115,144.809C297.073,147.723 291.811,150.733 286.418,153.803C286.523,154.754 286.59,155.717 286.59,156.7L286.59,195.029L252.38,175.263L252.407,175.248L267.901,184.218L267.901,156.698C267.901,153.211 266.717,151.418 263.891,149.406C261.066,147.392 256.407,145.934 251.712,145.856C247.018,145.779 242.478,147.085 239.782,148.975C237.087,150.865 235.829,152.61 235.829,156.7L235.829,184.768L217.14,195.5ZM382.375,61.968C375.45,61.968 370.03,67.388 370.03,74.311C370.03,81.234 375.45,86.624 382.374,86.624C389.299,86.624 394.719,81.235 394.719,74.312C394.719,67.389 389.299,61.968 382.375,61.968ZM183.72,107.843L183.718,107.843C176.794,107.843 171.374,113.263 171.374,120.186C171.374,127.109 176.793,132.499 183.719,132.499C190.643,132.499 196.063,127.11 196.063,120.187C196.063,113.263 190.642,107.843 183.72,107.843ZM320.876,107.843C313.95,107.843 308.531,113.263 308.531,120.186C308.531,127.109 313.951,132.499 320.875,132.499C327.798,132.499 333.188,127.11 333.188,120.187C333.188,113.263 327.799,107.843 320.876,107.843ZM122.218,61.969C115.295,61.97 109.876,67.389 109.876,74.311C109.876,81.234 115.295,86.624 122.221,86.624C129.144,86.624 134.531,81.235 134.531,74.312C134.531,67.39 129.143,61.969 122.22,61.968C122.22,61.968 122.218,61.968 122.218,61.969Z" style="fill:rgb(192,184,184);"/>
    </g>
    <defs>
        <linearGradient id="_Linear1" x1="0" y1="0" x2="1" y2="0" gradientUnits="userSpaceOnUse" gradientTransform="matrix(276.567,0,0,320.169,114.07,335.303)"><stop offset="0" style="stop-color:rgb(199,0,0);stop-opacity:1"/><stop offset="1" style="stop-color:rgb(255,105,137);stop-opacity:1"/></linearGradient>
        <linearGradient id="_Linear2" x1="0" y1="0" x2="1" y2="0" gradientUnits="userSpaceOnUse" gradientTransform="matrix(276.567,0,0,320.169,114.07,335.303)"><stop offset="0" style="stop-color:rgb(199,0,0);stop-opacity:1"/><stop offset="1" style="stop-color:rgb(255,105,137);stop-opacity:1"/></linearGradient>
        <linearGradient id="_Linear3" x1="0" y1="0" x2="1" y2="0" gradientUnits="userSpaceOnUse" gradientTransform="matrix(276.567,0,0,320.169,114.07,335.303)"><stop offset="0" style="stop-color:rgb(199,0,0);stop-opacity:1"/><stop offset="1" style="stop-color:rgb(255,105,137);stop-opacity:1"/></linearGradient>
        <linearGradient id="_Linear4" x1="0" y1="0" x2="1" y2="0" gradientUnits="userSpaceOnUse" gradientTransform="matrix(276.567,0,0,320.169,114.07,335.303)"><stop offset="0" style="stop-color:rgb(199,0,0);stop-opacity:1"/><stop offset="1" style="stop-color:rgb(255,105,137);stop-opacity:1"/></linearGradient>
    </defs>
</svg>
