<?xml version="1.0" encoding="UTF-8" standalone="no"?>
<!DOCTYPE svg PUBLIC "-//W3C//DTD SVG 1.1//EN" "http://www.w3.org/Graphics/SVG/1.1/DTD/svg11.dtd">
<svg width="100%" height="100%" viewBox="0 0 512 512" version="1.1" xmlns="http://www.w3.org/2000/svg" xmlns:xlink="http://www.w3.org/1999/xlink" xml:space="preserve" xmlns:serif="http://www.serif.com/" style="fill-rule:evenodd;clip-rule:evenodd;stroke-linejoin:round;stroke-miterlimit:2;">
    <rect x="0" y="0" width="512" height="512" style="fill-rule:nonzero;"/>
    <path d="M256.6,20.4C281.3,74.4 211.2,85.7 215.6,146L172.2,106.4L187,173.6L121.2,149.9L160.7,206.2L90.91,209.5L146.6,244.9C91.23,271.1 70.64,209.9 20.39,255.4C74.43,230.7 85.72,300.8 146,296.4L106.4,339.8L173.6,325L149.9,390.8L206.2,351.3L209.5,421L244.9,365.4C271.1,421 209.9,441 255.4,492C230.7,438 300.8,426 296.4,366L339.8,406L325,338.4L390.8,362.1L351.3,305.8L421.1,302.5L365.4,267.1C420.8,240.9 441.4,302.1 491.6,256.6C437.6,281.3 426.3,211.2 366.1,215.6L405.6,172.2L338.4,187L362.1,121.2L305.8,160.7L302.5,90.9L267.1,146.6C240.9,91.2 302.1,70.6 256.6,20.4ZM256,154.5C312,154.5 357.5,200 357.5,256C357.5,312 312,357.5 256,357.5C200,357.5 154.5,312 154.5,256C154.5,200 200,154.5 256,154.5ZM256,175.3C211.5,175.3 175.3,211.5 175.3,256C175.3,300.5 211.5,336.7 256,336.7C300.5,336.7 336.7,300.5 336.7,256C336.7,211.5 300.5,175.3 256,175.3ZM220.4,208.9C238.5,208.6 256,221.2 256,238.5L256,295L237.4,288.5C237.4,288.5 266.9,218.2 219.7,218.2C201.1,218.2 188.9,227.7 188.9,227.7C196.8,214.7 208.7,209.1 220.4,208.9ZM218.3,228.2C228.4,228.1 238.2,232.8 241.2,245.4L228.7,245.4C229,246.1 229.2,246.9 229.2,247.7C229.2,252.3 223.5,256 216.4,256C209.4,256 203.7,252.3 203.7,247.7C203.7,246.9 203.9,246.1 204.2,245.4L191.7,245.4C191.7,237.2 202.4,230 213.9,228.5L218.3,228.2ZM293.7,228.2C306.8,228.3 320.3,236.2 320.3,245.4L307.8,245.4C308.1,246.1 308.3,246.9 308.3,247.7C308.3,252.3 302.6,256 295.6,256C288.5,256 282.8,252.3 282.8,247.7C282.8,246.9 283,246.1 283.3,245.4L270.8,245.4C273.5,233.7 282.2,228.8 291.6,228.3L293.7,228.2ZM248.9,304.9C251.1,304.9 253.3,305.6 256,307.9C264.5,300.5 268.7,309.3 282.8,309.3C282.8,309.3 272.2,317.9 256,317.9C239.8,317.9 229.2,309.3 229.2,309.3C238.9,309.3 243.9,305.1 248.9,304.9Z" style="fill:rgb(255,189,0);fill-rule:nonzero;"/>
</svg>
