<?xml version="1.0" encoding="UTF-8" standalone="no"?>
<!DOCTYPE svg PUBLIC "-//W3C//DTD SVG 1.1//EN" "http://www.w3.org/Graphics/SVG/1.1/DTD/svg11.dtd">
<svg width="100%" height="100%" viewBox="0 0 512 512" version="1.1" xmlns="http://www.w3.org/2000/svg" xmlns:xlink="http://www.w3.org/1999/xlink" xml:space="preserve" xmlns:serif="http://www.serif.com/" style="fill-rule:evenodd;clip-rule:evenodd;stroke-linejoin:round;stroke-miterlimit:2;">
    <rect x="0" y="0" width="512" height="512" style="fill-rule:nonzero;"/>
    <g>
        <path d="M142.188,119C93.368,154.525 61.625,212.098 61.625,277.094C61.625,332.161 84.412,381.894 121.063,417.406C125.406,403.756 135.171,392.468 147.813,386.126C120.271,358.329 103.25,320.099 103.25,277.876C103.25,228.229 126.78,184.084 163.28,155.969C153.294,145.222 145.967,132.704 142.187,118.999L142.188,119ZM377.75,123.438C373.238,136.796 365.34,148.904 354.875,159.218C389.06,187.422 410.845,230.093 410.845,277.875C410.845,320.505 393.488,359.078 365.469,386.938C377.879,393.691 387.304,405.298 391.186,419.156C428.898,383.54 452.436,333.066 452.436,277.094C452.436,214.742 423.223,159.216 377.749,123.438L377.75,123.438Z" style="fill:rgb(246,201,134);fill-rule:nonzero;"/>
        <path d="M260.656,18.47L260.655,18.468C318.549,18.468 363.343,55.082 363.343,97.468C363.343,117.975 352.845,137.118 335.469,151.438L335.469,204.188L312.125,204.188L312.125,148.813L293.438,148.813L293.438,204.188L269.688,204.188L269.688,148.813L251,148.813L251,204.188L226.655,204.188L226.655,148.813L207.967,148.813L207.967,204.188L184.687,204.188L184.687,150.5C167.987,136.29 157.969,117.527 157.969,97.47C157.969,55.078 202.762,18.47 260.656,18.47ZM218.219,68.47L218.217,68.471C201.073,68.471 187.373,82.141 187.373,99.281C187.373,116.421 201.073,130.125 218.218,130.125C235.362,130.125 249.062,116.42 249.062,99.28C249.062,82.136 235.363,68.47 218.219,68.47ZM300.843,68.47C283.699,68.47 270,82.14 270,99.28C270,116.42 283.7,130.125 300.843,130.125C317.987,130.125 331.655,116.42 331.655,99.28C331.655,82.136 317.988,68.47 300.843,68.47Z" style="fill:url(#_Linear1);"/>
        <path d="M171.312,399.25L171.314,399.251C190.217,399.251 205.344,414.378 205.344,433.281C205.344,452.183 190.217,467.313 171.312,467.313C152.408,467.313 137.282,452.182 137.282,433.28C137.282,414.38 152.409,399.25 171.312,399.25ZM340.406,399.251C359.311,399.251 374.438,414.378 374.436,433.281C374.436,452.183 359.311,467.313 340.406,467.313C321.502,467.313 306.376,452.182 306.376,433.28C306.376,414.38 321.503,399.251 340.406,399.251Z" style="fill:rgb(161,0,255);"/>
        <path d="M257.186,425.406L257.188,425.406C276.092,425.406 291.188,440.532 291.188,459.436C291.188,478.337 276.092,493.469 257.186,493.469C238.283,493.469 223.156,478.338 223.156,459.436C223.156,440.536 238.284,425.406 257.186,425.406Z" style="fill:rgb(255,0,232);"/>
    </g>
    <defs>
        <linearGradient id="_Linear1" x1="0" y1="0" x2="1" y2="0" gradientUnits="userSpaceOnUse" gradientTransform="matrix(205.374,0,0,185.72,157.969,111.328)"><stop offset="0" style="stop-color:rgb(139,0,255);stop-opacity:1"/><stop offset="1" style="stop-color:rgb(237,161,161);stop-opacity:1"/></linearGradient>
    </defs>
</svg>
