<?xml version="1.0" encoding="UTF-8" standalone="no"?>
<!DOCTYPE svg PUBLIC "-//W3C//DTD SVG 1.1//EN" "http://www.w3.org/Graphics/SVG/1.1/DTD/svg11.dtd">
<svg width="100%" height="100%" viewBox="0 0 512 512" version="1.1" xmlns="http://www.w3.org/2000/svg" xmlns:xlink="http://www.w3.org/1999/xlink" xml:space="preserve" xmlns:serif="http://www.serif.com/" style="fill-rule:evenodd;clip-rule:evenodd;stroke-linejoin:round;stroke-miterlimit:2;">
    <rect x="0" y="0" width="512" height="512" style="fill-rule:nonzero;"/>
    <path d="M454.967,199.057C454.643,202.037 454.249,205.077 453.721,208.139C451.495,221.069 447.508,234.597 437.731,244.119C423.295,262.756 396.925,274.581 364.873,282.722C332.392,290.973 293.79,295 255.157,295C216.525,295 177.922,290.972 145.442,282.723C113.535,274.619 87.272,262.855 72.794,244.363C60.811,232.381 56.56,215.577 55.024,200.506C41.294,227.762 43.521,262.628 55.696,299.154C69.988,342.03 129.406,389 255.156,389C380.906,389 440.326,342.03 454.618,299.154L454.718,298.857L454.838,298.57C469.972,261.858 470.448,226.587 454.968,199.057L454.967,199.057Z" style="fill:rgb(235,178,125);fill-rule:nonzero;"/>
    <path d="M255.157,123C323.817,123 392.257,141.922 438.024,178.275C437.79,192.625 436.205,213.899 428.692,226.505C318.058,166.169 192.256,166.169 81.622,226.505C74.108,213.899 72.524,192.625 72.29,178.275C118.057,141.922 186.497,123 255.157,123Z" style="fill:rgb(165,120,75);"/>
</svg>
