<?xml version="1.0" encoding="UTF-8" standalone="no"?>
<!DOCTYPE svg PUBLIC "-//W3C//DTD SVG 1.1//EN" "http://www.w3.org/Graphics/SVG/1.1/DTD/svg11.dtd">
<svg width="100%" height="100%" viewBox="0 0 512 512" version="1.1" xmlns="http://www.w3.org/2000/svg" xmlns:xlink="http://www.w3.org/1999/xlink" xml:space="preserve" xmlns:serif="http://www.serif.com/" style="fill-rule:evenodd;clip-rule:evenodd;stroke-linejoin:round;stroke-miterlimit:2;">
    <rect x="0" y="0" width="512" height="512" style="fill-rule:nonzero;"/>
    <path d="M102.6,34.33C95.57,41.33 83.57,53.57 70.53,68.93C96.06,72.23 127,80.02 155.5,88.69C174.3,94.41 191.9,100.5 205.7,106.1C212.7,108.9 218.7,111.6 223.6,114C228.5,116.5 232,118.4 235.2,121.6L222.6,134.4C222.5,134.3 219.6,132.2 215.4,130.1C211.3,128 205.6,125.5 199,122.8C185.8,117.5 168.6,111.5 150.3,105.9C117.9,96.06 81.41,87.56 57.06,85.66C47.92,97.73 39.66,110.3 34.34,121.5C97.56,135.4 168.5,161.6 207.8,200.8L211.2,204.2L210.2,209C210.2,209 207.2,224.4 207.2,242.8C207.2,261.2 211,281.6 220.7,291.3C230.4,301.1 250.9,304.9 269.3,304.9C287.7,304.9 303.1,301.9 303.1,301.9L307.9,300.9L311.3,304.3C350.5,343.6 376.7,414.4 390.6,477.7C401.8,472.4 414.3,464.1 426.4,455C424.5,430.6 416.1,394.2 406.2,361.9C400.6,343.5 394.6,326.3 389.3,313.1C386.6,306.5 384.1,300.8 382,296.7C379.9,292.5 377.8,289.6 377.7,289.5L390.5,276.9C393.7,280.1 395.6,283.6 398.1,288.5C400.5,293.4 403.2,299.4 406,306.4C411.6,320.2 417.7,337.8 423.4,356.6C432,385 439.8,416 443.1,441.6C458.5,428.5 470.7,416.5 477.7,409.5C465,344.8 451.6,258.1 415.1,197.3L413.3,194.3L414,190.9C414,190.9 417,175.5 417.1,157.1C417.1,148.8 416.3,140.1 414.6,132.1C416.2,143.1 414.4,155.5 410.2,168.1C402.6,190.9 386.8,215.6 364.6,237.9C342.3,260.1 317.6,275.9 294.8,283.5C272,291.1 249.6,290.8 235.4,276.6C221.3,262.5 220.9,240 228.6,217.3C236.1,194.5 251.9,169.8 274.2,147.5C296.5,125.2 321.1,109.4 344,101.9C356.3,97.71 368.6,95.93 379.4,97.39C371.6,95.74 363.1,95 355,95C336.6,95 321.2,98.06 321.2,98.06L317.7,98.74L314.8,96.95C253.9,60.4 167.3,47.05 102.6,34.33Z" style="fill:rgb(185,185,185);fill-rule:nonzero;"/>
    <path d="M371.9,115C380.1,115.1 386.5,117.4 390.6,121.5C397.9,128.7 399.5,143.1 393.1,162.4C386.7,181.8 372.4,204.5 351.8,225.1C331.3,245.7 308.5,260 289.1,266.4C277.4,270.3 267.6,271.2 260,269.7C266.5,269.4 273.2,267.6 280.2,264.7C295.8,258.2 312.9,246.4 328.8,230.4C341.7,217.6 351.9,204 358.7,191C351.3,191.9 344,189.4 338.7,184.2C329.3,174.8 329.3,159.6 338.7,150.2C345.6,143.3 356.1,141.2 365.1,145.1C364,143.1 362.7,141.3 361,139.6C355.8,134.3 348.5,132.3 341.3,132.3C334.2,132.4 326.7,134.3 318.8,137.5C313.8,139.6 308.7,142.2 303.6,145.3C319.3,132.7 335.4,123.7 349.6,119C358,116.2 365.5,114.9 371.9,115Z" style="fill:rgb(186,255,0);"/>
    <path d="M30.64,135.9C53.98,140.9 78.54,147.9 101.9,156.6C131.1,205.8 163.7,249.4 200.9,288.3C203.339,293.181 206.546,297.638 210.4,301.5C214.3,305.4 218.8,308.5 223.5,311C262.5,348.2 306.1,380.9 355.4,410.1C364,433.5 371,458 376.1,481.3C371,481.8 363.5,480.8 354,477.3C339.8,472.1 321.9,462.3 302.3,449C263,422.4 216.4,382.3 173.1,338.9C129.7,295.6 89.6,249 63.03,209.7C49.74,190.1 39.87,172.2 34.68,158C31.17,148.5 30.16,141 30.64,135.9ZM130,168C155.6,179.5 178.2,193 194.3,208C193.4,213.4 191.7,224.5 191.7,240.2C191.7,244 191.8,248 192,252C169.7,226.2 149.1,198.3 130,168ZM304,317.7C319,333.8 332.5,356.5 344,382C313.7,362.9 285.8,342.3 259.9,319.9C264,320.2 268,320.3 271.8,320.3C287.5,320.3 298.6,318.6 304,317.7Z" style="fill:rgb(119,112,112);"/>
</svg>
