<?xml version="1.0" encoding="UTF-8" standalone="no"?>
<!DOCTYPE svg PUBLIC "-//W3C//DTD SVG 1.1//EN" "http://www.w3.org/Graphics/SVG/1.1/DTD/svg11.dtd">
<svg width="100%" height="100%" viewBox="0 0 512 512" version="1.1" xmlns="http://www.w3.org/2000/svg" xmlns:xlink="http://www.w3.org/1999/xlink" xml:space="preserve" xmlns:serif="http://www.serif.com/" style="fill-rule:evenodd;clip-rule:evenodd;stroke-linejoin:round;stroke-miterlimit:2;">
    <rect x="0" y="0" width="512" height="512" style="fill-rule:nonzero;"/>
    <path d="M225.617,60.062C222.631,60.119 219.687,60.662 216.775,61.539C215.671,61.796 214.588,62.116 213.525,62.511C213.551,62.551 213.575,62.593 213.6,62.631C210.13,64.011 206.783,65.966 203.908,68.981C200.408,72.654 197.831,78.881 199.215,84.979L199.309,85.392L199.354,85.536C211.217,75.453 227.024,70.773 241.798,70.896C242.098,70.898 242.394,70.92 242.693,70.926L242.625,70.058L242.033,68.684C239.329,62.41 233.356,60.636 228.923,60.194C227.816,60.084 226.713,60.04 225.615,60.061L225.617,60.062ZM250.822,130.352C237.018,130.234 224.155,133.886 214.866,141.722C215.156,142.956 215.45,144.162 215.739,145.418C223.353,178.546 229.506,218.63 225.603,242.664C220,277.16 194.066,327.304 169.373,367.77C154.483,392.168 140.237,413.055 131.196,425.914C141.266,425.896 152.013,428.644 162.282,433.174C173.366,438.064 183.855,445.061 191.512,454.088C192.978,455.818 194.342,457.653 195.572,459.576C196.932,456.229 198.148,453.223 199.932,448.873C205.474,435.345 212.996,417.421 221.912,398.243C239.747,359.891 263.639,316.391 286.565,294.263C311.578,270.123 361.498,244.82 404.673,226.428C411.089,223.695 417.326,221.124 423.349,218.693C418.816,204.128 409.689,192.371 398.456,180.936C397.834,181.286 397.224,181.636 396.596,181.988C361.126,201.834 317.356,220.201 289.636,217.951C286.251,217.677 280.798,213.966 277.608,209.511C265.695,192.871 256.384,159.699 250.822,130.353L250.822,130.352ZM466.836,139.48C464.673,139.5 462.436,139.982 460.531,141.094L460.103,141.346L459.703,141.643C459.703,141.643 456.833,143.767 451.803,147.285C466.413,161.719 474.537,179.435 480.023,197.547L484.337,196.09L484.292,196.102C488.272,194.865 491.477,191.196 492.572,188.192C493.769,184.91 493.766,182.077 493.552,179.238C493.127,173.562 491.408,167.703 489.055,161.961C486.701,156.219 483.795,150.775 479.963,146.356C478.048,144.146 475.92,142.086 472.7,140.626C471.09,139.896 469,139.458 466.84,139.48L466.836,139.48ZM130.95,443.914C130.506,443.914 130.072,443.926 129.65,443.944C122.898,444.26 120.533,445.801 119.48,448.637L117.268,454.602C117.401,458.712 118.421,462.732 120.102,466.282C123.802,474.1 130.192,480.437 137.834,484.885C145.476,489.333 154.566,491.928 163.949,490.785C171.127,489.911 178.332,486.52 184.132,480.665C184.296,475.783 182.185,470.922 177.782,465.73C172.504,459.507 164.034,453.62 155.017,449.643C146.563,445.913 137.599,443.893 130.947,443.913L130.95,443.914Z" style="fill:rgb(128,84,66);fill-rule:nonzero;"/>
    <path d="M157.54,15.78L157.538,15.782C177.399,15.772 197.271,21.717 213.113,35.082C215.891,37.427 218.523,40.007 221.003,42.797C219.946,42.866 218.883,42.958 217.811,43.094C212.283,43.794 206.582,45.561 201.209,48.604C187.33,37.045 169.08,32.507 150.563,34.08C131.916,35.664 113.296,43.57 99.916,55.947C86.794,68.086 78.594,84.115 78.996,103.742C77.938,103.758 76.923,103.765 75.85,103.785C70.017,103.898 64.878,104.052 61.003,104.182C60.489,79.205 71.373,57.828 87.693,42.732C104.316,27.355 126.44,18.065 149.04,16.145C151.864,15.905 154.702,15.783 157.54,15.78ZM277.66,81.3C279.299,81.275 280.943,81.279 282.595,81.309C324.966,82.075 370.343,100.995 420.279,149.115L404.342,158.738C358.36,115.375 318.683,99.963 282.27,99.305C280.66,99.275 279.053,99.275 277.453,99.305C272.71,99.392 268,99.75 263.32,100.32L258.604,83.218L259.186,82.678C265.26,81.874 271.412,81.39 277.66,81.3ZM190.2,105L193.697,123.416C187.897,126.331 182.102,129.423 176.305,132.643C175.997,132.283 175.62,131.896 175.092,131.453C174.71,131.133 173.978,130.779 173.338,130.426L173.568,130.473L158.832,121.828C169.14,115.89 179.58,110.178 190.2,105Z" style="fill:rgb(229,217,115);"/>
    <path d="M225.371,91.895C219.926,98.51 214.826,105.534 210.026,112.92L208.016,102.342C212.447,97.739 218.671,94.178 225.371,91.895ZM243.968,97.848L247.458,110.498C247.555,111.144 247.656,111.8 247.758,112.456C241.977,112.601 236.234,113.289 230.67,114.586C234.892,108.658 239.318,103.066 243.968,97.848ZM80.693,121.756C78.979,128.499 79.28,135.528 81.4,141.916C85.118,153.11 93.157,162.902 103.104,171.22C116.727,182.614 134.094,191.456 151.517,194.52C144.879,197.475 137.283,200.495 128.617,203.23C115.492,207.37 101.228,210.805 89.5,212.445C83.636,213.265 78.394,213.623 74.46,213.485C70.527,213.347 67.949,212.415 67.947,212.415C60.485,207.861 52.084,197.937 46.077,186.989C40.071,176.041 36.436,163.911 36.341,156.761C36.265,151.035 41.803,141.107 48.433,133.437C53.349,127.747 57.363,124.172 59.591,122.259C62.046,122.171 67.989,121.941 76.196,121.781C77.877,121.749 79.083,121.774 80.693,121.756ZM144.481,134.28L162.389,144.78C162.712,145.733 163.079,146.818 163.519,148.57C164.648,153.077 165.847,159.49 166.535,165.817C166.985,169.974 167.185,174.137 167.105,177.627C152.41,178.221 132.177,170.787 117.565,159.727C121.905,156.296 126.696,152.079 131.281,147.762C136.166,143.163 140.748,138.536 144.156,134.686C144.285,134.54 144.356,134.422 144.481,134.28ZM429.488,164.582C431.997,174.568 431.853,183.305 430.443,191.859C426.083,184.994 420.996,178.773 415.613,172.959L429.488,164.582ZM448.893,172.037C454.45,180.374 458.445,189.697 461.68,199.757L445.963,205.087C448.373,195.031 450.037,184.117 448.893,172.037Z" style="fill:rgb(165,95,23);"/>
</svg>
