<?xml version="1.0" encoding="UTF-8" standalone="no"?>
<!DOCTYPE svg PUBLIC "-//W3C//DTD SVG 1.1//EN" "http://www.w3.org/Graphics/SVG/1.1/DTD/svg11.dtd">
<svg width="100%" height="100%" viewBox="0 0 512 512" version="1.1" xmlns="http://www.w3.org/2000/svg" xmlns:xlink="http://www.w3.org/1999/xlink" xml:space="preserve" xmlns:serif="http://www.serif.com/" style="fill-rule:evenodd;clip-rule:evenodd;stroke-linejoin:round;stroke-miterlimit:2;">
    <rect x="0" y="0" width="512" height="512" style="fill-rule:nonzero;"/>
    <path d="M113.305,379.746L110.959,400.866L132.079,398.52L113.305,379.746ZM127.377,417.152L108.922,419.202L106.86,437.766L127.377,417.152ZM94.63,384.844L74.666,404.9L92.621,402.904L94.63,384.844ZM90.585,421.24L58.01,424.86L86.965,453.818L90.585,421.24Z" style="fill:rgb(174,72,11);fill-rule:nonzero;"/>
    <path d="M476.953,34.873C483.11,41.03 261.473,273.082 185.625,348.828L162.997,326.2C237.497,251.72 470.795,28.715 476.953,34.873ZM233.747,166.356L107.883,296.464L215.363,403.944L345.471,278.08C351.638,284.08 249.776,390.747 221.728,423.037C218.213,426.551 212.515,426.551 209,423.037L165.16,379.195L151.717,392.702L119.187,360.172L132.629,346.668L88.789,302.826C85.274,299.311 85.274,293.613 88.789,290.098C119.567,263.363 223.127,166.918 232.677,166.063C233.147,166.021 233.507,166.116 233.747,166.356ZM44.82,434.232L77.944,467.356L68.042,477.252L34.92,444.132L44.82,434.232Z" style="fill:rgb(193,193,193);"/>
</svg>
