<?xml version="1.0" encoding="UTF-8" standalone="no"?>
<!DOCTYPE svg PUBLIC "-//W3C//DTD SVG 1.1//EN" "http://www.w3.org/Graphics/SVG/1.1/DTD/svg11.dtd">
<svg width="100%" height="100%" viewBox="0 0 512 512" version="1.1" xmlns="http://www.w3.org/2000/svg" xmlns:xlink="http://www.w3.org/1999/xlink" xml:space="preserve" xmlns:serif="http://www.serif.com/" style="fill-rule:evenodd;clip-rule:evenodd;stroke-linejoin:round;stroke-miterlimit:2;">
    <rect x="0" y="0" width="512" height="512" style="fill-rule:nonzero;"/>
    <path d="M214.261,199.947L181.903,239.955C193.337,241.405 204.715,244.749 215.616,250.107L214.261,199.947ZM81.861,214.749L102.913,305.46C124.461,311.16 153.307,295.435 156.778,270.033L134.337,253.473C134.479,253.449 134.622,253.433 134.765,253.408L102.618,230.066L81.86,214.75L81.861,214.749ZM72.679,297.864L17.356,300.869L61.714,334.806C63.086,322.064 66.739,309.672 72.499,298.224C72.559,298.104 72.619,297.984 72.681,297.864L72.679,297.864ZM231.919,302.249C218.283,323.967 230.357,354.539 250.546,363.982L324.87,307.902L231.919,302.249ZM171.389,390.47C156.544,390.495 141.727,397.065 133.603,407.93L175.499,497.117L201.694,402.218C198.479,399.084 194.904,396.54 191.026,394.705C184.892,391.8 178.138,390.459 171.39,390.47L171.389,390.47ZM260.478,401.177C253.858,412.34 245.252,422.199 235.087,430.267L286.794,450.557L260.478,401.177ZM80.27,407.553L58.348,463.495L109.648,436.122C98.097,428.593 88.119,418.889 80.27,407.553Z" style="fill:rgb(123,123,123);fill-rule:nonzero;"/>
    <path d="M167.544,251.074C182.182,250.946 197.077,254.203 211.078,261.236L211.08,261.238C225.467,268.464 237.214,278.828 245.93,291.076L229.175,290.048L226.545,290.142L224.019,292.445C201.689,322.17 218.269,365.509 249.339,376.539L252.389,377.623L254.961,375.679L260.128,371.785C258.46,377.761 256.216,383.562 253.428,389.105C242.825,410.214 225.483,425.654 205.334,434.146L214.197,402.056L215.074,398.925L212.924,396.495C208.344,391.251 202.776,386.959 196.539,383.865C170.473,370.935 136.151,380.398 121.564,404.173L119.871,406.917L121.248,409.855L132.969,434.812C130.457,433.803 127.989,432.69 125.57,431.476C78.51,407.838 59.58,350.683 83.224,303.61C84.713,300.638 86.354,297.744 88.14,294.94L92.005,311.57L92.735,314.722L95.767,315.841C126.681,327.308 167.213,304.705 169.151,267.578L169.366,263.664C161.21,258.218 158.482,256.121 153.032,252.316C157.813,251.536 162.664,251.116 167.544,251.074Z" style="fill:rgb(180,172,172);"/>
    <path d="M157.536,14.885C158.664,14.879 159.792,14.907 160.919,14.969C169.93,15.462 178.823,18.121 186.403,22.881C186.992,23.255 187.568,23.649 188.13,24.063C191.614,22.386 195.439,21.537 199.306,21.584C203.955,21.635 208.56,22.921 212.661,25.198C219.908,29.219 226.114,35.099 230.788,42.026L217.368,51.379C213.972,46.233 209.595,41.796 204.896,39.188C203.498,38.412 201.336,38.029 199.261,38.004C198.908,38 198.565,38.021 198.222,38.038C199.06,40.816 199.407,43.719 199.247,46.616C198.928,52.452 196.655,57.585 193.169,61.674C193.947,63.306 194.82,64.891 195.784,66.42L182.356,75.78C181.291,74.139 180.313,72.444 179.425,70.702C167.494,75.103 153.831,75.03 141.85,70.67C136.308,80.569 127.446,88.694 117.14,93.512C118.478,98.59 119.01,103.888 118.785,109.168C118.473,116.476 116.709,123.751 113.618,130.366C126.624,142.204 133.263,161.069 130.452,178.431C130.373,178.921 130.275,179.406 130.17,179.891C131.371,180.519 132.527,181.229 133.63,182.016C148.175,192.448 156.927,210.925 155.79,228.789C155.424,234.524 153.395,240.09 149.784,244.539L136.507,234.899C138.166,232.889 139.684,229.943 139.824,227.772C140.55,216.362 133.594,201.682 124.304,195.018C123.785,194.646 123.133,194.325 122.411,194.053C119.889,196.469 116.886,198.327 113.599,199.508C111.937,200.106 110.216,200.527 108.466,200.764C108.242,201.452 108.071,202.124 108.032,202.727C107.774,206.778 108.499,211.238 109.938,215.608L92.025,202.602C92.038,202.305 92.047,202.008 92.065,201.712C92.15,200.382 92.335,199.062 92.597,197.762C90.655,196.72 88.837,195.462 87.177,194.011C73.812,182.309 66.897,163.279 69.587,145.721C65.62,142.347 62.733,137.818 61.15,132.823C55.74,115.76 59.786,95.72 71.39,82.09C72.303,81.021 73.291,80.018 74.347,79.09C72.883,73.448 73.402,67.441 75.545,62.006C82.113,45.354 97.894,32.357 115.495,29.1C117.794,28.672 120.135,28.522 122.47,28.653C123.035,28.687 123.599,28.739 124.161,28.807C126.869,25.078 130.54,22.084 134.724,20.055C141.77,16.638 149.641,14.929 157.536,14.885ZM158.184,31.227C157.164,31.212 156.143,31.231 155.124,31.284C150.255,31.538 145.562,32.582 141.704,34.452C140.957,34.813 140.179,35.412 139.433,36.133C139.988,36.688 140.516,37.268 141.017,37.872C145.243,43.003 146.996,49.173 146.729,55.28C155.302,58.305 166.133,58.455 174.319,55.483C173.976,53.522 173.75,51.541 173.644,49.553C173.393,44.73 174.328,39.892 176.455,35.598C171.325,32.813 164.723,31.325 158.184,31.227ZM119.368,44.739C119.031,44.752 118.705,44.777 118.405,44.832C107.163,46.912 94.625,57.24 90.431,67.876C89.962,69.064 89.817,70.703 89.899,72.366C90.945,72.288 91.995,72.276 93.042,72.331C94.28,72.396 95.511,72.552 96.726,72.797C101.658,73.793 105.87,76.14 109.208,79.35C116.704,75.879 123.863,69.576 127.909,62.686C122.958,58.113 119.676,51.849 119.368,44.739ZM83.382,92.705C76.111,101.459 72.978,117.187 76.401,127.99C76.6,128.617 76.964,129.287 77.397,129.957C79.979,127.412 83.085,125.46 86.499,124.238C88.876,123.382 91.274,122.913 93.646,122.785C95.47,122.689 97.299,122.791 99.101,123.091C102.427,115.208 103.559,105.58 101.732,97.9C95.25,98.411 88.677,96.765 83.382,92.705ZM104.452,143.821C99.362,148.833 92.516,151.921 85.114,151.691C84.863,162.4 90.05,175.263 97.716,181.974C98.387,182.562 99.328,183.07 100.37,183.494C104.226,179.861 109.14,177.548 114.397,176.892C114.51,176.56 114.596,176.219 114.657,175.874C116.332,165.527 111.84,151.833 104.452,143.821Z" style="fill:rgb(179,179,179);"/>
    <path d="M268.767,109.168L470.675,396.214C460.955,408.406 450.127,417.847 434.083,422.228L231.931,134.839L268.767,109.168Z" style="fill:rgb(140,82,35);"/>
    <path d="M233.786,59.439L259.56,96.082L222.728,121.752L196.952,85.109L233.786,59.439ZM480.195,409.748L494.643,430.288C486.878,445.539 475.666,453.916 457.801,455.946L443.723,435.932C459.108,430.428 470.713,420.742 480.195,409.748Z" style="fill:rgb(207,158,108);"/>
</svg>
