<?xml version="1.0" encoding="UTF-8" standalone="no"?>
<!DOCTYPE svg PUBLIC "-//W3C//DTD SVG 1.1//EN" "http://www.w3.org/Graphics/SVG/1.1/DTD/svg11.dtd">
<svg width="100%" height="100%" viewBox="0 0 512 512" version="1.1" xmlns="http://www.w3.org/2000/svg" xmlns:xlink="http://www.w3.org/1999/xlink" xml:space="preserve" xmlns:serif="http://www.serif.com/" style="fill-rule:evenodd;clip-rule:evenodd;stroke-linejoin:round;stroke-miterlimit:2;">
    <rect x="0" y="0" width="512" height="512" style="fill-rule:nonzero;"/>
    <path d="M123.153,24.602C111.804,25.366 74.361,107.607 59.608,156.776C51.562,183.594 62.591,231.51 101.331,263.226C110.144,261.724 118.277,260.179 125.765,258.6C103.292,234.38 86.717,208.112 77.993,176.541L76.972,172.842L78.935,169.543C105.07,125.618 116.616,100.995 129.785,57.303L133.634,44.53L144.036,52.881C158.66,64.624 167.756,70.965 176.134,74.69C161.706,51.7 144.293,33.33 123.674,24.63C123.502,24.6 123.328,24.59 123.154,24.602L123.153,24.602ZM142.944,74.805C131.22,110.981 118.803,137.295 96.436,175.184C105.44,205.162 122.182,229.8 146.169,253.834C164.913,248.977 178.757,243.905 189.552,238.856C206.427,230.962 216.066,223.126 226.472,215.155C219.94,180.245 207.528,135.015 188.454,96.78C173.7,94.011 161.258,88.407 142.944,74.805ZM233.038,232.813C223.882,239.835 213.242,247.646 197.177,255.16C179.812,263.283 156.23,271.047 120.887,277.953C156.236,306.712 185.792,340.166 233.53,360.11C236.32,344.497 244.039,330.578 254.14,320.328C263.687,310.64 275.749,303.945 288.392,303.508C290.594,298.306 293.77,292.951 298.985,288.578C305.395,283.204 314.611,280.255 325.917,280.422C327.328,278.453 328.939,276.635 330.724,274.998C323.34,273.395 314.534,271.83 303.579,269.412L233.038,232.813ZM353.313,283.112C353.273,283.121 353.229,283.124 353.188,283.133C341.924,286.862 340.674,289.909 336.241,299.211C327.757,298.206 316.994,297.13 310.551,302.371C304.534,308.684 303.272,315.067 300.866,323.086C286.854,319.81 275.096,324.928 266.962,332.963C258.93,341.113 252.612,352.979 250.88,365.613C256.806,368.241 262.989,369.827 269.019,371.34C281.709,355.842 301.289,337.827 319.679,334.489C332.674,321.045 348.348,316.409 360.862,314.598C364.431,311.335 368.381,308.515 372.626,306.198C365.994,294.412 360.221,287.576 353.313,283.112ZM121.302,301.994C119.335,314.928 113.305,326.567 120.662,348.299C153.022,418.954 161.704,372.029 214.397,371.252C175.453,352.314 148.271,325.515 121.302,301.994ZM389.067,319.096C384.197,320.068 379.724,322.632 376.005,325.376C385.202,337.625 392.992,352.689 399.285,369.186C407.201,367.134 414.035,364.574 420.388,361.68C413.915,334.918 401.437,323.704 389.068,319.096L389.067,319.096ZM359.132,333.002C351.456,334.511 343.544,337.362 336.358,343.352C344.725,352.196 357.334,368.125 362.411,386.635C370.043,385.367 378.321,382.937 383.417,378.059C376.809,360.201 368.359,344.329 359.132,333.002ZM320.993,352.67C306.68,358.027 295.736,367.651 286.319,378.608L305.702,404.932C319.398,403.442 332.341,398.678 345.092,391.633C340.402,376.535 326.472,358.721 320.645,353.026L320.993,352.67ZM429.841,377.035C423.162,380.134 415.868,383.02 407.604,385.41C413.927,395.73 419.222,406.548 423.206,417.953C430.909,414.883 438.108,411.581 444.47,407.871C440.506,396.591 435.79,385.816 429.84,377.035L429.841,377.035ZM164.687,408.39L214.325,451.767C225.599,438.251 241.369,427.827 256.817,417.825L234.797,392.505C210.463,384.495 182.041,394.86 164.687,408.39ZM391.9,394.153C385.034,399.209 377.757,401.88 370.105,403.53C375.476,412.84 380.48,423.032 384.459,433.285C392.405,431.146 399.91,428.853 406.803,425.51C403.155,414.613 398.123,404.207 391.9,394.153ZM352.02,408.258C340.261,414.571 327.829,419.42 314.6,421.803L327.916,449.25C342.579,447.073 356.015,445.566 367.582,439.504C363.387,428.798 357.805,417.798 352.019,408.258L352.02,408.258ZM450.037,425.414C443.41,429.018 436.39,432.117 429.191,434.948C432.021,442.115 434.471,449.067 436.401,455.705C446.798,454.27 456.664,449.793 454.58,441.836C453.157,436.54 451.657,431.006 450.037,425.414ZM268.82,431.54C252.758,442.104 237.73,452.515 228.092,463.796L229.484,465.013C246.132,479.561 265.74,485.488 274.434,474.143C282.956,463.023 284.97,450.027 268.82,431.54ZM412.83,442.497C405.664,445.831 398.43,448.131 391.365,450.077C394.416,457.068 397.207,463.926 399.609,470.557C408.809,470.1 417.341,466.532 418.939,460.115C417.317,454.625 415.251,448.706 412.83,442.497ZM374.393,456.187C361.669,462.583 348.527,464.654 336.209,466.341L342.209,478.708C352.247,489.413 374.865,490.044 384.419,481.652C381.765,473.745 378.319,465.136 374.393,456.187Z" style="fill:rgb(209,197,197);fill-rule:nonzero;"/>
</svg>
