<?xml version="1.0" encoding="UTF-8" standalone="no"?>
<!DOCTYPE svg PUBLIC "-//W3C//DTD SVG 1.1//EN" "http://www.w3.org/Graphics/SVG/1.1/DTD/svg11.dtd">
<svg width="100%" height="100%" viewBox="0 0 512 512" version="1.1" xmlns="http://www.w3.org/2000/svg" xmlns:xlink="http://www.w3.org/1999/xlink" xml:space="preserve" xmlns:serif="http://www.serif.com/" style="fill-rule:evenodd;clip-rule:evenodd;stroke-linejoin:round;stroke-miterlimit:2;">
    <rect x="0" y="0" width="512" height="512" style="fill-rule:nonzero;"/>
    <path d="M128,22.781C144.412,34.369 154.631,51.155 164.65,62.559C156.513,85.158 148.325,104.895 129.463,118.91C113.007,104.853 107.968,84.047 101.924,63.984C108.178,50.381 116.899,33.722 128,22.781ZM384,22.781C395.1,33.722 403.821,50.381 410.077,63.984C404.032,84.047 398.993,104.853 382.537,118.91C363.675,104.895 355.487,85.158 347.35,62.559C357.369,51.155 367.588,34.368 384,22.781Z" style="fill:rgb(96,96,96);"/>
    <path d="M222.23,46.104C256,160 192,272 209.799,381.891C184.946,358.181 157.415,336.142 127.951,328.824C124.973,329.883 121.771,331.124 119.227,332.283C97.562,244.423 78.458,140.617 72.221,57.691C75.759,58.965 79.297,60.811 82.842,63.115C93.231,91.377 105.069,118.394 121.232,134.4L135.842,302.187L155.775,310.625L139.225,133.518C163.266,114.147 176.568,87.684 185.19,58.784C197.282,53.333 210.684,48.853 222.23,46.104ZM289.77,46.104L289.769,46.102C301.315,48.852 314.717,53.332 326.81,58.782C335.431,87.683 348.734,114.147 372.774,133.517L356.224,310.624L376.157,302.186L390.767,134.399C406.93,118.394 418.768,91.376 429.158,63.114C432.702,60.81 436.24,58.964 439.778,57.69C433.542,140.616 414.437,244.423 392.772,332.283C390.228,331.123 387.026,329.883 384.048,328.823C354.584,336.14 327.053,358.18 302.2,381.89C320,272 256,160 289.77,46.104Z" style="fill:rgb(170,170,170);"/>
    <path d="M129.004,347.83C156.525,355.676 187.848,379.895 207.598,408.596L208.928,437.678L175.461,449.752L171.514,422.885C148.798,400.903 119.715,387.175 95.99,382.496C101.089,366.185 115.694,353.502 129.004,347.83ZM382.996,347.83C396.306,353.502 410.911,366.185 416.01,382.496C392.286,387.175 363.202,400.903 340.486,422.885L336.539,449.752L303.072,437.678L304.402,408.596C324.153,379.895 355.476,355.676 382.996,347.83Z" style="fill:white;"/>
    <path d="M90.69,399.703C120.879,404.857 139.841,416.076 154.544,431.211L158.819,460.295C118.028,482.846 82.335,495.426 29.776,486.133C25.51,471.584 28.121,454.226 38.433,438.975L90.69,399.703ZM421.312,399.703L473.569,438.975C483.881,454.226 486.492,471.583 482.226,486.133C429.667,495.426 393.974,482.845 353.183,460.295L357.458,431.211C372.161,416.076 391.123,404.857 421.312,399.703Z" style="fill:rgb(146,146,146);"/>
</svg>
