<?xml version="1.0" encoding="UTF-8" standalone="no"?>
<!DOCTYPE svg PUBLIC "-//W3C//DTD SVG 1.1//EN" "http://www.w3.org/Graphics/SVG/1.1/DTD/svg11.dtd">
<svg width="100%" height="100%" viewBox="0 0 512 512" version="1.1" xmlns="http://www.w3.org/2000/svg" xmlns:xlink="http://www.w3.org/1999/xlink" xml:space="preserve" xmlns:serif="http://www.serif.com/" style="fill-rule:evenodd;clip-rule:evenodd;stroke-linejoin:round;stroke-miterlimit:2;">
    <rect x="0" y="0" width="512" height="512" style="fill-rule:nonzero;"/>
    <g>
        <path d="M179.469,199.812L148.124,231.187L410.562,493.625L434.905,493.625L425.499,441.687L373.061,432.187L363.968,380.157L311.498,370.657L302.028,318.187L249.561,308.687L240.061,256.25L188.029,247.156L179.469,199.812Z" style="fill:white;fill-rule:nonzero;"/>
        <path d="M231.625,147.656L495.687,411.72L495.687,484.688L438.72,428.471L377.595,366.531L315.221,304.971L253.281,243.031L195.155,184.126L231.625,147.656Z" style="fill:rgb(173,173,173);"/>
        <path d="M59.563,22.22L59.564,22.218C71.057,49.08 87.88,74.167 109.344,95.626C129.755,116.031 153.932,132.733 179.562,144.406L239.75,84.22L254.188,98.684L98.22,254.654L83.75,240.218L142.344,181.626C118.656,129.266 72.876,84.216 20.156,61.656C26.509,41.037 39.856,28.15 59.563,22.22Z" style="fill:rgb(101,101,101);"/>
    </g>
</svg>
