<?xml version="1.0" encoding="UTF-8" standalone="no"?>
<!DOCTYPE svg PUBLIC "-//W3C//DTD SVG 1.1//EN" "http://www.w3.org/Graphics/SVG/1.1/DTD/svg11.dtd">
<svg width="100%" height="100%" viewBox="0 0 512 512" version="1.1" xmlns="http://www.w3.org/2000/svg" xmlns:xlink="http://www.w3.org/1999/xlink" xml:space="preserve" xmlns:serif="http://www.serif.com/" style="fill-rule:evenodd;clip-rule:evenodd;stroke-linejoin:round;stroke-miterlimit:2;">
    <rect x="0" y="0" width="512" height="512" style="fill-rule:nonzero;"/>
    <path d="M135.625,315.095L146.437,325.905L17.187,455.125L17.187,433.188L135.625,315.095ZM159.625,339.094L193.28,372.75L70.907,495.125L17.187,495.125L17.187,481.53L159.625,339.094Z" style="fill:rgb(175,158,90);"/>
    <path d="M339.718,55.875L339.72,55.875C401.513,55.876 451.624,105.961 451.624,167.75C451.624,229.545 401.509,279.625 339.719,279.625C277.924,279.625 227.844,229.54 227.844,167.75C227.844,105.956 277.927,55.876 339.718,55.875ZM339.72,74.75C332.116,74.75 324.728,75.686 317.655,77.406C334.813,78.614 348.375,92.88 348.375,110.344C348.375,128.601 333.569,143.406 315.313,143.406C297.056,143.406 282.25,128.601 282.25,110.344C282.25,102.308 285.139,94.948 289.906,89.22C263.958,105.717 246.75,134.716 246.75,167.75C246.75,219.108 288.357,260.75 339.72,260.75C391.077,260.75 432.72,219.112 432.72,167.75C432.72,116.392 391.08,74.75 339.72,74.75ZM277.187,139.78C285.614,139.78 292.437,146.612 292.437,155.03C292.437,163.458 285.607,170.28 277.187,170.28C268.761,170.28 261.907,163.45 261.907,155.03C261.907,146.605 268.769,139.78 277.187,139.78Z" style="fill:rgb(169,16,117);"/>
    <path d="M200.875,212.75L296.125,308.031C288.398,308.923 281.319,310.483 274.875,312.656L196.375,234.156C198.533,227.67 200.029,220.546 200.875,212.75ZM187.75,251.97L257.094,321.313C249.764,326.233 243.686,332.403 238.844,339.813L169.25,270.188C176.672,265.363 182.84,259.305 187.75,251.97ZM151.313,278.688L230.281,357.688C228.126,364.065 226.534,371.029 225.531,378.563C192.889,345.921 162.888,315.087 130.344,283.375C137.914,282.404 144.907,280.824 151.313,278.688Z" style="fill:rgb(172,137,230);"/>
</svg>
