<?xml version="1.0" encoding="UTF-8" standalone="no"?>
<!DOCTYPE svg PUBLIC "-//W3C//DTD SVG 1.1//EN" "http://www.w3.org/Graphics/SVG/1.1/DTD/svg11.dtd">
<svg width="100%" height="100%" viewBox="0 0 512 512" version="1.1" xmlns="http://www.w3.org/2000/svg" xmlns:xlink="http://www.w3.org/1999/xlink" xml:space="preserve" xmlns:serif="http://www.serif.com/" style="fill-rule:evenodd;clip-rule:evenodd;stroke-linejoin:round;stroke-miterlimit:2;">
    <rect x="0" y="0" width="512" height="512" style="fill-rule:nonzero;"/>
    <path d="M41.813,65.225L84.49,105.82C87.43,101.337 90.45,97.503 93.976,93.977C97.502,90.452 101.336,87.431 105.819,84.491L65.226,41.814L59.372,59.372L41.813,65.225Z" style="fill:rgb(121,119,113);fill-rule:nonzero;"/>
    <path d="M24.68,24.681C28.216,21.145 34.459,18.831 40.944,18.831C45.335,18.831 49.544,19.953 52.947,21.735L45.145,45.144L21.735,52.947C19.953,49.544 18.83,45.334 18.83,40.944C18.83,34.459 21.145,28.218 24.68,24.681ZM195.646,195.645C204.76,186.532 218.093,178.566 246.243,159.976L257.335,171.068C205.715,205.229 205.228,205.715 171.068,257.335L159.976,246.243C178.566,218.092 186.532,204.76 195.646,195.645ZM219.688,219.688C223.685,215.69 228.229,212.111 234.349,207.83L471.933,450.695L493.169,493.169L450.695,471.933L207.83,234.349C212.111,228.228 215.69,223.685 219.688,219.688Z" style="fill:rgb(170,170,170);"/>
    <path d="M106.705,106.705C109.772,103.638 113.468,100.887 118.511,97.833L192.178,175.279C188.871,177.924 185.962,180.493 183.227,183.228C180.493,185.962 177.924,188.871 175.279,192.178L97.833,118.511C100.887,113.468 103.638,109.772 106.705,106.705Z" style="fill:rgb(255,26,0);"/>
</svg>
