<?xml version="1.0" encoding="UTF-8" standalone="no"?>
<!DOCTYPE svg PUBLIC "-//W3C//DTD SVG 1.1//EN" "http://www.w3.org/Graphics/SVG/1.1/DTD/svg11.dtd">
<svg width="100%" height="100%" viewBox="0 0 512 512" version="1.1" xmlns="http://www.w3.org/2000/svg" xmlns:xlink="http://www.w3.org/1999/xlink" xml:space="preserve" xmlns:serif="http://www.serif.com/" style="fill-rule:evenodd;clip-rule:evenodd;stroke-linejoin:round;stroke-miterlimit:2;">
    <rect x="0" y="0" width="512" height="512" style="fill-rule:nonzero;"/>
    <path d="M284.736,29.215C282.402,29.2 280.056,29.216 277.701,29.264C244.726,29.928 209.915,36.76 179.383,50.496C144.488,66.194 115.326,90.659 99.404,125.168C84.404,157.68 81.044,199.759 96.896,253.453C101.328,251.427 105.831,249.562 110.398,247.863C100.532,203.902 104.781,167.618 118.699,138.853C134.163,106.895 161.163,84.703 191.649,70.551C222.133,56.398 256.232,50.057 287.387,49.601C289.334,49.573 291.269,49.566 293.191,49.582C316.038,49.768 337.005,53.076 353.805,59.418C360.925,56.058 367.415,52.524 372.719,48.566C352.272,37.455 323.339,30.412 291.703,29.354C289.381,29.276 287.059,29.229 284.736,29.214L284.736,29.215ZM463.434,139.281C459.478,144.582 455.945,151.069 452.586,158.186C459.462,176.399 462.765,199.521 462.398,224.613C461.943,255.768 455.602,289.867 441.449,320.352C427.296,350.837 405.105,377.837 373.146,393.301C344.382,407.219 308.098,411.468 264.136,401.601C262.437,406.168 260.572,410.672 258.546,415.104C312.241,430.956 354.32,427.596 386.832,412.596C421.342,396.674 445.806,367.512 461.504,332.617C477.202,297.723 483.883,257.241 482.646,220.297C481.588,188.66 474.546,159.728 463.434,139.281ZM280.609,197.857L280.609,231.391L314.143,231.391L314.143,197.857L280.609,197.857Z" style="fill:white;fill-rule:nonzero;"/>
    <path d="M293.029,67.588C305.282,67.714 316.895,68.89 327.238,70.864C319.178,74.252 311.127,77.752 303.691,81.664C290.083,88.823 277.648,98.336 273.643,113.461C270.033,127.093 274.004,142.887 285.861,161.877L183.658,264.08C183.477,262.942 183.263,261.813 182.957,260.707C180.141,250.542 171.155,243.72 161.225,241.395C151.407,239.096 140.032,239.686 127.66,242.59C118.85,202.468 123.05,171.19 134.902,146.695C148.216,119.18 171.558,99.724 199.229,86.877C226.9,74.03 258.77,68.021 287.65,67.6C289.455,67.573 291.249,67.569 293.029,67.588ZM441.137,184.761C443.396,196.607 444.608,210.122 444.4,224.35C443.979,253.229 437.97,285.101 425.123,312.771C412.276,340.442 392.82,363.784 365.305,377.098C340.81,388.95 309.532,393.15 269.41,384.34C272.314,371.968 272.905,360.593 270.605,350.775C268.28,340.845 261.458,331.859 251.293,329.043C250.187,328.737 249.058,328.523 247.92,328.342L350.123,226.139C369.114,237.996 384.907,241.967 398.539,238.357C413.664,234.352 423.177,221.917 430.336,208.309C434.247,200.873 437.747,192.821 441.137,184.761Z" style="fill:rgb(176,173,173);"/>
    <path d="M376.086,135.914L366.385,184.42L332.143,218.662L332.143,179.857L293.336,179.857L327.578,145.615L376.086,135.914ZM262.609,210.584L262.609,249.391L301.416,249.391L267.172,283.634L218.666,293.334L228.365,244.828L262.609,210.584ZM205.419,267.774L195.719,316.281L244.227,306.58L207.191,343.615L168.385,304.809L205.419,267.774ZM155.659,317.535L194.465,356.342L168.543,382.266L129.734,343.457L155.659,317.535Z" style="fill:rgb(117,112,112);"/>
    <path d="M117.008,356.185L155.814,394.992L54.807,496L16,496L16,457.194L117.008,356.185Z" style="fill:rgb(198,93,34);"/>
</svg>
