<?xml version="1.0" encoding="UTF-8" standalone="no"?>
<!DOCTYPE svg PUBLIC "-//W3C//DTD SVG 1.1//EN" "http://www.w3.org/Graphics/SVG/1.1/DTD/svg11.dtd">
<svg width="100%" height="100%" viewBox="0 0 512 512" version="1.1" xmlns="http://www.w3.org/2000/svg" xmlns:xlink="http://www.w3.org/1999/xlink" xml:space="preserve" xmlns:serif="http://www.serif.com/" style="fill-rule:evenodd;clip-rule:evenodd;stroke-linejoin:round;stroke-miterlimit:2;">
    <rect x="0" y="0" width="512" height="512" style="fill-rule:nonzero;"/>
    <path d="M487.666,24.334C463.046,35.52 442.12,42.942 424.526,46.234L465.766,87.474C469.058,69.88 476.48,48.954 487.666,24.334ZM401.584,48.748C369.496,60.238 341.549,61.488 317.178,53.365L307.504,50.143L305.506,60.139C295.389,110.721 286.619,143.419 268.796,181.833L330.166,243.203C368.579,225.38 401.278,216.61 451.861,206.493L461.858,204.495L458.636,194.821C450.512,170.451 451.763,142.503 463.253,110.415L401.584,48.748ZM403.609,66.896C389.762,78.581 373.761,86.846 348.269,86.846L342.709,86.846L340.222,91.82C321.454,129.356 302.387,166.727 284.728,190.09C302.178,152.5 311.603,119.044 321.128,73.002C346.333,79.062 373.941,76.842 403.608,66.896L403.609,66.896ZM411.511,83.172L303.65,194.957C321.014,170.603 337.384,137.753 353.926,104.637C378.829,103.444 396.806,94.512 411.512,83.172L411.511,83.172ZM428.827,100.488C417.487,115.195 408.555,133.171 407.362,158.074C374.246,174.616 341.396,190.986 317.042,208.35L428.827,100.488ZM445.103,108.391C435.158,138.058 432.937,165.666 438.997,190.871C392.955,200.396 359.497,209.821 321.909,227.271C345.272,209.613 382.643,190.546 420.179,171.778L425.153,169.29L425.153,163.73C425.153,138.238 433.418,122.237 445.103,108.39L445.103,108.391ZM252.811,191.306L240.083,204.034L307.966,271.917L320.694,259.189L252.811,191.306ZM178.564,278.28L165.836,291.008L220.99,346.162L233.72,333.434L178.564,278.28ZM99.37,357.474L86.643,370.202L141.797,425.356L154.525,412.628L99.37,357.474Z" style="fill:rgb(167,162,162);fill-rule:nonzero;"/>
    <path d="M85.23,394.244L117.757,426.77L50.527,494L18,494L18,461.472L85.23,394.244Z" style="fill:rgb(143,86,58);"/>
    <path d="M246.448,233.024L278.975,265.552L235.133,309.394L202.605,276.866L246.448,233.024ZM164.422,315.05L196.947,347.576L155.937,388.588L123.41,356.06L164.422,315.05Z" style="fill:rgb(143,86,58);"/>
</svg>
