<?xml version="1.0" encoding="UTF-8" standalone="no"?>
<!DOCTYPE svg PUBLIC "-//W3C//DTD SVG 1.1//EN" "http://www.w3.org/Graphics/SVG/1.1/DTD/svg11.dtd">
<svg width="100%" height="100%" viewBox="0 0 512 512" version="1.1" xmlns="http://www.w3.org/2000/svg" xmlns:xlink="http://www.w3.org/1999/xlink" xml:space="preserve" xmlns:serif="http://www.serif.com/" style="fill-rule:evenodd;clip-rule:evenodd;stroke-linejoin:round;stroke-miterlimit:2;">
    <rect x="0" y="0" width="512" height="512" style="fill-rule:nonzero;"/>
    <path d="M335.656,19.53C311.146,19.623 286.663,24.765 264.594,35.156C242.134,45.733 221.482,69.358 206.219,97.719C190.955,126.079 181.037,158.981 178.529,186.469C171.042,268.581 126.603,341.821 18.749,439.029L18.561,460.469C89.216,403.443 139.915,346.632 176.313,290L176.376,290.03C167.083,322.503 153.753,353.21 132.782,378C101.312,413.584 63.56,449.1 18.314,484.53L18.252,492.78L43.252,492.844L43.722,492.844L45.002,491.688C69.407,475.19 93.609,460.2 117.596,450.188L117.783,450.375L71.347,492.875L100.284,492.938C148.656,451.253 194.998,402.358 229.91,355.938C263.497,311.28 285.93,268.626 290.598,239.094C289.33,236.774 288.046,234.466 286.942,232C268.109,189.94 282.669,135.576 327.16,115.937C359.89,101.487 402.014,112.772 417.598,147.281C417.748,147.614 417.922,147.915 418.068,148.251C431.37,172.313 424.243,197.731 408.723,210.221C400.857,216.549 390.281,219.749 379.973,216.781C369.663,213.815 360.93,205.009 355.473,191.657L372.753,184.595C376.745,194.359 381.42,197.745 385.128,198.815C388.836,199.881 392.895,198.963 397.003,195.657C405.219,189.047 411.285,173.747 401.409,156.627L401.129,156.157L400.909,155.657C390.209,130.837 358.949,122.324 334.689,133.032C300.626,148.069 289.095,191.084 304.003,224.377C324.53,270.223 381.973,285.554 426.378,265.252C486.535,237.752 506.508,161.924 479.472,103.439C454.735,49.936 398.062,20.955 340.564,19.596C338.931,19.556 337.292,19.526 335.658,19.533L335.656,19.53ZM309.906,46.25C313.144,46.285 316.269,46.598 319.312,47.156C329.655,49.054 339.258,53.909 348.344,60.406C317.721,54.969 290.02,65.018 267.564,85.188C245.124,105.34 228.404,135.778 221.781,169.906C217.126,158.548 214.615,148.444 215.095,138.186C215.391,131.843 216.81,125.23 219.875,117.969C228.969,99.953 240.907,84.023 255.095,71.279C262.919,64.253 271.485,58.209 280.625,53.374C291.557,48.162 301.147,46.154 309.907,46.249L309.906,46.25ZM432.844,108.563C455.427,121.73 467.209,150.423 465.781,179.219C465.217,190.614 462.315,202.194 456.876,212.843C444.396,231.78 421.346,238.353 406.906,233.718L406.814,233.468C434.757,223.103 445.994,201.091 447.126,178.278C447.25,175.778 447.241,173.284 447.096,170.81C448.543,157.5 446.684,142.017 441.626,127.373C439.382,120.877 436.476,114.483 432.782,108.653L432.846,108.56L432.844,108.563ZM297.281,109.875C276.311,129.217 267.875,145.127 264.031,161.125C260.183,177.148 261.243,193.965 261.126,214C260.986,237.79 258.566,265.542 242.688,299.688C242.683,299.7 242.663,299.706 242.658,299.718C221.563,326.471 197.382,351.968 173.751,367.094L173.688,367.064C237.883,295.519 242.215,252.272 242.438,213.874C242.55,194.677 241.185,176.28 245.876,156.75C246.446,154.38 247.109,152.008 247.876,149.625L247.906,149.625C256.004,132.589 264.478,123.567 273.376,118.062C280.556,113.622 288.411,111.365 297.282,109.875L297.281,109.875Z" style="fill:rgb(158,103,61);fill-rule:nonzero;"/>
</svg>
