<?xml version="1.0" encoding="UTF-8" standalone="no"?>
<!DOCTYPE svg PUBLIC "-//W3C//DTD SVG 1.1//EN" "http://www.w3.org/Graphics/SVG/1.1/DTD/svg11.dtd">
<svg width="100%" height="100%" viewBox="0 0 512 512" version="1.1" xmlns="http://www.w3.org/2000/svg" xmlns:xlink="http://www.w3.org/1999/xlink" xml:space="preserve" xmlns:serif="http://www.serif.com/" style="fill-rule:evenodd;clip-rule:evenodd;stroke-linejoin:round;stroke-miterlimit:2;">
    <rect x="0" y="0" width="512" height="512" style="fill-rule:nonzero;"/>
    <path d="M272.719,102.282L280.154,119.407C264.807,126.057 250.599,133.194 238.094,141.501C303.039,262.855 333.914,412.595 495.374,467.845C369.987,548.372 190.847,414.578 113.094,229.188C127.194,228.741 141.837,224.398 155.124,217.563C196.2,335.897 300.828,433.35 419.406,465.625C369.42,443.682 323.148,413.598 289.936,376.595C235.186,331.414 191.926,270.978 170.436,204.501C171.919,198.149 173.856,192.148 176.156,186.471C186.843,165.197 198.966,150.491 212.436,137.751C212.561,137.634 212.688,137.524 212.811,137.407C230.111,122.911 250.896,111.738 272.719,102.282Z" style="fill:rgb(166,166,166);"/>
    <path d="M167.843,95.626L167.845,95.623C176.878,106.858 185.153,118.688 192.875,130.968C183.84,140.363 175.19,151.067 167.25,164.093C157.497,145.913 146.541,132.314 135.125,121.969C146.006,110.726 156.779,102.43 167.843,95.626Z" style="fill:rgb(0,167,255);"/>
    <path d="M110.563,41.656C127.503,53.409 142.367,66.776 155.654,81.375C143.83,88.94 132.054,98.226 120.374,110.438C109.942,103.501 99.387,98.754 89.219,95.344C96.618,73.732 103.537,56.786 110.563,41.656Z" style="fill:rgb(0,112,255);"/>
    <path d="M57.656,16.156C61.842,16.052 66.292,16.964 71,19.126C79.315,22.944 87.197,27.1 94.72,31.53C86.96,48.042 79.272,66.585 71.156,90.374C32.88,81.803 6.05,85.91 24.5,44.813C31.24,29.793 42.71,16.533 57.656,16.156Z" style="fill:rgb(0,35,255);"/>
</svg>
