<?xml version="1.0" encoding="UTF-8" standalone="no"?>
<!DOCTYPE svg PUBLIC "-//W3C//DTD SVG 1.1//EN" "http://www.w3.org/Graphics/SVG/1.1/DTD/svg11.dtd">
<svg width="100%" height="100%" viewBox="0 0 512 512" version="1.1" xmlns="http://www.w3.org/2000/svg" xmlns:xlink="http://www.w3.org/1999/xlink" xml:space="preserve" xmlns:serif="http://www.serif.com/" style="fill-rule:evenodd;clip-rule:evenodd;stroke-linejoin:round;stroke-miterlimit:2;">
    <rect x="0" y="0" width="512" height="512" style="fill-rule:nonzero;"/>
    <path d="M339.8,33.47L353.8,36.28C352.6,39.3 351.3,42.6 349.8,46.03C344,59.66 335.6,75.34 329.8,81.15C324.9,86 310,90.72 296.7,92.63C285.5,94.43 274.3,96.53 263,96.53L263,112.5L249,112.5L249,96.53C237,96.63 224.8,93.93 215.3,92.63C202,90.73 187.1,86.01 182.2,81.18C176.4,75.37 168,59.69 162.2,46.07C160.7,42.63 159.4,39.32 158.2,36.28L172.2,33.47C180.6,44.84 210.2,80.53 256,80.53C301.8,80.53 331.4,44.84 339.8,33.47ZM263,130.5L263,144.5L249,144.5L249,130.5L263,130.5ZM263,162.5L263,186L264.3,188.1C264.3,188.1 276.5,208.5 293,229.1C301.2,239.4 310.5,249.8 320.2,257.9C330,266 340.3,272.5 352,272.5C367.6,272.5 382,266.4 393.7,259.5L391.6,274.5L337.4,315.2L256,217.4L174.6,315.2L120.4,274.5L118.3,259.5C130,266.4 144.4,272.5 160,272.5C171.7,272.5 182,266 191.8,257.9C201.5,249.8 210.8,239.4 219,229.1C235.5,208.5 247.7,188.1 247.7,188.1L249,186L249,162.5L263,162.5Z" style="fill:rgb(96,96,96);fill-rule:nonzero;"/>
    <path d="M371.7,39.85L403.6,46.23L373.9,120.6L406.6,169.6L397.1,235.7C395.3,237.1 393.3,238.5 391.1,240C379.8,247.5 365,254.5 352,254.5C347.7,254.5 340,251 331.8,244.1C323.5,237.2 314.8,227.6 307,217.9C292.8,200 282.7,183.7 281,180.9L281,162.5L292,162.5L292,144.5L281,144.5L281,130.5L292,130.5L292,112.5C292,112.5 330.9,104.8 342.4,93.93C352.6,83.82 360.2,67.5 366.4,53.11C368.4,48.32 370.2,43.81 371.7,39.85ZM140.3,39.85C141.8,43.81 143.6,48.33 145.6,53.14C151.8,67.53 159.4,83.85 169.6,93.93C185,107.1 220,112.5 220,112.5L220,130.5L231,130.5L231,144.5L220,144.5L220,162.5L231,162.5L231,180.9C229.3,183.7 219.2,200 205,217.9C197.2,227.6 188.5,237.2 180.2,244.1C172,251 164.3,254.5 160,254.5C147,254.5 132.2,247.5 120.9,240C118.7,238.5 116.7,237.1 114.9,235.7L105.4,169.6L138.1,120.6L108.4,46.22L140.3,39.85ZM256,245.6L334.6,339.8L367.7,315L360.3,352C347.2,355.1 296.1,366.5 256,366.5C215.9,366.5 164.8,355.1 151.7,352L144.3,315L177.4,339.8L256,245.6ZM377.7,419.5L388.9,464.2C388.9,464.2 332.7,484.4 303.3,488.5C272.1,492.8 239.9,492.8 208.7,488.5C179.3,484.4 123.1,464.2 123.1,464.2L134.3,419.5C142.4,422.6 154.4,426.9 171.4,432.1C197.7,440.2 230,448.5 256,448.5C282,448.5 314.3,440.2 340.6,432.1C357.6,426.9 369.6,422.6 377.7,419.5Z" style="fill:rgb(140,99,84);"/>
    <path d="M346.3,373.6L355,408.5C349.1,410.5 342.5,412.7 335.4,414.9C331.2,416.2 326.8,417.5 322.4,418.7L315.8,379.1C327.1,377.3 337.6,375.3 346.3,373.6ZM165.7,373.6C174.4,375.3 184.9,377.3 196.2,379.1L189.6,418.7C185.2,417.5 180.8,416.2 176.6,414.9C169.5,412.7 162.9,410.5 157,408.5L165.7,373.6ZM297.9,381.6L304.8,423.3C290.9,426.6 277,429.2 265,430.1L265,384.3C275.8,384 287,382.9 297.9,381.6ZM214.1,381.6C225,382.9 236.2,384 247,384.3L247,430.1C235,429.2 221.1,426.6 207.2,423.3L214.1,381.6Z" style="fill:rgb(234,219,175);"/>
</svg>
