<?xml version="1.0" encoding="UTF-8" standalone="no"?>
<!DOCTYPE svg PUBLIC "-//W3C//DTD SVG 1.1//EN" "http://www.w3.org/Graphics/SVG/1.1/DTD/svg11.dtd">
<svg width="100%" height="100%" viewBox="0 0 512 512" version="1.1" xmlns="http://www.w3.org/2000/svg" xmlns:xlink="http://www.w3.org/1999/xlink" xml:space="preserve" xmlns:serif="http://www.serif.com/" style="fill-rule:evenodd;clip-rule:evenodd;stroke-linejoin:round;stroke-miterlimit:2;">
    <rect x="0" y="0" width="512" height="512" style="fill-rule:nonzero;"/>
    <path d="M121.591,335.472L18,439.063L18,494L73.373,494L176.746,390.627L121.591,335.472Z" style="fill:rgb(151,127,102);fill-rule:nonzero;"/>
    <path d="M208.592,218.828L293.392,303.626C292.876,311.234 290.829,316.141 287.762,319.211C284.694,322.278 279.786,324.326 272.178,324.841L187.378,240.041C187.894,232.433 189.94,227.525 193.008,224.458C196.075,221.388 200.984,219.343 208.592,218.828ZM189.473,267.593L244.627,322.745L223.414,343.959L168.26,288.805L189.473,267.593ZM144.219,290.219L222,368L200.785,389.211L123.005,311.431L144.219,290.219Z" style="fill:rgb(162,90,90);"/>
    <path d="M373,20L414,34L373,41.453C328.158,45.984 293,83.99 293,130C293,142.48 295.592,154.367 300.255,165.16L283.815,169.27L277.645,174.658L268.842,196.666C259.387,179.592 254,159.94 254,139C254,137.352 254.043,135.714 254.11,134.082L206,98L266.436,85.912C285.913,46.806 326.263,20 373,20ZM478,114L492,139C492,185.737 465.194,226.087 426.088,245.564L414,306L377.918,257.89C376.286,257.957 374.648,258 373,258C352.06,258 332.408,252.613 315.334,243.158L337.342,234.354L342.73,228.184L346.84,211.744C357.633,216.41 369.52,219 382,219C428.009,219 466.017,183.842 470.547,139L478,114ZM252.646,204.418C255.066,208.852 257.728,213.136 260.605,217.258L252.568,237.348L236.143,220.922L252.646,204.418ZM294.746,251.393C298.955,254.331 303.331,257.048 307.865,259.508L291.297,276.076L274.652,259.433L294.746,251.393Z" style="fill:rgb(184,184,184);"/>
    <path d="M337.63,174.37L326.384,219.355L270.154,241.845L292.646,185.615L337.63,174.37Z" style="fill:rgb(255,0,13);"/>
</svg>
