<?xml version="1.0" encoding="UTF-8" standalone="no"?>
<!DOCTYPE svg PUBLIC "-//W3C//DTD SVG 1.1//EN" "http://www.w3.org/Graphics/SVG/1.1/DTD/svg11.dtd">
<svg width="100%" height="100%" viewBox="0 0 512 512" version="1.1" xmlns="http://www.w3.org/2000/svg" xmlns:xlink="http://www.w3.org/1999/xlink" xml:space="preserve" xmlns:serif="http://www.serif.com/" style="fill-rule:evenodd;clip-rule:evenodd;stroke-linejoin:round;stroke-miterlimit:2;">
    <rect x="0" y="0" width="512" height="512" style="fill-rule:nonzero;"/>
    <path d="M483.424,24.638L449.83,39.98C450.774,40.954 451.694,41.97 452.584,43.048C456.128,47.338 459.13,51.938 461.654,56.793L483.424,24.638ZM262.244,39.064L266.461,81.591C273.684,74.608 281.336,67.997 289.431,62.016L262.245,39.066L262.244,39.064ZM339.477,47.195L340.793,105.125C346.24,111.753 350.831,114.41 353.891,115.058C357.276,115.775 359.741,114.928 362.593,112.601C365.445,110.274 368.076,106.253 369.383,102.329C370.636,98.572 370.393,95.224 370.007,94.099L339.477,47.196L339.477,47.195ZM203.42,111.885L241.04,175.869C251.108,171.617 257.177,166.761 259.98,162.067C262.997,157.017 263.39,151.327 260.942,143.52L203.42,111.884L203.42,111.885ZM487.483,157.645L409.147,164.158C402.619,165.78 400.917,168.131 399.895,171.601C398.845,175.159 399.438,180.939 402.051,186.819C404.665,192.699 409.136,198.467 413.796,202.036C417.898,205.176 421.663,206.358 424.72,206.141C425.32,205.708 425.94,205.265 426.88,204.565C430.306,202.002 433.715,199.416 437.106,196.807C445.494,190.377 456.534,181.812 467.514,173.26C477.552,165.44 479.594,163.818 487.484,157.644L487.483,157.645ZM312.38,244.497C311.9,244.504 311.423,244.537 310.95,244.594C307.526,245.014 303.858,246.774 299.883,251.462L283.387,346.985L332.567,270.477C334.581,263.364 330.072,253.151 322.641,247.973C319.768,245.971 316.758,244.811 313.835,244.551C313.352,244.508 312.867,244.49 312.382,244.497L312.38,244.497ZM386.4,274.017C383.858,275.346 381.299,276.641 378.723,277.903C373.596,280.408 368.415,282.79 363.235,285.135L390.995,302.182L386.401,274.016L386.4,274.017Z" style="fill:white;fill-rule:nonzero;"/>
    <path d="M405.414,41.422C407.356,41.389 409.298,41.434 411.235,41.557C422.514,42.297 431.645,45.964 438.709,54.514C441.209,57.541 443.385,60.859 445.265,64.421L425.385,129.034L454.312,97.784C455.137,107.044 454.984,116.871 453.962,126.971C453.439,132.131 452.692,137.343 451.772,142.551L406.11,146.348L405.465,146.501C393.774,149.237 385.382,157.185 382.632,166.511C379.883,175.839 381.766,185.486 385.606,194.126C389.444,202.768 395.401,210.619 402.856,216.326C408.306,220.5 414.863,223.628 421.886,224.172C409.528,240.402 391.493,251.632 370.823,261.732C364.376,264.882 357.7,267.885 350.94,270.885C353.104,256.013 344.827,241.492 332.932,233.205C327.848,229.662 321.812,227.175 315.348,226.615C313.154,226.425 310.946,226.463 308.76,226.728C299.839,227.822 291.037,233.061 284.254,242.058L282.942,243.798L282.572,245.945L270.359,316.668C233.829,344.629 202.156,374.043 164.039,398.713C123.642,424.857 63.814,480.875 56.929,487.357C52.94,487.449 46.812,486.167 41.034,483.862L125.041,396.562L27.875,475.275C26.055,473.213 24.997,471.263 24.707,469.845C24.272,467.725 24.277,466.002 28.182,462.152L28.252,462.082L28.322,462.01C28.322,462.01 119.643,368.216 160.286,306.576C174.556,284.933 185.932,260.718 196.376,236.513L199.126,298.11L216.351,189.486C218.034,185.616 219.734,181.818 221.444,178.056L233.097,197.876L239.997,195.591C256.772,190.042 268.857,182.308 275.432,171.298C282.009,160.29 281.754,146.95 276.862,134.168L275.685,131.088L272.793,129.498L255.653,120.07C274.291,97.349 296.696,75.963 321.831,63.023L322.935,111.558L324.653,113.863C332.559,124.453 341.103,130.746 350.159,132.666C359.216,134.585 367.89,131.51 373.972,126.548C380.054,121.583 384.151,114.942 386.459,108.018C388.765,101.096 389.565,93.688 386.465,86.608L386.168,85.928L385.764,85.308L362.214,49.13C374.867,45.703 387.654,42.626 399.234,41.72C401.354,41.555 403.414,41.452 405.414,41.422Z" style="fill:rgb(146,114,46);"/>
</svg>
