<?xml version="1.0" encoding="UTF-8" standalone="no"?>
<!DOCTYPE svg PUBLIC "-//W3C//DTD SVG 1.1//EN" "http://www.w3.org/Graphics/SVG/1.1/DTD/svg11.dtd">
<svg width="100%" height="100%" viewBox="0 0 512 512" version="1.1" xmlns="http://www.w3.org/2000/svg" xmlns:xlink="http://www.w3.org/1999/xlink" xml:space="preserve" xmlns:serif="http://www.serif.com/" style="fill-rule:evenodd;clip-rule:evenodd;stroke-linejoin:round;stroke-miterlimit:2;">
    <rect x="0" y="0" width="512" height="512" style="fill-rule:nonzero;"/>
    <path d="M390.531,238.344C374.626,249.757 358.894,256.748 343.064,259.844C372.327,299.414 392.991,331.287 405.344,355.844C412.148,369.367 416.506,380.632 418.251,390.406C419.996,400.18 419.127,409.823 412.438,416.312C405.75,422.802 396.222,423.52 386.313,421.844C376.405,420.168 364.919,415.964 351.126,409.406C325.758,397.348 292.749,377.112 251.906,348.5C249.26,364.847 243.002,380.71 232.846,396.03C296.916,439.61 396.342,479.813 479.314,484.813C482.928,399.566 436.986,303.789 390.532,238.343L390.531,238.344Z" style="fill:rgb(197,197,197);fill-rule:nonzero;"/>
    <path d="M284.876,254.908C297.188,259.078 309.234,261.4 321.156,261.688C353.776,305.145 376.256,339.604 388.656,364.251C394.992,376.847 398.637,386.931 399.844,393.687C401.05,400.447 399.798,402.527 399.406,402.907C399.015,403.287 396.488,404.6 389.438,403.407C382.388,402.215 372.013,398.658 359.125,392.531C333.627,380.411 298.041,358.423 253.313,326.626C252.996,316.002 251.29,305.186 248.22,294.186C267.463,290.486 282.5,274.575 284.876,254.908Z" style="fill:rgb(143,143,143);"/>
    <path d="M239.656,222.594L239.657,222.592C254.603,222.592 266.531,234.521 266.531,249.468C266.531,264.413 254.602,276.343 239.656,276.343C224.71,276.343 212.812,264.414 212.812,249.469C212.812,234.524 224.71,222.594 239.656,222.594Z" style="fill:rgb(218,255,0);"/>
    <path d="M34.22,19.844L222.25,207.405C212.729,211.381 204.825,218.512 199.845,227.469L21.875,49.969L21.813,19.969L34.22,19.844Z" style="fill:rgb(96,75,48);"/>
</svg>
