<?xml version="1.0" encoding="UTF-8" standalone="no"?>
<!DOCTYPE svg PUBLIC "-//W3C//DTD SVG 1.1//EN" "http://www.w3.org/Graphics/SVG/1.1/DTD/svg11.dtd">
<svg width="100%" height="100%" viewBox="0 0 512 512" version="1.1" xmlns="http://www.w3.org/2000/svg" xmlns:xlink="http://www.w3.org/1999/xlink" xml:space="preserve" xmlns:serif="http://www.serif.com/" style="fill-rule:evenodd;clip-rule:evenodd;stroke-linejoin:round;stroke-miterlimit:2;">
    <rect x="0" y="0" width="512" height="512" style="fill-rule:nonzero;"/>
    <path d="M215,163L226.5,216.1L239,223.6L257.6,210.3C264.4,205.4 272.2,203.5 279.8,203.7C280.7,203.7 281.6,203.8 282.5,203.8L215,163ZM474.3,192.9L385.6,253.4L400.5,312.7L489.7,253.8L474.3,192.9ZM321.9,227.7C324.5,231.7 326.4,236.1 327.2,240.9C328.8,250.1 324.8,260.8 315.7,267.1L315.7,267.2L314,268.4L380.9,308.4L367.6,255.3L321.9,227.7Z" style="fill:rgb(96,96,96);fill-rule:nonzero;"/>
    <path d="M277.9,221.6L279.5,221.6C280.9,221.6 282.3,221.8 283.8,222.1C289.8,223.3 296.3,226.7 301.1,230.9C305.9,235.2 308.9,240.4 309.5,243.9C310.1,247.4 309.8,249.3 305.3,252.4L305.3,252.5L65.68,420.9C56.86,427 49.85,428.3 44.06,427.6C38.27,426.9 33.29,423.9 29.43,419.7C25.56,415.5 23.08,410.2 22.47,406.1C21.86,402.1 22.74,400.6 23.55,400L268,224.9C271,222.8 274.3,221.7 277.9,221.6Z" style="fill:rgb(144,92,55);"/>
    <path d="M307.3,84.2L463.2,178.7L375.1,238.8L218.5,143.9L307.3,84.2Z" style="fill:rgb(166,166,166);"/>
</svg>
