<?xml version="1.0" encoding="UTF-8" standalone="no"?>
<!DOCTYPE svg PUBLIC "-//W3C//DTD SVG 1.1//EN" "http://www.w3.org/Graphics/SVG/1.1/DTD/svg11.dtd">
<svg width="100%" height="100%" viewBox="0 0 512 512" version="1.1" xmlns="http://www.w3.org/2000/svg" xmlns:xlink="http://www.w3.org/1999/xlink" xml:space="preserve" xmlns:serif="http://www.serif.com/" style="fill-rule:evenodd;clip-rule:evenodd;stroke-linejoin:round;stroke-miterlimit:2;">
    <rect x="0" y="0" width="512" height="512" style="fill-rule:nonzero;"/>
    <g>
        <path d="M192,32C194.506,32.834 197.021,33.64 199.545,34.416L199.346,34.473C204.565,52.741 208.953,76.268 212.404,103L192,103L192,121L214.537,121C215.613,130.986 216.545,140.987 217.334,151L192,151L192,169L218.619,169C219.248,178.847 219.766,188.873 220.176,199L192,199L192,217L220.785,217C221.055,226.96 221.224,236.978 221.275,247L192,247L192,265L221.248,265C221.202,270.619 221.121,276.226 221.002,281.809C220.908,286.223 220.786,290.618 220.646,295L192,295L192,313L219.943,313C219.47,323.171 218.875,333.197 218.148,343L192,343L192,361L216.643,361C215.679,371.345 214.564,381.375 213.293,391L192,391L192,409L210.654,409C210.559,409.589 210.468,410.194 210.371,410.779C204.738,444.802 196.403,472.219 187.313,486.889C164.8,488.888 144.315,491.921 128,496C160,384 160,256 160,192L137.301,294.146C115.491,291.161 94.669,284.393 74.354,275.139L112,112L176,80C192,64 192,48 192,32ZM320,32C320,48 320,64 336,80L400,112L437.646,275.139C417.33,284.393 396.509,291.161 374.7,294.146L352,192C352,256 352,384 384,496C367.685,491.92 347.2,488.888 324.687,486.889C315.596,472.219 307.262,444.802 301.629,410.78C301.532,410.194 301.441,409.59 301.346,409L320,409L320,391L298.707,391C297.436,381.375 296.321,371.345 295.357,361L320,361L320,343L293.852,343C293.117,333.009 292.518,323.008 292.057,313L320,313L320,295L291.354,295C291.215,290.618 291.092,286.223 290.998,281.809C290.879,276.226 290.798,270.619 290.752,265L320,265L320,247L290.725,247C290.776,236.978 290.945,226.96 291.215,217L320,217L320,199L291.824,199C292.235,188.873 292.752,178.847 293.38,169L320,169L320,151L294.666,151C295.455,140.987 296.387,130.986 297.463,121L320,121L320,103L299.595,103C303.047,76.268 307.435,52.741 312.655,34.473L312.455,34.416C314.93,33.653 317.438,32.854 320,32Z" style="fill:rgb(142,142,142);"/>
        <path d="M54.671,285.396C80.025,298.181 106.592,308.068 135.197,311.938C134.964,328.04 130.223,343.32 122.631,358.45C96.356,355.871 71.854,348.913 54.668,329.956C51.322,326.266 50.001,318.466 51.023,307.826C51.695,300.831 53.181,293.116 54.671,285.396ZM457.328,285.396C458.818,293.116 460.305,300.831 460.977,307.826C461.999,318.466 460.678,326.266 457.332,329.956C440.146,348.913 415.644,355.871 389.369,358.45C381.777,343.321 377.036,328.041 376.803,311.939C405.408,308.068 431.975,298.181 457.328,285.396Z" style="fill:rgb(97,96,96);"/>
        <path d="M219.361,39.721C244.914,45.411 267.086,45.411 292.639,39.721C277.944,98.748 271.102,192.871 273.002,282.191C274.009,329.514 277.519,375.355 283.871,413.72C288.643,442.542 294.703,467.048 303.334,485.34C272.556,483.567 239.444,483.567 208.666,485.34C217.297,467.048 223.358,442.541 228.128,413.721C234.481,375.355 237.991,329.514 238.998,282.191C240.898,192.87 234.056,98.749 219.361,39.721Z" style="fill:rgb(203,40,40);"/>
    </g>
</svg>
