<?xml version="1.0" encoding="UTF-8" standalone="no"?>
<!DOCTYPE svg PUBLIC "-//W3C//DTD SVG 1.1//EN" "http://www.w3.org/Graphics/SVG/1.1/DTD/svg11.dtd">
<svg width="100%" height="100%" viewBox="0 0 512 512" version="1.1" xmlns="http://www.w3.org/2000/svg" xmlns:xlink="http://www.w3.org/1999/xlink" xml:space="preserve" xmlns:serif="http://www.serif.com/" style="fill-rule:evenodd;clip-rule:evenodd;stroke-linejoin:round;stroke-miterlimit:2;">
    <rect x="0" y="0" width="512" height="512" style="fill-rule:nonzero;"/>
    <path d="M162,35.75L67.51,62.85C55.46,69.15 44.04,86.75 36.5,109.2C30.43,127.4 26.88,148.1 25.57,167.5L136.7,112L162,35.75ZM350,35.85L375.4,112L486.4,167.6C485.1,148.3 481.5,127.4 475.5,109.3C469.8,92.25 461.9,77.95 453,69.25C450.3,66.45 447.5,64.35 444.6,62.85L350,35.85ZM177.1,47.35L151.4,124.8L58.5,171.2L72.58,224.7L161.4,269.1L256,253.2L350.6,269.1L439.4,224.7L453.5,171.2L360.7,124.8L334.9,47.45L324.4,47.45L265.1,121.4L265,182.5L246.9,182.5L247,121.5L187.7,47.35L177.1,47.35ZM78.65,247.7L100.7,331.6L246.9,287.8L246.9,273.1L158.5,287.8L78.65,247.7ZM433.4,247.7L353.4,287.8L265,273.1L265,287.8L411.3,331.6L433.4,247.7ZM246.9,306.4L215.3,316L180.2,386.2L246.9,352.9L246.9,306.4ZM265,306.4L265,352.9L331.9,386.3L296.7,316L265,306.4ZM191.7,323L105.3,349L130.6,445.3L191.7,323ZM320.3,323.1L381.4,445.2L406.7,349L320.3,323.1ZM265,373.1L265.1,416.3L365.8,454.1L345.4,413.3L265,373.1ZM246.9,373.1L166.7,413.2L146.2,454.1L247,416.3L246.9,373.1ZM247,435.5L165.4,466.1L247,476.3L247,435.5ZM265.1,435.5L265.1,476.2L346.8,466L265.1,435.5Z" style="fill:rgb(171,149,125);fill-rule:nonzero;"/>
</svg>
