<?xml version="1.0" encoding="UTF-8" standalone="no"?>
<!DOCTYPE svg PUBLIC "-//W3C//DTD SVG 1.1//EN" "http://www.w3.org/Graphics/SVG/1.1/DTD/svg11.dtd">
<svg width="100%" height="100%" viewBox="0 0 512 512" version="1.1" xmlns="http://www.w3.org/2000/svg" xmlns:xlink="http://www.w3.org/1999/xlink" xml:space="preserve" xmlns:serif="http://www.serif.com/" style="fill-rule:evenodd;clip-rule:evenodd;stroke-linejoin:round;stroke-miterlimit:2;">
    <rect x="0" y="0" width="512" height="512" style="fill-rule:nonzero;"/>
    <g>
        <path d="M361.7,41C358.9,43.83 343.7,58.56 324.4,74.02C315.6,81.04 306.1,88.07 296.5,94.07L256,175L215.4,94.17C205.8,88.11 196.2,81.06 187.4,74.02C168.5,58.93 153.7,44.59 150.3,41.25C147.9,42.58 145.5,43.96 143.1,45.41C122.9,57.51 103,74.26 96.41,87.79C85.25,110.1 76.01,130.4 68,149.5L256,290.3L444,149.5C435.9,130.4 426.8,110.1 415.6,87.78L415.5,87.78C408.3,73.25 388.5,56.68 368.4,44.8C366.2,43.48 363.9,42.22 361.7,41Z" style="fill:rgb(255,186,0);fill-rule:nonzero;"/>
        <path d="M45.76,288.3C51.3,293.7 57.39,299.7 63.76,305.8L63.76,335L45.76,335L45.76,288.3ZM466.2,288.3L466.2,335L448.2,335L448.2,305.8C454.6,299.7 460.7,293.7 466.2,288.3ZM112.6,352.2C117.1,356.4 121.6,360.5 126.2,364.7C127.7,366 129.1,367.4 130.6,368.7L130.6,402L112.6,402L112.6,352.2ZM399,352.5L399,402L381,402L381,369.1C382.6,367.6 384.2,366.2 385.8,364.7C390.2,360.7 394.6,356.6 399,352.5ZM179.8,411.6C185.7,416.5 191.6,421.2 197.2,425.6C197.4,425.8 197.6,425.9 197.8,426.1L197.8,452.3L179.8,452.3L179.8,411.6ZM332,411.7L332,452.3L314,452.3L314,426.2C314.3,426 314.5,425.8 314.8,425.6C320.4,421.2 326.1,416.6 332,411.7ZM247,458.4C249.1,459.3 251.2,460.1 253.2,460.8L256,461.8L258.8,460.8C260.8,460.1 262.9,459.3 265,458.4L265,485.8L247,485.8L247,458.4Z" style="fill:rgb(255,186,0);"/>
        <path d="M42.53,216.6L256,397.1L469.4,216.6C473.2,227.4 476.8,238.2 480.4,248.9C461.9,267.3 419.4,309.6 373.6,351.4C349.6,373.3 325.1,394.6 303.7,411.4C283.9,426.9 266.5,438.1 256,442.5C245.5,438.1 228.1,426.9 208.3,411.4C186.9,394.6 162.4,373.3 138.4,351.4C92.55,309.6 50.06,267.3 31.59,248.9C35.17,238.2 38.77,227.5 42.53,216.6Z" style="fill:rgb(111,131,199);"/>
        <path d="M56.28,178.8L71.98,217.9L48.97,198.4C51.29,192 53.74,185.4 56.28,178.8ZM455.7,178.8C458.2,185.4 460.7,192 463,198.4L440,217.9L455.7,178.8ZM106.5,247L182.1,261.3L208.1,333L106.5,247ZM405.5,247L303.5,333.3L329.7,261.3L405.5,247ZM256,319.7L282.4,351.1L256,373.5L229.4,351L256,319.7Z" style="fill:rgb(0,255,206);"/>
        <path d="M75.11,177.3L156.4,238.2L94.88,226.6L75.11,177.3ZM436.8,177.3L417.1,226.6L355.6,238.1L436.8,177.3ZM206.5,275.6L245.1,304.6L225.5,327.8L206.5,275.6ZM305.3,275.8L286.4,327.8L266.8,304.6L305.3,275.8Z" style="fill:rgb(226,93,93);"/>
        <path d="M325.3,26.22C328.2,26.72 333.3,27.96 340,30.63C341.5,31.21 343,31.85 344.5,32.53C338.1,38.69 326.5,49.3 313.2,59.96C302.9,68.14 291.7,76.28 281.4,82.19C271,88.1 261.4,91.47 256,91.47C250.6,91.47 240.9,88.1 230.5,82.18C220.1,76.27 208.9,68.14 198.6,59.95C185.4,49.4 174,38.88 167.4,32.69C168.9,32.04 170.4,31.4 171.8,30.83C178.5,28.06 183.7,26.77 186.5,26.24C201.6,37.55 213.7,46.51 224.1,52.74C235.3,59.43 245.3,63.44 256,63.44C266.6,63.44 276.7,59.43 287.8,52.74C298.2,46.5 310.2,37.54 325.3,26.22ZM242.1,107.2C246.7,108.7 251.4,109.5 256,109.5C260.6,109.5 265.2,108.7 269.7,107.3L256,134.8L242.1,107.2Z" style="fill:rgb(111,131,199);"/>
    </g>
</svg>
