<?xml version="1.0" encoding="UTF-8" standalone="no"?>
<!DOCTYPE svg PUBLIC "-//W3C//DTD SVG 1.1//EN" "http://www.w3.org/Graphics/SVG/1.1/DTD/svg11.dtd">
<svg width="100%" height="100%" viewBox="0 0 512 512" version="1.1" xmlns="http://www.w3.org/2000/svg" xmlns:xlink="http://www.w3.org/1999/xlink" xml:space="preserve" xmlns:serif="http://www.serif.com/" style="fill-rule:evenodd;clip-rule:evenodd;stroke-linejoin:round;stroke-miterlimit:2;">
    <rect x="0" y="0" width="512" height="512" style="fill-rule:nonzero;"/>
    <path d="M90.072,390.461L29.597,450.936C29.969,462.426 40.305,473.272 52.225,473.563L112.699,413.089L104.562,404.953C107.219,409.217 107.402,413.658 105.019,416.05C101.895,419.173 95.465,417.808 90.656,413C95.464,417.808 96.83,424.24 93.706,427.363C90.581,430.487 84.151,429.123 79.342,424.313C84.152,429.123 85.516,435.553 82.392,438.676C79.268,441.801 72.837,440.436 68.029,435.626C72.837,440.436 74.202,446.866 71.079,449.99C67.954,453.114 61.523,451.75 56.715,446.94C61.523,451.75 62.889,458.18 59.765,461.304C56.64,464.428 50.21,463.064 45.401,458.254C40.593,453.446 39.228,447.014 42.351,443.891C45.476,440.768 51.907,442.133 56.715,446.941C51.907,442.133 50.542,435.703 53.665,432.579C56.79,429.454 63.22,430.819 68.029,435.629C63.219,430.819 61.855,424.389 64.979,421.265C68.104,418.141 74.534,419.505 79.342,424.315C74.534,419.505 73.169,413.075 76.292,409.951C79.417,406.827 85.848,408.191 90.656,413.001C85.848,408.191 84.483,401.761 87.606,398.637C89.996,396.254 94.434,396.435 98.696,399.087L90.072,390.461Z" style="fill:rgb(201,92,38);fill-rule:nonzero;"/>
    <path d="M482.403,42.825C381.148,139.118 259.987,257.357 177.777,344.642L156.707,323.572C236.359,233.609 363.039,119.776 439.139,54.469C457.563,38.659 471.866,34.065 482.403,42.825ZM87.13,336.276L166.326,415.472L153.598,428.2L74.402,349.004L87.13,336.276Z" style="fill:white;"/>
    <path d="M143.926,336.246L165.468,357.787C159.845,363.827 154.371,369.76 149.058,375.577L126.756,353.274L143.926,336.246Z" style="fill:rgb(255,126,0);"/>
</svg>
