<?xml version="1.0" encoding="UTF-8" standalone="no"?>
<!DOCTYPE svg PUBLIC "-//W3C//DTD SVG 1.1//EN" "http://www.w3.org/Graphics/SVG/1.1/DTD/svg11.dtd">
<svg width="100%" height="100%" viewBox="0 0 512 512" version="1.1" xmlns="http://www.w3.org/2000/svg" xmlns:xlink="http://www.w3.org/1999/xlink" xml:space="preserve" xmlns:serif="http://www.serif.com/" style="fill-rule:evenodd;clip-rule:evenodd;stroke-linejoin:round;stroke-miterlimit:2;">
    <rect x="0" y="0" width="512" height="512" style="fill-rule:nonzero;"/>
    <path d="M350.566,221.966C342.404,235.241 333.522,247.801 323.98,259.693L354.707,285.596C365.867,276.846 377.275,268.42 388.767,260.164L350.567,221.964L350.566,221.966ZM266.492,317.48C253.072,328.46 238.912,338.666 224.078,348.154L261.548,385.624C270.296,371.054 280.168,357.67 290.875,345.194L266.492,317.48Z" style="fill:rgb(150,140,49);fill-rule:nonzero;"/>
    <path d="M48.352,449.978C55.221,443.602 61.995,436.855 69.186,430.896C105.881,402.741 157.821,385.612 210.218,360.724L246.131,396.638C175.405,426.419 96.723,442.187 22.525,498.021C27.632,478.957 36.636,463.342 48.348,450.107L48.352,449.978Z" style="fill:rgb(102,77,55);"/>
    <path d="M451.125,45.003L452.046,44.967L452.066,45.473C464.98,34.885 480.13,26.84 498.67,21.87C443.422,95.287 427.628,173.137 398.408,243.377L361.85,206.817C386.4,153.471 403.25,100.761 433.24,64.401L433.2,64.403C439.076,57.92 444.621,50.896 451.125,45.003Z" style="fill:rgb(102,77,55);"/>
    <path d="M137.638,57.217L451.125,45.003C444.621,50.896 439.076,57.92 433.2,64.403L159.646,75.061L161.567,76.545C152.629,71.32 145.657,63.734 137.638,57.217Z" style="fill:rgb(150,140,49);"/>
    <path d="M77.285,153.267L67.671,432.071C68.173,431.677 68.678,431.285 69.186,430.896C61.995,436.855 55.221,443.602 48.352,449.978L59.423,128.913C63.62,135.823 68.518,142.146 73.395,148.592C74.613,150.202 76.032,151.676 77.285,153.267Z" style="fill:rgb(150,140,49);"/>
    <path d="M171.506,155.549L171.506,155.605L401.383,349.385C388.328,365.62 374.341,380.403 358.723,394.03L159.098,167.104L171.506,155.549Z" style="fill:rgb(102,77,55);"/>
    <path d="M159.098,167.104L158.909,166.889L87.605,166.889L85.405,162.419L77.345,151.531L77.285,153.267C76.032,151.676 74.613,150.202 73.395,148.592C68.518,142.146 63.62,135.823 59.423,128.913L59.475,127.392L17.967,71.322L87.385,82.496L77.85,11.848L136.609,57.257L137.638,57.217C145.657,63.734 152.629,71.32 161.567,76.545L171.506,84.226L171.506,155.549L159.098,167.104ZM102.463,54.487L109.272,104.953L60.272,97.063L98.629,148.051L99.236,148.197L152.818,148.197L152.818,93.402L102.463,54.487Z" style="fill:rgb(217,255,0);"/>
    <path d="M450.572,311.706L450.572,311.71C470.703,371.088 485.974,430.99 494.68,491.65C434.368,484.972 375.023,468.353 315.88,447.67C375.184,412.43 414.826,368.52 450.572,311.706Z" style="fill:rgb(197,191,191);"/>
</svg>
