<?xml version="1.0" encoding="UTF-8" standalone="no"?>
<!DOCTYPE svg PUBLIC "-//W3C//DTD SVG 1.1//EN" "http://www.w3.org/Graphics/SVG/1.1/DTD/svg11.dtd">
<svg width="100%" height="100%" viewBox="0 0 512 512" version="1.1" xmlns="http://www.w3.org/2000/svg" xmlns:xlink="http://www.w3.org/1999/xlink" xml:space="preserve" xmlns:serif="http://www.serif.com/" style="fill-rule:evenodd;clip-rule:evenodd;stroke-linejoin:round;stroke-miterlimit:2;">
    <rect x="0" y="0" width="512" height="512" style="fill-rule:nonzero;"/>
    <g>
        <path d="M406.624,18.406C403.239,18.434 399.762,18.812 396.344,19.376C391.786,20.126 387.352,21.213 383.531,22.469C379.711,23.723 376.755,24.771 373.814,27.093C371.935,28.572 370.914,30.896 371.094,33.28L376.126,95.625C376.252,97.332 376.984,98.939 378.189,100.155L411.845,133.781C413.048,134.992 414.644,135.735 416.345,135.876L478.689,140.906C481.084,141.098 483.421,140.076 484.907,138.188C487.242,135.244 488.274,132.293 489.532,128.47C490.792,124.646 491.875,120.215 492.627,115.656C493.379,111.096 493.807,106.458 493.502,102.031C493.197,97.606 492.49,93.041 488.658,89.221L422.78,23.343C418.958,19.519 414.396,18.803 409.97,18.499C408.862,18.423 407.754,18.396 406.625,18.405L406.624,18.406ZM406.75,32.781C407.55,32.775 408.313,32.797 409,32.845C411.404,33.01 412.74,33.76 412.72,33.625L478.375,99.282C478.237,99.259 478.991,100.6 479.155,103.002C479.345,105.748 479.093,109.528 478.469,113.315C477.843,117.101 476.874,120.935 475.874,123.971C475.462,125.221 475.35,125.243 474.936,126.157L420.156,121.782L390.218,91.846L385.842,37.033C386.755,36.623 386.782,36.538 388.029,36.128C391.066,35.13 394.901,34.158 398.687,33.534C401.527,33.068 404.349,32.806 406.749,32.784L406.75,32.781Z" style="fill:rgb(140,140,140);fill-rule:nonzero;"/>
        <g>
            <path d="M466.618,413.862L466.781,413.874C448.436,389.186 437.331,361.433 422.314,330.186C408.621,301.702 391.582,270.01 362.594,233.936C362.589,233.93 362.599,233.912 362.594,233.904L400.656,183.094C432.525,227.082 445.427,270.134 453.75,308.124C463.804,354.009 467.888,391.699 489.22,417.249C490.785,418.968 492.231,420.729 493.907,422.405L483.345,432.969L483.345,432.999L483.313,432.999L483.266,433.046L466.618,413.862Z" style="fill:rgb(119,67,54);"/>
            <path d="M78.896,29.137L78.874,28.874L78.844,28.844L89.594,18.094C91.27,19.77 93.03,21.216 94.75,22.78C120.3,44.113 157.987,48.224 203.876,58.281C241.866,66.608 284.916,79.484 328.906,111.344L278.094,149.406C242.012,120.408 210.302,103.381 181.812,89.688C150.766,74.765 123.165,63.712 98.595,45.575L78.896,29.137Z" style="fill:rgb(119,67,54);"/>
        </g>
        <g>
            <path d="M483.266,433.046L483.157,433.155C483.095,433.093 483.031,433.031 482.971,432.969L147.051,408.082L165.785,391.535L466.618,413.862L483.266,433.046Z" style="fill:rgb(96,116,94);"/>
            <path d="M98.595,45.575C98.449,45.467 98.302,45.359 98.156,45.25L122.796,343.929L106.398,362.338L78.896,29.137L98.595,45.575Z" style="fill:rgb(96,116,94);"/>
        </g>
        <path d="M147.051,408.082L146.781,408.062L56.626,488.625L23.376,455.375L106.406,362.437L106.398,362.338L122.796,343.929L122.81,344.094L274.469,174.406L360.376,110.094L401.906,151.624L337.53,237.594L165.314,391.5L165.785,391.535L147.051,408.082ZM358.78,153.221L327.187,172.158L125.312,374.064L126.5,388.627L135.344,389.282L339.844,184.814L358.78,153.221Z" style="fill:rgb(165,104,89);"/>
    </g>
</svg>
