<?xml version="1.0" encoding="UTF-8" standalone="no"?>
<!DOCTYPE svg PUBLIC "-//W3C//DTD SVG 1.1//EN" "http://www.w3.org/Graphics/SVG/1.1/DTD/svg11.dtd">
<svg width="100%" height="100%" viewBox="0 0 512 512" version="1.1" xmlns="http://www.w3.org/2000/svg" xmlns:xlink="http://www.w3.org/1999/xlink" xml:space="preserve" xmlns:serif="http://www.serif.com/" style="fill-rule:evenodd;clip-rule:evenodd;stroke-linejoin:round;stroke-miterlimit:2;">
    <rect x="0" y="0" width="512" height="512" style="fill-rule:nonzero;"/>
    <g>
        <path d="M47.902,354.75C48.458,354.339 49.023,353.932 49.596,353.529C49.629,353.509 49.659,353.489 49.689,353.469C49.722,353.449 49.752,353.426 49.782,353.406L61.16,110.847L79.237,127.439L79.063,127.47L69,343.314C69.545,343.074 70.092,342.838 70.64,342.605L47.902,354.75Z" style="fill:rgb(129,141,121);"/>
        <path d="M341.366,71.573C341.441,71.381 341.518,71.19 341.594,71C341.633,70.915 341.68,70.835 341.72,70.75C341.96,70.224 342.22,69.708 342.47,69.188L129,78.814L128.984,78.9L113.703,60.804L353.435,50.002C353.792,49.467 354.15,48.933 354.51,48.401L341.366,71.573Z" style="fill:rgb(129,141,121);"/>
    </g>
    <g>
        <path d="M70.64,342.605C72.531,341.801 74.437,341.033 76.344,340.281L76.812,340.126C133.162,321.259 216.491,407.558 299.875,372.656L311.75,428C225.256,440.334 134.162,371.7 88.44,387.686C53.094,400.045 50.238,423.371 62.002,443.749C73.516,463.689 92.672,474.149 117.002,461.719C102.582,499.479 54.015,498.993 29.752,456.969C11.835,425.931 11.669,381.551 47.902,354.75L70.64,342.605Z" style="fill:rgb(122,86,30);"/>
        <path d="M354.51,48.401C355.398,47.091 356.298,45.791 357.218,44.502C372.444,26.598 392.408,19.072 412.248,18.972C427.635,18.892 442.952,23.287 455.935,30.782C461.193,33.815 466.258,37.163 470.218,40.845C497.952,66.599 493.728,105.414 460.686,118.031C473.119,93.705 462.659,74.544 442.719,63.031C422.341,51.265 399.047,54.123 386.687,89.468C370.637,135.365 439.904,226.873 428.124,312.438L372.094,300.438C407.457,216.539 320.234,134.177 339.094,77.844C339.816,75.686 340.567,73.597 341.366,71.573L354.51,48.401Z" style="fill:rgb(122,86,30);"/>
    </g>
    <path d="M328.964,309.357L329.906,310.28L454.406,337.03L460.314,338.31L461.594,344.218L490.906,480.561L493.97,494.717L479.814,491.687L343.439,462.343L337.564,461.093L336.281,455.187L309.531,330.749L308.884,330.069L328.964,309.357ZM328.282,329.03L328.28,329.03L328.282,329.03L349.157,426.187L374.281,378.843L375.626,376.311L378.156,374.969L425.406,349.906L328.282,329.03ZM445.906,360.188L389.436,390.157L359.406,446.687L469.626,470.375L445.906,360.188Z" style="fill:rgb(219,93,162);"/>
    <path d="M308.884,330.069L308.313,329.469L111.75,121.563L111.481,121.612L122.933,112.427L122.813,113.092L328.376,308.78L328.964,309.357L308.884,330.069Z" style="fill:rgb(205,189,189);"/>
    <path d="M111.481,121.612L79.237,127.439L61.16,110.847L61.188,110.25L20.031,60.438L65.094,63.312L60.344,17.594L113.5,60.813L113.703,60.804L128.984,78.9L122.933,112.427L111.481,121.612Z" style="fill:rgb(211,82,140);"/>
</svg>
