<?xml version="1.0" encoding="UTF-8" standalone="no"?>
<!DOCTYPE svg PUBLIC "-//W3C//DTD SVG 1.1//EN" "http://www.w3.org/Graphics/SVG/1.1/DTD/svg11.dtd">
<svg width="100%" height="100%" viewBox="0 0 512 512" version="1.1" xmlns="http://www.w3.org/2000/svg" xmlns:xlink="http://www.w3.org/1999/xlink" xml:space="preserve" xmlns:serif="http://www.serif.com/" style="fill-rule:evenodd;clip-rule:evenodd;stroke-linejoin:round;stroke-miterlimit:2;">
    <rect x="0" y="0" width="512" height="512" style="fill-rule:nonzero;"/>
    <g>
        <path d="M334.5,85.22C303.097,85.743 265.06,98.592 233.937,128.03L251.531,343.437L245.063,421.094L303.188,421.094L318.47,383.374L339.594,421.094L491.124,421.094C499.02,362.507 446.894,290.927 416.594,290.719L400.064,291.843C363.961,299.108 350.417,318.873 333.75,341.623L329.47,347.468L322.75,344.778L309.72,339.528L295.437,376.123L278.031,369.343L292.407,332.56L280.501,327.78L271.938,324.342L275.251,315.748C283.231,295.021 295.986,275.398 314.157,261.592C329.064,250.266 347.75,243.109 369.313,242.904C370.751,242.891 372.193,242.918 373.657,242.967C375.574,243.03 377.513,243.134 379.47,243.31L381.97,225.153C355.887,209.056 314.444,210.28 278.25,224.433L271.47,207.028C291.58,199.164 313.255,194.528 334.125,194.468C352.105,194.414 369.482,197.775 384.688,205.342L390.281,164.686C358.995,137.268 312.861,140.074 270.907,164.092L261.627,147.872C285.193,134.382 311.112,126.607 335.939,126.562C356.399,126.522 376.122,131.738 393.219,143.342L395.407,127.498C395.761,125.972 396.017,124.485 396.187,123.028C396.189,123.008 396.187,122.988 396.189,122.968C396.546,112.42 392.123,104.612 383.251,97.968C373.768,90.865 358.868,86.031 341.221,85.311C339.014,85.221 336.781,85.179 334.501,85.217L334.5,85.22ZM140.094,162.53C139.256,162.54 138.416,162.56 137.594,162.594C124.432,163.131 113.434,166.769 106.656,171.844C99.88,176.919 96.954,182.484 97.719,190.688L97.124,190.75C97.256,191.984 97.448,193.264 97.749,194.563L100.062,211.281C110.869,203.787 123.162,200.118 135.592,200.188C153.378,200.29 171.202,207.472 187.374,219.438L176.28,234.438C162.55,224.278 148.216,218.948 135.47,218.876C123.482,218.808 112.694,222.918 103.063,233.22L107.469,265.063C116.443,260.881 126.256,258.985 136.312,259C151.104,259.022 166.404,263.157 180.312,270.188L171.874,286.875C150.077,275.855 126.387,274.37 110.186,284.875L112.218,299.595C113.055,299.565 113.895,299.537 114.718,299.531C129.351,299.431 141.878,303.591 152.061,310.781C166.541,321.008 176.287,336.295 184.686,352.376L188.966,360.626L180.748,364.97L172.278,369.437L186,394.875L169.562,403.75L155.75,378.156L146.594,383L140.25,386.344L135.375,381.094C119.055,363.474 106.239,348.486 74.969,345.906L65.969,345.156C33.882,360.468 18.413,383.44 23.529,421.406L213.969,421.406L208.874,361.719L208.844,361.655L222.437,199.03C197.467,172.936 165.457,162.234 140.093,162.53L140.094,162.53Z" style="fill:rgb(238,75,75);fill-rule:nonzero;"/>
        <path d="M369.438,261.562C370.611,261.558 371.798,261.579 373,261.624C374.268,261.672 375.606,261.862 376.906,261.967L384.938,276.437C353.941,285.986 337.181,305.883 323.125,324.781L296.468,314.061C303.438,299.247 313.108,285.859 325.468,276.469C337.512,267.318 351.845,261.637 369.438,261.562ZM116.594,318L116.594,318.002C117.206,318.005 117.813,318.037 118.406,318.065C127.595,318.497 134.786,321.446 141.28,326.032C149.716,331.99 156.934,341.525 163.562,352.907L154.719,357.595L144.064,363.221C131.568,350.008 116.702,336.391 93.314,330.281L102.314,319.625C107.556,318.543 112.306,317.972 116.594,318Z" style="fill:rgb(87,83,83);"/>
    </g>
</svg>
