<?xml version="1.0" encoding="UTF-8" standalone="no"?>
<!DOCTYPE svg PUBLIC "-//W3C//DTD SVG 1.1//EN" "http://www.w3.org/Graphics/SVG/1.1/DTD/svg11.dtd">
<svg width="100%" height="100%" viewBox="0 0 512 512" version="1.1" xmlns="http://www.w3.org/2000/svg" xmlns:xlink="http://www.w3.org/1999/xlink" xml:space="preserve" xmlns:serif="http://www.serif.com/" style="fill-rule:evenodd;clip-rule:evenodd;stroke-linejoin:round;stroke-miterlimit:2;">
    <rect x="0" y="0" width="512" height="512" style="fill-rule:nonzero;"/>
    <g>
        <path d="M223.3,76.15C223.3,86.1 221,95.45 215,104.5C159.2,144.9 109.5,173 50.46,190.4C49.51,180.8 52.15,171 54.47,161C116.2,142.5 168.5,114.7 223.3,76.15ZM225.3,186.3C225.9,195.8 224,205.5 220.3,217.1C169.7,261.7 108.1,279 47.28,304C46.54,293.9 49.64,284 55.32,274.6C129.8,253.8 182.8,225 225.3,186.3ZM254.3,309.1C266.1,313.6 279,320.8 286.7,332C238.8,386.2 147,397.2 73.16,407.4C69.16,399.5 65.45,391.4 62.26,383.4C148.9,380.9 216.4,357.5 254.3,309.1ZM296.7,347.9C303.5,351.3 309,356.3 313.9,362.4C298.9,395.6 277.4,420.4 244.4,452.9L195.3,452.5C219.5,429.1 241.7,404.7 259.1,377.7C273.2,369.5 285.9,359.6 296.7,347.9ZM38.74,370.4C46.89,399 62.36,427.8 77.7,451.5L34,451.1C23.49,429.4 29.94,393.9 38.74,370.4ZM394.1,410C400.5,410.2 406,412.6 409.8,416.6C410.1,427.7 404.3,440.5 397.1,454.3L361.1,454C374.5,440.6 383.2,427.1 394.1,410ZM30.68,469L488.2,473C490.2,479.4 486,483.9 479.7,487.5L36.49,487.5C27.17,482.2 21.55,479.2 30.68,469Z" style="fill:rgb(54,138,56);"/>
        <path d="M203.4,18.37L229.2,18.5C226.3,28.25 223.6,40.89 221.4,55.52C213.1,61.52 204.8,67.27 196.7,72.74C198.2,54.62 200.4,36.49 203.4,18.37ZM215.1,126.6C214.6,141.1 214.6,156.1 215.2,171.3C209,177.1 202.6,182.6 195.9,187.9C194.9,172.2 194.4,156.5 194.2,140.8C201.1,136.3 208.1,131.5 215.1,126.6ZM221.9,239.3C225.7,261.1 231,281.9 238.3,300.5C231.1,309.2 222.7,317 213.1,324C208.8,300.6 205.1,277.1 202.1,253.7C208.9,249.2 215.5,244.4 221.9,239.3Z" style="fill:rgb(139,139,139);"/>
        <path d="M31.93,17.5L185.3,18.28C181.7,40.55 179.2,62.79 177.7,85C140,108.6 102.6,126.7 60.77,140.3C55.76,96.03 46.02,53.9 31.93,17.5ZM176.4,152.3C176.7,168.4 177.5,184.5 178.7,200.5C147.5,222 110.3,239.4 63.16,253.6C64.29,237.5 64.79,221.2 64.65,205C104.4,192.4 140.2,174.8 176.4,152.3ZM185.4,264.1C188.6,287.6 192.5,311 196.8,334.4C161.4,354.2 113.7,364.5 56.06,365.6C51.24,349 49.47,337.7 54.53,320.5C97.59,302.8 143,288.7 185.4,264.1ZM326.3,378.4L375,403.5C370.6,422.3 349.3,439 336.1,453.8L269.6,453.2C294.1,428.1 312.4,405.7 326.3,378.4ZM225.2,393.9C208.9,414.1 189.8,433.3 169.5,452.3L99.43,451.7C93.78,443.4 87.94,434.1 82.34,424.3C127.7,419 179.2,411.3 225.2,393.9ZM427.6,424.4C447.4,422.7 468.9,432.6 483.2,455.1L417.5,454.5C422.2,445 426.4,435 427.6,424.4Z" style="fill:rgb(148,98,51);"/>
    </g>
</svg>
