<?xml version="1.0" encoding="UTF-8" standalone="no"?>
<!DOCTYPE svg PUBLIC "-//W3C//DTD SVG 1.1//EN" "http://www.w3.org/Graphics/SVG/1.1/DTD/svg11.dtd">
<svg width="100%" height="100%" viewBox="0 0 512 512" version="1.1" xmlns="http://www.w3.org/2000/svg" xmlns:xlink="http://www.w3.org/1999/xlink" xml:space="preserve" xmlns:serif="http://www.serif.com/" style="fill-rule:evenodd;clip-rule:evenodd;stroke-linejoin:round;stroke-miterlimit:2;">
    <rect x="0" y="0" width="512" height="512" style="fill-rule:nonzero;"/>
    <path d="M156.7,25.83L89,39.38C88.9,97.95 87.26,158.7 45.51,206.6C104.4,246.5 189,260.7 247,248.8L247,149.8L108.3,88.22L115.7,71.78L256,134.2L396.3,71.78L403.7,88.22L265,149.8L265,248.8C323,260.7 407.6,246.5 466.5,206.6C424.7,158.7 423.1,97.95 423,39.38L355.3,25.83C342.4,39.71 334.7,53.98 322.4,66.36C308.9,79.78 289.5,89 256,89C222.5,89 203.1,79.78 189.6,66.36C177.3,53.98 169.6,39.71 156.7,25.83ZM53.88,232.9C75.96,281 96.07,336.6 102.7,392.8L167.7,415.6C171.9,362.9 195.9,311.6 231.4,269.5C176.3,275.8 108.7,263.7 53.88,232.9ZM458.1,232.9C403.3,263.7 335.7,275.8 280.6,269.5C316.1,311.6 340.1,362.9 344.3,415.6L409.5,392.7C416.1,335.9 436.1,280.9 458.1,232.9ZM256,269C215.5,312.1 188.3,366.9 185.3,421.7L247,443.3L247,336L265,336L265,443.3L326.7,421.7C323.6,366.9 296.5,312.1 256,269ZM407.7,412.4L297,451.1L297,469.9L407.2,425.8C407.3,421.3 407.5,416.9 407.7,412.4ZM104.4,412.5C104.7,417 104.8,421.4 104.9,425.9L215,469.9L215,451.2L104.4,412.5ZM279,457.4L256,465.5L233,457.5L233,477.1L256,486.3L279,477.1L279,457.4Z" style="fill:rgb(155,122,97);fill-rule:nonzero;"/>
</svg>
