<?xml version="1.0" encoding="UTF-8" standalone="no"?>
<!DOCTYPE svg PUBLIC "-//W3C//DTD SVG 1.1//EN" "http://www.w3.org/Graphics/SVG/1.1/DTD/svg11.dtd">
<svg width="100%" height="100%" viewBox="0 0 512 512" version="1.1" xmlns="http://www.w3.org/2000/svg" xmlns:xlink="http://www.w3.org/1999/xlink" xml:space="preserve" xmlns:serif="http://www.serif.com/" style="fill-rule:evenodd;clip-rule:evenodd;stroke-linejoin:round;stroke-miterlimit:2;">
    <rect x="0" y="0" width="512" height="512" style="fill-rule:nonzero;"/>
    <path d="M271.28,88.97C173.724,90.715 91.367,166.07 94.907,275.28C105.893,272.55 116.695,270.698 127.187,269.844C141.777,268.657 155.877,269.381 168.97,272.281L278.312,162.94C273.052,150.84 269.839,137.916 268.968,124.19C268.252,112.934 269.108,101.207 271.56,88.97C271.467,88.972 271.373,88.97 271.28,88.97ZM348.875,234.438L240.687,342.625C243.917,356.188 244.773,370.87 243.531,386.095C242.669,396.675 240.779,407.571 238.001,418.655C347.586,422.373 423.129,339.647 424.595,241.75C412.253,244.256 400.435,245.153 389.095,244.438C374.808,243.538 361.397,240.091 348.875,234.438Z" style="fill:rgb(129,129,129);fill-rule:nonzero;"/>
    <path d="M332.125,149.688L362.563,180.187L345.75,197L315.25,166.563L332.125,149.688ZM169.5,312.313L199.938,342.812L48.75,494L20.094,494L20.094,461.72L169.5,312.313Z" style="fill:rgb(132,99,27);"/>
    <path d="M240.094,19.594C241.924,19.582 243.76,19.61 245.593,19.657C261.827,20.079 278.24,23.009 294.563,28.439C286.704,43.005 280.691,56.948 276.436,70.313C165.653,69.735 70.079,157.497 76.406,280.657C60.227,286.044 43.8,293.234 27.47,302.031C6.552,229.845 35.072,148.748 88.5,91.938C129.212,48.648 183.404,19.958 240.094,19.594ZM295,172.688L339.563,217.312L220.25,336.625L175.625,292.063L295,172.688ZM484.875,218.781L484.878,218.782C509.924,294.095 478.453,371.165 421.408,424.815C364.595,478.245 283.472,506.767 211.282,485.845C220.043,469.587 227.205,453.229 232.595,437.125C356.038,443.645 444.031,347.858 443.281,236.845C456.557,232.588 470.409,226.589 484.875,218.781Z" style="fill:rgb(107,95,95);"/>
</svg>
