<?xml version="1.0" encoding="UTF-8" standalone="no"?>
<!DOCTYPE svg PUBLIC "-//W3C//DTD SVG 1.1//EN" "http://www.w3.org/Graphics/SVG/1.1/DTD/svg11.dtd">
<svg width="100%" height="100%" viewBox="0 0 512 512" version="1.1" xmlns="http://www.w3.org/2000/svg" xmlns:xlink="http://www.w3.org/1999/xlink" xml:space="preserve" xmlns:serif="http://www.serif.com/" style="fill-rule:evenodd;clip-rule:evenodd;stroke-linejoin:round;stroke-miterlimit:2;">
    <rect x="0" y="0" width="512" height="512" style="fill-rule:nonzero;"/>
    <path d="M93.218,75L74.376,93.844C92.19,125.764 124.946,159.11 155.156,177.656L176.876,155.936C157.975,125.16 124.423,92.678 93.22,75L93.218,75Z" style="fill:rgb(96,0,255);fill-rule:nonzero;"/>
    <path d="M59.938,17.75L92,49.78L47.844,93.938L15.78,61.906L59.938,17.75ZM240,119.25L253.313,132.562L126.125,259.75L112.812,246.438L240,119.25ZM244.938,168.094L244.939,168.097L292.127,215.283L284.377,255.908L324.907,248.752L317.281,288.815L357.344,281.19L349.25,320.782L389.812,313.626L382.156,353.688L422.844,346.438C412.735,385.916 471.064,471.342 494.5,492.626C446.2,503.618 387.903,461 352.78,425.876L220.062,293.156C229.984,282.591 229.789,265.95 219.469,255.626C214.206,250.361 207.309,247.751 200.406,247.751C193.764,247.751 187.118,250.161 181.938,255.031L169.968,243.064L244.938,168.094Z" style="fill:rgb(199,199,199);"/>
</svg>
