<?xml version="1.0" encoding="UTF-8" standalone="no"?>
<!DOCTYPE svg PUBLIC "-//W3C//DTD SVG 1.1//EN" "http://www.w3.org/Graphics/SVG/1.1/DTD/svg11.dtd">
<svg width="100%" height="100%" viewBox="0 0 512 512" version="1.1" xmlns="http://www.w3.org/2000/svg" xmlns:xlink="http://www.w3.org/1999/xlink" xml:space="preserve" xmlns:serif="http://www.serif.com/" style="fill-rule:evenodd;clip-rule:evenodd;stroke-linejoin:round;stroke-miterlimit:2;">
    <rect x="0" y="0" width="512" height="512" style="fill-rule:nonzero;"/>
    <path d="M233.56,16.225L218.025,70.527L138.842,57.737L135.862,76.187L212.85,88.62L197.93,140.783L215.898,145.923L226.926,107.377C319.484,122.217 404.33,134.064 499.93,124.201C420.95,84.868 333.435,72.598 241.098,57.833L251.528,21.366L233.558,16.226L233.56,16.225ZM164.865,136.668L151.383,149.621L221.027,222.114L161.397,256.542L170.744,272.732L214.842,247.272C298.076,333.757 375.585,411.458 482.525,478.514C433.843,381.354 353.538,301.354 270.5,215.139L310.676,191.941L301.33,175.751L237.705,212.485L164.865,136.669L164.865,136.668ZM77.755,150.092L59.935,155.738L80.877,221.832L26.887,235.445L31.457,253.57L70.281,243.78C95.641,323.412 120.557,395.605 169.378,465.8C171.688,384.982 146.23,310.46 120.89,231.02L158.684,221.492L154.114,203.367L99.034,217.254L77.754,150.092L77.755,150.092Z" style="fill:rgb(195,194,194);fill-rule:nonzero;"/>
</svg>
