<?xml version="1.0" encoding="UTF-8" standalone="no"?>
<!DOCTYPE svg PUBLIC "-//W3C//DTD SVG 1.1//EN" "http://www.w3.org/Graphics/SVG/1.1/DTD/svg11.dtd">
<svg width="100%" height="100%" viewBox="0 0 512 512" version="1.1" xmlns="http://www.w3.org/2000/svg" xmlns:xlink="http://www.w3.org/1999/xlink" xml:space="preserve" xmlns:serif="http://www.serif.com/" style="fill-rule:evenodd;clip-rule:evenodd;stroke-linejoin:round;stroke-miterlimit:2;">
    <rect x="0" y="0" width="512" height="512" style="fill-rule:nonzero;"/>
    <path d="M243.78,163.812L190.376,224.5L493.656,491.438C499.749,422.098 376.153,286.3 321.47,233.125C308.45,244.401 288.76,244.635 275.47,232.937C261.986,221.072 259.832,201.118 269.844,186.719L243.781,163.812L243.78,163.812Z" style="fill:rgb(143,143,143);fill-rule:nonzero;"/>
    <path d="M51.438,20.344C59.368,20.213 67.348,22.893 73.72,28.5C84.31,37.82 87.444,52.636 82.655,65.159C123.083,86.188 169.521,128.463 192.345,163.783L250.395,97.816L206.04,27.594L280.88,93.462L261.53,115.448L261.51,115.415L121.689,274.28L106.689,261.094L106.801,260.964L46.613,207.991L122.363,243.281L177.126,181.061C138.956,161.82 92.486,119.761 67.376,82.405C55.606,88.587 40.64,87.285 30.126,78.029C16.534,66.069 15.196,45.059 27.156,31.469C33.137,24.673 41.4,20.946 49.844,20.406C50.371,20.374 50.908,20.352 51.438,20.344ZM52.407,38.906C51.951,38.891 51.486,38.908 51.031,38.938C47.4,39.169 43.832,40.807 41.187,43.812C35.897,49.823 36.49,58.71 42.5,64C48.51,69.29 57.368,68.727 62.656,62.721C67.946,56.711 67.384,47.821 61.376,42.531C58.746,40.218 55.591,39.013 52.407,38.906Z" style="fill:rgb(40,87,160);"/>
</svg>
