<?xml version="1.0" encoding="UTF-8" standalone="no"?>
<!DOCTYPE svg PUBLIC "-//W3C//DTD SVG 1.1//EN" "http://www.w3.org/Graphics/SVG/1.1/DTD/svg11.dtd">
<svg width="100%" height="100%" viewBox="0 0 512 512" version="1.1" xmlns="http://www.w3.org/2000/svg" xmlns:xlink="http://www.w3.org/1999/xlink" xml:space="preserve" xmlns:serif="http://www.serif.com/" style="fill-rule:evenodd;clip-rule:evenodd;stroke-linejoin:round;stroke-miterlimit:2;">
    <rect x="0" y="0" width="512" height="512" style="fill-rule:nonzero;"/>
    <g>
        <path d="M255.563,19.313C246.973,19.52 237.509,23.653 227.343,32.219L153.75,137.874L231.375,174.624L196.125,142.718C245.523,39.872 268.13,41.726 313.905,142.718L279.063,174.278L356.406,137.873L282.626,31.967C272.932,22.535 264.226,19.1 255.563,19.31L255.563,19.313ZM338.156,167.125L258.75,204.5L254.75,206.375L250.78,204.5L174.22,168.25L69.343,291.094L88.093,305.219L154.123,320.279L183.063,202.062L200.28,210.218L130.75,494.123L223.656,494.123L239.25,228.653L254.844,236.029L272.594,227.655L288.25,494.125L381.156,494.125L311.406,209.405L328.656,201.28L357.876,320.53L429.563,304.125L444,291.095L338.156,167.125ZM103.094,327.813C101.828,331.177 101.124,334.821 101.124,338.625C101.124,355.609 114.891,369.375 131.874,369.375C135.628,369.375 139.237,368.699 142.564,367.469L149.656,338.436L103.094,327.811L103.094,327.813ZM409.906,327.813L362.344,338.688L369.25,366.968C372.9,368.502 376.915,369.375 381.125,369.375C398.109,369.375 411.875,355.609 411.875,338.625C411.875,334.815 411.169,331.177 409.905,327.812L409.906,327.813Z" style="fill:rgb(164,153,130);fill-rule:nonzero;"/>
    </g>
</svg>
