<?xml version="1.0" encoding="UTF-8" standalone="no"?>
<!DOCTYPE svg PUBLIC "-//W3C//DTD SVG 1.1//EN" "http://www.w3.org/Graphics/SVG/1.1/DTD/svg11.dtd">
<svg width="100%" height="100%" viewBox="0 0 512 512" version="1.1" xmlns="http://www.w3.org/2000/svg" xmlns:xlink="http://www.w3.org/1999/xlink" xml:space="preserve" xmlns:serif="http://www.serif.com/" style="fill-rule:evenodd;clip-rule:evenodd;stroke-linejoin:round;stroke-miterlimit:2;">
    <rect x="0" y="0" width="512" height="512" style="fill-rule:nonzero;"/>
    <path d="M273.764,23.62C206.941,23.62 152.535,77.736 152.535,144.309C152.535,173.589 163.063,200.456 180.539,221.373C179.926,222.803 179.351,224.248 178.816,225.709C174.864,236.516 173.354,247.124 174.43,256.428C175.148,262.638 177.203,268.896 181.281,273.393L135.598,398.31L87.926,379.528L81.328,396.276L129.412,415.218L122.756,433.421L87.352,420.071L81,436.916C98.473,443.501 115.944,450.09 133.416,456.678C155.206,397.398 178.383,333.693 198.206,279.521C204.233,278.686 209.851,275.208 214.412,270.911C218.846,266.732 222.797,261.431 226.107,255.275C232.618,258.058 239.362,260.263 246.26,261.863C246.89,271.06 249.014,279.435 252.496,286.365C255.306,291.957 259.389,297.138 264.764,299.975L264.764,395.922L208.648,395.922L208.648,413.922L264.764,413.922L264.764,433.15L227.354,433.15L227.354,451.15L264.764,451.15L264.764,470.38L208.648,470.38L208.648,488.38L282.764,488.38L282.764,299.976C288.139,297.139 292.222,291.958 295.031,286.366C298.513,279.436 300.637,271.061 301.268,261.864C308.166,260.264 314.909,258.059 321.42,255.276C324.73,261.432 328.681,266.733 333.115,270.911C337.676,275.209 343.293,278.688 349.322,279.522L382.189,369.392L347.443,380.622L352.979,397.749C364.778,393.937 376.576,390.122 388.375,386.308L395.061,404.587L336.625,425.04L342.572,442.03C362.129,435.182 381.687,428.337 401.244,421.491L407.884,439.651L390.086,446.073L396.196,463.005C407.798,458.822 419.399,454.635 431,450.448C409.323,390.833 386.042,327.503 366.246,273.394C370.324,268.898 372.38,262.639 373.098,256.429C374.174,247.125 372.663,236.517 368.711,225.71C368.176,224.249 367.601,222.804 366.988,221.374C384.464,200.457 394.992,173.589 394.992,144.31C394.992,77.737 340.587,23.62 273.764,23.62ZM273.764,41.62C330.905,41.62 376.992,87.51 376.992,144.309C376.992,166.949 369.662,187.853 357.234,204.812C355.693,202.884 354.021,201.066 352.23,199.369C345.397,192.93 336.197,188.293 326.787,191.701C317.377,195.11 313.322,204.55 312.247,213.854C311.368,221.446 312.215,229.907 314.703,238.637C310.106,240.607 305.371,242.24 300.537,243.521C299.514,236.915 297.659,230.864 295.031,225.635C290.821,217.256 283.769,209.77 273.764,209.77C263.758,209.77 256.705,217.256 252.496,225.635C249.869,230.865 248.014,236.915 246.99,243.521C242.155,242.239 237.421,240.606 232.824,238.635C235.312,229.906 236.157,221.445 235.279,213.854C234.203,204.55 230.15,195.11 220.74,191.701C211.33,188.293 202.13,192.931 195.297,199.369C193.506,201.066 191.834,202.884 190.293,204.812C177.865,187.853 170.535,166.95 170.535,144.309C170.535,87.511 216.622,41.619 273.764,41.619L273.764,41.62ZM214.237,208.64C214.854,208.715 216.727,210.293 217.381,215.955C217.809,219.655 217.533,224.495 216.434,229.775C211.468,226.478 206.797,222.758 202.473,218.655C204.189,216.149 205.958,214.025 207.65,212.43C211.29,209 213.62,208.564 214.237,208.64ZM339.877,212.43C341.57,214.025 343.338,216.149 345.055,218.654C340.731,222.757 336.06,226.478 331.094,229.775C329.994,224.495 329.719,219.655 330.146,215.955C330.801,210.293 332.671,208.715 333.289,208.639C333.907,208.564 336.238,209.001 339.877,212.429L339.877,212.43ZM273.764,227.77C274.088,227.77 276.387,228.618 278.947,233.715C280.578,236.962 281.959,241.447 282.752,246.611C279.79,246.864 276.793,247 273.764,247C270.734,247 267.738,246.864 264.775,246.611C265.568,241.447 266.949,236.961 268.58,233.715C271.14,228.618 273.44,227.77 273.764,227.77ZM194.518,235.572C199.402,239.778 204.612,243.589 210.098,246.971C207.571,251.579 204.718,255.341 202.058,257.848C197.904,261.762 195.454,261.779 195.151,261.67C194.848,261.561 192.982,259.981 192.328,254.324C191.77,249.495 192.394,242.737 194.518,235.572ZM353.01,235.572C355.133,242.737 355.756,249.495 355.197,254.324C354.543,259.981 352.677,261.561 352.375,261.67C352.073,261.78 349.621,261.762 345.467,257.848C342.807,255.342 339.957,251.578 337.43,246.971C342.916,243.589 348.126,239.778 353.01,235.572ZM264.68,264.662C267.68,264.884 270.708,265 273.764,265C276.819,265 279.848,264.884 282.848,264.662C282.077,270.129 280.653,274.889 278.948,278.285C276.387,283.382 274.088,284.23 273.764,284.23C273.439,284.23 271.141,283.382 268.58,278.285C266.874,274.889 265.45,270.129 264.68,264.662Z" style="fill:rgb(184,172,118);fill-rule:nonzero;"/>
</svg>
