<?xml version="1.0" encoding="UTF-8" standalone="no"?>
<!DOCTYPE svg PUBLIC "-//W3C//DTD SVG 1.1//EN" "http://www.w3.org/Graphics/SVG/1.1/DTD/svg11.dtd">
<svg width="100%" height="100%" viewBox="0 0 512 512" version="1.1" xmlns="http://www.w3.org/2000/svg" xmlns:xlink="http://www.w3.org/1999/xlink" xml:space="preserve" xmlns:serif="http://www.serif.com/" style="fill-rule:evenodd;clip-rule:evenodd;stroke-linejoin:round;stroke-miterlimit:2;">
    <rect x="0" y="0" width="512" height="512" style="fill-rule:nonzero;"/>
    <path d="M256.015,77.5C304.258,77.5 343.015,115.664 343.015,162.782C343.015,209.899 304.258,248.062 256.015,248.062C207.773,248.062 169.015,209.9 169.015,162.78C169.015,115.664 207.773,77.5 256.015,77.5ZM247.015,100.5L247.015,108.257C232.349,110.747 220.718,119.07 211.652,128.137C200.802,138.985 192.592,151.197 185.652,158.137L179.287,164.5L185.652,170.862C192.592,177.802 200.802,190.015 211.652,200.862C220.718,209.93 232.349,218.252 247.015,220.742L247.015,228.5L265.015,228.5L265.015,220.743C279.681,218.253 291.312,209.93 300.378,200.863C311.228,190.015 319.438,177.803 326.378,170.863L332.744,164.5L326.378,158.138C319.438,151.198 311.228,138.985 300.378,128.138C291.312,119.07 279.681,110.748 265.015,108.258L265.015,100.5L247.015,100.5ZM256.015,20.5L242.74,60.324C247.09,59.781 251.52,59.5 256.015,59.5C260.51,59.5 264.941,59.78 269.29,60.324L256.015,20.5ZM233.015,263.557L233.015,299.5L279.015,299.5L279.015,263.557C271.608,265.193 263.911,266.062 256.015,266.062C248.119,266.062 240.423,265.192 233.015,263.557ZM242.429,317.5L242.429,482.416C243.873,485.124 248.074,491.5 256.014,491.5C263.911,491.5 268.459,485.053 270.074,482.264L270.116,317.5L242.429,317.5ZM288.096,395.5L288.092,413.5L320.014,413.5L320.014,395.5L288.096,395.5ZM288.088,427.5L288.083,445.5L304.013,445.5L304.013,427.5L288.088,427.5ZM288.078,459.5L288.075,477.5L320.013,477.5L320.013,459.5L288.078,459.5Z" style="fill:rgb(202,191,88);fill-rule:nonzero;"/>
    <path d="M247.015,126.582L247.015,133.604C233.667,137.534 223.815,149.944 223.815,164.5C223.815,179.057 233.667,191.467 247.015,195.397L247.015,202.417C238.371,200.263 231.278,195.037 224.378,188.137C217.243,181 210.92,172.3 204.193,164.5C210.92,156.702 217.243,147.999 224.378,140.862C231.279,133.962 238.371,128.737 247.015,126.582ZM265.015,126.583C273.659,128.736 280.752,133.963 287.652,140.863C294.787,148 301.11,156.7 307.837,164.5C301.11,172.298 294.788,181.001 287.652,188.138C280.751,195.038 273.659,200.263 265.015,202.418L265.015,195.396C278.363,191.466 288.215,179.056 288.215,164.5C288.215,149.944 278.363,137.534 265.015,133.604L265.015,126.583Z" style="fill:white;"/>
    <path d="M256.015,150.302L256.015,150.3C263.965,150.3 270.215,156.552 270.215,164.5C270.215,172.448 263.965,178.7 256.015,178.7C248.067,178.7 241.815,172.448 241.815,164.5C241.815,156.552 248.067,150.302 256.015,150.302Z" style="fill:rgb(255,0,0);"/>
    <path d="M148.68,28.072L148.682,28.072C99.318,65.098 103.745,96.522 160.338,120.248C154.353,133.22 151.016,147.62 151.016,162.782C151.016,176.242 153.648,189.099 158.426,200.892C-4.34,183.455 55.504,47.13 148.68,28.072ZM363.318,28.073C456.491,47.131 516.333,183.438 353.607,200.891C358.385,189.097 361.015,176.241 361.015,162.781C361.015,147.616 357.676,133.212 351.688,120.236C408.258,96.512 412.676,65.093 363.318,28.073Z" style="fill:rgb(132,98,163);"/>
</svg>
