<?xml version="1.0" encoding="UTF-8" standalone="no"?>
<!DOCTYPE svg PUBLIC "-//W3C//DTD SVG 1.1//EN" "http://www.w3.org/Graphics/SVG/1.1/DTD/svg11.dtd">
<svg width="100%" height="100%" viewBox="0 0 512 512" version="1.1" xmlns="http://www.w3.org/2000/svg" xmlns:xlink="http://www.w3.org/1999/xlink" xml:space="preserve" xmlns:serif="http://www.serif.com/" style="fill-rule:evenodd;clip-rule:evenodd;stroke-linejoin:round;stroke-miterlimit:2;">
    <rect x="0" y="0" width="512" height="512" style="fill-rule:nonzero;"/>
    <path d="M356.5,16.375L181.594,271.595L183.124,272.655L215.094,294.969L390.156,39.469L356.5,16.374L356.5,16.375ZM446.563,78.595C426.403,108.013 402.441,101.695 378.313,87.5L329.625,160.375C350.903,176.925 366.085,196.02 348.219,222.095L391.186,251.563L420.093,209.406L405.373,200.25C402.206,202.094 398.523,203.156 394.593,203.156C382.743,203.156 373.123,193.536 373.123,181.686C373.123,169.839 382.743,160.25 394.593,160.25C406.443,160.25 416.03,169.84 416.03,181.688C416.03,181.883 416.005,182.088 416,182.281L431.906,192.188L449.844,165.97L412.156,142.47L423.186,124.75L438.126,134.063L448.219,117.875L472.469,132.969L489.561,108.029L446.561,78.593L446.563,78.595ZM141.22,268.624C140.91,268.634 140.592,268.647 140.28,268.687C139.453,268.791 138.628,268.971 137.75,269.249C134.24,270.359 130.35,273.315 127.625,277.187C124.901,281.057 123.465,285.674 123.625,289.312C123.785,292.949 124.882,295.65 128.875,298.437L205.469,351.905C208.752,354.198 211.196,354.255 214.593,353.061C217.989,351.869 221.916,348.801 224.718,344.843C227.518,340.883 229.07,336.183 229.028,332.655C228.988,329.125 228.138,326.868 224.654,324.435L148.03,270.97C145.484,269.19 143.373,268.55 141.22,268.625L141.22,268.624ZM84.28,312.78C59.926,313.19 38.776,322.3 26.625,340.03C9.675,364.767 14.757,399.783 36.25,430.313C34.412,435.033 33.375,440.153 33.375,445.5C33.375,468.743 52.445,487.813 75.688,487.813C84.323,487.813 92.38,485.188 99.094,480.688C142.302,499.176 187.164,493.402 207.374,463.906C226.069,436.626 218.258,396.994 191,364.594L127.906,320.564C113.89,315.457 99.836,312.864 86.656,312.781C85.864,312.777 85.066,312.769 84.281,312.781L84.28,312.78ZM75.687,421.906C88.83,421.906 99.281,432.356 99.281,445.5C99.281,458.643 88.831,469.125 75.688,469.125C62.546,469.125 52.064,458.643 52.064,445.5C52.064,432.357 62.546,421.906 75.688,421.906L75.687,421.906Z" style="fill:rgb(108,108,108);fill-rule:nonzero;"/>
</svg>
