<?xml version="1.0" encoding="UTF-8" standalone="no"?>
<!DOCTYPE svg PUBLIC "-//W3C//DTD SVG 1.1//EN" "http://www.w3.org/Graphics/SVG/1.1/DTD/svg11.dtd">
<svg width="100%" height="100%" viewBox="0 0 512 512" version="1.1" xmlns="http://www.w3.org/2000/svg" xmlns:xlink="http://www.w3.org/1999/xlink" xml:space="preserve" xmlns:serif="http://www.serif.com/" style="fill-rule:evenodd;clip-rule:evenodd;stroke-linejoin:round;stroke-miterlimit:2;">
    <rect x="0" y="0" width="512" height="512" style="fill-rule:nonzero;"/>
    <g>
        <path d="M68.64,390.179C56.657,398.522 49.292,405.614 28.828,409.662L32.32,427.318C48.278,424.161 58.844,418.619 67.357,413.027C68.221,405.56 68.619,397.935 68.64,390.179ZM115.377,435.976C108.271,437.85 101.515,439.922 95.195,442.257C91.987,453.959 87.894,464.618 78.605,474.986L92.011,486.996C107.126,470.125 111.431,451.987 115.377,435.976ZM62.773,436.648C47.053,444.591 32.699,456.413 20.709,473.099L35.324,483.603C41.144,475.502 47.434,468.898 54.168,463.47C56.876,454.641 60.344,445.196 62.773,436.648Z" style="fill:rgb(243,240,180);fill-rule:nonzero;"/>
        <path d="M207.829,78.913C213.132,78.966 218.428,79.312 223.692,79.953C244.046,82.395 263.904,89.208 282.69,97.57C279.475,107.788 277.487,118.329 277.37,129.943C273.761,125.059 270.219,118.567 267.401,112.523L249.905,108.298C260.7,175.447 333.376,197.04 379.346,205.013L380.968,187.087C372.512,186.327 364.137,184.837 355.938,182.634C368.941,179.093 382.226,174.371 395.276,168.791C405.599,179.383 414.659,191.041 421.43,203.521C439.381,236.605 442.684,274.556 412.553,318.78C406.637,327.465 399.844,335.157 392.309,342C346.286,341.067 307.99,318.498 267.073,303.267C287.858,330.261 319.848,358.004 363.628,362.39C330.92,380.65 290.49,389.844 248.45,396.33C189.608,405.407 128.7,408.55 83.432,427.414C88.512,400.803 87.257,373.192 83.902,345.715C99.983,359.861 119.467,364.932 139.191,369.365C122.362,350.767 96.006,332.003 78.045,306.162C76.767,298.3 75.491,290.475 74.306,282.755C66.067,229.055 62.416,180.686 91.631,144.14C94.005,141.169 96.438,138.247 98.931,135.376C116.687,139.826 134.65,143.757 154.785,142.26C140.5,132.82 130.931,121.614 126.765,108.38C154.491,86.318 181.566,78.696 207.829,78.913ZM234.015,208.611C236.663,268.366 326.388,286.288 387.535,275.876C346.609,264.403 266.478,231.805 234.015,208.611Z" style="fill:rgb(198,62,124);"/>
        <path d="M374.827,83.628C390.584,63.369 431.758,13.492 469.135,27.425C494.792,40.322 497.958,66.031 479.72,89.959C467.54,105.748 443.119,124.284 415.1,139.302C389.706,152.914 361.289,163.798 336.389,168.718C375.601,140.259 423.291,112.439 455.221,77.318L441.905,65.21C410.808,99.416 359.295,128.648 317.225,160.478C337.527,138.83 354.886,109.569 374.827,83.628ZM328.344,53.117C334.42,46.28 354.917,32.773 364.02,45.835C373.542,76.925 319.155,112.982 307.289,151.935C301.695,142.21 293.903,129.134 296.997,113.9C301.046,93.957 312.514,71.483 328.344,53.117Z" style="fill:rgb(76,163,63);"/>
    </g>
</svg>
