<?xml version="1.0" encoding="UTF-8" standalone="no"?>
<!DOCTYPE svg PUBLIC "-//W3C//DTD SVG 1.1//EN" "http://www.w3.org/Graphics/SVG/1.1/DTD/svg11.dtd">
<svg width="100%" height="100%" viewBox="0 0 512 512" version="1.1" xmlns="http://www.w3.org/2000/svg" xmlns:xlink="http://www.w3.org/1999/xlink" xml:space="preserve" xmlns:serif="http://www.serif.com/" style="fill-rule:evenodd;clip-rule:evenodd;stroke-linejoin:round;stroke-miterlimit:2;">
    <rect x="0" y="0" width="512" height="512" style="fill-rule:nonzero;"/>
    <g>
        <path d="M256.502,23.338C251.238,23.321 245.9,23.402 240.492,23.586C196.56,25.076 131.997,32.6 84.422,58.111C60.634,70.868 41.228,87.856 29.7,110.58C19.795,130.103 15.482,154.192 19.873,184.7C99.459,120.5 202.563,109.713 293.449,122.623C341.317,129.423 385.953,142.753 422.573,158.531C450.743,170.671 474.051,184.066 490.763,197.675C495.409,153.333 476.725,111.779 438.353,79.769C397.955,46.065 335.457,23.597 256.501,23.339L256.502,23.338ZM229.152,136.506C156.608,136.133 82.602,154.5 24.137,205.366C39.577,228.713 96.491,243.568 165.303,250.543C169.803,239.255 174.86,228.42 180.418,218.183C164.736,223.271 146.603,224.539 129.375,223.406C116.307,222.546 103.768,220.15 93.095,216.126C82.42,212.1 73.163,206.629 68.063,197.469L84.406,188.374C85.99,191.218 91.31,195.496 99.686,198.654C108.066,201.814 119.056,203.99 130.594,204.749C151.729,206.139 174.69,202.196 187.604,194.446C178.204,189.293 170.484,182.613 166.062,173.686L182.812,165.406C185.492,170.812 192.596,176.783 203.282,181.311C207.228,182.984 211.609,184.458 216.292,185.708L274.07,188.994C292.25,186.492 308.78,180.692 318.906,171.934L331.126,186.06C323.493,192.66 314.341,197.664 304.306,201.297C306.498,202.607 309.106,203.89 312.126,205.027C320.503,208.187 331.493,210.363 343.031,211.122C366.109,212.64 391.371,207.802 403.345,198.592L414.751,213.402C396.174,227.697 367.949,231.497 341.813,229.778C328.746,228.92 316.206,226.523 305.533,222.498C303.383,221.688 301.303,220.808 299.29,219.858C298.82,231.192 298.645,242.804 298.762,254.602C385.722,251.602 463.658,237.73 481.137,214.002C466.447,201.679 443.437,187.87 415.177,175.692C380.119,160.587 336.917,147.672 290.82,141.122C270.653,138.258 249.962,136.612 229.152,136.504L229.152,136.506ZM211.146,204.136C165.48,269.483 144.129,381.121 173.598,463.226C178.124,475.836 188.71,484.38 203.543,489.691C218.376,495.004 237.02,496.505 254.513,494.611C272.003,492.716 288.349,487.331 298.406,480.489C303.436,477.069 306.796,473.377 308.479,470.022C310.159,466.669 310.546,463.742 309.349,459.684C286.381,381.864 276.581,288.04 281.325,208.129L211.145,204.137L211.146,204.136Z" style="fill:rgb(156,104,34);fill-rule:nonzero;"/>
    </g>
</svg>
