<?xml version="1.0" encoding="UTF-8" standalone="no"?>
<!DOCTYPE svg PUBLIC "-//W3C//DTD SVG 1.1//EN" "http://www.w3.org/Graphics/SVG/1.1/DTD/svg11.dtd">
<svg width="100%" height="100%" viewBox="0 0 512 512" version="1.1" xmlns="http://www.w3.org/2000/svg" xmlns:xlink="http://www.w3.org/1999/xlink" xml:space="preserve" xmlns:serif="http://www.serif.com/" style="fill-rule:evenodd;clip-rule:evenodd;stroke-linejoin:round;stroke-miterlimit:2;">
    <rect x="0" y="0" width="512" height="512" style="fill-rule:nonzero;"/>
    <g>
        <path d="M446.738,28.814C421.621,42.501 397.849,71.494 384.781,100.623C376.963,97.73 368.105,96.005 359.268,96.078C344.538,96.199 329.883,101.305 320.26,114.246C321.146,114.251 322.034,114.264 322.926,114.296C335.146,114.739 347.884,117.706 360.23,122.398C383.21,131.132 405.437,145.684 418.52,164.228C431.243,133.625 417.69,119.025 400.951,108.798C412.684,83.18 435.74,55.308 455.351,44.621L446.738,28.814Z" style="fill:rgb(101,168,122);fill-rule:nonzero;"/>
        <path d="M319.824,132.261C320.63,132.265 321.436,132.284 322.242,132.316C332.02,132.707 343.034,135.119 353.834,139.224C382.635,150.172 408.657,173.517 411.93,193.334C414.531,209.089 408.759,232.571 394.691,258.961C380.624,285.351 358.65,314.628 330.83,343.009C275.191,399.773 196.183,452.934 110.712,475.326C93.882,479.735 80.105,482.247 70.182,482.998C62.866,483.551 58.748,482.754 56.648,482.289C56.925,481.7 56.735,481.839 57.421,480.872C60.685,476.282 68.708,468.653 81.451,459.482C136.876,419.595 171.855,390.591 194.83,366.475C217.805,342.357 228.802,322.735 235.152,303.265C247.854,264.325 242.93,229.355 288.244,147.088C293.076,138.316 301.205,133.933 312.93,132.611C315.219,132.359 317.521,132.243 319.824,132.261ZM321.801,150.074C291.984,149.038 243.348,278.056 266.298,290.045C279.858,232.707 303.823,191.247 326.768,151.607C325.186,150.629 323.526,150.134 321.801,150.074Z" style="fill:url(#_Linear1);"/>
    </g>
    <defs>
        <linearGradient id="_Linear1" x1="0" y1="0" x2="1" y2="0" gradientUnits="userSpaceOnUse" gradientTransform="matrix(355.888,0,0,350.927,56.648,307.723)"><stop offset="0" style="stop-color:rgb(226,16,16);stop-opacity:1"/><stop offset="1" style="stop-color:rgb(255,0,139);stop-opacity:1"/></linearGradient>
    </defs>
</svg>
