<?xml version="1.0" encoding="UTF-8" standalone="no"?>
<!DOCTYPE svg PUBLIC "-//W3C//DTD SVG 1.1//EN" "http://www.w3.org/Graphics/SVG/1.1/DTD/svg11.dtd">
<svg width="100%" height="100%" viewBox="0 0 512 512" version="1.1" xmlns="http://www.w3.org/2000/svg" xmlns:xlink="http://www.w3.org/1999/xlink" xml:space="preserve" xmlns:serif="http://www.serif.com/" style="fill-rule:evenodd;clip-rule:evenodd;stroke-linejoin:round;stroke-miterlimit:2;">
    <rect x="0" y="0" width="512" height="512" style="fill-rule:nonzero;"/>
    <g>
        <path d="M279.1,64.09C286.3,54.29 295,47.59 304.4,44.29C321.3,38.39 340.9,42.79 358.9,60.39C369.6,48.69 381.8,42.39 394.1,40.19C428.7,33.69 464,60.29 469.4,93.19C472.3,111.3 466.7,131.6 446.5,149.1C466.2,172 470.5,190.5 467,205.1C464.6,215.2 458.2,223.9 449.4,231.1C458.4,251.8 453.2,268.3 437.9,281.1C425.7,291.3 405.9,299 380.9,304.2C380.1,318.3 376.3,328.9 370.7,337C361,351.3 345.6,358 329.4,361.4C314.8,364.9 301.1,364.1 286.9,367.4C242.8,378.3 225.2,401.8 209.6,422.8C196.3,440.8 184.1,456.8 161.9,465.8C152.8,469.8 141.8,471.8 128.3,472.8C146.5,465.8 161.5,452.8 175.6,433.8C182.1,425.8 188.5,415.8 195.3,403.8C210.2,379.3 234.4,361.4 262.5,354.3C285,348.2 304.6,349.6 326,345.1C338,342.6 349.8,338.2 357,327.6C360.2,322.9 362.5,317.1 363.6,309.8C357.3,312.8 349.6,315.1 340.7,317.3C299.1,327.3 230.6,331.2 189,390.6C171.4,416.5 148.9,450.1 122.7,460.8C116.7,462.8 110.3,464.8 103.2,464.8C125.7,454.8 133.6,439.8 133.6,439.8C133.6,439.8 111.7,467.8 54.95,458.8C48.17,433.5 51.08,397.3 72.56,378.8C72.56,378.8 56,387.8 45.06,413.8C43.9,397.8 46.71,384.1 52.72,372.6C75.6,340.2 102,328 133.7,311.5C162.4,292.9 176,266.4 184,240.3C191,217.6 194,195 198.6,177.3C200.7,169.1 203.3,161.9 206.6,155.9C195.5,156.4 187.1,159.1 180.8,163.6C170.2,171.3 165.7,183.7 163.3,196.3C160.1,211.3 160.8,227.3 159,241.9C155.5,270 138.5,294.6 113.6,307.9C87.08,323.3 55.21,342.4 41.92,366.3C43.28,359.3 45.21,353 47.58,347.5C57.43,324.3 75.04,311.4 93.22,299C108.8,288.4 125,278.3 134.7,259.5C144.3,236.1 142.6,216.1 146.9,193.1C150.2,176.3 156.9,160.3 171.1,150.1C179.3,144.2 190,140.2 204.2,139.3C209.6,114.2 219,93.19 231,79.79C244.4,64.79 260.8,58.49 279.1,64.09ZM223.7,336.4C262.5,313.4 306.2,308.4 336.8,301.1C347.1,297.9 363.5,295.3 367.2,284.7C369.3,278.4 367.2,269.9 361.2,257.8L356.6,248.7L366.5,246.1C380.3,242.5 406.4,236.9 426.7,226.1C438.3,219.9 448.2,212.2 450.8,201.2C453.8,188.9 447.5,173.9 428.3,153.9L421.6,147L429.5,141.4C448.9,127.4 455.4,110.9 452.9,95.89C448.9,71.49 422.7,51.79 397.1,56.49C386,58.59 375.1,65.29 366.1,77.99L359.8,86.79L352.9,78.49C338.8,61.59 323.5,55.29 309.9,59.99C301.8,62.89 294.7,69.49 289.1,79.19C279.7,95.59 274.8,120.3 277.3,151.9L278.4,165.9L265.6,160.2C247.9,152.3 236.7,150.5 229,155C221.3,159.4 217.9,169.3 214.7,181.5C210,199.4 207,222.2 199.9,245.2C195.7,259 190,272.8 181.9,285.8C204.3,273.1 234.7,257.3 243.8,231.5C250,213.2 243.8,198.3 243.8,198.3L259.1,191.7C259.1,191.7 267.4,210.6 260.4,234.2C282.6,216.5 299,202.7 317.8,184.3C322.9,178.4 326.6,172 328.9,164.7C333.1,150.9 331.7,134.5 323.8,113.6L339.4,107.7C347.3,128.7 349.3,146.1 346.8,161C368.1,141.2 391.7,116.5 400.9,97.49L415.9,104.7C403.6,130.3 366.9,165.4 342,187.5C364.8,182.7 383,185.5 383,185.5L380.4,202C313.1,208.9 296.2,227.9 255.5,284C290,263.8 318.4,270.1 318.4,270.1L315.1,286.4C315.1,286.4 266.8,277.4 223.7,336.4ZM434.5,240.8C417,250.2 395.5,255.9 380.2,259.8C384.4,270.7 385.3,279.5 383.9,286.5C398.3,283.1 410.5,278.8 419.9,273.4C427.5,268.9 433,263.8 435.5,257.6C436.3,255.1 438.5,247.8 434.5,240.8ZM270.5,79.29C260.3,77.69 251.1,82.29 243.4,90.89C233.4,102.1 225.8,119.5 221.1,140.3C230,135.3 242.4,134.3 260,140.1C259.6,115.3 263.6,94.79 270.5,79.29Z" style="fill:url(#_Linear1);fill-rule:nonzero;"/>
    </g>
    <defs>
        <linearGradient id="_Linear1" x1="0" y1="0" x2="1" y2="0" gradientUnits="userSpaceOnUse" gradientTransform="matrix(428.194,0,0,433.594,41.92,256.003)"><stop offset="0" style="stop-color:white;stop-opacity:1"/><stop offset="1" style="stop-color:rgb(30,142,7);stop-opacity:1"/></linearGradient>
    </defs>
</svg>
