<?xml version="1.0" encoding="UTF-8" standalone="no"?>
<!DOCTYPE svg PUBLIC "-//W3C//DTD SVG 1.1//EN" "http://www.w3.org/Graphics/SVG/1.1/DTD/svg11.dtd">
<svg width="100%" height="100%" viewBox="0 0 512 512" version="1.1" xmlns="http://www.w3.org/2000/svg" xmlns:xlink="http://www.w3.org/1999/xlink" xml:space="preserve" xmlns:serif="http://www.serif.com/" style="fill-rule:evenodd;clip-rule:evenodd;stroke-linejoin:round;stroke-miterlimit:2;">
    <rect x="0" y="0" width="512" height="512" style="fill-rule:nonzero;"/>
    <g>
        <path d="M265.625,44.094C253.705,44.088 241.769,44.5 229.905,45.374L221.155,52.781C231.325,59.043 238.155,68.349 239.937,78.845C241.924,90.535 237.421,102.915 227.812,112.407C208.595,131.391 176.402,136.091 152.094,123.751C148.978,122.169 146.127,120.321 143.564,118.251L16.75,225.28L90.594,205.906C98.13,187.009 116.934,172.259 138.906,168.312C142.48,167.672 146.021,167.348 149.469,167.344C159.809,167.331 169.399,170.128 177.124,175.469C179.608,177.185 181.886,179.172 183.904,181.405L476.28,104.685C431.304,65.529 349.057,44.135 265.625,44.093L265.625,44.094ZM490.595,118.781L192.375,196.501C193.475,200.159 194.095,204.041 194.095,208.064C194.095,235.114 170.812,258.554 142.219,263.689C127.921,266.256 114.329,263.622 104.029,256.501C93.731,249.381 87.061,237.465 87.061,223.938L19.69,241.5L19.69,336.875C19.997,336.795 20.217,336.665 20.533,336.595C34.93,333.285 48.726,335.337 59.223,342.187C69.718,349.037 76.473,360.98 76.473,374.594C76.473,401.821 53.327,426.334 24.597,432.938C22.892,433.328 21.307,433.485 19.69,433.688L19.69,446.906L222.253,394.094C219.623,388.492 218.19,382.364 218.19,375.938C218.19,349.423 242.862,327.906 273.315,327.906C299.333,327.906 321.139,343.614 326.94,364.719C328.305,365.059 329.686,365.405 331.065,365.779L490.597,324.687L490.597,118.78L490.595,118.781ZM149.469,186.031C147.163,186.036 144.743,186.235 142.219,186.688C122.014,190.318 105.749,208.482 105.749,223.938C105.749,231.668 108.964,237.191 114.655,241.126C120.345,245.061 128.803,247.096 138.905,245.282C159.109,241.654 175.405,223.522 175.405,208.064C175.405,200.336 172.19,194.781 166.499,190.846C162.231,187.894 156.381,186.023 149.469,186.033L149.469,186.031ZM396.937,250.063C417.631,250.063 435.78,265.103 435.78,285.095C435.78,305.087 417.632,320.157 396.938,320.157C376.243,320.157 358.063,305.087 358.063,285.095C358.063,265.103 376.243,250.065 396.938,250.065L396.937,250.063ZM396.937,268.751C385.041,268.751 376.749,276.697 376.749,285.095C376.749,293.492 385.041,301.439 396.937,301.439C408.832,301.439 417.093,293.492 417.093,285.095C417.093,276.697 408.833,268.751 396.937,268.751Z" style="fill:rgb(255,189,0);fill-rule:nonzero;"/>
    </g>
</svg>
