<?xml version="1.0" encoding="UTF-8" standalone="no"?>
<!DOCTYPE svg PUBLIC "-//W3C//DTD SVG 1.1//EN" "http://www.w3.org/Graphics/SVG/1.1/DTD/svg11.dtd">
<svg width="100%" height="100%" viewBox="0 0 512 512" version="1.1" xmlns="http://www.w3.org/2000/svg" xmlns:xlink="http://www.w3.org/1999/xlink" xml:space="preserve" xmlns:serif="http://www.serif.com/" style="fill-rule:evenodd;clip-rule:evenodd;stroke-linejoin:round;stroke-miterlimit:2;">
    <rect x="0" y="0" width="512" height="512" style="fill-rule:nonzero;"/>
    <g>
        <path d="M346.8,102C331.2,102 319.2,111.6 316.6,123.4C321.2,130 324,138 324.5,146.5C330,151.4 337.8,154.6 346.8,154.6C364.5,154.6 377.6,142.3 377.6,128.3C377.6,114.3 364.5,102 346.8,102ZM278.2,121.2C276.2,121.2 274.2,121.4 272.3,121.8C274.2,129.9 273.7,138.4 270.3,146.5C267,154.4 261.6,160.6 254.9,165C260,172.3 268.5,177 278.2,177C294,177 306.6,164.5 306.6,149.1C306.6,133.7 294,121.2 278.2,121.2ZM139.9,136.3C134.8,136.2 129.7,137.5 125.2,140.1C110.8,148.6 106.1,168.9 116.2,186.3C126.3,203.6 146.4,209.5 160.8,201.1C175.3,192.7 179.9,172.3 169.8,155C162.9,143 151.2,136.5 139.9,136.3ZM403.3,158.7C384.5,158.4 368.8,169.7 365.7,185.5C362.2,203.5 376.1,222.4 398.5,226.7C420.9,231.1 440.9,218.8 444.4,200.8C447.9,182.8 434,163.9 411.6,159.6C408.8,159.1 406,158.8 403.3,158.7ZM252.3,187.1C252.4,188.5 252.5,189.9 252.5,191.3C252.5,204.2 247.4,215.9 239,224.7C248,226.1 256.2,229.7 263.1,234.8C268.7,221.4 280,209.8 294.4,202.7C293.2,199.8 292.3,196.7 291.8,193.6C291.6,193.4 291.4,193.3 291.2,193.1C287,194.3 282.7,195 278.2,195C268.7,195 259.7,192.1 252.3,187.1ZM158.1,221.4C152.2,222.9 146,223.2 140,222.3C141.4,232.3 139.7,243.1 134.9,253C133,256.9 130.7,260.4 128,263.6C142.9,266 157.8,267.9 172.7,269.5C173.4,269.3 174,269 174.7,268.8C175.8,268.4 177,268.1 178.1,267.8C179.1,258.3 183.1,249.6 189.1,242.5C188.9,241.7 188.7,240.9 188.4,240.1C176.2,237.5 165.5,230.8 158.1,221.4ZM230.2,242C213.8,242 200.6,252.1 196.8,265.2C201.7,265.3 206.7,265.9 211.7,267.1L212.5,267.3L213.3,267.6C216.8,269.3 220.1,271.2 223.2,273.4C237,274.1 250.9,274.4 264.7,274.3L264.7,273C264.7,256.2 249.7,242 230.2,242Z" style="fill:rgb(139,108,108);fill-rule:nonzero;"/>
        <path d="M194.7,283.2C185,301 176.2,318.3 174.1,333.5L191.9,335.9C193.3,325.7 202.3,307.2 212.6,288.1C216.7,291 220.1,294.5 222.4,298.2C225.8,303.7 226.8,309 225,314.3C218.1,335.4 193.8,354.3 164.9,367.5C160.5,359.7 157.8,348.4 157.5,336.4C157.2,321.4 160.4,305.8 165.1,296.9C166.9,293.4 172.7,288.6 180.6,285.9C184.6,284.5 189,283.6 193.6,283.3C194,283.3 194.3,283.3 194.7,283.2Z" style="fill:rgb(17,151,61);"/>
        <path d="M31.29,260.9C70.67,271.8 110.9,279.8 151.2,285C150.4,286.1 149.7,287.3 149.1,288.5L149.1,288.6C142.4,301.6 139.1,319.2 139.5,336.8C139.9,354.5 143.9,372.4 155.2,384.9L159.5,389.6L165.4,387.1C199.5,372.8 231.8,351.4 242.2,319.9C245.3,310.3 243.8,300.3 239.5,291.9C323.4,294.1 405.8,284 480.7,261.5C470.9,282.8 454.7,310 435,335.8C409.5,369.2 377.9,400.3 348.1,415.2L343.1,417.7L343.1,423.3C343.1,426.3 341.9,428.9 338,432.2C334.1,435.6 327.5,439 319.3,441.8C302.7,447.3 279.3,450.3 256.1,450.3C232.9,450.3 209.5,447.3 192.9,441.8C184.7,439 178.1,435.6 174.2,432.2C170.3,428.9 169.1,426.3 169.1,423.3L169.1,417.7L164.1,415.2C134.3,400.3 102.7,369.2 77.26,335.8C57.33,309.8 41.04,282.3 31.29,260.9Z" style="fill:rgb(197,106,75);"/>
        <path d="M285.4,61.74C289.5,61.77 293.6,62.55 297.7,64.17C310.6,69.3 318.2,80.94 317.9,92.6C311.2,97.04 305.8,103 302.3,110C295.3,105.7 287,103.2 278.2,103.2C273.6,103.2 269.2,103.9 265,105.1C263,102.3 260.7,99.54 258.1,97.05C256.2,91.16 256.1,84.78 258.5,78.88C262.7,68.24 273.4,61.64 285.4,61.74ZM192.3,160C196.4,163.5 201.2,166.4 206.5,168.6C213.6,171.6 221.1,172.9 228.3,172.9C232.2,178.1 234.5,184.5 234.5,191.3C234.5,208.8 219.4,223.4 200,223.4C190,223.4 181.1,219.5 174.8,213.3C190.5,201.1 196.5,180 191.3,160.2C191.6,160.1 191.9,160.1 192.3,160ZM321.5,166.1C328.9,170.2 337.6,172.6 346.8,172.6C348.2,172.6 349.6,172.5 351,172.4C349.7,175.5 348.7,178.7 348,182.1C346.3,190.8 347.1,199.3 349.9,207.2C345.8,209.7 340.9,211.2 335.5,211.2C320.6,211.2 309.2,200.1 309.2,186.8C309.2,185.4 309.3,184.1 309.6,182.8C314.6,178.3 318.6,172.6 321.2,166.3C321.3,166.2 321.4,166.2 321.5,166.1ZM98.41,202.5C101.4,202.6 104.4,203.1 107.1,204.2C110.5,208.1 114.4,211.4 118.5,214.2C123.5,222.5 124.1,234.1 118.8,245C115.6,251.6 110.9,256.5 105.6,259.7C94.02,257.6 82.5,255.2 71.03,252.6C65.95,244.2 65.23,232.5 70.67,221.4C76.66,209.2 87.81,202.5 98.41,202.5ZM450.5,227.4C455.2,233.2 458.1,240.8 458.1,249L458.1,249.4C436.9,255.1 415.1,259.8 392.9,263.6C390.9,259.2 389.7,254.2 389.7,249C389.7,247 389.9,245.1 390.2,243.2C391.8,243.7 393.4,244.1 395.1,244.4C416.4,248.5 437.5,241.6 450.5,227.4Z" style="fill:rgb(159,56,153);"/>
        <path d="M219.7,99.49C224.3,99.51 229.2,100.4 234,102.5C251.2,109.6 259.1,126.6 253.6,139.6C248.2,152.7 230.6,159.1 213.4,152C196.3,144.9 188.4,127.9 193.8,114.8C197.7,105.4 207.9,99.49 219.7,99.49ZM305,217.5C313,224.8 323.8,229.2 335.5,229.2C343.8,229.2 351.6,227 358.3,223.1C363.9,227.8 367.8,233.9 369.3,240.8C371.2,250.1 368.5,259.9 362.1,268.1C336.8,271.3 311.1,273.3 285,274C284.2,273 283.3,272 282.6,270.9C282.3,263.9 280.5,257.4 277.4,251.5C278.5,237.8 288.9,224.4 305,217.5Z" style="fill:rgb(177,77,128);"/>
    </g>
</svg>
