<?xml version="1.0" encoding="UTF-8" standalone="no"?>
<!DOCTYPE svg PUBLIC "-//W3C//DTD SVG 1.1//EN" "http://www.w3.org/Graphics/SVG/1.1/DTD/svg11.dtd">
<svg width="100%" height="100%" viewBox="0 0 512 512" version="1.1" xmlns="http://www.w3.org/2000/svg" xmlns:xlink="http://www.w3.org/1999/xlink" xml:space="preserve" xmlns:serif="http://www.serif.com/" style="fill-rule:evenodd;clip-rule:evenodd;stroke-linejoin:round;stroke-miterlimit:2;">
    <rect x="0" y="0" width="512" height="512" style="fill-rule:nonzero;"/>
    <g>
        <path d="M294.818,43.27L294.817,43.272C309.181,43.246 323.083,45.366 335.833,50.036C363.286,60.093 397.412,83.136 419.539,110.039C430.601,123.492 438.655,137.845 441.989,151.659C445.324,165.474 444.261,178.567 436.959,191.541C427.611,208.155 418.865,218.268 396.219,230.621C373.571,242.976 337.087,256.721 275.293,277.406C229.051,292.886 191.017,345.176 154.285,385.338C135.919,405.419 118.027,422.475 101.852,430.743C85.676,439.009 72.748,439.803 57.038,428.023C35.221,411.665 25.738,389.562 24.498,362.477C23.258,335.392 30.942,303.614 44.428,271.172C71.398,206.288 121.359,138.883 163.324,98.125C195.378,66.992 245.788,44.298 291.938,43.305C292.901,43.284 293.861,43.273 294.818,43.27ZM298.236,67.529C257.742,67.724 216.242,84.487 203.722,94.494C180.933,124.697 191.883,205.551 193.546,216.147C234.102,254.257 379.03,249.01 411.106,196.087C443.183,143.167 404.283,120.102 356.729,84.207C340.381,71.868 319.446,67.426 298.236,67.529ZM178.366,111.19C131.142,145.112 97.661,200.45 94.043,217.104C96.183,231.201 148.566,219.855 167.963,210.127C171.28,194.303 177.308,113.18 178.366,111.19ZM141.915,232.904C124.128,233.004 106.66,237.806 89.617,249.422C40.037,283.216 41.264,382.881 59.47,402.986C104.713,449.322 175.345,306.314 246.603,268.996C211.005,249.654 175.875,232.714 141.915,232.904Z" style="fill:rgb(198,46,46);fill-rule:nonzero;"/>
        <path d="M105.452,306.117L105.454,306.116C110.891,306.016 116.282,307.476 119.914,310.716C129.924,319.648 132.496,340.192 124.234,350.736C114.966,362.564 89.563,367.938 79.506,356.748C68.992,345.049 78.372,320.657 90.712,310.904C94.532,307.887 100.016,306.22 105.452,306.117ZM456.462,137.438C468.883,149.843 477.522,160.991 481.852,171.574C487.59,185.598 487.079,198.942 477.346,217.854C468.702,234.647 460.096,244.618 437.302,256.882C414.507,269.147 377.654,282.731 315.837,303.425C277.137,316.38 244.253,357.119 211.393,393.903C194.963,412.295 178.72,429.815 162.9,442.579C147.164,455.277 132.121,462.953 118.084,463.603C117.434,463.585 109.003,461.651 100.887,457.917C97.865,456.527 94.752,454.919 91.722,453.189C97.994,451.975 104.149,449.785 110.044,446.771C130.152,436.494 148.765,418.046 167.569,397.486C205.177,356.366 244.129,306.82 281.007,294.474C343.039,273.709 380.039,259.954 404.839,246.424C429.64,232.895 442.307,218.741 452.647,200.367C462.223,183.35 463.687,164.834 459.487,147.434C458.674,144.065 457.658,140.732 456.462,137.438Z" style="fill:white;"/>
    </g>
</svg>
