<?xml version="1.0" encoding="UTF-8" standalone="no"?>
<!DOCTYPE svg PUBLIC "-//W3C//DTD SVG 1.1//EN" "http://www.w3.org/Graphics/SVG/1.1/DTD/svg11.dtd">
<svg width="100%" height="100%" viewBox="0 0 512 512" version="1.1" xmlns="http://www.w3.org/2000/svg" xmlns:xlink="http://www.w3.org/1999/xlink" xml:space="preserve" xmlns:serif="http://www.serif.com/" style="fill-rule:evenodd;clip-rule:evenodd;stroke-linejoin:round;stroke-miterlimit:2;">
    <rect x="0" y="0" width="512" height="512" style="fill-rule:nonzero;"/>
    <g>
        <path d="M252.094,19.438C234.002,19.375 216.546,29.258 208.969,47.875L208.969,57.563L197.593,55.063C183.277,51.893 171.801,53.913 164.218,58.906C156.633,63.9 152.044,71.804 151.873,84.344C151.743,93.884 153.803,100.164 156.686,104.344C159.568,108.524 163.359,111.016 168.592,112.406C179.057,115.186 195.262,112.049 209.686,103.656L215.654,100.186L220.717,104.844C229.122,112.588 235.227,115.914 241.277,117.094C247.329,118.274 254.323,117.412 264.717,114.219L274.559,111.187L276.622,121.28C279.317,134.438 291.532,144.687 305.747,144.687C318.984,144.687 329.417,135.659 333.06,123.219L335.278,115.687L343.061,116.53C351.916,117.52 362.471,112.485 368.061,106.187L374.061,99.437L381.029,105.219C399.639,120.706 416.489,122.179 428.312,116.687C440.132,111.193 448.492,98.085 447.562,77.905C446.682,59.078 436.592,47.457 422.062,42.093C407.53,36.729 388.302,38.483 370.78,50.311L363.344,55.343L358,48.093C350.962,38.508 340.91,32.608 331.28,31.093C321.652,29.577 312.793,32.021 305.906,39.499L298.5,47.529L291.72,38.969C281.277,25.804 266.506,19.487 252.094,19.437L252.094,19.438Z" style="fill:url(#_Linear1);fill-rule:nonzero;"/>
        <path d="M213.22,122.938C221.219,129.423 229.117,133.766 237.686,135.436C245.413,136.943 253.146,136.321 261.406,134.436C268.91,151.514 286.106,163.374 305.75,163.374C325.018,163.374 340.978,151.496 348.438,135.249C358.734,134.644 368.19,130.487 375.688,124.499C386.579,132.077 397.849,136.437 408.626,137.719C405.423,171.321 406.786,212.818 410.656,257.436C415.438,312.546 424.318,371.591 434.25,424.156L164.406,424.156C176.978,373.938 186.067,313.718 190.844,257.438C194.977,208.736 196.122,163.8 193.03,130.344C199.85,128.758 206.65,126.228 213.22,122.938ZM65.22,119.968L65.22,119.973C101.157,130.331 137.582,137.247 174.75,138.973C175.393,148.727 175.71,159.568 175.78,171.283C147.54,172.426 119.848,170.316 92.53,163.816C71.447,229.224 62.2,283.966 64.53,350.846C94.749,362.49 126.741,361.648 158.843,359.97C156.804,371.65 154.602,383.117 152.249,394.19C110.234,394.295 68.362,393.42 28.812,376.19C25.784,289.07 37.8,203.65 65.22,119.968ZM134.844,442.844L453.186,442.844L474.906,491.25L116.22,491.25L134.844,442.844Z" style="fill:rgb(165,165,165);"/>
    </g>
    <defs>
        <linearGradient id="_Linear1" x1="0" y1="0" x2="1" y2="0" gradientUnits="userSpaceOnUse" gradientTransform="matrix(295.765,0,0,125.25,151.867,82.062)"><stop offset="0" style="stop-color:rgb(255,221,0);stop-opacity:1"/><stop offset="1" style="stop-color:white;stop-opacity:1"/></linearGradient>
    </defs>
</svg>
