<?xml version="1.0" encoding="UTF-8" standalone="no"?>
<!DOCTYPE svg PUBLIC "-//W3C//DTD SVG 1.1//EN" "http://www.w3.org/Graphics/SVG/1.1/DTD/svg11.dtd">
<svg width="100%" height="100%" viewBox="0 0 512 512" version="1.1" xmlns="http://www.w3.org/2000/svg" xmlns:xlink="http://www.w3.org/1999/xlink" xml:space="preserve" xmlns:serif="http://www.serif.com/" style="fill-rule:evenodd;clip-rule:evenodd;stroke-linejoin:round;stroke-miterlimit:2;">
    <rect x="0" y="0" width="512" height="512" style="fill-rule:nonzero;"/>
    <g>
        <path d="M275.8,42.39C257.3,42.84 228.9,62.24 206.8,82.73C202.2,86.99 198,91.14 194.1,95.12C250.3,97.57 303.3,94.76 355.9,90.91C350.8,85.99 344.9,80.58 338.3,75.05C317.8,57.84 291.7,42 275.8,42.39Z" style="fill:white;fill-rule:nonzero;"/>
        <path d="M436,102.9C438.4,107.5 440.5,111.8 441.7,115.6C442.9,119.3 443.3,122.2 442.8,125C342.6,157.5 229.1,156.9 115.6,131.6C113.2,127.4 112.7,124.1 113.4,120.5C114.2,116.8 116.9,112.3 122.1,107.2C237.3,121.5 336,110.2 436,102.9ZM423.5,149.5C462.9,242.7 454.5,333 436.4,422.2L434.6,431.1L443.5,432.8C444.2,433 449.5,435.7 454.6,440.4C459.6,445.1 464.9,451.3 469.1,457.3C472.4,462.2 474.6,466.8 475.7,469.8C464.3,470.3 447.5,471.4 430.5,470.8C411.8,470.2 393.7,466.4 388.1,461.8L384.6,459L380.3,460.1C292.8,481.3 213.5,473 126.3,456.5L122.8,455.8L119.8,457.7C108.9,464.6 90.92,470.9 74.09,473.5C57.26,476.1 41.44,474.2 36.26,470.7C34.99,469.9 35.34,470.9 35.93,468.5C36.52,466 39.04,461.5 43.11,457C51.23,448 65.23,439.3 75.06,437.7L83.63,436.2L82.47,427.6C69.4,330.3 115.5,247.2 139.4,154.9C237,173.2 334.4,173.4 423.5,149.5ZM271,184.9C211.7,184.9 164.8,239.6 164.8,305.5C164.8,371.4 211.7,426.1 271,426.1C330.3,426.1 377.2,371.4 377.2,305.5C377.2,239.6 330.3,184.9 271,184.9Z" style="fill:rgb(194,184,106);"/>
        <path d="M271,202.9C319.1,202.9 359.2,248.1 359.2,305.5C359.2,360.3 322.6,404 277.4,407.8L279.4,369C310.8,366.4 323.2,333.9 324.5,321.8C315.2,321.8 293.7,326.9 280.8,342.3L282.1,317.7C313.4,315 325.7,282.6 327.2,270.5C317.8,270.4 296.4,275.5 283.5,290.8L284.7,267.5C304.5,262.7 312.6,240.9 313.5,232.1C305.6,232.1 285.7,237.4 277.3,253.8C270.8,236.5 251.4,229.1 243.4,228.3C243.5,236.7 249,258.4 266.8,265.8L265.5,290.1C254.2,273.4 233.3,266.1 224.1,265.1C224.2,277.4 233.2,310.9 264.1,316.8L262.8,341.2C251.5,324.7 230.8,317.4 221.5,316.4C221.6,328.7 230.6,362.1 261.4,368.1L259.4,407.2C216.6,400.6 182.8,358.2 182.8,305.5C182.8,248.1 222.9,202.9 271,202.9Z" style="fill:rgb(255,237,0);"/>
    </g>
</svg>
