<?xml version="1.0" encoding="UTF-8" standalone="no"?>
<!DOCTYPE svg PUBLIC "-//W3C//DTD SVG 1.1//EN" "http://www.w3.org/Graphics/SVG/1.1/DTD/svg11.dtd">
<svg width="100%" height="100%" viewBox="0 0 512 512" version="1.1" xmlns="http://www.w3.org/2000/svg" xmlns:xlink="http://www.w3.org/1999/xlink" xml:space="preserve" xmlns:serif="http://www.serif.com/" style="fill-rule:evenodd;clip-rule:evenodd;stroke-linejoin:round;stroke-miterlimit:2;">
    <rect x="0" y="0" width="512" height="512" style="fill-rule:nonzero;"/>
    <g>
        <path d="M348.963,291.017L328.763,291.017L325.503,204.287L310.123,204.133L309.473,271.696L314.116,362.169C313.692,366.823 305.19,369.099 296.316,369.099C286.344,369.099 275.876,366.233 275.804,360.679L267.437,273.257L247.887,273.257L235.807,359.562C235.807,365.447 224.677,368.488 214.085,368.488C204.775,368.488 195.798,366.098 195.365,361.185L200.96,271.715L201.022,204.131L185.724,204.286L182.434,291.006L162.97,291.006C149.635,220.092 165.884,142 221.977,133.3C212.905,121.922 207.082,106.128 207.082,88.617C207.082,54.027 229.102,26.1 256.142,26.1C257.092,26.1 258.064,26.018 259.026,25.997L259.978,25.997C260.39,26.007 260.8,26.041 261.208,26.1C285.898,29.307 305.178,56.19 305.178,88.616C305.178,106.571 299.034,122.593 289.558,134.022C340.934,143.692 364.073,218.186 348.961,291.012L348.963,291.017Z" style="fill:rgb(227,227,227);fill-rule:nonzero;"/>
        <path d="M164.48,462.21L164.48,462.2C159.939,447.502 148.353,409.863 143.503,394.11C196.068,420.465 311.376,421.499 368.523,394.357C363.981,408.983 351.788,448.247 347.111,463.017C343.627,471.778 309.803,486 256.017,486C203.64,486 169.33,473.485 164.48,462.21Z" style="fill:rgb(223,203,114);"/>
        <path d="M369.773,348.433L369.765,348.431C373.603,351.162 379.87,356.448 378.63,361.558C376.447,371.002 354.592,384.324 311.77,391.264C249.244,401.401 171.628,392.434 142.284,371.674C138.448,368.933 132.188,363.659 133.358,358.589C135.178,350.728 150.662,340.177 180.534,332.855C180.534,332.855 178.734,355.227 178.858,362.705C178.93,366.978 181.651,377.372 195.894,382.358C201.763,384.251 207.9,385.177 214.066,385.1C221.018,385.179 227.933,384.077 234.516,381.84C248.914,376.576 251.768,366.615 252.212,361.278L256.349,331.872L259.225,361.868C259.741,371.053 266.186,378.749 276.621,382.555C282.949,384.693 289.595,385.743 296.274,385.659C302.24,385.737 308.18,384.842 313.858,383.009C327.831,378.159 330.51,367.879 330.603,363.679C330.779,355.87 329.166,332.443 329.166,332.443C346.223,336.425 360.465,341.833 369.773,348.433Z" style="fill:rgb(255,229,157);"/>
    </g>
</svg>
