<?xml version="1.0" encoding="UTF-8" standalone="no"?>
<!DOCTYPE svg PUBLIC "-//W3C//DTD SVG 1.1//EN" "http://www.w3.org/Graphics/SVG/1.1/DTD/svg11.dtd">
<svg width="100%" height="100%" viewBox="0 0 512 512" version="1.1" xmlns="http://www.w3.org/2000/svg" xmlns:xlink="http://www.w3.org/1999/xlink" xml:space="preserve" xmlns:serif="http://www.serif.com/" style="fill-rule:evenodd;clip-rule:evenodd;stroke-linejoin:round;stroke-miterlimit:2;">
    <rect x="0" y="0" width="512" height="512" style="fill-rule:nonzero;"/>
    <g>
        <path d="M254.9,154.1C216.2,175.6 169.8,206.3 141.2,242.3C150.9,325.3 200.2,388.4 259.5,388.4C318.7,388.4 367.8,325.7 377.7,243.1C348.8,201 299.7,170.2 254.9,154.1ZM196.6,237.1L199,237.1C212.1,237.2 225.1,239.8 238.1,244.5C221.3,285.1 179.1,286.5 160,244.5C172.2,239.7 184.4,237.3 196.6,237.1ZM321.5,237.1C334.5,237 347.5,239.4 360.6,244.5C341.4,286.5 299.3,285.1 282.4,244.5C295.5,239.8 308.5,237.2 321.5,237.1Z" style="fill:url(#_Linear1);fill-rule:nonzero;"/>
        <path d="M254.1,18.63C333.1,18.63 485.2,200.3 432.3,324.3C422.7,349.1 400.6,373.5 377.4,399.1C350.3,429.3 320.9,461.1 304.1,493.3L283.6,493.3C301.2,454.3 334.5,419 363.6,386.6C394.1,352.6 418.1,313.7 418.6,297.9C418.9,288.6 417.1,282.3 413,270.6C388.3,201.6 319.9,155.8 259,134.9L255.1,133.6L251.5,135.6C217,150.9 126,209.2 103,270.6C99.7,278.8 97.57,287.8 97.47,296.9C97.47,319.6 118.8,350.5 146.2,384.8C172.3,417.5 202.7,453.6 220.8,493.4L200.3,493.4C183.2,459.7 156,427.1 131.6,396.5C110.3,369.8 90.47,344.7 82.47,319.4C22.67,174.6 172.7,18.63 254.1,18.63Z" style="fill:rgb(100,42,181);"/>
    </g>
    <defs>
        <linearGradient id="_Linear1" x1="0" y1="0" x2="1" y2="0" gradientUnits="userSpaceOnUse" gradientTransform="matrix(236.5,0,0,234.3,141.2,271.25)"><stop offset="0" style="stop-color:rgb(34,0,88);stop-opacity:1"/><stop offset="1" style="stop-color:white;stop-opacity:1"/></linearGradient>
    </defs>
</svg>
