<?xml version="1.0" encoding="UTF-8" standalone="no"?>
<!DOCTYPE svg PUBLIC "-//W3C//DTD SVG 1.1//EN" "http://www.w3.org/Graphics/SVG/1.1/DTD/svg11.dtd">
<svg width="100%" height="100%" viewBox="0 0 512 512" version="1.1" xmlns="http://www.w3.org/2000/svg" xmlns:xlink="http://www.w3.org/1999/xlink" xml:space="preserve" xmlns:serif="http://www.serif.com/" style="fill-rule:evenodd;clip-rule:evenodd;stroke-linejoin:round;stroke-miterlimit:2;">
    <rect x="0" y="0" width="512" height="512" style="fill-rule:nonzero;"/>
    <path d="M267.9,330.5L244.1,330.5L232,289.6L168.2,269.8L169.2,309.2L211.1,356.5L227.2,342.2L239.4,484L130.2,361.8L149.6,303.6L139.2,178.4L162.3,168.6C180.7,239.9 235.4,265 235.4,265L256,236.1L276.6,265C276.6,265 331.3,239.9 349.7,168.6L372.8,178.4L362.4,303.6L381.8,361.8L272.6,484L284.8,342.2L300.9,356.5L342.8,309.2L343.8,269.8L280,289.6L267.9,330.5Z" style="fill:white;fill-rule:nonzero;"/>
    <path d="M384.8,277.6L390.8,182.8L426.6,168.1C474.6,31 360.5,58.7 360.5,58.7C432.4,18.7 506,31 486,219.3L384.8,277.6ZM127.2,277.6L25.96,219.3C6,31 79.61,18.7 151.5,58.7C151.5,58.7 37.36,31 85.38,168.1L121.2,182.8L127.2,277.6Z" style="fill:rgb(88,91,158);"/>
    <path d="M393.7,395.3L433.4,432L381.8,468L375.7,444L318.9,472L393.7,395.3ZM118.3,395.3L193.1,472L136.3,444L130.2,468L78.6,432L118.3,395.3Z" style="fill:rgb(88,91,158);"/>
    <path d="M256,125.9L323.5,167.7C323.5,167.7 320.3,202.7 281.1,232.4L256,180.7L230.9,232.4C191.7,202.7 188.5,167.7 188.5,167.7L256,125.9Z" style="fill:rgb(154,144,144);"/>
</svg>
