<?xml version="1.0" encoding="UTF-8" standalone="no"?>
<!DOCTYPE svg PUBLIC "-//W3C//DTD SVG 1.1//EN" "http://www.w3.org/Graphics/SVG/1.1/DTD/svg11.dtd">
<svg width="100%" height="100%" viewBox="0 0 512 512" version="1.1" xmlns="http://www.w3.org/2000/svg" xmlns:xlink="http://www.w3.org/1999/xlink" xml:space="preserve" xmlns:serif="http://www.serif.com/" style="fill-rule:evenodd;clip-rule:evenodd;stroke-linejoin:round;stroke-miterlimit:2;">
    <rect x="0" y="0" width="512" height="512" style="fill-rule:nonzero;"/>
    <path d="M222.99,60.074C142.77,60.074 86.693,116.151 86.693,196.37L205.953,196.37L222.99,213.407L222.99,60.074ZM289.008,60.074L289.008,213.407L306.045,196.37L425.305,196.37C425.305,116.151 369.228,60.074 289.008,60.074Z" style="fill:rgb(147,143,143);fill-rule:nonzero;"/>
    <path d="M69.657,213.407L86.694,213.407L119.704,247.481L69.657,247.481L69.657,213.407ZM425.306,213.407L442.343,213.407L442.343,247.481L392.296,247.481L425.306,213.407ZM78.176,314.564L93.084,322.018L31.324,415.722L31.324,356.092L78.176,314.564ZM433.824,314.564L480.676,356.091L480.676,415.721L418.917,322.018L433.824,314.564Z" style="fill:rgb(39,133,140);"/>
    <path d="M111.185,213.407L145.259,213.407L179.333,247.481L145.259,247.481L111.185,213.407ZM366.741,213.407L400.815,213.407L366.741,247.481L332.667,247.481L366.741,213.407ZM109.056,330.537L164.426,358.222L105.861,477.481L40.907,432.759L109.056,330.537ZM402.944,330.536L471.093,432.758L406.139,477.481L347.574,358.221L402.944,330.536Z" style="fill:rgb(8,155,207);"/>
    <path d="M169.75,213.407L197.435,213.407L222.991,238.963L222.991,247.481L203.824,247.481L169.75,213.407ZM314.565,213.407L342.25,213.407L308.176,247.481L289.009,247.481L289.009,238.963L314.565,213.407ZM180.398,365.675L248.546,398.685L248.546,434.889L222.991,434.889L210.213,486L120.768,486L180.398,365.675ZM331.602,365.676L391.231,486L301.787,486L289.009,434.888L263.454,434.888L263.454,398.685L331.602,365.676Z" style="fill:rgb(44,79,190);"/>
    <path d="M240.028,26L274.102,26L274.102,247.481L257.065,256L240.028,247.481L240.028,26ZM86.694,264.52L103.731,264.52L112.25,281.557L212.699,322.791L207.019,359.288L86.694,298.594L86.694,264.52ZM408.269,264.52L425.306,264.52L425.306,298.594L304.982,359.288L299.302,322.791L399.75,281.557L408.269,264.52ZM240.028,266.65L240.027,266.647L257.064,275.166L274.101,266.647L291.138,366.74L257.064,383.777L222.99,366.74L240.028,266.65Z" style="fill:rgb(216,192,122);"/>
</svg>
