<?xml version="1.0" encoding="UTF-8" standalone="no"?>
<!DOCTYPE svg PUBLIC "-//W3C//DTD SVG 1.1//EN" "http://www.w3.org/Graphics/SVG/1.1/DTD/svg11.dtd">
<svg width="100%" height="100%" viewBox="0 0 512 512" version="1.1" xmlns="http://www.w3.org/2000/svg" xmlns:xlink="http://www.w3.org/1999/xlink" xml:space="preserve" xmlns:serif="http://www.serif.com/" style="fill-rule:evenodd;clip-rule:evenodd;stroke-linejoin:round;stroke-miterlimit:2;">
    <rect x="0" y="0" width="512" height="512" style="fill-rule:nonzero;"/>
    <path d="M148.1,325C182.6,263.6 109.5,161.7 109.5,161.7C109.5,161.7 146.8,199.7 247.9,221.2L255.8,355.7L263.8,221.2C364.9,199.7 402.6,161.7 402.6,161.7C402.6,161.7 329.1,263.6 363.5,325L277.4,387.7L385.7,340.1L448.6,366C440.6,497.8 267.8,417.8 267.8,486.8L243.8,486.8C243.8,417.8 71.43,497.8 63.03,366L125.9,340.1L234.3,387.7L148.1,325ZM248.3,25.84L246.6,111.7L235.2,46.44C161.2,53.83 125.3,102.4 115.6,118.1L108,117.6C104.5,117.4 101.2,119.4 99.93,122.6C98.53,125.8 99.23,129.6 101.7,132C101.7,132 152.5,180.9 254.2,199.1C254.7,199.2 255.3,199.2 255.8,199.2C256.4,199.2 256.9,199.2 257.4,199.1C359.1,180.9 409.6,132 409.6,132C412.6,129.6 413.6,125.8 411.6,122.6C410.6,119.4 407.6,117.4 403.6,117.6L396.1,118.1C386.4,102.4 350.4,53.83 276.5,46.44L265.1,111.7L263.4,25.84C261.1,23.63 258.7,22.69 256,22.69C253.2,22.69 249.8,24.05 248.3,25.84ZM343.2,114.7L338.9,142.7C356.1,136.8 370.3,127.1 378,121C380.2,124.1 381.8,126.8 384.3,131C363.9,145.5 321,170.5 255.8,182.4C190.7,170.5 147.8,145.5 127.3,131C129.2,127.7 131.2,124.1 133.6,121C141.4,127.1 155.5,136.8 172.7,142.7L168.5,114.7L255.8,135.2L343.2,114.7Z" style="fill:rgb(137,137,137);fill-rule:nonzero;"/>
</svg>
