<?xml version="1.0" encoding="UTF-8" standalone="no"?>
<!DOCTYPE svg PUBLIC "-//W3C//DTD SVG 1.1//EN" "http://www.w3.org/Graphics/SVG/1.1/DTD/svg11.dtd">
<svg width="100%" height="100%" viewBox="0 0 512 512" version="1.1" xmlns="http://www.w3.org/2000/svg" xmlns:xlink="http://www.w3.org/1999/xlink" xml:space="preserve" xmlns:serif="http://www.serif.com/" style="fill-rule:evenodd;clip-rule:evenodd;stroke-linejoin:round;stroke-miterlimit:2;">
    <rect x="0" y="0" width="512" height="512" style="fill-rule:nonzero;"/>
    <path d="M233.08,229.68C233.021,229.76 233,229.775 233,229.68C233,229.584 233.021,229.6 233.08,229.68ZM278.92,229.68C278.979,229.6 279,229.584 279,229.68C279,229.775 278.979,229.76 278.92,229.68ZM233.08,320C233.021,320.08 233,320.096 233,320C233,319.904 233.021,319.92 233.08,320ZM278.92,320C278.979,319.92 279,319.904 279,320C279,320.096 278.979,320.08 278.92,320ZM233.08,407.838C233.021,407.918 233,407.933 233,407.838C233,407.742 233.021,407.758 233.08,407.838ZM278.92,407.838C278.979,407.758 279,407.742 279,407.838C279,407.933 278.979,407.918 278.92,407.838ZM256,179C247.298,179 238.939,181.757 233,186.316L233,208.696C239.7,206.048 247.535,204.68 256,204.68C264.465,204.68 272.3,206.048 279,208.695L279,186.316C273.061,181.757 264.702,179 256,179ZM233,250.664L233,299.016C239.7,296.368 247.535,295 256,295C264.465,295 272.3,296.368 279,299.016L279,250.664C272.3,253.312 264.465,254.68 256,254.68C247.535,254.68 239.7,253.312 233,250.664ZM233,340.984L233,386.854C239.7,384.205 247.535,382.838 256,382.838C264.465,382.838 272.3,384.205 279,386.854L279,340.984C272.3,343.632 264.465,345 256,345C247.535,345 239.7,343.632 233,340.984ZM73,409L73,439L91.455,439C88.675,434.578 87,429.48 87,424C87,418.52 88.676,413.422 91.455,409L73,409ZM164.545,409C167.325,413.422 169,418.52 169,424C169,429.48 167.324,434.578 164.545,439L215,439L215,409L164.545,409ZM297,409L297,439L347.455,439C344.675,434.578 343,429.48 343,424C343,418.52 344.676,413.422 347.455,409L297,409ZM420.545,409C423.325,413.422 425,418.52 425,424C425,429.48 423.324,434.578 420.545,439L439,439L439,409L420.545,409ZM233,428.822L233,445.275L256,479.775L279,445.275L279,428.822C272.3,431.47 264.465,432.838 256,432.838C247.535,432.838 239.7,431.47 233,428.822Z" style="fill:rgb(142,132,82);fill-rule:nonzero;"/>
    <path d="M52.441,53.88C50.91,86.91 60.124,117.4 77.414,144.52C90.52,165.076 108.081,183.803 128.781,200.967C101.222,222.66 77.843,252.37 60.105,279.484C41.292,242.524 25.503,205.919 19.213,171.717C11.131,127.77 17.338,88.576 52.441,53.88ZM459.559,53.881C494.662,88.576 500.869,127.77 492.787,171.717C486.498,205.919 470.708,242.524 451.895,279.484C434.157,252.37 410.778,222.66 383.219,200.967C403.919,183.803 421.48,165.076 434.586,144.52C451.876,117.4 461.09,86.911 459.559,53.881ZM215,209.053L215,391L73.482,391C76.784,355.501 98.718,309.326 130.834,271.857C154.957,243.713 184.515,220.63 215,209.053ZM297,209.053C327.485,220.63 357.043,243.714 381.166,271.857C413.282,309.326 435.217,355.501 438.518,391L297,391L297,209.053Z" style="fill:rgb(168,168,168);"/>
    <path d="M233.08,229.68C233.295,229.389 234.136,228.047 237.398,226.416C241.551,224.34 248.38,222.68 256,222.68C263.621,222.68 270.449,224.339 274.602,226.416C277.864,228.047 278.705,229.389 278.92,229.68C278.705,229.971 277.864,231.313 274.602,232.943C270.449,235.02 263.62,236.68 256,236.68C248.379,236.68 241.551,235.02 237.398,232.943C234.136,231.312 233.295,229.97 233.08,229.68ZM233.08,320C233.295,319.709 234.136,318.368 237.398,316.736C241.551,314.66 248.38,313 256,313C263.62,313 270.449,314.66 274.602,316.736C277.864,318.368 278.705,319.709 278.92,320C278.705,320.291 277.864,321.632 274.602,323.264C270.449,325.34 263.62,327 256,327C248.38,327 241.551,325.34 237.398,323.264C234.136,321.632 233.295,320.291 233.08,320ZM233.08,407.838C233.295,407.547 234.136,406.205 237.398,404.574C241.551,402.498 248.38,400.838 256,400.838C263.621,400.838 270.449,402.498 274.602,404.574C277.864,406.205 278.705,407.547 278.92,407.838C278.705,408.129 277.864,409.47 274.602,411.102C270.449,413.178 263.62,414.838 256,414.838C248.379,414.838 241.551,413.178 237.398,411.102C234.136,409.47 233.295,408.128 233.08,407.838ZM143.498,212.543C147.844,215.777 152.254,218.926 156.723,221.988C142.455,233.178 129.149,246.163 117.166,260.143C102.301,277.485 89.375,296.385 79.213,315.611C76.035,309.772 72.886,303.918 69.766,298.049C88.309,268.755 114.401,234.718 143.498,212.543ZM368.502,212.543C397.599,234.719 423.691,268.755 442.234,298.049C439.126,303.906 435.966,309.761 432.787,315.611C422.624,296.385 409.699,277.485 394.834,260.143C382.851,246.163 369.545,233.178 355.277,221.988C359.746,218.926 364.156,215.777 368.502,212.543ZM128,409C135.013,409 141.194,411.204 145.227,414.229C149.26,417.253 151,420.615 151,424C151,427.385 149.26,430.747 145.227,433.771C141.194,436.796 135.013,439 128,439C120.987,439 114.806,436.796 110.773,433.771C106.74,430.747 105,427.385 105,424C105,420.615 106.74,417.253 110.773,414.229C114.806,411.204 120.987,409 128,409ZM384,409C391.013,409 397.194,411.204 401.227,414.229C405.26,417.253 407,420.615 407,424C407,427.385 405.26,430.747 401.227,433.771C397.194,436.796 391.013,439 384,439C376.987,439 370.806,436.796 366.773,433.771C362.74,430.747 361,427.385 361,424C361,420.615 362.74,417.253 366.773,414.229C370.806,411.204 376.987,409 384,409Z" style="fill:rgb(217,205,112);"/>
</svg>
