<?xml version="1.0" encoding="UTF-8" standalone="no"?>
<!DOCTYPE svg PUBLIC "-//W3C//DTD SVG 1.1//EN" "http://www.w3.org/Graphics/SVG/1.1/DTD/svg11.dtd">
<svg width="100%" height="100%" viewBox="0 0 512 512" version="1.1" xmlns="http://www.w3.org/2000/svg" xmlns:xlink="http://www.w3.org/1999/xlink" xml:space="preserve" xmlns:serif="http://www.serif.com/" style="fill-rule:evenodd;clip-rule:evenodd;stroke-linejoin:round;stroke-miterlimit:2;">
    <rect x="0" y="0" width="512" height="512" style="fill-rule:nonzero;"/>
    <path d="M255.998,26.463C236.61,26.463 191.898,71.865 167.654,102.191C160.637,110.97 151.859,132.014 151.859,132.014L161.053,169.303C161.053,169.303 159.899,177.755 158.449,199.793C157.358,216.384 157.395,232.596 157.395,232.596L210.072,215.703C214.075,193.158 221.578,163.616 230.318,138.493C237.325,118.352 255.998,79.918 255.998,79.918C255.998,79.918 275.198,116.573 282.07,136.025C291.185,161.826 297.877,193.507 301.926,215.703L354.604,232.596C354.604,232.596 354.64,216.384 353.549,199.793C352.099,177.755 350.945,169.303 350.945,169.303L360.139,132.013C360.139,132.013 354.049,112.642 348.104,104.664C324.008,72.33 275.386,26.463 255.998,26.463Z" style="fill:rgb(174,30,30);fill-rule:nonzero;"/>
    <path d="M107.3,26C110.398,26 119.864,76.366 125.661,101.42C132.653,131.652 143.511,174.242 143.511,174.242C143.511,174.242 133.774,232.184 148.191,269.385C155.344,287.841 144.687,300.52 172.854,320.462C195.299,336.355 215.297,336.262 215.297,336.262C215.297,336.262 208.163,380.855 206.943,406.02C205.736,430.936 207.979,485.98 207.979,485.98C207.979,485.98 169.047,487.901 140.803,452.006C112.559,416.11 125.086,392.637 125.086,392.637C125.086,392.637 130.956,376.529 144.198,376.721C146.423,385.749 145.463,394.965 133.178,409.256C149.92,406.873 158.339,386.629 154.449,370.934C151.546,359.52 146.088,347.896 143.523,342.766C134.649,322.478 118.656,297.214 104.826,270.26L134.891,274.572L94.072,247.629C90.2,238.657 86.818,229.605 84.26,220.58L125.15,233.865L79.635,197.268C78.407,186.427 78.122,175.451 78.557,164.371L123.395,201.195L80.219,142.949C81.807,128.798 84.289,114.52 87.221,100.178L126.273,169.904L94.086,68.934C98.7,48.976 103.154,26 107.3,26ZM404.7,26C408.846,26 413.3,48.978 417.914,68.936L385.727,169.904L424.779,100.178C427.711,114.52 430.193,128.799 431.781,142.949L388.605,201.195L433.443,164.371C433.878,175.451 433.593,186.428 432.365,197.268L386.85,233.865L427.74,220.58C425.182,229.605 421.8,238.657 417.928,247.629L377.109,274.572L407.176,270.26C393.345,297.214 377.351,322.478 368.477,342.766C365.912,347.897 360.454,359.52 357.551,370.934C353.661,386.629 362.08,406.875 378.823,409.258C366.537,394.967 365.577,385.749 367.803,376.721C381.044,376.529 386.914,392.636 386.914,392.636C386.914,392.636 399.441,416.11 371.197,452.006C342.953,487.902 304.021,485.982 304.021,485.982C304.021,485.982 306.264,430.936 305.057,406.02C303.837,380.855 296.703,336.263 296.703,336.263C296.703,336.263 316.701,336.355 339.146,320.463C367.313,300.52 356.656,287.841 363.808,269.385C378.226,232.184 368.488,174.242 368.488,174.242C368.488,174.242 379.347,131.652 386.34,101.42C392.135,76.366 401.601,26 404.7,26Z" style="fill:rgb(224,204,135);"/>
    <path d="M256,103.553C256,103.553 267.12,132.121 271.369,155.075C275.719,178.569 283.266,220.885 283.266,220.885C283.266,220.885 271.283,232.813 277.584,239.141C283.885,245.469 294.627,233.436 294.627,233.436L351.062,250.564L347.725,263.781L294.627,283.635C294.627,283.635 283.972,271.517 277.584,277.931C271.196,284.346 283.266,301.891 283.266,301.891C283.266,301.891 278.757,319.648 276.391,328.498C273.144,340.641 266.344,364.844 266.344,364.844L255.998,367.711L245.654,364.844C245.654,364.844 238.177,338.958 234.727,325.936C232.611,317.951 228.732,301.891 228.732,301.891C228.732,301.891 240.802,284.346 234.414,277.932C228.027,271.517 217.371,283.635 217.371,283.635L164.273,263.781L160.936,250.564L217.371,233.436C217.371,233.436 228.113,245.469 234.414,239.141C240.715,232.813 228.732,220.885 228.732,220.885C228.732,220.885 236.331,175.068 240.63,154.25C245.281,131.733 256,103.553 256,103.553ZM256,239.922C250.98,239.922 246.91,248.094 246.91,258.176C246.91,268.257 250.98,276.432 256,276.432C261.02,276.432 265.088,268.257 265.088,258.176C265.088,248.094 261.02,239.922 256,239.922Z" style="fill:rgb(141,141,141);"/>
</svg>
