<?xml version="1.0" encoding="UTF-8" standalone="no"?>
<!DOCTYPE svg PUBLIC "-//W3C//DTD SVG 1.1//EN" "http://www.w3.org/Graphics/SVG/1.1/DTD/svg11.dtd">
<svg width="100%" height="100%" viewBox="0 0 512 512" version="1.1" xmlns="http://www.w3.org/2000/svg" xmlns:xlink="http://www.w3.org/1999/xlink" xml:space="preserve" xmlns:serif="http://www.serif.com/" style="fill-rule:evenodd;clip-rule:evenodd;stroke-linejoin:round;stroke-miterlimit:2;">
    <rect x="0" y="0" width="512" height="512" style="fill-rule:nonzero;"/>
    <g>
        <path d="M413.47,20.25L402,24.25L84.97,134.72L78.437,137L78.843,143.875L97.78,478.47L98.47,490.594L109.938,486.594L426.968,376.124L433.468,373.844L433.094,366.938L414.156,32.375L413.469,20.25L413.47,20.25ZM381.937,50.625L338.562,115.375L157.812,178.75L121.032,154.22C195.252,166.735 317.852,101.73 378.156,51.938L381.936,50.625L381.937,50.625ZM397.969,70.313L413.749,349.438L364.436,316.563L360.249,240.093C378.816,194.671 392.699,125.751 397.969,70.313ZM334.529,138.063L344.219,314.25L177.343,372.75L174.563,322.28C222.645,331.32 257.676,313.656 278.905,284.03C251.091,280.61 232.521,253.046 235.811,223.75C238.985,195.493 260.793,172.497 287.531,171.437C289.313,171.367 291.146,171.402 292.968,171.531C295.426,171.707 297.805,172.091 300.123,172.626C298.768,165.641 296.929,158.766 294.623,152.063L334.529,138.063ZM117.78,174.5L147.437,194.28L157.907,385.094L114.5,449.906L114.312,446.25C138.458,344.93 151.052,228.725 117.782,174.5L117.78,174.5ZM289.875,197.125C276.807,197.002 263.329,209.193 261.375,226.595C259.358,244.555 269.705,257.671 283.155,258.625C296.607,259.579 310.92,247.181 312.938,229.219C314.955,211.256 304.575,198.139 291.125,197.187C290.705,197.157 290.297,197.127 289.875,197.124L289.875,197.125ZM354.031,332.095L403.314,364.969L148.376,453.779C196.681,427.224 251.523,389.607 283.97,356.655L354.03,332.093L354.031,332.095Z" style="fill:rgb(255,0,56);fill-rule:nonzero;"/>
    </g>
</svg>
