<?xml version="1.0" encoding="UTF-8" standalone="no"?>
<!DOCTYPE svg PUBLIC "-//W3C//DTD SVG 1.1//EN" "http://www.w3.org/Graphics/SVG/1.1/DTD/svg11.dtd">
<svg width="100%" height="100%" viewBox="0 0 512 512" version="1.1" xmlns="http://www.w3.org/2000/svg" xmlns:xlink="http://www.w3.org/1999/xlink" xml:space="preserve" xmlns:serif="http://www.serif.com/" style="fill-rule:evenodd;clip-rule:evenodd;stroke-linejoin:round;stroke-miterlimit:2;">
    <rect x="0" y="0" width="512" height="512" style="fill-rule:nonzero;"/>
    <path d="M356.686,256.09L267.772,279.914L265.856,282.309L176.59,393.903L373.955,496.866L492.617,309.206L356.687,256.089L356.686,256.09ZM343.086,279.078L374.386,334.395L288.296,357.068L290.801,293.09L343.085,279.078L343.086,279.078ZM364.668,279.271L452.848,313.731L393.07,329.474L364.668,279.272L364.668,279.271ZM271.633,305.005L269.401,362.045L214.423,376.525L271.633,305.005ZM455.946,332.239L382.401,448.549L396.341,347.939L455.946,332.239ZM376.761,353.095L362.762,454.11L295.42,374.516L376.758,353.094L376.761,353.095ZM275.402,379.79L342.934,459.607L218.609,394.747L275.401,379.789L275.402,379.79Z" style="fill:rgb(210,210,210);fill-rule:nonzero;"/>
    <path d="M446.838,133.144L452.512,215.542L376.055,244.407L374.078,215.697L392.094,205.297L392.972,218.045L432.912,202.968L429.92,159.505L409.755,167.119L400.695,150.562L446.838,133.144ZM21.187,224.744L188.21,274.23L196.976,338.344L180.894,358.674L173.951,307.904L139.553,362.432L79.99,388.53L186.329,420.033L209.851,432.496L211.845,447.086L44.819,397.602L23.147,239.08L21.187,224.744ZM43.623,250.884L60.805,376.534L126.805,347.614L165.119,286.881L43.623,250.884Z" style="fill:rgb(200,50,50);"/>
    <path d="M303.2,19.339L382.85,157.301L383.038,157.231L387.165,164.771L392.039,173.211L396.713,181.304L234.746,274.814L141.234,112.848L303.2,19.339ZM176.29,136.19L237.035,241.403L276.555,176.153C241.605,168.309 208.185,154.806 176.29,136.19ZM282.58,52.824L176.145,114.274C194.423,125.684 213.126,135.277 232.31,142.964L282.58,52.824ZM302.493,55.488L250.071,149.48C286.736,161.726 325.161,167.116 365.729,165.016L302.493,55.488ZM296.121,179.921L260.849,238.163L354.524,184.079C334.617,184.399 315.15,182.991 296.121,179.921Z" style="fill:rgb(255,222,0);"/>
    <path d="M50.884,81.168L50.887,81.169L119.465,128.355L125.188,132.291L97.334,219.113L23.032,167.99L50.884,81.168ZM61.002,110.814L49.064,148.024L93.297,133.034L61.002,110.814ZM99.684,150.603L53.487,166.259L87.217,189.466L99.684,150.603Z" style="fill:rgb(111,0,255);"/>
</svg>
