<?xml version="1.0" encoding="UTF-8" standalone="no"?>
<!DOCTYPE svg PUBLIC "-//W3C//DTD SVG 1.1//EN" "http://www.w3.org/Graphics/SVG/1.1/DTD/svg11.dtd">
<svg width="100%" height="100%" viewBox="0 0 512 512" version="1.1" xmlns="http://www.w3.org/2000/svg" xmlns:xlink="http://www.w3.org/1999/xlink" xml:space="preserve" xmlns:serif="http://www.serif.com/" style="fill-rule:evenodd;clip-rule:evenodd;stroke-linejoin:round;stroke-miterlimit:2;">
    <rect x="0" y="0" width="512" height="512" style="fill-rule:nonzero;"/>
    <g>
        <path d="M430.516,311.484C430.516,407.221 351.737,486 256,486C160.263,486 81.484,407.221 81.484,311.484C81.484,158.019 256,26 256,26C256,26 430.516,158.02 430.516,311.484ZM378.252,311.484C378.252,276.158 365.72,237.651 340.982,197.032C317.997,159.278 289.01,127.234 268.746,107.003L256,94.303L243.3,107.037C223.068,127.268 194.239,159.301 171.22,197.021C146.336,237.809 133.725,276.315 133.725,311.484C133.916,378.424 189.049,433.398 255.989,433.398C322.928,433.398 378.061,378.424 378.252,311.484ZM360.269,311.484C360.269,368.688 313.198,415.759 255.994,415.759C198.79,415.759 151.719,368.688 151.719,311.484C151.719,240.674 209.929,165.966 256.045,119.738C302.633,166.236 360.269,240.383 360.269,311.484ZM256.067,144.015C222.81,179.645 168.579,247.576 168.579,311.484C168.634,359.419 208.065,398.845 256,398.894C98.276,306.381 254.1,164.584 256.079,143.993L256.067,144.015Z" style="fill:rgb(255,199,0);fill-rule:nonzero;"/>
    </g>
</svg>
