<?xml version="1.0" encoding="UTF-8" standalone="no"?>
<!DOCTYPE svg PUBLIC "-//W3C//DTD SVG 1.1//EN" "http://www.w3.org/Graphics/SVG/1.1/DTD/svg11.dtd">
<svg width="100%" height="100%" viewBox="0 0 512 512" version="1.1" xmlns="http://www.w3.org/2000/svg" xmlns:xlink="http://www.w3.org/1999/xlink" xml:space="preserve" xmlns:serif="http://www.serif.com/" style="fill-rule:evenodd;clip-rule:evenodd;stroke-linejoin:round;stroke-miterlimit:2;">
    <rect x="0" y="0" width="512" height="512" style="fill-rule:nonzero;"/>
    <g>
        <path d="M85.16,16.84C55.86,17.22 31.76,42.25 42.46,87.06L82.76,98.52C86.68,81.82 102.8,71.4 118.1,68.58L120,28.12C108.8,20.36 96.56,16.69 85.16,16.84ZM172.8,18.63C162.6,18.53 151,22.25 138.6,30.89L136.8,68.91C151.5,72.2 164.3,82.49 170.2,97.02L202.6,85.17C217.4,49.41 201.3,18.92 172.8,18.63ZM403.1,19.69C393.4,19.59 383.6,24.64 386.8,35.29C392.8,55.43 410.5,52.02 417.8,34.95C422,25.03 412.7,19.79 403,19.7L403.1,19.69ZM290.8,25.34C278.4,25.2 266.6,37.24 277.9,60.89C243.7,60.18 256.6,107.7 282.3,94.4C268.9,135.8 323,142.3 315.8,99.32C348.1,119.6 362.7,87.17 330.5,71.99C372.7,62.82 337.9,12.95 310.7,48.07C310.6,32.94 300.5,25.46 290.8,25.35L290.8,25.34ZM301.1,64.55C307.4,64.55 312.5,69.63 312.5,75.89C312.5,82.16 307.4,87.23 301.1,87.23C294.8,87.23 289.8,82.16 289.8,75.89C289.8,69.63 294.8,64.55 301.1,64.55ZM439.2,65.86C421.8,65.75 410.9,88.35 445.3,101.7C427,126.5 478,149.1 469.7,107.1C512.4,105.8 486.9,50.36 461.7,80.54C455,69.99 446.5,65.9 439.2,65.86ZM119.4,87.38C104.1,91.46 95.36,106.9 99.36,122C103.4,137.3 118.8,146.2 134,142.1C149.2,138.1 158.1,122.6 154,107.4C150.6,94.5 139,86.15 126.3,86.39C124,86.49 121.4,86.85 119.4,87.38ZM210.7,102.1L173.7,115.6C173.4,127.3 168.9,138.2 161.3,146.6L189.6,175.4C233.3,178.9 252,126.1 210.7,102.1ZM32.06,103.5C-4.139,132.8 37.96,208.4 76.26,195.5L99.76,153.3C85.88,142.8 80.39,131.8 79.86,117.1L32.06,103.5ZM399.3,124.3C384.3,124.5 367.5,134.1 352.8,156.3L364.2,205.6C365.7,205.5 367.2,205.6 368.7,205.7C381.2,206.6 393.2,212 402.1,221.3L441.5,193.6C446.9,153.7 426.7,124.9 400.7,124.3L399.3,124.3ZM478.4,152.4C457.4,153 456.1,171 470.7,182.5C487.7,195.7 500.6,151.8 478.4,152.4ZM313.1,155.9C273,156.3 238.8,188.2 269.7,244.3L315.8,244.4C319.1,225.7 331,215.7 345.9,209.3L334.1,158.6C327.2,156.7 320,155.8 313.1,155.9ZM146.1,157.7C137,161.8 125.6,162.6 116.9,160.8L94.76,200.7C130.1,243.1 161.7,219.4 172.6,184.7L146.1,157.7ZM444.1,214.7L412.3,237C417.1,248.9 417.2,261.8 413.1,273.3L449.1,294.6C500.7,287.2 504.6,223.1 444.1,214.7ZM365.2,224.2C359.7,224.2 354.2,225.6 349.1,228.5C333.6,237.5 328.4,257 337.3,272.5C346.3,288 365.8,293.3 381.3,284.3C396.8,275.4 402.1,255.8 393.1,240.3C387.5,230.6 377.8,224.9 367.5,224.2L365.2,224.2ZM79.66,235.6C44.96,236.1 21.86,267.5 46.36,317.2L99.56,333.9C107.2,319.9 120.8,309.7 137,306.6L134,257.8C115.9,242.3 96.46,235.3 79.66,235.6ZM193.6,238.4C180.5,238.6 165.9,245.3 152.9,260.8L155.7,306.2C169,308.3 180.8,315.3 189.1,325.3L228.3,303.1C243.4,267.4 221.8,237.9 193.6,238.4ZM266.6,262.9C235.8,319.3 291.5,359.2 334.8,343.6L346.1,303.5C336,299.4 327,292 321.2,281.9C317.7,275.9 315.7,269.6 314.8,263.1L266.6,262.9ZM403.8,289.5C400.2,293.8 395.8,297.5 390.7,300.5C382.4,305.2 373.4,307.4 364.5,307.3L352.5,349.9C386.1,387.9 443.1,351.1 439,310.3L403.8,289.5ZM233,322L198.4,341.5C204.1,357.3 201.3,375.9 193.3,388.9L223.5,420.6C291.1,392.5 272,345.7 233,322ZM147.3,324.2C127.4,324.2 111.5,340.2 111.5,360C111.5,379.9 127.4,395.8 147.3,395.8C167.1,395.8 183,379.9 183,360C183,340.2 167.1,324.2 147.3,324.2ZM40.46,334.9C3.761,373.2 17.46,450.1 84.46,444.4L110.3,399.9C95.69,386.6 90.51,369.1 93.56,351.6L40.46,334.9ZM466.4,356.9C450.9,357 424.9,380 452.6,385.9C449.3,423.9 501.7,391.4 475.6,371.9C477.6,360.8 472.9,356.8 466.4,356.9ZM347.2,381.3C339.2,381.3 330.9,388.4 327.8,406.7C303.9,376 269.6,411.3 307.3,433.5C259.7,457.9 309.9,490.5 329.2,461C333.5,510.5 390,479.2 358.3,450.2C398.5,456.8 398.4,418 359.3,419.2C372.9,400.5 360.5,381.2 347.2,381.3ZM180.8,402.8C162.7,414.6 144.8,418 126,410.1L97.06,459.9C118.7,511.3 218.5,487 217.4,439.3L216.5,440.2L180.8,402.8ZM337.2,423.6C343.5,423.6 348.5,428.7 348.5,434.9C348.5,441.2 343.5,446.3 337.2,446.3C330.9,446.3 325.9,441.2 325.9,434.9C325.9,428.7 330.9,423.6 337.2,423.6ZM445.3,430.6C433.1,430.2 429.1,450.7 451.7,463.5C430.2,492.3 481.1,514.2 475.5,470.3C512.2,477.3 485.1,434.2 467,449.6C459.2,436.1 451.3,430.8 445.3,430.6Z" style="fill:url(#_Linear1);fill-rule:nonzero;"/>
    </g>
    <defs>
        <linearGradient id="_Linear1" x1="0" y1="0" x2="1" y2="0" gradientUnits="userSpaceOnUse" gradientTransform="matrix(475.481,0,0,478.338,18.2465,256.005)"><stop offset="0" style="stop-color:rgb(248,134,241);stop-opacity:1"/><stop offset="0.08" style="stop-color:rgb(226,171,145);stop-opacity:1"/><stop offset="0.6" style="stop-color:rgb(44,221,119);stop-opacity:1"/><stop offset="1" style="stop-color:rgb(159,65,226);stop-opacity:1"/></linearGradient>
    </defs>
</svg>
