<?xml version="1.0" encoding="UTF-8" standalone="no"?>
<!DOCTYPE svg PUBLIC "-//W3C//DTD SVG 1.1//EN" "http://www.w3.org/Graphics/SVG/1.1/DTD/svg11.dtd">
<svg width="100%" height="100%" viewBox="0 0 512 512" version="1.1" xmlns="http://www.w3.org/2000/svg" xmlns:xlink="http://www.w3.org/1999/xlink" xml:space="preserve" xmlns:serif="http://www.serif.com/" style="fill-rule:evenodd;clip-rule:evenodd;stroke-linejoin:round;stroke-miterlimit:2;">
    <rect x="0" y="0" width="512" height="512" style="fill-rule:nonzero;"/>
    <g>
        <path d="M435.469,192.188C426.043,264.268 434.535,342.215 494.125,435.03L494.125,469.375L380.25,321.72L435.469,192.188Z" style="fill:white;"/>
        <path d="M425.156,168.779L425.157,168.781L360.907,319.406L358.751,324.47L362.096,328.78L487.904,491.905L398.374,491.905C399.319,401.414 295.193,367.863 208.969,415.779C272.83,312.621 340.396,237.729 425.156,168.779Z" style="fill:rgb(251,194,221);"/>
        <path d="M414.03,153.719C326.538,224.833 256.44,302.84 190.69,409.844C205.794,352.075 153.906,306.36 94.44,312C172.427,233.127 303.25,177.413 414.03,153.719Z" style="fill:rgb(255,179,215);"/>
        <path d="M274.75,125.625C320.641,125.391 366.048,129.244 409.188,135.624C296.283,159.694 164.36,214.948 82.5,297.344C96.666,252.204 91.247,192.274 51.72,167.188C121.965,137.535 199.014,126.013 274.75,125.625Z" style="fill:rgb(248,123,182);"/>
        <path d="M23.25,19.874C154.954,21.397 295.842,26.31 420.812,118.468C378.054,111.74 332.854,107.332 286.874,106.842C283.948,106.812 281.027,106.812 278.094,106.812C197.49,106.837 114.86,119.159 39.25,152.219C62.23,109.987 61.47,63.88 23.25,19.874Z" style="fill:rgb(255,97,172);"/>
    </g>
</svg>
