<?xml version="1.0" encoding="UTF-8" standalone="no"?>
<!DOCTYPE svg PUBLIC "-//W3C//DTD SVG 1.1//EN" "http://www.w3.org/Graphics/SVG/1.1/DTD/svg11.dtd">
<svg width="100%" height="100%" viewBox="0 0 512 512" version="1.1" xmlns="http://www.w3.org/2000/svg" xmlns:xlink="http://www.w3.org/1999/xlink" xml:space="preserve" xmlns:serif="http://www.serif.com/" style="fill-rule:evenodd;clip-rule:evenodd;stroke-linejoin:round;stroke-miterlimit:2;">
    <rect x="0" y="0" width="512" height="512" style="fill-rule:nonzero;"/>
    <g>
        <path d="M58.31,24.814L44.187,90.339L27.05,50.894C23.587,64.43 23.42,79.646 24.722,93.289C32.149,168.099 95.552,255.845 179.552,329.462C194.929,313.52 209.94,297.225 224.335,280.73C231.155,272.915 237.835,265.052 244.353,257.162C185.303,183.934 140.298,108.748 128.773,42.638C124.746,31.53 113.127,27.73 103.177,25.278L114.707,45.146L83.402,22.701C74.961,22.512 65.784,23.305 58.31,24.814ZM428.393,22.707C425.473,36.549 422.655,50.392 413.347,64.234C413.183,50.313 411.255,37.274 405.491,26.152C397.029,28.795 384.965,33.646 383.2,42.638C369.807,119.462 311.222,208.544 237.899,292.564C172.826,367.13 95.984,437.277 27.608,489.355C108.518,477.329 212.222,425.435 300.164,356.269C327.999,334.377 354.227,310.754 377.764,286.244C371.037,287.368 364.147,287.875 357.473,288.014L415.92,242.689C455.902,192.252 482.591,140.223 487.25,93.289C488.165,84.08 488.618,70.56 486.608,58.484C484.598,46.407 480.122,36.553 473.356,32.113C464.679,26.42 449.322,22.943 433.778,22.663C431.983,22.628 430.187,22.643 428.393,22.707ZM331.34,354.146C324.739,359.67 318.055,365.094 311.291,370.417C298.524,380.458 285.479,390.14 272.171,399.451C295.095,414.335 318.458,427.86 341.682,439.701C360.998,442.004 380.309,444.351 399.614,446.741C394.078,452.053 387.699,455.623 380.672,458.033C417.198,473.722 452.545,484.625 484.366,489.355C435.226,451.928 381.714,405.17 331.34,354.146Z" style="fill:rgb(229,222,129);fill-rule:nonzero;"/>
    </g>
</svg>
