<?xml version="1.0" encoding="UTF-8" standalone="no"?>
<!DOCTYPE svg PUBLIC "-//W3C//DTD SVG 1.1//EN" "http://www.w3.org/Graphics/SVG/1.1/DTD/svg11.dtd">
<svg width="100%" height="100%" viewBox="0 0 512 512" version="1.1" xmlns="http://www.w3.org/2000/svg" xmlns:xlink="http://www.w3.org/1999/xlink" xml:space="preserve" xmlns:serif="http://www.serif.com/" style="fill-rule:evenodd;clip-rule:evenodd;stroke-linejoin:round;stroke-miterlimit:2;">
    <rect x="0" y="0" width="512" height="512" style="fill-rule:nonzero;"/>
    <path d="M153.9,51.5C119.3,51.5 88.03,55.95 66.11,62.8C55.15,66.23 46.56,70.31 41.35,74.17C36.13,78.02 34.94,80.87 34.94,82.5C34.94,84.13 36.13,86.98 41.35,90.83C46.56,94.69 55.15,98.77 66.11,102.2C88.03,109 119.3,113.5 153.9,113.5C188.5,113.5 219.8,109 241.7,102.2C252.7,98.77 261.3,94.69 266.5,90.83C271.7,86.98 272.9,84.13 272.9,82.5C272.9,80.87 271.7,78.02 266.5,74.17C261.3,70.31 252.7,66.23 241.7,62.8C219.8,55.95 188.5,51.5 153.9,51.5ZM153.9,74.5C180.232,74.5 201.9,78.111 201.9,82.5C201.9,86.889 180.232,90.5 153.9,90.5C127.568,90.5 105.9,86.889 105.9,82.5C105.9,78.111 127.568,74.5 153.9,74.5ZM49.17,365.5C46.07,367.1 43.43,368.6 41.35,370.2C36.13,374 34.94,376.9 34.94,378.5C34.94,380.1 36.13,383 41.35,386.8C46.56,390.7 55.15,394.8 66.11,398.2C88.03,405 119.3,409.5 153.9,409.5C188.5,409.5 219.8,405 241.7,398.2C252.7,394.8 261.3,390.7 266.5,386.8C271.7,383 272.9,380.1 272.9,378.5C272.9,376.9 271.7,374 266.5,370.2C264.4,368.6 261.8,367 258.6,365.5C257.4,372.4 251.9,377.5 246.1,380.8C239.5,384.6 231.4,387.2 221.8,389.3C202.8,393.5 178.4,395.5 153.9,395.5C129.4,395.5 105,393.5 85.95,389.3C76.44,387.2 68.27,384.6 61.69,380.8C55.9,377.6 50.42,372.4 49.17,365.5Z" style="fill:rgb(212,190,142);fill-rule:nonzero;"/>
    <path d="M388,70.48C405.4,70.79 421.7,75.98 431.5,89.89C441.4,103.8 439.4,120.2 431.7,133C423.9,145.8 411.6,157.1 398.8,168.6C386,180.2 372.7,191.7 363.2,203.2C353.7,214.6 348.4,225.4 349.1,235.7L349.1,235.8C350,250.4 366.5,273.8 383.9,291.8C401.3,309.7 418.5,323 418.5,323L407.5,337.2C407.5,337.2 389.4,323.3 371,304.3C352.5,285.2 332.6,261.7 331.1,236.9C330.1,219.9 338.4,204.9 349.3,191.7C360.2,178.5 374.1,166.6 386.7,155.3C399.4,143.9 410.6,133 416.2,123.7C421.9,114.4 422.9,108.8 416.9,100.3C410.4,91.11 398.5,87.63 381.5,88.61C364.5,89.58 343.6,95.4 323.7,102.9C297,113 272.4,125.7 258.9,133.1L258.9,115.2C266,112.3 272.1,109 277.2,105.3C278.9,104 280.6,102.6 282.1,101.1C292.9,96.05 304.9,90.79 317.4,86.07C338.2,78.2 360.3,71.79 380.5,70.64C383,70.48 385.5,70.48 388,70.48ZM66.9,121.2C90.52,127.7 120.7,131.5 153.9,131.5C187,131.5 217.3,127.7 240.9,121.2L240.9,138.7C182.9,144.8 125.2,145.8 66.9,131.8L66.9,121.2ZM66.9,150.3C125.9,163.7 183.8,162.7 240.9,156.7L240.9,160.8C186.6,171.3 129.8,177.6 66.9,174.7L66.9,150.3ZM240.9,179L240.9,195.6C190.1,209 130.9,213 66.9,211.5L66.9,192.8C129.8,195.5 186.9,189.3 240.9,179ZM240.9,214.3L240.9,243.5C187.7,246.5 128.4,241.1 66.9,232.7L66.9,229.5C129.8,230.9 188.9,227.2 240.9,214.3ZM66.9,250.8C127.7,259.2 186.8,264.4 240.9,261.5L240.9,276.6C179.8,277.5 120.2,276.7 66.9,259.7L66.9,250.8ZM66.9,278.5C115.2,293.1 167.1,295.2 219.1,294.8C169.7,306.8 119.6,313.7 66.9,310.3L66.9,278.5ZM240.9,307.9L240.9,330.2C181.7,343.4 124.5,344.6 66.9,344.4L66.9,328.4C127.8,332.2 185.2,322.6 240.9,307.9ZM240.9,348.6L240.9,362.4C240.9,362.2 240.6,363.2 237.2,365.2C233.3,367.4 226.4,369.8 217.9,371.7C201,375.5 177.4,377.5 153.9,377.5C130.4,377.5 106.8,375.5 89.86,371.7C81.37,369.8 74.53,367.4 70.62,365.2C67.32,363.3 66.91,362.4 66.91,362.4C123.6,362.6 181,361.4 240.9,348.6Z" style="fill:rgb(175,106,46);"/>
    <path d="M462.6,326.9C468.003,326.852 472.171,328.485 474.6,331.6C481.543,340.412 472.843,359.12 455.3,373.1C451.136,376.424 446.686,379.311 442.2,381.6L265.9,497.5L420.1,350.2C422.767,347.209 425.768,344.343 429,341.7L429.6,341.1C429.667,341.067 429.733,341.033 429.8,341C440.687,332.337 453.061,327.017 462.6,326.9ZM452.5,342C447.718,342.082 441.532,344.76 436.1,349.1C427.318,356.103 422.974,365.471 426.472,369.865C426.481,369.877 426.491,369.888 426.5,369.9C430.038,374.248 440.132,372.085 448.9,365.1L448.934,365.073C457.722,358.077 462.083,348.706 458.6,344.3C457.374,342.767 455.291,341.968 452.6,342C452.567,342 452.533,342 452.5,342Z" style="fill:rgb(163,163,163);"/>
</svg>
