<?xml version="1.0" encoding="UTF-8" standalone="no"?>
<!DOCTYPE svg PUBLIC "-//W3C//DTD SVG 1.1//EN" "http://www.w3.org/Graphics/SVG/1.1/DTD/svg11.dtd">
<svg width="100%" height="100%" viewBox="0 0 512 512" version="1.1" xmlns="http://www.w3.org/2000/svg" xmlns:xlink="http://www.w3.org/1999/xlink" xml:space="preserve" xmlns:serif="http://www.serif.com/" style="fill-rule:evenodd;clip-rule:evenodd;stroke-linejoin:round;stroke-miterlimit:2;">
    <rect x="0" y="0" width="512" height="512" style="fill-rule:nonzero;"/>
    <g>
        <path d="M338.6,27.83C330.5,27.8 323.8,30.06 317.7,34.2C298.6,47.08 284.8,83.82 278.3,137.6L289,146.6C304.1,103.1 318.9,57.9 346.2,28.46C343.5,28.04 341,27.83 338.6,27.83ZM365.9,34.53C338.2,60.14 321.3,109.5 303.8,159L314.6,168.1C325.8,144.1 336.9,119 349.7,97.03C361.2,77.18 374.2,59.63 390.9,48.6C381.8,42.5 373.5,37.85 365.9,34.53ZM406.7,60.21C391.5,68.06 378,84.27 365.7,105.3C392,89.24 410.4,80.89 425.4,76.12C422.1,73.07 418.6,69.96 414.8,66.79C412.1,64.48 409.4,62.3 406.7,60.21ZM440.1,90.69C421.1,95.12 397.4,104.9 348.8,137.6C345.5,144.3 342.4,151.1 339.2,157.9C378.8,138.9 420.9,116.8 458.3,114.5C454,107.2 448,99.21 440.1,90.69ZM464.9,132.4C458.9,132.4 452.4,133.3 445.5,134.8C438.1,143.8 433,156.1 430.5,168.5C429,175.6 428.5,182.8 428.6,189.2C446.7,179 458.7,168.1 463.7,156.8C467.1,149.3 468,141.5 465.8,132.4L464.9,132.4ZM419.9,142.3C410.5,145.7 400.6,149.8 390.5,154.2C380.1,174.3 375.7,194.1 375.3,211.4C388.5,207.2 400.4,202.7 411,198C409.8,188 410.4,176.6 412.8,164.9C414.3,157.3 416.7,149.7 419.9,142.3ZM366.1,165.3C354.3,170.8 342.5,176.4 330.8,181.7L357.7,204.2C358.6,191.8 361.3,178.7 366.1,165.3ZM417.2,215.4C406.8,219.9 395.3,224.1 383,228C391.2,228.9 401.7,230.4 412.4,232.8C423.6,235.3 434.8,239 442.7,243.4C450.6,247.9 454.5,252.5 455.1,257.1L455.1,257.2C455.9,263.5 454.7,268 451.9,272.4C449.1,276.8 444.3,281.1 437.8,285.2C424.6,293.2 404.7,299.7 384.1,306.2C363.6,312.8 342.3,319.3 325.3,329.1C308.3,339 294.7,353.8 295,374.2C295.2,393.3 306.8,409.7 322.1,423.4C337.4,437.1 356.9,448.7 376.3,458.3C415.1,477.4 453.5,488.6 453.5,488.6L458.5,471.4C458.5,471.4 421.3,460.5 384.3,442.1C365.8,433 347.4,421.9 334.1,410C320.8,398 313.2,385.7 313,374C312.8,361.2 320.1,353 334.3,344.7C348.6,336.5 369,329.9 389.6,323.4C410.2,316.9 431,310.4 447.2,300.5C455.2,295.6 462.3,289.7 467.1,282C472,274.4 474.2,264.9 472.9,254.9C471.3,242.4 462.1,233.7 451.6,227.7C441.4,221.9 429.2,218.2 417.2,215.4ZM136.7,300.6C123.5,304.8 111.5,309.3 101,314C102.2,324 101.6,335.4 99.17,347.1C97.62,354.7 95.29,362.4 92.03,369.7C101.5,366.3 111.4,362.2 121.5,357.8C131.9,337.7 136.3,317.9 136.7,300.6ZM154.3,307.8C153.4,320.2 150.7,333.3 145.9,346.7C157.7,341.2 169.5,335.6 181.1,330.3L175.9,325.9L154.3,307.8ZM83.45,322.8C65.37,333 53.31,343.9 48.28,355.2C44.93,362.7 44.01,370.5 46.21,379.6C52.48,379.7 59.31,378.8 66.58,377.2C73.95,368.2 79.02,355.9 81.54,343.5C83.01,336.4 83.57,329.2 83.45,322.8ZM197.4,343.9C186.2,367.9 175.1,393 162.3,415C150.8,434.8 137.8,452.3 121.2,463.4C130.2,469.5 138.5,474.1 146.1,477.5C173.8,451.9 190.7,402.5 208.2,353L197.4,343.9ZM172.8,354.1C133.2,373.1 91.03,395.2 53.75,397.5C58.03,404.8 64.04,412.8 71.9,421.3C90.98,416.9 114.6,407 163.2,374.4C166.5,367.7 169.6,360.9 172.8,354.1ZM223,365.4C207.9,408.9 193.1,454.1 165.8,483.5C177.4,485.4 186.3,483.2 194.3,477.8C213.4,464.9 227.2,428.2 233.7,374.4L223,365.4ZM146.3,406.7C120,422.8 101.6,431.1 86.57,435.8C89.92,438.9 93.45,442 97.24,445.2C99.99,447.5 102.7,449.7 105.3,451.8C120.5,443.9 134,427.8 146.3,406.7Z" style="fill:rgb(204,192,170);fill-rule:nonzero;"/>
        <path d="M269.8,154L354,224.7L334.7,247.7L250.5,177L269.8,154ZM238.9,190.8L323.2,261.5L273.1,321.2L188.8,250.5L238.9,190.8ZM177.3,264.3L261.5,335L242.2,358L158,287.3L177.3,264.3Z" style="fill:rgb(218,62,62);"/>
    </g>
</svg>
