<?xml version="1.0" encoding="UTF-8" standalone="no"?>
<!DOCTYPE svg PUBLIC "-//W3C//DTD SVG 1.1//EN" "http://www.w3.org/Graphics/SVG/1.1/DTD/svg11.dtd">
<svg width="100%" height="100%" viewBox="0 0 512 512" version="1.1" xmlns="http://www.w3.org/2000/svg" xmlns:xlink="http://www.w3.org/1999/xlink" xml:space="preserve" xmlns:serif="http://www.serif.com/" style="fill-rule:evenodd;clip-rule:evenodd;stroke-linejoin:round;stroke-miterlimit:2;">
    <rect x="0" y="0" width="512" height="512" style="fill-rule:nonzero;"/>
    <path d="M165.446,34.793C142.276,34.816 119.812,47.763 110.834,71.116L27.164,397.283C14.491,491.82 108.204,486.025 165.121,462.679C246.543,429.283 346.844,433.466 428.365,454.419L434.815,437.201C427.435,434.563 419.481,431.213 412.563,429.162C413.036,424.798 413.518,420.442 414,416.088L437.038,420.206L440.272,402.106C432.198,400.665 424.125,399.221 416.051,397.778C416.666,392.375 417.289,386.979 417.921,381.589L440.055,384.867L442.748,366.681C435.2,365.561 427.65,364.443 420.101,363.326C420.557,359.561 421.011,355.796 421.476,352.036C429.091,353.128 436.707,354.219 444.323,355.309L446.93,337.109L423.766,333.793C424.226,330.2 425.056,323.805 425.526,320.216L448.307,322.766L450.352,305.196C442.885,304.362 435.417,303.525 427.95,302.688C428.733,296.921 429.867,291.506 430.678,285.745C438.348,286.865 446.019,287.989 453.69,289.113L456,271.974C448.317,270.847 440.634,269.724 432.95,268.6C433.742,263.185 434.202,258.471 435.021,253.058C442.095,254.322 449.17,255.586 456.244,256.848L459.476,238.748L437.822,234.882C438.558,230.206 439.295,225.532 440.052,220.856C447.03,222.529 454.007,224.203 460.984,225.878L465.276,208C457.875,206.222 450.473,204.446 443.072,202.67C443.773,198.509 444.484,194.35 445.204,190.193C452.184,191.776 459.165,193.358 466.146,194.939L470.21,177.009C462.939,175.359 455.667,173.711 448.395,172.063C449.164,167.796 449.945,163.528 450.737,159.258L471.479,164.409L475.91,146.566L454.159,141.161C454.9,137.314 455.653,133.465 456.413,129.613L476.693,134.627L481.106,116.778L460.049,111.571C460.895,107.444 461.752,103.319 462.62,99.197C471.006,101.607 475.75,101.561 484.03,104.187L486,88.456C402.192,61.68 306.75,55.236 241.808,82.003C217.471,196.039 204.503,303.403 173.776,420.643C170.369,433.643 159.306,442.533 146.434,448.707C119.434,460.315 82.401,462.485 61.804,443.797C50.833,433.457 45.63,416.761 49.337,396.218C51.64,383.456 60.22,374.232 70.171,369.84C89.92,362.766 113.663,365.59 129.064,377.79C141.527,387.092 141.382,416.073 125.182,409.61C115.543,403.44 123.218,397.759 116.567,392.232C104.967,384.804 90.147,381.36 77.595,386.662C72.031,389.117 68.708,392.399 67.429,399.484C64.489,415.774 68.114,424.48 74.414,430.417C92.747,443.907 119.693,440.912 138.482,432.129C148.527,427.309 154.759,420.693 155.993,415.982C186.531,299.464 199.436,191.859 224.286,76.018C212.49,47.674 188.616,34.771 165.446,34.793Z" style="fill:rgb(79,133,79);fill-rule:nonzero;"/>
</svg>
