<?xml version="1.0" encoding="UTF-8" standalone="no"?>
<!DOCTYPE svg PUBLIC "-//W3C//DTD SVG 1.1//EN" "http://www.w3.org/Graphics/SVG/1.1/DTD/svg11.dtd">
<svg width="100%" height="100%" viewBox="0 0 512 512" version="1.1" xmlns="http://www.w3.org/2000/svg" xmlns:xlink="http://www.w3.org/1999/xlink" xml:space="preserve" xmlns:serif="http://www.serif.com/" style="fill-rule:evenodd;clip-rule:evenodd;stroke-linejoin:round;stroke-miterlimit:2;">
    <rect x="0" y="0" width="512" height="512" style="fill-rule:nonzero;"/>
    <g>
        <path d="M169.57,106.12C167.688,91.64 141.386,75.696 128.478,75.696C125.938,75.696 123.918,76.308 122.705,77.67C100.895,102.055 136.93,158.932 136.93,158.932C136.93,158.932 172.676,130.147 169.57,106.12ZM298.402,166.644C298.402,166.644 332.717,112.458 311.946,89.284C310.791,87.992 308.863,87.404 306.45,87.404C294.142,87.404 269.098,102.587 267.308,116.384C264.341,139.164 298.402,166.644 298.402,166.644ZM244.678,116.292C242.888,102.494 217.833,87.312 205.538,87.312C203.124,87.312 201.195,87.9 200.041,89.192C179.259,112.412 213.585,166.552 213.585,166.552C213.585,166.552 247.645,139.165 244.679,116.292L244.678,116.292ZM58.128,58.896C57.572,58.895 57.017,58.921 56.464,58.976C-31.286,67.913 67.837,345.032 97.014,363.46C97.014,363.46 80.03,211.824 99.809,119.224C107.047,85.117 75.803,58.896 58.126,58.896L58.128,58.896ZM455.522,58.976C454.969,58.921 454.414,58.895 453.859,58.896C436.181,58.896 404.891,85.094 412.177,119.224C431.955,211.824 414.971,363.46 414.971,363.46C444.194,345.044 543.283,67.925 455.521,58.977L455.522,58.976ZM383.509,75.696C370.589,75.696 344.251,91.641 342.415,106.12C339.309,130.09 375.067,158.943 375.067,158.943C375.067,158.943 411.091,102.055 389.292,77.683C388.068,76.308 386.048,75.696 383.508,75.696L383.509,75.696ZM235.209,424.676C233.177,413.306 209.611,389.323 209.611,389.323C209.611,389.323 189.071,413.293 189.291,423.05C189.291,425.197 188.136,446.142 191.321,449.05C194.197,451.695 204.161,453.093 213.941,453.093C223.409,453.093 232.691,451.788 235.209,449.051C237.519,446.581 235.544,426.318 235.209,424.678L235.209,424.676ZM175.169,400.326C163.104,379.636 156.014,349.316 152.077,326.593C148.983,308.627 147.887,295.419 147.887,295.419C132.76,307.229 103.595,433.094 150.427,433.094C152.087,433.088 153.743,432.945 155.379,432.666C159.999,431.904 165.839,428.371 170.389,423.43C176.324,417 179.845,408.26 175.169,400.327L175.169,400.326ZM364.019,295.396C364.019,295.396 363.013,307.426 360.242,324.134C356.432,347.099 349.262,378.874 336.757,400.338C332.993,406.804 334.621,413.755 338.501,419.574C343.119,426.434 350.809,431.709 356.536,432.656C358.172,432.935 359.829,433.077 361.489,433.083C408.401,433.037 379.166,307.173 364.052,295.349L364.019,295.396ZM322.613,423.096C322.833,413.339 302.293,389.37 302.293,389.37C302.293,389.37 278.761,413.305 276.775,424.677C276.521,426.121 274.212,446.269 276.775,449.063C279.339,451.857 288.587,453.103 298.043,453.103C307.823,453.103 317.787,451.707 320.663,449.063C325.05,444.975 322.625,423.777 322.648,423.061L322.613,423.096ZM178.887,428.592L179.13,428.707L179.13,428.267L178.887,428.592Z" style="fill:rgb(202,176,136);fill-rule:nonzero;"/>
    </g>
</svg>
