<?xml version="1.0" encoding="UTF-8" standalone="no"?>
<!DOCTYPE svg PUBLIC "-//W3C//DTD SVG 1.1//EN" "http://www.w3.org/Graphics/SVG/1.1/DTD/svg11.dtd">
<svg width="100%" height="100%" viewBox="0 0 512 512" version="1.1" xmlns="http://www.w3.org/2000/svg" xmlns:xlink="http://www.w3.org/1999/xlink" xml:space="preserve" xmlns:serif="http://www.serif.com/" style="fill-rule:evenodd;clip-rule:evenodd;stroke-linejoin:round;stroke-miterlimit:2;">
    <rect x="0" y="0" width="512" height="512" style="fill-rule:nonzero;"/>
    <path d="M55.578,34.978C54.944,34.98 54.311,34.998 53.678,35.035C48.611,35.331 43.588,36.775 39.008,39.595C34.455,42.399 32.638,46.362 31.181,50.427C29.724,54.493 28.793,59.104 28.086,64.472C26.673,75.21 26.27,88.948 26.6,105.132C27.258,137.502 30.936,179.495 36.523,223.478C45.345,292.928 58.533,366.572 73.053,415.271L73.107,415.257C73.652,417.137 74.241,419.157 74.877,421.219L74.887,421.259C75.249,422.407 75.612,423.541 75.974,424.657C77.672,429.807 79.651,434.912 81.931,438.565C83.788,441.538 85.694,443.325 87.101,444.03C88.506,444.733 89.545,445.043 92.581,443.96C94.338,443.334 94.333,443.35 94.931,440.705C95.531,438.058 95.436,433.07 94.409,427.088C93.345,420.898 91.429,413.708 89.381,406.228C76.188,359.738 62.849,287.886 54.379,221.211C48.849,177.674 45.234,136.084 44.596,104.768C44.276,89.11 44.726,75.981 45.932,66.823C46.536,62.243 47.356,58.653 48.126,56.505C48.506,55.445 48.91,54.858 49.066,54.622C53.21,52.266 56.771,52.162 62.302,54.228C68.112,56.398 75.438,61.515 83.25,68.883C98.873,83.618 116.45,106.873 134.263,129.895C152.076,152.918 170.055,175.735 188.571,190.428C194.551,195.175 200.646,199.126 207.001,201.802C209.591,202.476 212.963,203.242 216.431,203.707C220.041,204.189 223.661,204.251 225.874,203.855C227.514,203.562 227.932,203.269 227.99,203.23C231.38,197.067 229.926,195.218 226.62,191.832C223.303,188.434 216.467,185.842 214.185,185.689L214.215,185.256C209.827,183.416 204.939,180.436 199.762,176.328C184.022,163.836 166.208,141.764 148.502,118.878C130.797,95.994 113.134,72.321 95.602,55.788C86.836,47.52 78.102,40.915 68.606,37.368C64.452,35.814 60.021,34.968 55.584,34.98L55.578,34.978Z" style="fill:rgb(213,190,122);fill-rule:nonzero;"/>
    <path d="M408.767,50.978L402.484,63.886L384.178,77.388L396.204,52.678L408.767,50.978ZM341.21,18.004L341.21,18.001L358.558,47.683L366.896,30.55L383.08,38.425L374.734,55.578L374.774,55.572L352.837,100.65L352.797,100.655L321.075,165.845C314.941,164.823 308.831,163.664 302.749,162.368L336.623,92.762L319.273,63.079L322.827,55.779L332.817,60.603L326.857,47.496L335.167,30.42L344.755,37.425L338.17,24.252L341.21,18.004ZM246.705,39.038L246.706,39.036L267.676,66.279L273.776,48.226L290.829,53.988L284.723,72.06L284.765,72.048L268.715,119.543L268.678,119.553L258.251,150.413C252.554,148.57 246.882,146.623 241.224,144.573L251.63,113.773L230.658,86.53L234.212,76.01L247.86,84.2L238.56,63.14L246.705,39.038ZM317.898,63.183L301.853,110.677L289.605,113.955L305.65,66.46L317.898,63.183ZM424.694,68.691L436.631,100.933L447.815,85.506L462.387,96.072L451.193,111.515L451.233,111.517L421.809,152.105L421.769,152.103L407.886,171.257C400.27,171.523 392.805,171.601 385.47,171.507L407.208,141.52L395.27,109.28L408.495,91.04L418.149,109.415L415.887,80.841L424.694,68.691ZM395.778,77.673L386.829,96.056L374.265,97.756L382.368,81.106L395.778,77.673ZM472.837,112.383L485.507,112.887L480.805,119.374L468.035,119.008L472.837,112.383ZM467.106,120.288L476.826,124.861L465.9,139.933L456.425,141.02L462.505,144.618L456.083,153.475L443.415,152.968L467.106,120.288Z" style="fill:rgb(151,129,104);"/>
    <path d="M228.952,159.118C281.267,178.745 335.402,190.218 398.397,189.335C386.447,205.694 374.518,221.706 362.5,237.441C304.595,249.551 245.902,253.881 195.062,226.801C196.499,223.998 197.93,221.176 199.362,218.358C202.495,219.285 207.869,220.723 214.039,221.548C218.737,222.175 223.823,222.505 229.037,221.573C234.249,220.641 240.391,217.995 243.705,212.001C250.436,199.823 246.617,186.554 239.493,179.257C234.791,174.439 229.369,171.208 223.863,169.403C225.56,165.968 227.25,162.58 228.952,159.118ZM186.813,242.801L186.816,242.8C236.855,269.383 292.488,268.235 345.86,258.97C280.956,341.866 211.93,417.368 121.21,493.98C98.747,494.51 73.4,482.04 58.941,457.307C61.33,453.87 63.671,450.445 66.013,447.02C66.227,447.381 66.437,447.742 66.66,448.098C69.594,452.801 73.436,457.319 79.034,460.123C84.63,462.928 91.848,463.333 98.624,460.916C105.998,458.286 110.966,451.382 112.484,444.682C114.002,437.984 113.369,431.165 112.146,424.042C110.213,412.785 106.48,400.621 103.568,389.637C134.033,340.981 160.891,292.721 186.813,242.801Z" style="fill:rgb(160,89,13);"/>
</svg>
