<?xml version="1.0" encoding="UTF-8" standalone="no"?>
<!DOCTYPE svg PUBLIC "-//W3C//DTD SVG 1.1//EN" "http://www.w3.org/Graphics/SVG/1.1/DTD/svg11.dtd">
<svg width="100%" height="100%" viewBox="0 0 512 512" version="1.1" xmlns="http://www.w3.org/2000/svg" xmlns:xlink="http://www.w3.org/1999/xlink" xml:space="preserve" xmlns:serif="http://www.serif.com/" style="fill-rule:evenodd;clip-rule:evenodd;stroke-linejoin:round;stroke-miterlimit:2;">
    <rect x="0" y="0" width="512" height="512" style="fill-rule:nonzero;"/>
    <path d="M134.745,22.098C130.207,21.952 125.665,23.528 119.852,29.341C114.266,34.927 108.011,51.066 104.604,65.333C104.37,66.312 104.16,67.24 103.95,68.169L218.204,173.507C211.024,144.969 200.649,113.522 188.356,86.757C176.683,61.339 163.107,40.1 150.842,29.733C144.71,24.55 139.282,22.245 134.745,22.098ZM92.528,82.122L82.124,92.526L243.58,267.651L267.652,243.579L92.528,82.122ZM68.171,103.948C67.242,104.158 66.314,104.368 65.335,104.602C51.068,108.009 34.929,114.264 29.342,119.85C23.529,125.663 21.952,130.205 22.098,134.743C22.245,139.281 24.55,144.708 29.733,150.841C40.1,163.106 61.341,176.683 86.758,188.356C113.524,200.649 144.969,211.025 173.507,218.204L68.17,103.948L68.171,103.948ZM280.899,255.79L255.792,280.897L329.057,360.366L360.367,329.056L280.9,255.79L280.899,255.79ZM373.614,341.266L341.268,373.61L343.338,375.856C343.399,375.914 347.757,380.08 353.923,382.136C360.131,384.205 366.633,385.016 375.825,375.823C385.017,366.631 384.205,360.129 382.135,353.921C380.078,347.747 375.9,343.381 375.852,343.331L373.614,341.266Z" style="fill:rgb(162,50,50);fill-rule:nonzero;"/>
    <path d="M393.786,382.324L489.91,489.91L382.327,393.786C384.552,392.227 386.635,390.476 388.553,388.551C390.477,386.633 392.227,384.55 393.786,382.324Z" style="fill:rgb(148,148,148);"/>
</svg>
