<?xml version="1.0" encoding="UTF-8" standalone="no"?>
<!DOCTYPE svg PUBLIC "-//W3C//DTD SVG 1.1//EN" "http://www.w3.org/Graphics/SVG/1.1/DTD/svg11.dtd">
<svg width="100%" height="100%" viewBox="0 0 512 512" version="1.1" xmlns="http://www.w3.org/2000/svg" xmlns:xlink="http://www.w3.org/1999/xlink" xml:space="preserve" xmlns:serif="http://www.serif.com/" style="fill-rule:evenodd;clip-rule:evenodd;stroke-linejoin:round;stroke-miterlimit:2;">
    <rect x="0" y="0" width="512" height="512" style="fill-rule:nonzero;"/>
    <path d="M229.47,377.626L229.47,377.623L229.471,377.625L229.47,377.626ZM178.968,390.597L178.968,390.595L178.971,390.594L178.968,390.597ZM257.313,15.688L206.938,103.218L235.094,94.688L257.374,55.968L279.781,94.75L307.907,103.22L257.313,15.688ZM118.375,93.438L136.875,192.718L151.031,170.625L141.595,120L190.565,137.313L213.689,127.156L118.376,93.436L118.375,93.438ZM397.095,93.438L301.781,127.156L325.657,137.656L375.562,120L365.75,172.688L378.594,192.718L397.094,93.438L397.095,93.438Z" style="fill:rgb(165,165,165);fill-rule:nonzero;"/>
    <path d="M178.968,390.597L179.405,413.531L179.469,417.094L177.155,419.78L132.875,471.72L124.72,481.313L117.907,470.721L114.407,465.281L178.968,390.597ZM338.595,147.5L348.407,151.813L353.157,159.188L282.064,242.531L270.031,228.468L284.594,211.468L284.25,211.188L338.595,147.5ZM233.406,271.25L245.594,285.28L96.686,459.844L82.468,447.688L90.655,438.094L67.905,428.03L56.405,422.97L64.563,413.407L108.843,361.471L111.155,358.751L114.719,358.281L164.437,351.594L171.062,343.844L171.187,343.938L233.406,271.25Z" style="fill:rgb(205,113,113);"/>
    <path d="M229.47,377.626L229.47,479.843L223.126,481.749L211.063,485.405L211.063,398.374L213.407,395.719L229.47,377.626ZM257.375,95.468L257.376,95.47L266.721,98.28L266.721,203.625L257.721,214.125L248.031,202.782L248.031,98.312L257.375,95.468ZM257.781,299.375L266.721,309.718L266.721,357.218L301.251,395.688L303.625,398.344L303.625,485.344L291.595,481.75L266.721,474.313L266.721,489.405L248.031,489.405L248.031,310.655L257.781,299.375ZM266.721,385.188L266.72,454.812L284.938,460.25L284.938,405.5L266.721,385.188Z" style="fill:rgb(215,72,173);"/>
    <path d="M177.345,148.029L351.345,351.969L400.907,358.624L404.471,359.094L406.781,361.812L450.906,413.595L459.064,423.125L447.594,428.188L424.906,438.218L433,447.688L418.78,459.813L163.28,160.344L168.75,151.812L177.345,148.029ZM369.501,373.25L412.251,423.376L428.563,416.156L394.907,376.688L369.501,373.25ZM336.876,390.75L401.282,465.187L397.752,470.687L390.972,481.312L382.782,471.72L338.657,419.97L336.345,417.25L336.438,413.72L336.876,390.75Z" style="fill:rgb(143,118,79);"/>
</svg>
