<?xml version="1.0" encoding="UTF-8" standalone="no"?>
<!DOCTYPE svg PUBLIC "-//W3C//DTD SVG 1.1//EN" "http://www.w3.org/Graphics/SVG/1.1/DTD/svg11.dtd">
<svg width="100%" height="100%" viewBox="0 0 512 512" version="1.1" xmlns="http://www.w3.org/2000/svg" xmlns:xlink="http://www.w3.org/1999/xlink" xml:space="preserve" xmlns:serif="http://www.serif.com/" style="fill-rule:evenodd;clip-rule:evenodd;stroke-linejoin:round;stroke-miterlimit:2;">
    <rect x="0" y="0" width="512" height="512" style="fill-rule:nonzero;"/>
    <g>
        <path d="M256,98.5C156.6,98.5 92.3,157.8 69.4,230.8C46.4,304 63,391.3 121.7,449.8L121.7,449.9L124.3,452.5L128,452.5C145.8,452.5 160.9,445.2 178.5,437.8L174.9,419.9C159.5,426 147.5,431.2 136.9,433.4L131.8,434.5L128.3,430.6C79.9,377.3 66.3,300.5 86.6,236.2C107.5,169.5 163.6,116.5 256,116.5C348.3,116.5 404.5,169.5 425.4,236.2C445.7,300.5 432.1,377.3 383.7,430.6L380.2,434.5L375.1,433.4C364.5,431.2 352.5,426 337.1,419.9L333.5,437.8C351.1,445.2 366.2,452.5 384,452.5L387.7,452.5L390.3,449.9L390.3,449.8C449,391.3 465.6,304 442.6,230.8C419.7,157.8 355.4,98.5 256,98.5Z" style="fill:rgb(151,101,69);fill-rule:nonzero;"/>
        <path d="M256,59.5C273.361,59.495 289.422,68.91 297.9,84.06C284.6,81.74 270.6,80.5 256,80.5C241.4,80.5 227.5,81.73 214.2,84.05C222.663,68.935 238.677,59.53 256,59.5ZM105,132.5C107.175,132.519 109.347,132.686 111.5,133C90.1,152.2 73.3,175.4 61.6,200.9C58.586,194.521 57.015,187.555 57,180.5C57,154.168 78.668,132.5 105,132.5ZM407,132.5C433.332,132.5 455,154.168 455,180.5C454.985,187.555 453.414,194.521 450.4,200.9C438.7,175.4 421.9,152.2 400.5,133C402.653,132.686 404.825,132.519 407,132.5ZM256,134.5C269.3,134.5 281.7,135.6 293.2,137.8C284.097,148.985 270.421,155.492 256,155.5C241.562,155.467 227.884,148.922 218.8,137.7C230.3,135.6 242.7,134.5 256,134.5ZM151.3,168.2C152.397,172.209 152.968,176.344 153,180.5C152.966,205.452 133.482,226.429 108.6,228.3C117.9,204.9 132,184.2 151.3,168.2ZM360.6,168.2C380,184.2 394.1,204.9 403.5,228.4C378.542,226.575 358.986,205.524 359,180.5C358.999,176.348 359.537,172.214 360.6,168.2ZM95.7,299.4C110.121,308.055 118.98,323.681 119,340.5C118.971,350.43 115.86,360.111 110.1,368.2C101,346.3 96.2,322.8 95.7,299.4ZM416.3,299.4C415.8,322.8 411,346.3 401.9,368.3C396.12,360.183 393.009,350.464 393,340.5C393.02,323.681 401.879,308.055 416.3,299.4ZM41.5,302.7C42.2,331.3 47.9,360 58.9,386.9C37.841,381.414 23.023,362.261 23,340.5C23.02,325.734 29.852,311.775 41.5,302.7ZM470.6,302.7C482.21,311.795 489.004,325.751 489,340.5C488.977,362.261 474.159,381.414 453.1,386.9C464.1,359.9 469.8,331.3 470.6,302.7Z" style="fill:rgb(208,175,71);"/>
        <path d="M256,402.5C281.6,402.5 302.5,407.5 320,413.5L316.5,431.2C299.7,425.3 280.3,420.5 256,420.5C231.7,420.5 212.3,425.3 195.5,431.2L192,413.5C209.5,407.5 230.4,402.5 256,402.5Z" style="fill:rgb(96,189,126);"/>
    </g>
</svg>
