<?xml version="1.0" encoding="UTF-8" standalone="no"?>
<!DOCTYPE svg PUBLIC "-//W3C//DTD SVG 1.1//EN" "http://www.w3.org/Graphics/SVG/1.1/DTD/svg11.dtd">
<svg width="100%" height="100%" viewBox="0 0 512 512" version="1.1" xmlns="http://www.w3.org/2000/svg" xmlns:xlink="http://www.w3.org/1999/xlink" xml:space="preserve" xmlns:serif="http://www.serif.com/" style="fill-rule:evenodd;clip-rule:evenodd;stroke-linejoin:round;stroke-miterlimit:2;">
    <rect x="0" y="0" width="512" height="512" style="fill-rule:nonzero;"/>
    <g>
        <path d="M375.2,23.61L362.5,36.31L387,60.81C387.5,59.61 388,58.51 388.5,57.31C390.9,50.71 392.6,44.91 393.4,41.81L375.2,23.61ZM408.5,54.11C407.6,57.11 406.6,60.01 405.2,63.71C401.2,74.51 396.1,87.11 385,94.11C381,96.51 376.9,96.71 373.8,96.41C370.7,96.11 368.2,95.31 366.3,94.81C364.6,94.41 363.7,94.21 363.1,94.11C362.5,95.01 361.9,96.31 361.5,98.61C360.7,101.8 360.5,106.1 360.7,110.2C360.8,116.2 361.4,120.7 361.9,123.3L388.7,150.1C391.3,150.5 395.8,151.1 401.7,151.3C409.2,151.4 416,149.5 417.7,148.6C417.6,147.8 417.5,147.2 417.1,145.7C416.6,143.7 415.8,141.2 415.4,138.1C415.1,135 415.4,130.8 417.7,126.9C424.7,115.8 437.3,110.7 448.2,106.6C451.8,105.2 454.8,104.4 457.8,103.5L441.4,70.61L408.5,54.11ZM341.3,57.51L328.6,70.21L346,87.71C347.3,84.81 349,82.11 351.6,79.81C354.1,77.61 357.2,76.51 359.9,76.11L341.3,57.51ZM470.2,118.5C467,119.3 461.1,120.9 454.5,123.5C453.4,123.9 452.3,124.3 451.1,124.8L475.7,149.4L488.4,136.7L470.2,118.5ZM349.5,136.4L217.4,262.3L227.2,272.1L356.2,143.1L349.5,136.4ZM435.8,151.9C435.4,154.7 434.3,157.9 432,160.4C429.7,162.9 427.2,164.7 424.5,166L441.8,183.3L454.5,170.6L435.8,151.9ZM368.9,155.8L240,284.9L249.7,294.5L375.6,162.5L368.9,155.8ZM142.6,250.3C112.2,250.3 81.73,261.9 58.47,285.2C11.94,331.7 11.94,406.9 58.47,453.5C105,500 180.2,500 226.8,453.5C262.6,417.6 270.7,365 251.5,321.3L156.8,416L171.7,430.9L158.9,443.6L68.44,353.1L81.17,340.4L95.92,355.1L190.7,260.4C175.4,253.6 159,250.3 142.6,250.3ZM203.2,273.5L108.7,367.9L120,379.2L214.5,284.8L203.2,273.5ZM227.2,297.5L132.7,392L143.9,403.2L238.5,308.8L227.2,297.5Z" style="fill:rgb(191,167,131);fill-rule:nonzero;"/>
    </g>
</svg>
