<?xml version="1.0" encoding="UTF-8" standalone="no"?>
<!DOCTYPE svg PUBLIC "-//W3C//DTD SVG 1.1//EN" "http://www.w3.org/Graphics/SVG/1.1/DTD/svg11.dtd">
<svg width="100%" height="100%" viewBox="0 0 512 512" version="1.1" xmlns="http://www.w3.org/2000/svg" xmlns:xlink="http://www.w3.org/1999/xlink" xml:space="preserve" xmlns:serif="http://www.serif.com/" style="fill-rule:evenodd;clip-rule:evenodd;stroke-linejoin:round;stroke-miterlimit:2;">
    <rect x="0" y="0" width="512" height="512" style="fill-rule:nonzero;"/>
    <g>
        <path d="M194.697,163.158C153.761,166.071 117.262,171.802 88.613,179.441C67.448,185.085 50.553,191.833 39.66,198.701C28.767,205.57 25,211.723 25,216C25,220.277 28.767,226.43 39.66,233.299C50.554,240.167 67.448,246.915 88.613,252.559C130.943,263.847 190.374,271 256,271C305.18,271 350.88,266.983 388.512,260.219C380.389,259.894 371.966,257.689 363.809,253.797L363.807,253.795L363.803,253.793C353.603,248.915 345.189,241.413 339.668,232.309L266.963,197.629L230.465,220.195C225.965,229.845 218.414,238.216 208.803,244.172L208.801,244.174L208.797,244.176C198.082,250.801 186.5,254.248 175.516,253.764C164.531,253.28 153.722,248.279 147.66,238.474C141.598,228.671 142.294,216.778 147.145,207.18C151.995,197.582 160.445,189.42 170.93,182.937L170.932,182.936L170.934,182.936C180.564,176.985 191.438,173.963 202.094,174.248L208.998,169.978L194.698,163.158L194.697,163.158ZM322.129,163.518L321.584,163.854L362.884,183.554C373.447,182.114 384.586,183.939 394.804,188.811L394.809,188.811C405.934,194.117 415.221,201.315 421.084,210.331C426.947,219.345 428.928,231.094 423.964,241.498C420.884,247.955 415.786,252.768 409.764,255.893C414.463,254.823 419.037,253.719 423.387,252.559C444.552,246.915 461.447,240.167 472.34,233.299C483.233,226.43 487,220.277 487,216C487,211.723 483.233,205.57 472.34,198.701C461.446,191.833 444.552,185.085 423.387,179.441C395.871,172.104 361.101,166.531 322.129,163.518Z" style="fill:white;fill-rule:nonzero;"/>
        <path d="M25,305.121C27.443,306.556 30.07,307.9 32.883,309.187C39.307,312.123 46.72,314.753 55,317.13L55,464.99C49.72,462.888 45.043,460.695 41.09,458.436C29.3,451.699 25,445.5 25,440L25,305.121ZM487,305.121L487,440C487,445.5 482.7,451.699 470.91,458.436C466.957,460.695 462.28,462.887 457,464.99L457,317.129C465.279,314.752 472.693,312.122 479.117,309.186C481.93,307.899 484.557,306.556 487,305.121ZM73,321.63C78.453,322.813 83.929,323.89 89.424,324.86C116.54,329.681 148.736,333.033 183,334.978L183,488.416C149.742,486.006 118.669,481.93 92.953,476.216C85.868,474.641 79.196,472.934 73,471.118L73,321.63ZM439,321.63L439,471.118C432.804,472.934 426.132,474.641 419.047,476.215C393.331,481.93 362.258,486.006 329,488.415L329,334.98C363.264,333.035 395.461,329.682 422.576,324.862C428.071,323.891 433.547,322.814 439,321.63ZM201,335.87C219.053,336.622 237.52,336.999 256,336.999C274.48,336.999 292.947,336.622 311,335.87L311,489.554C292.972,490.514 274.483,490.999 256,490.999C237.517,490.999 219.028,490.514 201,489.554L201,335.87Z" style="fill:rgb(0,116,255);"/>
        <path d="M39.642,253.912C51.72,260.023 66.621,265.324 83.973,269.951C89.253,271.35 94.561,272.644 99.893,273.83L66.583,298.812L39.642,253.912ZM472.356,253.912L445.001,299.504L406.075,275.127C413.741,273.517 421.098,271.798 428.024,269.952C445.376,265.324 460.278,260.022 472.356,253.912ZM487,264.492L487,280C487,281.188 486.631,282.51 484.26,284.871C481.888,287.232 477.581,290.095 471.633,292.815C470.901,293.148 470.165,293.471 469.424,293.785L487,264.492ZM25,264.495L42.574,293.785C41.817,293.464 41.079,293.14 40.367,292.814C34.419,290.095 30.112,287.232 27.74,284.871C25.369,282.51 25,281.188 25,280L25,264.495ZM123.639,278.521C126.105,278.954 128.574,279.371 131.045,279.771L167.188,315.914C139.8,313.931 114.304,311.001 92.576,307.139C90.642,306.794 88.776,306.434 86.902,306.074L123.639,278.521ZM357.635,283.059L319.56,316.42L282.48,288.611C309.032,287.846 334.29,285.936 357.635,283.059ZM384.896,283.104L422.391,306.582C421.396,306.766 420.435,306.959 419.424,307.139C398.465,310.864 373.987,313.715 347.701,315.694L384.896,283.104ZM160.527,283.801C182.131,286.269 205.294,287.913 229.52,288.611L192.844,316.117L160.527,283.801ZM256,291.25L292.322,318.492C280.298,318.824 268.15,319 256,319C243.849,319 231.702,318.824 219.678,318.492L256,291.25Z" style="fill:rgb(0,246,255);"/>
        <path d="M476.866,25.514L486.333,40.822L302.261,154.637L282.941,145.422L476.866,25.514ZM73.6,65.507L360.166,202.202L363.149,201.572C370.132,200.098 378.996,201.216 387.059,205.059C395.872,209.263 402.604,214.932 405.994,220.145C409.384,225.358 409.889,229.198 407.719,233.748C405.548,238.298 401.639,240.936 395.196,241.928C388.754,242.919 380.132,241.639 371.566,237.555L371.562,237.553L371.559,237.551C363.513,233.702 357.08,227.524 353.836,221.178L352.447,218.463L65.852,81.754L73.6,65.507ZM228.319,179.195L247.641,188.412L216.258,207.816L215.172,210.666C212.635,217.327 206.91,224.166 199.33,228.865C191.256,233.858 182.82,236.068 176.307,235.781C169.793,235.494 165.622,233.296 162.971,229.008C160.319,224.72 160.405,220.848 163.209,215.298C166.013,209.75 172.09,203.383 180.395,198.248L180.397,198.246C187.994,193.552 196.685,191.48 203.787,192.188L206.82,192.488L228.319,179.195Z" style="fill:rgb(255,201,89);"/>
    </g>
</svg>
