<?xml version="1.0" encoding="UTF-8" standalone="no"?>
<!DOCTYPE svg PUBLIC "-//W3C//DTD SVG 1.1//EN" "http://www.w3.org/Graphics/SVG/1.1/DTD/svg11.dtd">
<svg width="100%" height="100%" viewBox="0 0 512 512" version="1.1" xmlns="http://www.w3.org/2000/svg" xmlns:xlink="http://www.w3.org/1999/xlink" xml:space="preserve" xmlns:serif="http://www.serif.com/" style="fill-rule:evenodd;clip-rule:evenodd;stroke-linejoin:round;stroke-miterlimit:2;">
    <rect x="0" y="0" width="512" height="512" style="fill-rule:nonzero;"/>
    <path d="M37.1,28.45C36.83,57.55 46.17,75.12 62.17,95.55L71.83,85.95L86.56,100.7L75.1,112.1L84.91,124.7L116.1,93.45L103.9,83.35L96.07,91.15L81.33,76.45L87.7,70.05L37.1,28.45ZM129.3,106.7L98.11,138L112.2,152.1L143.5,120.9L129.3,106.7ZM155,132.4L124,163.4L134,173.4C144,169.4 156,172.4 164,180.4C179,194.4 201,217.4 201,217.4L230,206.4L155,132.4ZM167,152.4C170,154.4 170,159.4 167,162.4C164,165.4 160,165.4 157,162.4C154,159.4 154,154.4 157,152.4C160.2,149.6 164.3,149.8 167,152.4ZM189,173.4C192,176.4 192,181.4 189,184.4C186,186.4 181,186.4 178,184.4C175,181.4 175,176.4 178,173.4C181.4,170.6 186.1,170.6 189,173.4ZM141.3,184C138.4,184 135.8,184.5 133.4,185.3L210.2,262L263.4,244.8C263.4,244.8 291.8,272.4 307.4,287.5C313.4,293.4 322.3,295.2 330.2,292.3C303.1,265.5 274.9,238.3 247.4,211.4L194.4,228.5C194.4,228.5 170.2,204.3 156.2,190.4C152.2,186.3 146.9,184.1 141.3,184ZM210,194.4C213,197.4 213,202.4 210,205.4C207,208.4 202,208.4 199,205.4C197,202.4 197,197.4 199,194.4C202.4,191.6 207.1,191.6 210,194.4ZM244.2,225.7L253.7,235L213.5,247.6L204.2,238.3L244.2,225.7ZM259,257.4L229,268.4L238,277.4L311,356.4L349,319.4L331,303.4L330,304.4C319,307.4 308,304.4 299,297.4C284,281.4 259,257.4 259,257.4ZM262,270.4C265,273.4 265,278.4 262,281.4C259,284.4 254,284.4 251,281.4C248,278.4 248,273.4 251,270.4C255.3,267.7 258.1,268.4 262,270.4ZM284,292.4C287,295.4 287,300.4 284,303.4C281,306.4 277,306.4 274,303.4C271,300.4 271,295.4 274,292.4C277.3,290.5 281.1,290.5 284,292.4ZM307,315.4C310,318.4 310,323.4 307,326.4C304,328.4 299,328.4 296,326.4C293,323.4 293,318.4 296,315.4C299.4,312.6 304.1,312.6 307,315.4ZM359.7,330.9L322.4,368.2L336.5,382.3L373.8,345.1L359.7,330.9ZM385.9,357.2L348.6,394.5C367.8,413.7 363.2,450.2 363.2,450.2C363.2,450.2 374.8,432.7 398.9,408.7L399.4,408.1C423.9,383.6 441.6,371.9 441.6,371.9C441.6,371.9 405.1,376.4 385.9,357.2ZM471.4,371.7C462,371.7 435.8,391.1 409.1,417.8C378.7,448.2 358.4,477.3 363.9,482.7C369.3,488.2 398.4,467.9 428.8,437.5C459.2,407.1 479.5,378 474,372.6C473.4,372 472.6,371.7 471.4,371.7Z" style="fill:rgb(166,99,70);fill-rule:nonzero;"/>
</svg>
