<?xml version="1.0" encoding="UTF-8" standalone="no"?>
<!DOCTYPE svg PUBLIC "-//W3C//DTD SVG 1.1//EN" "http://www.w3.org/Graphics/SVG/1.1/DTD/svg11.dtd">
<svg width="100%" height="100%" viewBox="0 0 512 512" version="1.1" xmlns="http://www.w3.org/2000/svg" xmlns:xlink="http://www.w3.org/1999/xlink" xml:space="preserve" xmlns:serif="http://www.serif.com/" style="fill-rule:evenodd;clip-rule:evenodd;stroke-linejoin:round;stroke-miterlimit:2;">
    <rect x="0" y="0" width="512" height="512" style="fill-rule:nonzero;"/>
    <path d="M25,49L25,87L55,87L55,49L25,49ZM73,49L73,87L103,87L103,49L73,49ZM121,49L121,87L151,87L151,49L121,49ZM169,49L169,87L199,87L199,49L169,49ZM217,49L217,87L247,87L247,49L217,49ZM265,49L265,87L295,87L295,49L265,49ZM313,49L313,87L343,87L343,49L313,49ZM361,49L361,87L391,87L391,49L361,49ZM409,49L409,87L439,87L439,49L409,49ZM457,49L457,87L487,87L487,49L457,49ZM25,153L25,417.824C32.76,409.079 42.86,398.906 55,387.627L55,153L25,153ZM73,153L73,371.402C82.233,363.312 92.286,354.83 103,346.107L103,153L73,153ZM121,153L121,331.73C130.595,324.207 140.615,316.57 151,308.887L151,153L121,153ZM169,153L169,295.795C174.223,292.06 179.506,288.327 184.87,284.605C189.53,281.372 194.25,278.151 199,274.939L199,153L169,153ZM217,153L217,262.975C226.866,256.531 236.878,250.183 247,243.977L247,153L217,153ZM265,153L265,233.164C274.938,227.321 284.95,221.649 295,216.194L295,153L265,153ZM313,153L313,206.67C323.002,201.532 333.014,196.638 343,192.04L343,153L313,153ZM361,153L361,184.078C371.065,179.798 381.08,175.838 391,172.273L391,153L361,153ZM409,153L409,166.2C419.142,163.01 429.155,160.265 439,158.02L439,153L409,153Z" style="fill:rgb(134,98,71);fill-rule:nonzero;"/>
    <rect x="25" y="105" width="462" height="30" style="fill:rgb(60,187,110);"/>
    <path d="M487,169.24L487,191L457,191L457,172.89C467.37,170.97 477.398,169.727 487,169.24ZM439,176.8L439,207L409,207L409,185.562C419.207,182.158 429.224,179.22 439,176.8ZM391,191.967L391,223L361,223L361,204.244C371.1,199.802 381.117,195.692 391,191.967ZM343,212.477L343,255L313,255L313,227.443C323.016,222.197 333.03,217.195 343,212.477ZM295,237.133L295,287L265,287L265,254.353C274.936,248.431 284.95,242.678 295,237.133ZM247,265.31L247,319L217,319L217,284.571C226.845,278.044 236.86,271.608 247,265.31ZM199,296.734L199,351L169,351L169,317.993C177.502,311.79 186.223,305.573 195.13,299.393C196.412,298.505 197.71,297.621 199,296.734ZM151,331.354L151,383L121,383L121,354.706C130.527,347.061 140.547,339.249 151,331.354ZM103,369.44L103,431L73,431L73,395.53C82.017,387.328 92.078,378.567 103,369.44ZM55,412.52L55,463L25,463L25,448C25,449.563 25.203,447.28 27.09,444.26C28.976,441.24 32.09,437.117 36.23,432.307C41.117,426.624 47.465,419.933 55,412.52Z" style="fill:rgb(190,126,77);"/>
</svg>
