<?xml version="1.0" encoding="UTF-8" standalone="no"?>
<!DOCTYPE svg PUBLIC "-//W3C//DTD SVG 1.1//EN" "http://www.w3.org/Graphics/SVG/1.1/DTD/svg11.dtd">
<svg width="100%" height="100%" viewBox="0 0 512 512" version="1.1" xmlns="http://www.w3.org/2000/svg" xmlns:xlink="http://www.w3.org/1999/xlink" xml:space="preserve" xmlns:serif="http://www.serif.com/" style="fill-rule:evenodd;clip-rule:evenodd;stroke-linejoin:round;stroke-miterlimit:2;">
    <rect x="0" y="0" width="512" height="512" style="fill-rule:nonzero;"/>
    <path d="M439.088,50.27C295.73,49.974 -39.922,265.802 61.39,388.523C112.797,450.797 173.842,454.217 232.354,425.391L202.457,393.778C200.344,391.543 199.443,388.415 200.043,385.398C207.66,347.083 239.923,326.318 276.715,322.481C276.992,322.453 277.27,322.437 277.549,322.433C281.117,322.376 284.428,324.333 286.097,327.487L308.387,369.612C402.254,278.2 471.797,124.89 452.34,50.983C448.137,50.513 443.712,50.28 439.088,50.271L439.088,50.27ZM387.27,102.998C394.402,103.276 399.911,106.92 401.717,112.555C404.234,120.426 398.914,130.26 389.307,135.495C378.662,141.296 366.326,139.505 361.979,131.527C361.602,130.835 361.291,130.108 361.049,129.352C358.537,121.482 363.857,111.653 373.461,106.419C377.85,104.027 382.719,102.821 387.269,102.998L387.27,102.998ZM335.148,105.498C335.149,105.498 335.149,105.498 335.15,105.498C342.282,105.776 347.791,109.42 349.596,115.055C352.113,122.926 346.793,132.76 337.186,137.995C326.541,143.796 314.205,142.005 309.858,134.027C309.481,133.335 309.17,132.608 308.928,131.852C306.416,123.982 311.736,114.153 321.34,108.919C325.729,106.527 330.598,105.321 335.148,105.498ZM376.688,149.598C383.821,149.875 389.332,153.519 391.138,159.154C393.655,167.025 388.335,176.859 378.727,182.095C368.082,187.895 355.745,186.104 351.398,178.127C351.021,177.435 350.71,176.708 350.468,175.951C347.957,168.081 353.277,158.253 362.881,153.02C367.269,150.629 372.138,149.422 376.688,149.599L376.688,149.598ZM322.938,152.928C330.071,153.205 335.582,156.849 337.388,162.484C339.905,170.355 334.585,180.189 324.977,185.425C314.332,191.225 301.995,189.434 297.648,181.457C297.271,180.765 296.96,180.038 296.718,179.281C294.207,171.411 299.527,161.583 309.131,156.35C313.519,153.959 318.388,152.752 322.938,152.929L322.938,152.928ZM205.138,223.288C220.314,223.197 232.132,233.828 232.014,247.463C231.814,258.79 223.422,269.399 211.331,273.613C196.021,278.948 179.596,272.354 174.944,259.005C174.11,256.611 173.685,254.089 173.684,251.52C173.783,240.123 182.196,229.401 194.37,225.159C197.465,224.081 200.694,223.458 203.926,223.318C204.33,223.3 204.733,223.29 205.136,223.288L205.138,223.288ZM145.088,263.108C154.865,263.21 163.168,268.519 166.854,277.028C171.386,287.486 168.043,300.698 158.635,309.513C146.804,320.598 129.115,321.232 119.45,310.916C117.669,309.015 116.228,306.815 115.178,304.391C110.646,293.933 113.989,280.72 123.397,271.905C129.461,266.223 137.342,263.027 145.088,263.108ZM123.698,330.041C126.28,330.094 128.839,330.591 131.288,331.517C141.848,335.616 148.906,347.153 148.686,359.955C148.408,376.165 136.549,389.305 122.416,389.062C119.882,389.019 117.369,388.546 114.958,387.661C104.298,383.632 97.142,372.036 97.364,359.147C97.634,343.372 108.874,330.426 122.628,330.046C122.985,330.036 123.341,330.035 123.698,330.042L123.698,330.041ZM272.463,342.347C245.98,346.594 226.723,359.777 219.955,384.627L287.037,455.56C289.044,448.85 292.447,442.882 297.497,438.2C303.095,433.01 310.534,430.21 318.855,430.02L272.463,342.346L272.463,342.347ZM319.953,448.547C315.691,448.419 312.793,449.929 310.413,452.137C307.305,455.017 304.776,460.557 304.031,467.89C310.211,467.558 314.915,466.158 318.155,463.8C321.753,461.183 324.562,456.96 326.177,449.67C323.817,448.957 321.759,448.6 319.954,448.545L319.953,448.547Z" style="fill:rgb(93,89,242);fill-rule:nonzero;"/>
</svg>
