<?xml version="1.0" encoding="UTF-8" standalone="no"?>
<!DOCTYPE svg PUBLIC "-//W3C//DTD SVG 1.1//EN" "http://www.w3.org/Graphics/SVG/1.1/DTD/svg11.dtd">
<svg width="100%" height="100%" viewBox="0 0 512 512" version="1.1" xmlns="http://www.w3.org/2000/svg" xmlns:xlink="http://www.w3.org/1999/xlink" xml:space="preserve" xmlns:serif="http://www.serif.com/" style="fill-rule:evenodd;clip-rule:evenodd;stroke-linejoin:round;stroke-miterlimit:2;">
    <rect x="0" y="0" width="512" height="512" style="fill-rule:nonzero;"/>
    <g>
        <path d="M257.95,17.127C238.627,17.313 218.798,22.864 208.488,33.564L212.982,58.852L194.146,58.982L197.902,71.022L210.742,112.187C212.208,143.533 202.118,168.637 186.914,192.184C168.06,221.382 140.927,247.328 119.252,276.141C107.692,291.508 103.485,309.418 105.967,326.711C108.447,344.001 117.289,360.601 130.762,374.968C157.707,403.704 203.386,424.012 259.107,423.622C311.922,423.256 357.167,402.275 384.407,373.309C398.027,358.825 407.227,342.214 410.01,324.875C412.79,307.535 408.732,289.49 396.86,274.197L396.863,274.197C374.731,245.684 347.139,220.121 327.775,191.187C311.875,167.427 301.262,141.981 302.668,109.813L317.896,58.133L300.296,58.253L304.386,32.896C296.096,22.126 277.276,16.944 257.951,17.13L257.95,17.127ZM292.855,76.99L286.273,99.326C263.771,109.996 244.995,109.188 226.498,99.943L219.498,77.496L292.855,76.99ZM284.09,120.48C285.36,151.957 296.805,178.508 312.242,201.576C319.612,212.589 327.846,222.908 336.318,232.83C315.56,227.136 286.93,223.475 255.468,223.475C227.295,223.475 201.405,226.415 181.391,231.115C188.874,221.935 196.101,212.408 202.614,202.322C217.567,179.166 228.514,152.624 229.382,121.362C246.504,127.018 265.038,127.086 284.092,120.48L284.09,120.48ZM359.67,259.236C363.945,264.021 368.153,268.779 372.186,273.521C364.916,278.251 355.746,282.031 344.893,285.253C321.443,292.213 290.101,296.306 255.467,296.306C220.833,296.306 189.49,292.212 166.041,285.253C157.238,282.64 149.563,279.651 143.091,276.095C147.083,271.225 151.266,266.335 155.515,261.423C159.887,263.483 165.218,265.517 171.358,267.339C192.322,273.559 222.333,277.619 255.468,277.619C288.604,277.619 318.614,273.559 339.578,267.339C347.888,264.873 354.735,262.025 359.671,259.237L359.67,259.236Z" style="fill:rgb(255,249,79);fill-rule:nonzero;"/>
        <path d="M102.04,364.234L102.043,364.234C84.635,373.143 74.525,383.423 74.525,394.678C74.525,426.805 156.248,453.223 257.188,453.223C358.126,453.223 440.436,426.808 440.436,394.678C440.436,383.484 430.148,373.114 412.918,364.234C462.763,377.86 494.883,398.128 494.883,420.438C494.883,461.455 388.359,494.788 257.186,494.788C126.012,494.788 19.49,461.455 19.49,420.438C19.49,398.047 51.886,377.862 102.04,364.234Z" style="fill:rgb(255,199,42);"/>
    </g>
</svg>
