<?xml version="1.0" encoding="UTF-8" standalone="no"?>
<!DOCTYPE svg PUBLIC "-//W3C//DTD SVG 1.1//EN" "http://www.w3.org/Graphics/SVG/1.1/DTD/svg11.dtd">
<svg width="100%" height="100%" viewBox="0 0 512 512" version="1.1" xmlns="http://www.w3.org/2000/svg" xmlns:xlink="http://www.w3.org/1999/xlink" xml:space="preserve" xmlns:serif="http://www.serif.com/" style="fill-rule:evenodd;clip-rule:evenodd;stroke-linejoin:round;stroke-miterlimit:2;">
    <rect x="0" y="0" width="512" height="512" style="fill-rule:nonzero;"/>
    <path d="M103.8,54.7L103.8,71.4L174.7,71.4L174.7,54.7L103.8,54.7ZM220.5,54.7L220.5,71.4L291.5,71.4L291.5,54.7L220.5,54.7ZM337.3,54.7L337.3,71.4L408.2,71.4L408.2,54.7L337.3,54.7Z" style="fill:rgb(200,200,200);fill-rule:nonzero;"/>
    <path d="M38.47,156.4L473.5,156.4L473.5,190.8L453.8,190.8L453.8,429L473.5,429L473.5,469L38.47,469L38.47,429L58.19,429L58.19,190.8L38.47,190.8L38.47,156.4ZM83.19,190.8L83.19,311.6L428.8,311.6L428.8,190.8L83.19,190.8ZM83.19,335.5L83.19,414L428.8,414L428.8,335.5L83.19,335.5Z" style="fill:rgb(166,139,118);"/>
    <path d="M116.8,88.8L161.7,88.8L161.7,138L116.8,138L116.8,88.8ZM116.8,209.1L161.7,209.1L161.7,294.4L116.8,294.4L116.8,209.1ZM116.8,352.8L161.7,352.8L161.7,373C161.7,378.9 159.4,384.6 155.1,388.9C150.9,393.1 145.2,395.4 139.3,395.4C133.3,395.4 127.6,393.1 123.4,388.9C119.2,384.6 116.8,378.9 116.8,373L116.8,352.8Z" style="fill:rgb(208,69,69);"/>
    <path d="M233.5,88.8L278.5,88.8L278.5,138L233.5,138L233.5,88.8ZM233.5,209.1L278.5,209.1L278.5,294.4L233.5,294.4L233.5,209.1ZM233.5,352.8L278.5,352.8L278.5,373C278.5,378.9 276.1,384.6 271.9,388.9C267.7,393.1 262,395.4 256,395.4C250,395.4 244.3,393.1 240.1,388.9C235.9,384.6 233.5,378.9 233.5,373L233.5,352.8Z" style="fill:rgb(134,221,149);"/>
    <path d="M350.3,88.8L395.2,88.8L395.2,138L350.3,138L350.3,88.8ZM350.3,209.1L395.2,209.1L395.2,294.4L350.3,294.4L350.3,209.1ZM350.3,352.8L395.2,352.8L395.2,373C395.2,378.9 392.8,384.6 388.6,388.9C384.4,393.1 378.7,395.4 372.7,395.4C366.8,395.4 361.1,393.1 356.9,388.9C352.6,384.6 350.3,378.9 350.3,373L350.3,352.8Z" style="fill:rgb(102,0,255);"/>
</svg>
