<?xml version="1.0" encoding="UTF-8" standalone="no"?>
<!DOCTYPE svg PUBLIC "-//W3C//DTD SVG 1.1//EN" "http://www.w3.org/Graphics/SVG/1.1/DTD/svg11.dtd">
<svg width="100%" height="100%" viewBox="0 0 512 512" version="1.1" xmlns="http://www.w3.org/2000/svg" xmlns:xlink="http://www.w3.org/1999/xlink" xml:space="preserve" xmlns:serif="http://www.serif.com/" style="fill-rule:evenodd;clip-rule:evenodd;stroke-linejoin:round;stroke-miterlimit:2;">
    <rect x="0" y="0" width="512" height="512" style="fill-rule:nonzero;"/>
    <path d="M163.73,35.12L168.31,47.67C176.595,70.375 189.89,93.59 197.268,115.354C204.644,137.118 206.368,155.736 194.128,173C180.448,192.295 155.54,212.036 133.506,235.426C111.472,258.816 91.95,286.95 91.95,323.506C91.95,414.502 165.813,489.113 256.86,489.113C347.906,489.113 422.467,414.551 422.467,323.506C422.467,287.153 403.834,258.531 382.121,234.779C360.409,211.027 335.274,191.207 319.891,172.474C310.711,161.298 311.808,138.338 319.011,113.526C326.213,88.714 338.276,63.489 344.919,48.186L350.589,35.12L330,35.12L297.018,124.307C292.39,146.27 292.218,168.227 305.448,184.337C322.942,205.639 348.034,225.189 368.328,247.389C388.623,269.587 403.778,293.496 403.778,323.505C403.778,404.357 337.714,470.425 256.858,470.425C176.005,470.425 110.638,404.41 110.638,323.505C110.638,293.557 126.392,270.23 147.108,248.239C167.828,226.249 193.148,206.689 209.371,183.809C225.455,161.124 223.323,135.209 215.661,111.505L191.399,54.612C191.283,54.347 191.157,54.074 191.042,53.81L191.059,53.81L183.089,35.12L163.73,35.12Z" style="fill:white;fill-rule:nonzero;"/>
    <path d="M256.955,237.354L256.955,237.357C286.48,237.357 313.2,241.931 331.71,248.857C340.963,252.317 348.123,256.407 352.44,260.227C356.369,263.702 357.705,266.429 357.915,268.645L358.269,268.645C358.269,283.962 350.492,298.577 337.432,310.462C337.88,310.267 338.344,310.08 338.788,309.882C349.515,305.099 358.47,299.503 365.175,292.929C367.641,290.511 369.839,287.903 371.641,285.121C379.108,297.567 384.031,311.328 384.031,327.051C384.031,396.821 326.673,454.181 256.901,454.181C187.129,454.181 130.384,396.819 130.384,327.049C130.384,311.497 135.319,298.049 142.799,285.909C144.496,288.397 146.506,290.742 148.736,292.929C155.441,299.503 164.396,305.101 175.123,309.881C175.621,310.104 176.141,310.314 176.646,310.531C163.538,298.634 155.73,283.991 155.73,268.644L155.997,268.644C156.208,266.427 157.543,263.7 161.471,260.224C165.789,256.404 172.949,252.316 182.203,248.854C200.711,241.929 227.429,237.354 256.955,237.354Z" style="fill:rgb(255,0,132);"/>
    <path d="M196.336,18.548L316.203,18.548L281.957,111.148C266.288,116.105 251.25,116.335 235.822,111.145L196.336,18.548Z" style="fill:rgb(205,174,115);"/>
</svg>
