<?xml version="1.0" encoding="UTF-8" standalone="no"?>
<!DOCTYPE svg PUBLIC "-//W3C//DTD SVG 1.1//EN" "http://www.w3.org/Graphics/SVG/1.1/DTD/svg11.dtd">
<svg width="100%" height="100%" viewBox="0 0 512 512" version="1.1" xmlns="http://www.w3.org/2000/svg" xmlns:xlink="http://www.w3.org/1999/xlink" xml:space="preserve" xmlns:serif="http://www.serif.com/" style="fill-rule:evenodd;clip-rule:evenodd;stroke-linejoin:round;stroke-miterlimit:2;">
    <rect x="0" y="0" width="512" height="512" style="fill-rule:nonzero;"/>
    <g>
        <path d="M242.367,134.222C240.672,134.282 238.575,135.117 236.49,137.109C231.725,141.663 228.38,150.913 234.676,161.325C236.041,163.582 237.513,165.811 239.084,167.997L224.874,194.411L190.444,254.048L36.824,341.73L36.816,341.736C25.778,348.111 20.308,356.522 19.279,365.773C18.249,375.027 21.739,385.993 32.362,397.281C77.657,445.415 133.552,474.991 197.269,492.387C212.914,496.654 223.739,495.001 230.425,490.287C237.111,485.575 241.472,476.905 241.472,461.874L241.472,461.868L241.686,284.258L279.694,218.426C265.658,214.519 253.534,207.788 243.362,199.494L252.329,182.824C265.897,194.976 284.082,203.464 307.469,203.469C319.005,203.439 325.832,196.012 327.515,189.927C328.355,186.883 327.929,184.68 326.911,183.197C325.893,181.717 323.907,179.993 318.157,179.537C287.151,177.085 264.375,163.773 249.864,139.823C247.048,135.173 244.864,134.41 243.067,134.239C242.843,134.219 242.607,134.211 242.367,134.219L242.367,134.222ZM196.496,267.886L205.863,284.058L69.357,363.118L69.352,363.121C65.352,365.431 64.596,367.015 64.309,368.248C64.019,369.481 64.182,371.671 66.161,375.275C66.704,376.263 67.389,377.319 68.185,378.425L67.769,378.232C85.837,405.309 121.969,440.199 157.109,459.166C133.549,448.716 106.199,434.016 84.372,418.41C69.11,407.5 56.51,396.524 49.78,384.272C46.417,378.148 44.448,371.132 46.107,364.01C47.767,356.887 53.037,350.964 60.007,346.94L196.497,267.887L196.496,267.886ZM108.428,356.756C126.978,363.156 161.322,382.016 188.582,402.769C202.212,413.144 213.887,423.654 220.668,434.767C223.69,439.719 225.932,445.07 225.868,450.97L205.242,441.482C195.747,429.872 181.436,418.706 169.492,411.965C145.057,394.685 115.056,378.815 102.332,374.425L108.428,356.758L108.428,356.756Z" style="fill:rgb(177,245,110);fill-rule:nonzero;"/>
        <path d="M365.47,18.727C370.63,18.809 376.131,20.487 381.571,24.004C395.804,33.21 399.496,65.206 376.891,70.908C382.346,77.077 383.496,82.757 382.146,90.182C397.465,74.528 425.908,78.919 434.708,106.535C448.11,94.865 466.96,105.865 468.476,130.835C469.299,144.395 451.991,163.019 434.709,150.915C436.445,164.878 433.087,179.655 423.613,190.045C440.612,206.874 434.058,243.19 402.588,243.19C377.078,243.19 367.579,219.253 373.974,201.143C351.916,198.026 343.131,175.48 343.604,156.173C306.144,171.731 258.762,151.021 261.84,117.041C230.622,117.965 209.832,92.319 217.16,68.491C224.488,44.661 256.664,37.781 272.354,58.641C283.162,34.693 316.259,31.185 340.682,38.785L340.684,38.785C344.417,26.092 354.117,18.547 365.47,18.727ZM433.84,23.857C456.54,23.857 456.722,58.512 433.84,58.512C410.958,58.512 411.14,23.857 433.84,23.857ZM177.672,74.842C200.372,74.842 200.554,109.496 177.672,109.496C154.79,109.496 154.972,74.842 177.672,74.842ZM476.42,173.527C499.12,173.527 499.302,208.182 476.42,208.182C453.538,208.182 453.72,173.527 476.42,173.527ZM431.752,259.548C467.022,259.548 467.305,313.386 431.752,313.386C396.199,313.386 396.482,259.548 431.752,259.548Z" style="fill:rgb(225,255,0);"/>
    </g>
</svg>
