<?xml version="1.0" encoding="UTF-8" standalone="no"?>
<!DOCTYPE svg PUBLIC "-//W3C//DTD SVG 1.1//EN" "http://www.w3.org/Graphics/SVG/1.1/DTD/svg11.dtd">
<svg width="100%" height="100%" viewBox="0 0 512 512" version="1.1" xmlns="http://www.w3.org/2000/svg" xmlns:xlink="http://www.w3.org/1999/xlink" xml:space="preserve" xmlns:serif="http://www.serif.com/" style="fill-rule:evenodd;clip-rule:evenodd;stroke-linejoin:round;stroke-miterlimit:2;">
    <rect x="0" y="0" width="512" height="512" style="fill-rule:nonzero;"/>
    <path d="M258.782,257.096C258.782,257.095 258.781,257.095 258.781,257.094L258.783,257.094C258.783,257.095 258.782,257.095 258.782,257.096ZM195.97,103.22C195.31,106.12 194.416,108.483 193.22,110.156C190.536,113.906 186.187,116.75 173.72,116.75C152.18,116.75 132.916,122.612 118.563,132.844C104.21,143.076 94.656,158.242 94.656,175.344L94.656,426.75C94.656,459.09 120.911,485.375 153.25,485.375L366.72,485.375C399.058,485.375 425.312,459.089 425.312,426.75L425.312,175.344C425.312,158.242 415.785,143.144 401.719,132.906C387.652,122.669 368.889,116.75 348.279,116.75C331.589,116.75 324.659,113.262 321.405,109.562C319.995,107.958 318.975,105.864 318.249,103.219L299.124,103.219C300.197,109.877 302.494,116.356 307.374,121.905C315.484,131.128 328.897,135.435 348.28,135.435C365.258,135.435 380.336,140.443 390.72,147.999C401.1,155.555 406.625,165.099 406.625,175.343L406.625,426.75C406.625,449.105 389.075,466.688 366.719,466.688L153.25,466.688C130.895,466.688 113.344,449.105 113.344,426.75L113.344,175.344C113.344,165.099 118.799,155.624 129.406,148.064C140.013,140.501 155.626,135.438 173.719,135.438C189.681,135.438 201.775,130.296 208.405,121.031C212.309,115.576 214.138,109.486 215.03,103.221L195.97,103.221L195.97,103.22Z" style="fill:white;fill-rule:nonzero;"/>
    <path d="M367.687,337.625C376.587,348.892 380.38,360.117 377.72,373.937C370.453,374.522 362.878,375.349 355.096,376.375C336.629,373.727 316.674,370.121 296.376,365.687C322.362,357.531 346.897,348.121 367.687,337.625ZM262.063,148.625L262.065,148.625C292.787,148.625 312.332,162.097 325.532,181.937C337.739,200.28 343.694,224.415 344.532,246.875C319.155,259.238 304.613,274.855 300.127,292.438C299.274,295.776 298.809,299.113 298.657,302.438C288.644,306.775 275.499,309.311 262.564,309.313C247.971,309.315 233.761,306.009 224.751,300.875C224.612,297.912 224.173,294.937 223.439,291.97C219.15,274.632 204.628,259.795 179.595,247C180.394,223.253 186.486,199.028 198.781,180.938C212.001,161.49 231.518,148.625 262.063,148.625ZM258.782,257.096C252.415,270.341 248.403,283.595 245.063,296.844C254.211,293.418 263.353,293.822 272.501,296.844C270.031,283.598 265.057,270.343 258.782,257.096ZM258.782,257.096C258.782,257.095 258.783,257.095 258.783,257.094L258.781,257.094C258.781,257.095 258.782,257.095 258.782,257.096ZM232.188,223.5C223.03,223.5 215.626,230.905 215.626,240.062C215.626,249.22 223.031,256.656 232.188,256.656C241.346,256.656 248.781,249.22 248.781,240.063C248.781,236.24 247.485,232.723 245.31,229.922C242.273,226.013 237.523,223.5 232.188,223.5ZM287.625,223.5C278.467,223.5 271.061,230.905 271.061,240.062C271.061,249.22 278.466,256.656 287.624,256.656C296.781,256.656 304.219,249.22 304.219,240.063C304.219,230.905 296.783,223.5 287.625,223.5ZM221.751,320.563C233.794,325.936 248.117,328.159 262.564,328.157C275.89,328.156 289.367,326.197 301.314,321.781C303.246,327.981 306.108,334.017 309.658,339.781C300.316,346.618 282.408,351.974 263.438,352.188C244.143,352.404 224.493,347.584 212.563,339.594C216.466,333.342 219.615,326.984 221.751,320.563ZM151.095,337.624C213.586,369.17 309.951,391.04 377.721,397.907C380.269,412.017 376.911,423.521 367.751,434.687C305.259,405.857 209.99,379.477 141.065,373.937C138.401,360.117 142.195,348.892 151.095,337.624ZM163.939,395.156C182.897,397.82 203.412,401.776 224.282,406.688C197.607,415.239 172.407,424.826 151.032,434.686C141.874,423.521 138.514,412.016 141.064,397.906C148.379,397.166 156.035,396.24 163.939,395.156Z" style="fill:rgb(46,144,82);"/>
    <rect x="181.78" y="33" width="149.407" height="51.53" style="fill:rgb(164,106,106);"/>
</svg>
