<?xml version="1.0" encoding="UTF-8" standalone="no"?>
<!DOCTYPE svg PUBLIC "-//W3C//DTD SVG 1.1//EN" "http://www.w3.org/Graphics/SVG/1.1/DTD/svg11.dtd">
<svg width="100%" height="100%" viewBox="0 0 512 512" version="1.1" xmlns="http://www.w3.org/2000/svg" xmlns:xlink="http://www.w3.org/1999/xlink" xml:space="preserve" xmlns:serif="http://www.serif.com/" style="fill-rule:evenodd;clip-rule:evenodd;stroke-linejoin:round;stroke-miterlimit:2;">
    <rect x="0" y="0" width="512" height="512" style="fill-rule:nonzero;"/>
    <path d="M61.395,120.89L61.725,120.56L18.998,96.96L94.055,21.9L117.922,64.417L118.515,63.824L127.99,80.776L127.426,81.339L153.606,127.974L125.692,155.889L78.755,129.966L78.335,130.385L61.395,120.89Z" style="fill:rgb(144,112,112);"/>
    <path d="M141.279,67.498L141.281,67.497L141.279,67.498L127.99,80.776L118.515,63.824L136.51,45.847L144.95,37.415L209.859,144.951C280.047,104.558 371.028,114.25 430.943,174.128C502.548,245.694 502.526,361.761 430.906,433.348C359.287,504.935 243.155,504.954 171.55,433.348C111.63,373.46 101.907,282.538 142.35,212.39L34.745,147.512L61.395,120.89L78.335,130.385L64.861,143.846L168.191,206.146L162.928,214.25C155.253,226.065 149.25,238.636 144.91,251.633C145.2,251.498 145.495,251.362 145.794,251.227L140.831,269.15C140.614,269.028 140.402,268.907 140.192,268.785L140.191,268.783C138.916,274.652 137.971,280.576 137.346,286.528C147.036,291.134 159.366,294.984 174.036,298.304C207.24,305.817 252.304,310.341 302.106,310.341C351.906,310.341 396.971,305.817 430.176,298.304C444.046,295.165 455.818,291.549 465.25,287.272C464.657,281.356 463.74,275.466 462.504,269.629C462.22,269.781 461.93,269.933 461.633,270.085L456.539,250.424C456.8,250.535 457.059,250.646 457.314,250.758C450.156,229.729 438.606,209.845 422.664,192.505C413.602,205.871 386.907,215.555 355.377,215.555C316.389,215.555 284.783,200.75 284.783,182.48C284.783,164.214 316.389,149.407 355.377,149.407C356.552,149.407 357.72,149.421 358.88,149.447C310.728,131.481 255.924,136.862 211.714,165.525L203.616,170.773L141.279,67.498Z" style="fill:white;"/>
    <path d="M145.794,251.227C153.639,247.678 164.597,244.183 177.803,241.195C209.187,234.094 253.35,229.58 302.107,229.58C350.865,229.58 395.029,234.095 426.412,241.195C438.618,243.958 448.859,247.153 456.539,250.424L461.633,270.085C453.707,274.155 441.532,278.24 426.41,281.662C395.027,288.763 350.863,293.277 302.105,293.277C253.348,293.277 209.184,288.762 177.801,281.662C162.108,278.112 149.588,273.845 141.698,269.625C141.402,269.467 141.113,269.308 140.831,269.15L145.794,251.227Z" style="fill:rgb(195,85,127);"/>
</svg>
