<?xml version="1.0" encoding="UTF-8" standalone="no"?>
<!DOCTYPE svg PUBLIC "-//W3C//DTD SVG 1.1//EN" "http://www.w3.org/Graphics/SVG/1.1/DTD/svg11.dtd">
<svg width="100%" height="100%" viewBox="0 0 512 512" version="1.1" xmlns="http://www.w3.org/2000/svg" xmlns:xlink="http://www.w3.org/1999/xlink" xml:space="preserve" xmlns:serif="http://www.serif.com/" style="fill-rule:evenodd;clip-rule:evenodd;stroke-linejoin:round;stroke-miterlimit:2;">
    <rect x="0" y="0" width="512" height="512" style="fill-rule:nonzero;"/>
    <rect x="169" y="21" width="174" height="62" style="fill:rgb(198,192,140);fill-rule:nonzero;"/>
    <path d="M186.4,103L325.6,103L328.1,108C330.4,112.8 339.3,120.7 351.5,128.4C363.8,136.1 379.2,144 394.2,152.1C409.3,160.1 424.1,168.2 435.6,176.8C447.2,185.4 457,194.8 457,208L457,436C457,456.5 441.9,471 426.5,479.8C411,488.6 395,493 384,493L128,493C117,493 101,488.6 85.54,479.8C70.09,471 55,456.5 55,436L55,208C55,194.8 64.82,185.4 76.38,176.8C87.93,168.2 102.7,160.1 117.8,152.1C132.8,144 148.2,136.1 160.5,128.4C172.7,120.7 181.6,112.8 183.9,108L186.4,103ZM224,272L224,320L176,320L176,384L224,384L224,432L288,432L288,384L336,384L336,320L288,320L288,272L224,272ZM197,121C190.9,129.7 181.2,136.6 170,143.6C156.8,151.9 141.2,160 126.2,167.9C111.3,175.9 97.07,183.8 87.12,191.2C77.18,198.6 73,205.2 73,208L439,208C439,205.2 434.8,198.6 424.9,191.2C414.9,183.8 400.7,175.9 385.8,167.9C370.8,160 355.2,151.9 342,143.6C330.8,136.6 321.1,129.7 315,121L197,121Z" style="fill:rgb(207,70,55);"/>
</svg>
