<?xml version="1.0" encoding="UTF-8" standalone="no"?>
<!DOCTYPE svg PUBLIC "-//W3C//DTD SVG 1.1//EN" "http://www.w3.org/Graphics/SVG/1.1/DTD/svg11.dtd">
<svg width="100%" height="100%" viewBox="0 0 512 512" version="1.1" xmlns="http://www.w3.org/2000/svg" xmlns:xlink="http://www.w3.org/1999/xlink" xml:space="preserve" xmlns:serif="http://www.serif.com/" style="fill-rule:evenodd;clip-rule:evenodd;stroke-linejoin:round;stroke-miterlimit:2;">
    <rect x="0" y="0" width="512" height="512" style="fill-rule:nonzero;"/>
    <g>
        <path d="M290.22,92.78C254.818,92.92 219.413,102.346 187.97,121.03L166.188,98.375L152.938,111.595L179.594,139.313L184.938,144.875L191.438,140.687C233.438,113.457 284.058,105.157 331.281,115.844C316.043,114.649 304.136,118.221 299.157,126.844C291.304,140.446 302.977,162.628 326.127,181.938L314.407,189.968L315.563,205.344C304.046,203.039 292.08,201.814 279.783,201.814C190.02,201.814 117.251,266.704 117.251,346.781C117.251,348.528 117.307,350.271 117.376,352.001C99.973,300.069 106.633,241.953 137.314,194.721L141.47,188.345L136.03,182.97L108.594,155.97L95.374,169.188L117.719,191.188C71.602,268.556 81.779,369.841 148.312,436.344C226.962,514.994 354.492,514.974 433.155,436.344C511.818,357.714 511.832,230.27 433.185,151.656C393.702,112.198 341.957,92.576 290.218,92.781L290.22,92.78ZM430.906,176.78C443.568,191.847 453.406,208.45 460.436,225.906L450.22,221L427.062,236.844L428.437,254.781L400.281,241.221L381.376,280.564C376.398,276.824 370.703,274.036 364.563,272.439L383.438,233.126L373.72,228.438C368.545,225.164 363.13,222.163 357.53,219.438L364.97,214.345L364.28,205.47C395.992,219.417 425.45,219.72 434.094,204.75C438.362,197.357 436.874,187.405 430.906,176.78ZM327.376,226.156L309.03,238.72L333.656,274.78C327.826,277.288 322.604,280.895 318.25,285.344L293.625,249.281L268.937,266.157L267.469,246.657L263.374,244.687C273.586,238.717 284.807,233.984 296.874,230.751C307.079,228.017 317.309,226.516 327.374,226.157L327.376,226.156ZM471.376,265.5C475.489,291.594 473.906,318.386 466.626,343.938L458.25,339.906L445.656,348.531L443.594,321.471L400.314,324.751C400.684,321.684 400.774,318.536 400.531,315.345C400.291,312.163 399.735,309.062 398.907,306.095L442.157,302.815L439.657,269.907L454.501,277.063L471.376,265.501L471.376,265.5ZM224.156,279.813L246.436,290.531L258.844,282.064L261.438,316.564L304.813,313.251C304.443,316.307 304.353,319.446 304.593,322.626C304.836,325.811 305.39,328.906 306.219,331.876L262.874,335.189L265.28,367.095L251.625,360.501L228.469,376.345L230.593,404.375L255.873,416.563L279.03,400.72L277.75,383.687L304.844,396.75L323.75,357.406C328.728,361.149 334.422,363.93 340.563,365.531L321.688,404.845L349.563,418.282L337.375,426.627L339.5,454.657L353.875,461.565C287.361,477.015 221.117,440.613 204.5,378.595C195.148,343.693 203.45,307.939 224.156,279.815L224.156,279.813ZM351.876,289.563C352.381,289.546 352.876,289.551 353.376,289.563C368.359,289.923 380.746,301.458 381.906,316.75C383.146,333.062 371.094,347.074 354.781,348.313C338.471,349.551 324.458,337.529 323.221,321.219C321.981,304.909 334.035,290.894 350.345,289.655C350.855,289.617 351.37,289.578 351.875,289.561L351.876,289.563ZM386.844,352.656L411.438,388.626L436.281,371.594L437.221,383.781L447.126,388.564C439.646,400.86 430.589,412.48 419.938,423.126C410.078,432.982 399.388,441.486 388.095,448.626C387.992,448.682 387.885,448.726 387.782,448.782L385.815,422.94L371.438,416L396.031,399.187L371.439,363.219C377.272,360.712 382.487,357.106 386.845,352.655L386.844,352.656Z" style="fill:rgb(130,160,254);fill-rule:nonzero;"/>
        <path d="M95.218,24.532L101.812,31.407L107.969,37.813L35.469,110.281L29.032,103.938L22.312,97.312L29,90.656L88.47,31.25L95.218,24.532ZM137.656,34.5L170.624,67.468L67.22,170.876L34.25,137.906L137.656,34.5Z" style="fill:rgb(154,144,90);"/>
    </g>
</svg>
