<?xml version="1.0" encoding="UTF-8" standalone="no"?>
<!DOCTYPE svg PUBLIC "-//W3C//DTD SVG 1.1//EN" "http://www.w3.org/Graphics/SVG/1.1/DTD/svg11.dtd">
<svg width="100%" height="100%" viewBox="0 0 512 512" version="1.1" xmlns="http://www.w3.org/2000/svg" xmlns:xlink="http://www.w3.org/1999/xlink" xml:space="preserve" xmlns:serif="http://www.serif.com/" style="fill-rule:evenodd;clip-rule:evenodd;stroke-linejoin:round;stroke-miterlimit:2;">
    <rect x="0" y="0" width="512" height="512" style="fill-rule:nonzero;"/>
    <g>
        <path d="M414.874,20.626L414.872,20.624L414.875,20.625L414.874,20.626ZM219.22,88.875C218.07,88.875 216.93,88.888 215.78,88.905C165.418,89.723 115.348,109.335 76.906,147.75C-1.739,226.364 -1.724,353.808 76.936,432.438C155.601,511.068 283.131,511.088 361.781,432.438C428.311,365.938 438.483,264.648 392.376,187.281L414.751,165.281L401.531,152.063L374.064,179.063L368.626,184.407L372.782,190.813C402.425,236.447 409.647,292.253 394.408,342.813C377.642,341.631 362.815,328.033 358.283,308.813C355.248,295.916 356.779,282.007 362.941,271.657C323.417,287.95 311.494,317.099 321.128,361.47C283.125,366.815 287.188,318.404 263.003,303.5C261.256,344.35 213.903,372.37 189.973,343.72C166.423,315.533 193.893,275.962 228.973,283.28C194.341,254.618 163.273,257.247 131.441,287.906C136.411,259.41 147.255,240.949 167.034,230.626C102.417,235.333 56.08,279.655 41.376,332C27.334,272.535 43.558,207.487 90.096,160.97C116.612,134.47 149.166,117.804 183.282,110.97C181.644,113.01 180.472,115.295 179.814,117.75C174.597,137.223 204.068,162.02 245.627,173.156C287.187,184.292 325.097,177.536 330.315,158.062C331.867,152.267 330.31,145.99 326.315,139.75L330.502,135.406L357.158,107.686L343.908,94.436L322.096,117.126C290.464,98.334 254.829,88.904 219.221,88.876L219.22,88.875ZM249,209.03C229.21,209.34 205.682,219.87 182.687,243.53C234.363,227.815 276.267,232.903 295.781,285.75C306.681,240.183 284.529,209.63 250.907,209.03C250.277,209.02 249.639,209.02 249.001,209.03L249,209.03Z" style="fill:rgb(217,89,89);fill-rule:nonzero;"/>
        <path d="M414.874,20.626L421.622,27.344L481.092,86.75L487.78,93.406L481.06,100L474.595,106.345L402.125,33.875L408.28,27.5L414.874,20.626ZM372.438,30.625L475.813,134L442.874,166.97L339.47,63.563L372.438,30.625Z" style="fill:rgb(154,144,90);"/>
    </g>
</svg>
