<?xml version="1.0" encoding="UTF-8" standalone="no"?>
<!DOCTYPE svg PUBLIC "-//W3C//DTD SVG 1.1//EN" "http://www.w3.org/Graphics/SVG/1.1/DTD/svg11.dtd">
<svg width="100%" height="100%" viewBox="0 0 512 512" version="1.1" xmlns="http://www.w3.org/2000/svg" xmlns:xlink="http://www.w3.org/1999/xlink" xml:space="preserve" xmlns:serif="http://www.serif.com/" style="fill-rule:evenodd;clip-rule:evenodd;stroke-linejoin:round;stroke-miterlimit:2;">
    <rect x="0" y="0" width="512" height="512" style="fill-rule:nonzero;"/>
    <path d="M128.1,44.86C132.9,44.82 137.9,46.59 142.6,51.68C154.2,65.31 143.5,77.94 139.7,81.9C138.8,82.67 138.5,83.04 138.5,83.04L101.6,120.1L110.5,129L119.7,119.5C133.2,135 186.9,187.7 200.7,198.6C200.7,198.6 211.2,192.3 218.6,194.2C182.1,162.6 145.1,122.5 131.9,107.6L146.7,92.95C165.2,114 210.1,164.5 240.9,187C254,194.4 266.5,199.6 282.3,199.6C364,191 385.7,167.1 393.3,175.2C467,249.1 485,337.8 485,337.8L411.3,411.4L337.8,484.9C337.8,484.9 248.9,467.2 175.2,393.4C166.9,385.9 190.8,364.2 199.5,282.4C199.5,266.7 194.2,254.2 186.9,241C158.1,201.4 82.95,138.5 82.95,138.5C82.95,138.5 82.56,139.1 81.79,139.8C77.84,143.7 65.21,154.4 51.58,142.5C36.79,129 50.04,112.9 54.39,108.4L108.3,54.48C111.3,51.64 119.2,44.96 128.1,44.86ZM250.9,208.5C243.9,208.7 233.1,215.9 224.5,224.6C213.3,235.5 204.6,250.4 210.2,255.8C215.7,261.3 230.3,252.5 241.3,241.5C252.4,230.4 261.2,215.7 255.7,210.2C254.5,209 252.9,208.5 250.9,208.5ZM386.7,190.3C348,206.3 296.6,220.8 267.7,213.7L267.3,213.6L267.5,214C272.7,227.6 250.3,249.8 250,250.1C249.6,250.5 227.4,272.8 213.7,267.5L213.4,267.4L213.6,267.8C220.8,296.9 206.2,348.2 190.1,386.7L190.1,387C212.5,407.9 236.5,425.3 262.1,438.9C285.6,451.7 310.2,460.9 335,466.8L335.2,466.8L466.6,335.2C460.8,310.2 451.5,285.6 439,262.2C425.2,236.8 407.7,212.7 386.8,190.3L386.7,190.3Z" style="fill:white;fill-rule:nonzero;"/>
    <path d="M331.6,305.1C343,305.4 359.2,316.6 352.7,318.2C336.3,321.1 317.8,319.9 322.8,309.3C324.6,306.2 327.8,305.1 331.6,305.1ZM312.6,322.1C319.9,322.5 320.5,338.5 318.1,352.8C315.9,361.4 296.7,329.9 309.1,322.9C310.4,322.3 311.6,322 312.6,322.1ZM410.1,302.1C421.7,301.9 427.8,305.9 427.8,305.9C452.9,317 457.6,345 410.8,363C397.3,368.1 389.8,369.6 379.7,379.7C369.4,389.9 368,397.3 362.8,410.9C344.9,457.7 317,453 305.7,428C305.7,428 285.2,395.6 340.6,340.5C371.6,309.4 395.3,302.3 410.1,302.1ZM256.8,295.7C271.7,296 288.1,313.1 291.1,332.7C295.5,360 285.1,402.4 261.1,391.1C246,384.2 222.3,350.7 236.7,311.2C241.6,300.1 249,295.6 256.8,295.7ZM335.9,232.5C364,232.4 385.6,249.4 391.1,261.2C402.3,285.2 359.9,295.6 332.6,291.2C302.7,286.6 278.6,251.1 311,237C319.7,233.8 328,232.5 335.9,232.5Z" style="fill:rgb(101,149,101);"/>
    <path d="M81.03,27.05L98.53,46.31L46.22,98.54L26.97,81.14L54,54.09L81.03,27.05Z" style="fill:rgb(175,106,106);"/>
</svg>
