<?xml version="1.0" encoding="UTF-8" standalone="no"?>
<!DOCTYPE svg PUBLIC "-//W3C//DTD SVG 1.1//EN" "http://www.w3.org/Graphics/SVG/1.1/DTD/svg11.dtd">
<svg width="100%" height="100%" viewBox="0 0 512 512" version="1.1" xmlns="http://www.w3.org/2000/svg" xmlns:xlink="http://www.w3.org/1999/xlink" xml:space="preserve" xmlns:serif="http://www.serif.com/" style="fill-rule:evenodd;clip-rule:evenodd;stroke-linejoin:round;stroke-miterlimit:2;">
    <rect x="0" y="0" width="512" height="512" style="fill-rule:nonzero;"/>
    <g>
        <path d="M253.655,89.813L246.812,115.281L228.437,110.345C185.657,98.881 141.364,123.841 129.875,166.72L80,352.843C68.51,395.723 94.12,440.075 137,451.563L280.438,489.999C323.318,501.489 367.068,475.623 378.531,432.843L428.407,246.687C439.869,203.907 414.655,160.247 371.877,148.78L371.877,148.75L352.845,143.656L359.657,118.219L341.627,113.374L332.377,147.874L329.97,156.874L330.094,156.904C320.261,185.792 386.487,253.112 412.406,221.594C412.824,228.206 412.208,235.031 410.376,241.874L407.626,252.094L361.906,252.094C371.786,265.881 375.819,284.587 369.562,305.249C360.249,336.005 333.342,350.529 306.875,363.374C280.408,376.22 253.445,388.174 236.595,411.344L222.687,430.5L219.78,407C216.235,378.44 197.912,355.277 181,331.187C172.544,319.143 164.492,306.897 159.594,293.219C155.107,280.689 153.509,266.785 157.031,252.093L126.345,252.093L147.939,171.53C156.809,138.425 190.419,119.476 223.626,128.375L251.032,135.719L260.032,138.155L262.472,129.125L271.722,94.655L253.658,89.811L253.655,89.813Z" style="fill:rgb(251,199,243);fill-rule:nonzero;"/>
        <path d="M217.47,220.188C218.031,220.178 218.597,220.177 219.157,220.187C237.114,220.508 254.563,231.308 260.471,256.812L264.281,273.187L276.188,261.343C293.246,244.373 315.894,242.806 332.344,250.843C348.795,258.881 359.195,275.053 351.688,299.843C344.8,322.589 324.618,333.976 298.688,346.563C277.621,356.786 253.464,367.416 234.094,386.126C226.04,360.236 209.649,339.434 196.312,320.436C188.115,308.761 181.061,297.723 177.187,286.906C173.314,276.088 172.323,265.708 176.03,253.438C182.763,231.164 200.068,220.538 217.47,220.188Z" style="fill:rgb(255,0,103);"/>
        <path d="M252.875,24.25L394.063,62.126L382.563,105.031L241.345,67.156L252.875,24.25Z" style="fill:rgb(154,144,90);"/>
    </g>
</svg>
