<?xml version="1.0" encoding="UTF-8" standalone="no"?>
<!DOCTYPE svg PUBLIC "-//W3C//DTD SVG 1.1//EN" "http://www.w3.org/Graphics/SVG/1.1/DTD/svg11.dtd">
<svg width="100%" height="100%" viewBox="0 0 512 512" version="1.1" xmlns="http://www.w3.org/2000/svg" xmlns:xlink="http://www.w3.org/1999/xlink" xml:space="preserve" xmlns:serif="http://www.serif.com/" style="fill-rule:evenodd;clip-rule:evenodd;stroke-linejoin:round;stroke-miterlimit:2;">
    <rect x="0" y="0" width="512" height="512" style="fill-rule:nonzero;"/>
    <g>
        <path d="M406.657,484.75L407.001,494.5L397.251,494.436L84.721,492.156L75.159,492.094L75.439,482.53C75.438,482.552 75.439,482.551 75.439,482.53C75.441,482.281 75.49,479.204 75.502,475.185C75.515,470.822 75.522,464.785 75.532,457.655C75.556,443.399 75.578,424.737 75.596,406.062C75.628,368.711 75.626,331.287 75.626,329.249C75.627,291.127 94.391,261.763 117.471,237.593C140.549,213.421 168.187,193.512 188.439,173.187C198.4,163.189 202.552,151.863 203.532,139.469C204.513,127.072 201.984,113.714 197.937,101.469C189.847,76.977 176.187,57.655 176.187,57.655L165.657,42.875L190.656,42.875C188.995,36.16 187.524,28.946 186.22,21.25L293.315,21.25C292.019,28.951 290.524,36.163 288.877,42.875L321.407,42.875L305.877,58.437C304.902,59.712 290.88,78.235 281.877,101.75C277.215,113.926 274.106,127.15 274.689,139.25C275.273,151.35 279.132,162.196 289.097,171.813C310.114,192.098 338.837,211.918 362.847,236.22C386.854,260.52 406.377,290.28 406.377,329.25C406.377,331.662 406.39,369.458 406.44,407.188C406.464,426.052 406.499,444.933 406.532,459.376C406.549,466.596 406.575,472.702 406.595,477.156C406.613,481.344 406.658,484.555 406.657,484.75C406.657,484.762 406.658,484.763 406.657,484.75ZM217,99.78L216.999,99.782C220.842,112.542 223.32,126.621 222.185,140.938C220.929,156.828 214.893,173.089 201.655,186.376C179.779,208.331 152.386,228.069 130.969,250.501C109.55,272.933 94.312,297.156 94.312,329.251C94.312,331.401 94.315,368.708 94.28,406.064C94.264,424.741 94.243,443.423 94.22,457.689C94.208,464.135 94.201,469.291 94.188,473.531L387.907,475.686C387.89,471.343 387.861,466.001 387.845,459.406C387.811,444.95 387.775,426.087 387.751,407.22C387.702,369.482 387.688,331.8 387.688,329.25C387.688,296.417 371.845,271.899 349.565,249.344C327.281,226.79 298.787,207.183 276.095,185.28L276.095,185.25C262.617,172.241 256.795,155.983 256.031,140.156C255.356,126.134 258.31,112.366 262.656,99.844C248.15,115.36 231.52,115.302 217,99.78Z" style="fill:white;fill-rule:nonzero;"/>
        <path d="M275.5,277.625L285.187,277.624C293.67,279.739 299.845,287.272 299.845,296.469C299.845,307.337 291.215,315.969 280.345,315.969C269.472,315.969 260.875,307.339 260.875,296.469C260.875,287.273 267.025,279.74 275.5,277.625ZM211.344,338.188C220.164,338.188 227.094,345.118 227.094,353.938C227.094,362.758 220.164,369.718 211.344,369.718C202.524,369.718 195.564,362.758 195.564,353.938C195.564,345.118 202.524,338.188 211.344,338.188ZM304.31,367C319.744,367 332.06,379.317 332.06,394.75C332.06,410.18 319.743,422.5 304.31,422.5C288.877,422.5 276.56,410.183 276.56,394.75C276.56,379.317 288.877,367 304.31,367Z" style="fill:rgb(140,129,129);"/>
        <path d="M251.47,198.562L251.47,198.564C268.776,198.564 283,212.786 283,230.094C283,247.401 268.776,261.624 251.468,261.624C234.161,261.624 219.938,247.401 219.938,230.094C219.938,212.786 234.16,198.562 251.47,198.562ZM251.47,217.25L251.468,217.25C244.26,217.25 238.624,222.886 238.624,230.094C238.624,237.301 244.259,242.938 251.469,242.938C258.676,242.938 264.313,237.301 264.313,230.094C264.313,222.886 258.676,217.25 251.47,217.25ZM131.5,277.625L131.5,277.623L247.218,277.623C244.03,283.191 242.188,289.63 242.188,296.468C242.188,317.438 259.374,334.655 280.344,334.655C301.315,334.655 318.53,317.437 318.53,296.469C318.53,289.632 316.693,283.193 313.5,277.625L350.5,277.625C361.116,292.475 368.626,309.235 368.626,329.625C368.626,336.263 368.852,451.791 369.156,458.155L113.062,454.345C113.264,449.191 113.406,334.948 113.406,329.625C113.406,309.208 120.885,292.575 131.5,277.625ZM211.344,319.5C192.425,319.5 176.875,335.018 176.875,353.936C176.875,372.856 192.425,388.406 211.345,388.406C230.265,388.406 245.781,372.856 245.781,353.938C245.781,335.018 230.265,319.5 211.344,319.5ZM304.313,348.313C278.781,348.313 257.875,369.218 257.875,394.75C257.875,420.282 278.78,441.188 304.312,441.188C329.845,441.188 350.75,420.28 350.75,394.75C350.75,369.218 329.843,348.313 304.313,348.313Z" style="fill:rgb(255,198,0);"/>
    </g>
</svg>
