<?xml version="1.0" encoding="UTF-8" standalone="no"?>
<!DOCTYPE svg PUBLIC "-//W3C//DTD SVG 1.1//EN" "http://www.w3.org/Graphics/SVG/1.1/DTD/svg11.dtd">
<svg width="100%" height="100%" viewBox="0 0 512 512" version="1.1" xmlns="http://www.w3.org/2000/svg" xmlns:xlink="http://www.w3.org/1999/xlink" xml:space="preserve" xmlns:serif="http://www.serif.com/" style="fill-rule:evenodd;clip-rule:evenodd;stroke-linejoin:round;stroke-miterlimit:2;">
    <rect x="0" y="0" width="512" height="512" style="fill-rule:nonzero;"/>
    <path d="M317,92.7L388.4,143.1L337,230C359.2,257.1 372.6,291.8 372.6,329.6C372.6,416 302.1,487 215.3,487C128.5,487 58.05,416 58.05,329.6C58.05,242.8 128.5,172.3 215.3,172.3C226.2,172.3 236.8,173.4 247.1,175.5L317,92.7ZM324.4,131.7L281.8,210.9C263.2,200.8 241.9,195 219.3,195C147.3,195 88.75,253.5 88.75,325.6C88.75,397.6 147.3,456 219.3,456C291.4,456 349.9,397.6 349.9,325.6C349.9,287.4 333.5,253.1 307.4,229.2L353.9,151.2L324.4,131.7Z" style="fill:white;fill-rule:nonzero;"/>
    <path d="M292.9,312.2C306.1,312.4 316.9,317.3 323.9,330.5C321.3,386 275.4,430 219.3,430C161.6,430 114.7,383.4 114.6,325.7C166.7,370.5 245.6,311.5 292.9,312.2ZM281.4,335.5C274.8,335.7 267.3,338.7 260.8,344.3C249.4,354.3 245.7,368.8 252.6,376.7C259.5,384.6 274.4,382.9 285.8,372.9C297.3,362.9 301,348.4 294.1,340.5C291.1,337 286.5,335.4 281.4,335.5ZM224.9,384.6C216.5,384.6 209.7,388.7 208.8,394.7C207.8,402 215.1,408 225,410C235,411 243.8,407 244.8,400C245.8,393.1 238.5,386.4 228.6,384.9C227.3,384.7 226.1,384.6 224.9,384.6Z" style="fill:rgb(0,255,182);"/>
    <path d="M381.7,27L431.2,62.2L416.7,82.5L367.2,47.4L381.7,27ZM324.3,39.3L435.6,115.5L421.5,136.2L310.2,60L324.3,39.3Z" style="fill:rgb(164,146,96);"/>
</svg>
