<?xml version="1.0" encoding="UTF-8" standalone="no"?>
<!DOCTYPE svg PUBLIC "-//W3C//DTD SVG 1.1//EN" "http://www.w3.org/Graphics/SVG/1.1/DTD/svg11.dtd">
<svg width="100%" height="100%" viewBox="0 0 512 512" version="1.1" xmlns="http://www.w3.org/2000/svg" xmlns:xlink="http://www.w3.org/1999/xlink" xml:space="preserve" xmlns:serif="http://www.serif.com/" style="fill-rule:evenodd;clip-rule:evenodd;stroke-linejoin:round;stroke-miterlimit:2;">
    <rect x="0" y="0" width="512" height="512" style="fill-rule:nonzero;"/>
    <g>
        <path d="M200.8,125.7C156.2,138.9 116,170 107.5,228.3C108.9,226.9 110.3,225.7 111.9,224.4C120.9,217.4 132.6,211.8 146.9,207C175.5,197.5 213.7,191.9 256,191.9C298.3,191.9 336.5,197.5 365.1,207C379.4,211.8 391.1,217.4 400.1,224.4C401.7,225.7 403.1,226.9 404.5,228.3C396,170 355.8,138.9 311.2,125.7C275.7,149.3 236.7,149.8 200.8,125.7Z" style="fill:rgb(204,204,204);fill-rule:nonzero;"/>
        <path d="M256,210.7C296.6,210.7 333.3,216.2 359.2,224.8C372.1,229.1 382.2,234.2 388.4,239.2C394.7,244.1 396.7,248.2 396.7,251.3C396.7,254.4 394.7,258.5 388.4,263.4C382.2,268.4 372.1,273.5 359.2,277.8C333.3,286.4 296.6,291.9 256,291.9C215.4,291.9 178.7,286.4 152.8,277.8C139.9,273.5 129.8,268.4 123.6,263.4C117.3,258.5 115.3,254.4 115.3,251.3C115.3,248.2 117.3,244.1 123.6,239.2C129.8,234.2 139.9,229.1 152.8,224.8C178.7,216.2 215.4,210.7 256,210.7Z" style="fill:rgb(230,88,88);"/>
        <path d="M106.1,272.9C107.8,274.7 109.8,276.5 111.9,278.2C120.7,285.1 132.4,290.7 146.5,295.5C145.5,351.4 149.5,383 156.5,403.5C163.8,424.6 174.9,433.7 182.6,441.4L196,428C187,419.1 180.2,414.9 174.3,397.5C168.7,381 164.6,352.7 165.1,300.8C191,307 222.1,310.7 256,310.7C298.3,310.7 336.5,305.1 365.1,295.6C379.4,290.8 391.1,285.2 400.1,278.2C402.2,276.5 404.2,274.7 405.9,272.9C404.3,423.8 383.4,484.7 256,484.7C128.6,484.7 107.7,423.8 106.1,272.9Z" style="fill:rgb(186,138,138);"/>
        <path d="M256,27.28C268.5,27.28 279.9,29.95 287.2,33.62C294.6,37.29 296.6,41.08 296.6,42.91C296.6,44.75 294.6,48.54 287.2,52.21C279.9,55.87 268.5,58.54 256,58.54C243.5,58.54 232.1,55.87 224.8,52.21C217.4,48.54 215.4,44.75 215.4,42.91C215.4,41.08 217.4,37.29 224.8,33.62C232.1,29.95 243.5,27.28 256,27.28Z" style="fill:rgb(154,144,90);"/>
        <path d="M196.6,42.09L196.6,42.91C196.6,49.96 199.7,55.86 204.5,60.64C185.4,60.79 171.4,63.81 162.9,67.62C154.3,71.5 152.8,75.21 152.8,76.26C152.8,77.3 154.3,81.01 162.9,84.89C171.6,88.76 186.1,91.89 206,91.89L206,110.6C184.2,110.6 167.4,107.5 155.2,102C143,96.47 134.1,87.72 134.1,76.26C134.1,64.79 143,56 155.2,50.51C165.7,45.84 179.3,42.87 196.6,42.09ZM215.4,68.43C215.7,68.62 216.1,68.81 216.4,68.98C227.2,74.36 240.9,77.3 256,77.3C271.1,77.3 284.8,74.36 295.6,68.98C295.9,68.81 296.3,68.62 296.6,68.43L296.6,112.6C268.9,129.5 243.4,129.8 215.4,112.6L215.4,68.43Z" style="fill:rgb(163,163,163);"/>
    </g>
</svg>
