<?xml version="1.0" encoding="UTF-8" standalone="no"?>
<!DOCTYPE svg PUBLIC "-//W3C//DTD SVG 1.1//EN" "http://www.w3.org/Graphics/SVG/1.1/DTD/svg11.dtd">
<svg width="100%" height="100%" viewBox="0 0 512 512" version="1.1" xmlns="http://www.w3.org/2000/svg" xmlns:xlink="http://www.w3.org/1999/xlink" xml:space="preserve" xmlns:serif="http://www.serif.com/" style="fill-rule:evenodd;clip-rule:evenodd;stroke-linejoin:round;stroke-miterlimit:2;">
    <rect x="0" y="0" width="512" height="512" style="fill-rule:nonzero;"/>
    <g>
        <path d="M234.72,26.594C233.967,26.586 233.206,26.604 232.438,26.624C227.348,26.771 221.89,27.594 216.063,29.156C153.901,45.816 177.139,119.018 202.093,123.876C207.056,124.84 217.193,153.649 207.5,171.844L102.25,200.03L130.313,304.78C125.653,323.736 95.703,326.568 78.875,312.78C65.835,302.088 9.892,322.183 24.095,375.188C38.295,428.192 100.702,408.371 104.845,387.094C105.861,381.849 133.355,362.362 150.25,379.25L178.375,484.188L292.969,453.468C322.429,439.028 298.693,417.618 278.593,410.031C262.693,404.044 252.039,345.121 305.437,330.814C310.442,329.472 315.113,328.844 319.437,328.782C361.227,328.172 371.432,382.298 356.499,395.282C352.364,398.877 343.103,438.472 372.343,432.158L377.655,430.658C376.728,430.981 375.833,431.258 374.968,431.502L493.154,399.846L462.81,286.533C448.432,268.395 420.625,281.61 413.123,301.533C407.13,317.443 362.435,326.051 348.123,272.659C333.811,219.269 380.607,211.667 397.373,225.659C411.633,237.564 448.578,237.466 437.748,195.189L443.186,213.284L417.029,115.691L278.279,152.879C259.169,144.394 252.367,121.424 267.874,108.441C295.506,85.308 282.074,27.068 234.718,26.598L234.72,26.594ZM372.344,432.156L368.5,433.25L374.78,431.562C373.943,431.795 373.127,431.987 372.344,432.156ZM435.781,188.594C436.556,190.882 437.217,193.076 437.751,195.156L435.781,188.594Z" style="fill:rgb(177,174,137);fill-rule:nonzero;"/>
    </g>
</svg>
