<?xml version="1.0" encoding="UTF-8" standalone="no"?>
<!DOCTYPE svg PUBLIC "-//W3C//DTD SVG 1.1//EN" "http://www.w3.org/Graphics/SVG/1.1/DTD/svg11.dtd">
<svg width="100%" height="100%" viewBox="0 0 512 512" version="1.1" xmlns="http://www.w3.org/2000/svg" xmlns:xlink="http://www.w3.org/1999/xlink" xml:space="preserve" xmlns:serif="http://www.serif.com/" style="fill-rule:evenodd;clip-rule:evenodd;stroke-linejoin:round;stroke-miterlimit:2;">
    <rect x="0" y="0" width="512" height="512" style="fill-rule:nonzero;"/>
    <g>
        <path d="M64.874,210.253L64.873,210.251L64.875,210.25L64.874,210.253ZM348.125,20.78L206.375,41.125L229.563,80.219C255.203,78.639 276.043,89.897 285.188,105.719C290.138,114.283 291.414,125.226 286.125,134.219C282.659,140.109 276.81,144.402 269.375,147.312L286.781,176.592L334.345,169.592L340.407,168.718L343.627,173.904C358.625,197.884 378.063,205.497 385.657,204.279C389.455,203.671 390.559,202.859 391.407,198.843C392.255,194.825 391.307,186.491 385.001,174.813L378.657,163.093L391.877,161.155L427.532,155.905L348.126,20.78L348.125,20.78ZM95.25,89.656L71.344,184.562L103,237.875L105.28,241.688L103.72,245.875C95.582,267.882 101.316,293.34 110.094,306.813C114.482,313.549 119.441,316.313 120.844,316.438C121.544,316.5 121.671,316.588 122.75,315.688C123.83,314.788 125.616,312.53 127.28,308.281L134.187,290.689L143.969,306.845L184.312,373.315L278.905,359.407L303.905,259.001L209,272.313L202.812,273.188L199.656,267.781L95.25,89.657L95.25,89.656Z" style="fill:rgb(165,83,140);fill-rule:nonzero;"/>
        <path d="M64.874,210.253L84.843,243.907C76.465,271.181 82.775,299.103 94.435,317.001C100.588,326.443 108.395,334.068 119.155,335.031C124.535,335.514 130.351,333.673 134.719,330.031C135.045,329.759 135.312,329.413 135.625,329.125L168.125,382.72L148.53,460.5L45.78,285.97L64.874,210.253ZM437.75,173.281L445.5,186.5L467.812,227.843L440.656,335.623L415.25,339.373C414.925,330.319 412.568,322.348 408.125,316.123C401.745,307.185 391.33,302.312 380.75,302.685C360.995,303.382 341.904,320.577 334,351.31L298.906,356.469L325.936,247.845L326.874,244.125L324.904,240.813L297.094,194L331.345,188.939C348.495,213.593 369.975,225.709 388.625,222.719C398.595,221.121 407.46,213.239 409.688,202.689C411.257,195.251 410.15,186.975 406.78,177.845L437.75,173.281Z" style="fill:rgb(219,113,113);"/>
        <path d="M188.095,43.75L186.657,44.594L216.437,94.75L219.625,100.125L225.812,99.22C247.703,96.078 263.97,106.393 269,115.095C271.515,119.446 271.482,122.284 270.03,124.751C268.58,127.218 264.27,130.771 253.75,132.283L239.906,134.283L247.062,146.313L302.845,240.281L212.625,252.938L99.845,60.5L97.625,56.72L188.095,43.75ZM381.405,321.376C386.256,321.205 390.006,322.937 392.906,327.001C395.807,331.065 397.831,338.081 396.093,348.781L394.063,361.375L406.688,359.53L435.688,355.25L410.5,455.22L160.064,491.155L161.094,487.125L185.062,392.062L342.875,368.906L349.438,367.938L350.688,361.405C356.307,331.96 371.705,321.717 381.405,321.376Z" style="fill:rgb(119,118,228);"/>
    </g>
</svg>
