<?xml version="1.0" encoding="UTF-8" standalone="no"?>
<!DOCTYPE svg PUBLIC "-//W3C//DTD SVG 1.1//EN" "http://www.w3.org/Graphics/SVG/1.1/DTD/svg11.dtd">
<svg width="100%" height="100%" viewBox="0 0 512 512" version="1.1" xmlns="http://www.w3.org/2000/svg" xmlns:xlink="http://www.w3.org/1999/xlink" xml:space="preserve" xmlns:serif="http://www.serif.com/" style="fill-rule:evenodd;clip-rule:evenodd;stroke-linejoin:round;stroke-miterlimit:2;">
    <rect x="0" y="0" width="512" height="512" style="fill-rule:nonzero;"/>
    <g>
        <path d="M86.218,66.78L86.22,66.781C122.986,72.144 159.732,75.391 196.5,76.874L252.718,209.095L309.188,76.221C345.82,74.411 382.461,71.155 419.094,66.781C419.094,110.71 417.606,154.803 413.03,196.625L286.717,250.25L393.937,295.75C376.667,352.787 348.229,399.129 302.187,425.313L252.719,308.938L204.529,422.313C162.487,394.718 134.153,348.98 115.779,293.28L217.123,250.25L94.186,195.937C88.538,154.476 86.218,110.69 86.218,66.78Z" style="fill:rgb(86,155,222);fill-rule:nonzero;"/>
        <path d="M460.407,22.125L460.407,32.626C460.407,135.729 453.866,239.996 425.031,324.221C396.199,408.446 343.623,473.276 254.031,492.376L251.814,492.846L249.594,492.252C167.915,469.807 115.998,405.217 85.25,321.847C54.502,238.475 44,135.687 44,32.627L44,23.282L54,23.282L54.688,23.405C186.22,42.595 317.931,39.133 449.936,23.375L460.407,22.125ZM441.626,43.031C392.974,48.598 344.281,52.472 295.563,54.156L252.72,154.938L210.125,54.75C161.062,53.67 111.969,50.054 62.845,43.344C63.267,100.036 67.062,156.267 75.657,208.53L169.314,249.906L92.126,282.686C95.371,293.914 98.895,304.834 102.781,315.374C126.204,378.881 160.968,428.694 211.781,456.811L252.531,360.969L294.374,459.344C350.327,433.112 385.13,383.046 407.344,318.156C411,307.478 414.263,296.405 417.22,285L334.531,249.906L431.813,208.626C438.873,156.083 441.361,99.614 441.626,43.031Z" style="fill:rgb(142,142,142);"/>
    </g>
</svg>
