<?xml version="1.0" encoding="UTF-8" standalone="no"?>
<!DOCTYPE svg PUBLIC "-//W3C//DTD SVG 1.1//EN" "http://www.w3.org/Graphics/SVG/1.1/DTD/svg11.dtd">
<svg width="100%" height="100%" viewBox="0 0 512 512" version="1.1" xmlns="http://www.w3.org/2000/svg" xmlns:xlink="http://www.w3.org/1999/xlink" xml:space="preserve" xmlns:serif="http://www.serif.com/" style="fill-rule:evenodd;clip-rule:evenodd;stroke-linejoin:round;stroke-miterlimit:2;">
    <rect x="0" y="0" width="512" height="512" style="fill-rule:nonzero;"/>
    <path d="M256,124L283.512,192.78C300.772,189.068 321.55,182.15 352,172C352,204 368,220 384,236C384,252 320,268 304,268C290.827,259.218 281.28,252.862 273.354,248.9C277.81,277.441 293.35,337.35 320,364C288,380 272,396 256,412C240,396 224,380 192,364C218.65,337.35 234.19,277.441 238.646,248.9C230.72,252.862 221.173,259.218 208,268C192,268 128,252 128,236C144,220 160,204 160,172C190.45,182.15 211.228,189.067 228.488,192.78L256,124Z" style="fill:rgb(255,215,0);fill-rule:nonzero;"/>
    <path d="M256,20C320,116 384,108 448,124C448,380 384,444 256,492C128,444 64,380 64,124C128,108 192,116 256,20ZM84,132C79.063,132 75,136.063 75,141C75,145.937 79.063,150 84,150C88.937,150 93,145.937 93,141C93,136.063 88.937,132 84,132ZM256,52C251.063,52 247,56.063 247,61C247,65.937 251.063,70 256,70C260.937,70 265,65.937 265,61C265,56.063 260.937,52 256,52ZM256.291,82.152L254.439,84.156C214.576,126.774 159.421,145.766 101.998,154.574C104.864,222.144 108.748,291.949 137.813,353.967C158.425,397.614 199.221,428.386 242.869,446.233C249.414,448.245 256.525,453.266 263.111,448.693C280.148,440.805 297.543,433.442 312.995,422.578C341.105,404.036 364.68,377.894 377.365,346.434C404.158,286.337 406.997,219.528 409.68,154.688C407.436,153.238 403.548,153.914 400.816,152.73C353.097,142.189 305.08,131.687 270.131,96.302C265.346,91.757 260.729,87.037 256.291,82.152ZM428,132C423.063,132 419,136.063 419,141C419,145.937 423.063,150 428,150C432.937,150 437,145.937 437,141C437,136.063 432.937,132 428,132ZM96,282C91.063,282 87,286.063 87,291C87,295.937 91.063,300 96,300C100.937,300 105,295.937 105,291C105,286.063 100.937,282 96,282ZM416,282C411.063,282 407,286.063 407,291C407,295.937 411.063,300 416,300C420.937,300 425,295.937 425,291C425,286.063 420.937,282 416,282ZM160,410C155.063,410 151,414.063 151,419C151,423.937 155.063,428 160,428C164.937,428 169,423.937 169,419C169,414.063 164.937,410 160,410ZM352,410C347.063,410 343,414.063 343,419C343,423.937 347.063,428 352,428C356.937,428 361,423.937 361,419C361,414.063 356.937,410 352,410ZM256,460C251.063,460 247,464.063 247,469C247,473.937 251.063,478 256,478C260.937,478 265,473.937 265,469C265,464.063 260.937,460 256,460Z" style="fill:rgb(158,157,157);"/>
</svg>
