<?xml version="1.0" encoding="UTF-8" standalone="no"?>
<!DOCTYPE svg PUBLIC "-//W3C//DTD SVG 1.1//EN" "http://www.w3.org/Graphics/SVG/1.1/DTD/svg11.dtd">
<svg width="100%" height="100%" viewBox="0 0 512 512" version="1.1" xmlns="http://www.w3.org/2000/svg" xmlns:xlink="http://www.w3.org/1999/xlink" xml:space="preserve" xmlns:serif="http://www.serif.com/" style="fill-rule:evenodd;clip-rule:evenodd;stroke-linejoin:round;stroke-miterlimit:2;">
    <rect x="0" y="0" width="512" height="512" style="fill-rule:nonzero;"/>
    <path d="M181.7,97.4L205.9,97.4C227.1,107.9 241,114.1 256,114.1C271,114.1 284.9,107.9 306.1,97.4L330.3,97.4C322.5,172.9 359.2,228.2 401.7,261.8C400.2,269.6 394.3,282.1 384.5,295.9C372.9,312.1 356.9,330.2 339.8,347.3C322.7,364.4 304.6,380.5 288.8,392.9C274.9,403.7 262.7,411.5 256,414.5C249.3,411.5 237.1,403.7 223.2,392.9C207.5,380.5 189.3,364.4 172.2,347.3C155.2,330.2 139.1,312.1 127.6,295.9C117.8,282.1 111.9,269.6 110.4,261.8C152.8,228.2 189.6,172.9 181.7,97.4ZM256,123.7L249.6,130L211.3,168.4L256,213.1L300.7,168.4L256,123.7ZM256,235.7L249.6,242L179.3,312.4L256,389.1L332.7,312.4L256,235.7Z" style="fill:rgb(104,104,104);fill-rule:nonzero;"/>
    <path d="M111.9,33.4L158,33.4C222.8,65.14 289.2,65.14 354,33.4L400.1,33.4C375.3,78.44 376.3,121.4 391.7,157.9C408,196.5 439.2,228.3 470.6,252.5C468.8,264.9 459.5,284.3 444.4,305.4C427.6,329.1 404.4,355.3 379.6,380C354.9,404.8 328.6,428.1 305.7,446.1C284.6,462.6 266.1,474.3 256,478.6C245.9,474.3 227.4,462.6 206.3,446.1C183.4,428.1 157.1,404.8 132.4,380C107.6,355.3 84.4,329.1 67.59,305.4C52.54,284.3 43.19,264.9 41.39,252.5C72.83,228.3 104,196.5 120.3,157.9C135.7,121.4 136.7,78.44 111.9,33.4ZM161.1,79.4L162.7,89.79C174.7,166.3 137.7,218.9 95.3,250.8L91.71,253.5L91.71,258C91.71,273.2 100.5,288.9 112.9,306.3C125.3,323.8 141.9,342.4 159.5,360C177.1,377.6 195.7,394.1 212.1,407C228.6,420 242.1,429.3 253.2,432.9L256,433.9L258.8,432.9C269.9,429.3 283.4,420 299.9,407C316.4,394.1 335,377.6 352.6,360C370.1,342.4 386.7,323.8 399.1,306.3C411.5,288.9 420.4,273.2 420.4,258L420.4,253.5L416.8,250.8C374.3,218.9 337.4,166.3 349.3,89.78L350.9,79.4L301.9,79.4L300,80.35C277.9,91.36 266.3,96.1 256,96.1C245.7,96.1 234.1,91.36 212,80.35L210.1,79.4L161.1,79.4Z" style="fill:rgb(156,156,156);"/>
    <path d="M256,149.1L275.3,168.4L256,187.7L236.7,168.4L256,149.1ZM256,261.1L307.3,312.4L256,363.7L204.7,312.4L256,261.1Z" style="fill:rgb(255,163,0);"/>
</svg>
