<?xml version="1.0" encoding="UTF-8" standalone="no"?>
<!DOCTYPE svg PUBLIC "-//W3C//DTD SVG 1.1//EN" "http://www.w3.org/Graphics/SVG/1.1/DTD/svg11.dtd">
<svg width="100%" height="100%" viewBox="0 0 512 512" version="1.1" xmlns="http://www.w3.org/2000/svg" xmlns:xlink="http://www.w3.org/1999/xlink" xml:space="preserve" xmlns:serif="http://www.serif.com/" style="fill-rule:evenodd;clip-rule:evenodd;stroke-linejoin:round;stroke-miterlimit:2;">
    <rect x="0" y="0" width="512" height="512" style="fill-rule:nonzero;"/>
    <g>
        <path d="M258.72,142.281C298.304,142.281 330.22,174.231 330.22,213.937C330.22,253.645 298.304,285.625 258.72,285.625C219.133,285.625 187.22,253.644 187.22,213.937C187.22,174.23 219.133,142.281 258.72,142.281ZM258.72,167.905L258.719,167.907C233.446,167.907 212.779,188.612 212.779,213.907C212.779,239.2 233.446,259.937 258.719,259.937C283.99,259.937 304.656,239.2 304.656,213.905C304.656,188.612 283.99,167.905 258.72,167.905Z" style="fill:rgb(77,0,255);fill-rule:nonzero;"/>
        <path d="M46.188,19.22C111.931,29.125 180.014,34.327 248.281,34.75L248.281,55.688C180.355,60.14 124.045,107.652 106.281,171.188C90.254,181.666 74.414,193.814 58.844,207.688L58.812,207.72C48.983,150.957 46.188,88.28 46.188,19.22ZM467.751,19.219C467.751,87.415 465.141,149.219 455.781,205.219C441.189,192.437 426.31,181.067 411.187,171.187C393.237,106.96 335.876,59.094 266.97,55.53L266.97,34.72C334.62,34.272 402.245,29.154 467.751,19.219ZM61.938,224.376C76.551,237.14 91.498,248.413 106.688,258.156C124.905,320.96 180.881,367.8 248.281,372.22L248.281,488.155C135.367,420.762 84.148,333.996 61.938,224.376ZM451.562,227.781C429.306,335.161 378.504,420.198 266.969,487.22L266.969,372.376C335.362,368.838 392.382,321.639 410.782,258.126C424.652,249.239 438.252,239.113 451.562,227.781Z" style="fill:rgb(141,111,80);"/>
        <path d="M258.717,74L258.72,74C315.382,74.001 364.04,107.671 385.938,156.187C345.139,134.291 302.911,122.861 260.344,122.563C217.082,122.258 173.712,133.465 131.437,156.188C153.34,107.663 202.051,74.001 258.717,74ZM385.405,272.846C363.26,320.746 314.925,353.906 258.719,353.906C202.519,353.906 154.159,320.764 131.999,272.876C173.681,294.681 216.869,305.478 259.969,305.251C302.533,305.025 344.835,294.046 385.405,272.846Z" style="fill:rgb(146,70,201);"/>
        <path d="M194.781,150.312C178.568,166.659 168.531,189.148 168.531,213.936C168.531,238.893 178.688,261.526 195.095,277.906C155.728,267.134 116.772,246.223 79.375,214.656C117.24,182.584 155.951,161.352 194.781,150.312ZM322.72,150.375C361.931,161.557 400.641,182.999 438.063,214.687C401.031,245.925 362.046,267 322.376,277.875C338.763,261.498 348.906,238.878 348.906,213.938C348.906,189.18 338.896,166.715 322.72,150.375Z" style="fill:white;"/>
        <path d="M258.72,186.594C273.868,186.594 285.97,198.69 285.97,213.906C285.97,229.122 273.868,241.25 258.72,241.25C243.57,241.25 231.47,229.122 231.47,213.905C231.47,198.69 243.57,186.594 258.72,186.594Z" style="fill:rgb(92,125,199);"/>
    </g>
</svg>
