<?xml version="1.0" encoding="UTF-8" standalone="no"?>
<!DOCTYPE svg PUBLIC "-//W3C//DTD SVG 1.1//EN" "http://www.w3.org/Graphics/SVG/1.1/DTD/svg11.dtd">
<svg width="100%" height="100%" viewBox="0 0 512 512" version="1.1" xmlns="http://www.w3.org/2000/svg" xmlns:xlink="http://www.w3.org/1999/xlink" xml:space="preserve" xmlns:serif="http://www.serif.com/" style="fill-rule:evenodd;clip-rule:evenodd;stroke-linejoin:round;stroke-miterlimit:2;">
    <rect x="0" y="0" width="512" height="512" style="fill-rule:nonzero;"/>
    <path d="M256,233C268.81,233 279,243.19 279,256C279,268.81 268.81,279 256,279C243.19,279 233,268.81 233,256C233,243.19 243.19,233 256,233ZM135.404,233L170.023,233C168.055,240.34 167,248.05 167,256C167,263.95 168.054,271.66 170.024,279L135.404,279C134.648,276.886 133.68,274.892 132.414,273.17C129.464,269.157 125.718,266.544 121.91,264.27C117.336,261.54 112.351,259.067 106.986,256C112.352,252.933 117.336,250.46 121.91,247.73C125.718,245.456 129.464,242.843 132.414,238.83C133.68,237.108 134.648,235.114 135.404,233ZM341.977,233L376.57,233C377.293,235.052 378.205,236.988 379.378,238.662C382.143,242.614 385.624,245.232 389.008,247.488C393.292,250.344 397.641,252.848 402.014,256C397.641,259.152 393.292,261.656 389.007,264.512C385.624,266.768 382.143,269.386 379.377,273.338C378.205,275.012 377.293,276.948 376.57,279L341.977,279C343.945,271.66 345,263.95 345,256C345,248.05 343.945,240.34 341.977,233Z" style="fill:rgb(121,121,121);fill-rule:nonzero;"/>
    <path d="M297,61.227C313.142,64.6 328.56,69.923 343,76.943L343,215L334.965,215C326.51,198.792 313.208,185.491 297,177.035L297,61.227ZM151,86.885L151,215L119,215L119,224C119,226.5 118.636,227.183 117.91,228.17C117.186,229.157 115.579,230.544 112.686,232.27C110.64,233.492 108.02,234.846 105,236.45L105,126.307C118.203,110.945 133.716,97.629 151,86.885ZM361,86.885C378.284,97.629 393.797,110.943 407,126.306L407,237.529C403.878,235.535 401.11,233.924 398.993,232.512C396.376,230.768 394.857,229.386 394.123,228.338C393.39,227.29 393,226.5 393,224L393,215L361,215L361,86.885ZM256,57C263.78,57 271.453,57.46 279,58.326L279,170.023C271.66,168.055 263.95,167 256,167C248.05,167 240.34,168.055 233,170.023L233,58.326C240.547,57.46 248.22,57 256,57ZM215,61.227L215,177.035C198.792,185.49 185.491,198.792 177.035,215L169,215L169,76.943C183.44,69.923 198.858,64.6 215,61.227ZM87,150.815L87.003,150.816L87.003,247.34C86.351,247.803 85.696,248.276 85.033,248.766L75.26,256L85.03,263.234C85.693,263.724 86.348,264.197 87,264.66L87,361.184C67.99,330.676 57,294.64 57,256C57,217.362 67.99,181.326 87,150.815ZM425,150.815C444.01,181.323 455,217.36 455,256C455,294.639 444.01,330.676 425,361.184L425,259.727L428.73,256L425,252.273L425,150.815ZM407,274.47L407,385.693C393.797,401.055 378.284,414.371 361,425.115L361,297L393,297L393,288C393,285.5 393.39,284.712 394.122,283.662C394.857,282.614 396.376,281.232 398.992,279.488C401.11,278.076 403.878,276.465 407,274.47ZM105,275.55C108.019,277.154 110.64,278.508 112.686,279.73C115.58,281.456 117.185,282.843 117.91,283.83C118.636,284.817 119,285.5 119,288L119,297L151,297L151,425.115C133.716,414.371 118.203,401.056 105,385.693L105,275.55ZM169,297L177.035,297C185.49,313.208 198.792,326.509 215,334.965L215,450.773C198.858,447.4 183.44,442.077 169,435.057L169,297ZM334.965,297L343,297L343,435.057C328.56,442.077 313.142,447.4 297,450.773L297,334.965C313.208,326.51 326.509,313.208 334.965,297ZM233,341.977C240.34,343.945 248.05,345 256,345C263.95,345 271.66,343.945 279,341.977L279,453.674C271.453,454.54 263.78,455 256,455C248.22,455 240.547,454.54 233,453.674L233,341.977Z" style="fill:rgb(132,98,71);"/>
    <path d="M256,25C383.684,25 487,128.316 487,256C487,383.684 383.684,487 256,487C128.316,487 25,383.684 25,256C25,128.316 128.316,25 256,25ZM256,39C136.26,39 39,136.26 39,256C39,375.74 136.26,473 256,473C375.74,473 473,375.74 473,256C473,136.26 375.74,39 256,39ZM256,185C295.32,185 327,216.68 327,256C327,295.32 295.32,327 256,327C216.68,327 185,295.32 185,256C185,216.68 216.68,185 256,185ZM256,215C233.463,215 215,233.463 215,256C215,278.537 233.463,297 256,297C278.537,297 297,278.537 297,256C297,233.463 278.537,215 256,215Z" style="fill:rgb(211,211,211);"/>
</svg>
