<?xml version="1.0" encoding="UTF-8" standalone="no"?>
<!DOCTYPE svg PUBLIC "-//W3C//DTD SVG 1.1//EN" "http://www.w3.org/Graphics/SVG/1.1/DTD/svg11.dtd">
<svg width="100%" height="100%" viewBox="0 0 512 512" version="1.1" xmlns="http://www.w3.org/2000/svg" xmlns:xlink="http://www.w3.org/1999/xlink" xml:space="preserve" xmlns:serif="http://www.serif.com/" style="fill-rule:evenodd;clip-rule:evenodd;stroke-linejoin:round;stroke-miterlimit:2;">
    <rect x="0" y="0" width="512" height="512" style="fill-rule:nonzero;"/>
    <g>
        <path d="M255.31,17.707C210.816,17.31 166,23.734 127.038,36.57L120.618,38.686L120.618,99.664L44.155,141.486L45.695,148.352C71.59,263.93 141.305,377.095 251.135,481.916L257.608,488.094L264.06,481.894C370.945,379.166 438.893,267.838 463.43,152.12L464.818,145.568L387.676,99.748L387.676,42.072L381.676,39.772C343.984,25.324 299.806,18.104 255.311,17.707L255.31,17.707ZM244.8,36.77L244.8,100.412L192.47,130.912L139.307,100.268L139.307,52.378C145.267,50.564 151.389,48.918 157.625,47.414C156.035,51.486 155.152,55.912 155.152,60.547C155.152,80.504 171.332,96.682 191.289,96.682C211.245,96.682 227.423,80.504 227.423,60.547C227.423,51.973 224.43,44.1 219.44,37.904C227.854,37.276 236.323,36.899 244.8,36.771L244.8,36.77ZM263.49,36.89C271.71,37.125 279.895,37.61 288.004,38.328C283.216,44.458 280.354,52.168 280.354,60.548C280.354,80.504 296.534,96.682 316.49,96.682C336.447,96.682 352.627,80.504 352.627,60.547C352.627,56.667 352.007,52.937 350.877,49.434C357.071,51.154 363.125,53.041 368.987,55.117L368.987,100.381L316.533,130.618L263.49,99.706L263.49,36.89ZM352.318,131.56C348.27,137.728 345.908,145.1 345.908,153.03C345.908,174.672 363.454,192.22 385.098,192.22C406.741,192.22 424.288,174.672 424.288,153.03C424.288,149.325 423.761,145.746 422.801,142.35L443.621,154.715C433.011,201.475 414.974,247.669 389.711,292.98L389.711,244.383L326.601,207.603L326.601,146.387L352.319,131.561L352.318,131.56ZM157.948,132.584L182.708,146.857L182.708,208.311L120.814,244.384L120.814,288.772C95.154,243.366 76.702,197.312 65.614,151.052L87.996,138.812C86.276,143.222 85.324,148.012 85.324,153.032C85.324,174.674 102.87,192.222 124.514,192.222C146.157,192.222 163.704,174.674 163.704,153.032C163.704,145.538 161.597,138.539 157.949,132.586L157.948,132.584ZM223.182,134.644C220.954,139.337 219.702,144.584 219.702,150.124C219.702,170.08 235.882,186.258 255.838,186.258C275.795,186.258 291.975,170.08 291.975,150.123C291.975,145.245 291.002,140.595 289.25,136.35L307.094,146.748L307.094,208.788L255.262,238.996L201.596,207.719L201.596,147.224L223.182,134.644ZM161.436,242.34C159.316,246.977 158.123,252.13 158.123,257.56C158.123,277.798 174.53,294.205 194.768,294.205C215.005,294.205 231.412,277.798 231.412,257.561C231.412,253.351 230.695,249.311 229.389,245.548L245.817,255.124L245.817,311.159L188,344.814L188,386.424C170.068,364.418 153.9,342.172 139.502,319.742L139.502,255.122L161.436,242.34ZM285.258,243.146C283.363,247.571 282.308,252.442 282.308,257.561C282.308,277.799 298.715,294.206 318.953,294.206C339.191,294.206 355.598,277.799 355.598,257.562C355.598,253.075 354.788,248.778 353.312,244.805L371.022,255.125L371.022,324.248C356.969,346.311 341.187,368.146 323.689,389.711L323.689,344.815L264.706,310.483L264.706,255.123L285.256,243.147L285.258,243.146ZM227.698,343.33C225.206,347.98 223.788,353.292 223.788,358.938C223.788,377.208 238.601,392.02 256.871,392.02C275.141,392.02 289.954,377.208 289.954,358.938C289.954,353.962 288.848,349.248 286.88,345.014L305,355.56L305,411.883C290.238,428.783 274.44,445.51 257.56,462.041C239.408,444.396 222.462,426.541 206.687,408.515L206.687,355.56L227.699,343.33L227.698,343.33Z" style="fill:url(#_Linear1);fill-rule:nonzero;"/>
    </g>
    <defs>
        <linearGradient id="_Linear1" x1="0" y1="0" x2="1" y2="0" gradientUnits="userSpaceOnUse" gradientTransform="matrix(420.663,0,0,470.404,44.155,252.892)"><stop offset="0" style="stop-color:rgb(93,230,200);stop-opacity:1"/><stop offset="1" style="stop-color:rgb(119,102,200);stop-opacity:1"/></linearGradient>
    </defs>
</svg>
