<?xml version="1.0" encoding="UTF-8" standalone="no"?>
<!DOCTYPE svg PUBLIC "-//W3C//DTD SVG 1.1//EN" "http://www.w3.org/Graphics/SVG/1.1/DTD/svg11.dtd">
<svg width="100%" height="100%" viewBox="0 0 512 512" version="1.1" xmlns="http://www.w3.org/2000/svg" xmlns:xlink="http://www.w3.org/1999/xlink" xml:space="preserve" xmlns:serif="http://www.serif.com/" style="fill-rule:evenodd;clip-rule:evenodd;stroke-linejoin:round;stroke-miterlimit:2;">
    <rect x="0" y="0" width="512" height="512" style="fill-rule:nonzero;"/>
    <path d="M104.8,26.28C88.09,26.28 72.16,32.18 58.94,41.68C25.09,65.78 8.537,116.5 40.26,159.6C65.23,193.6 54.41,238 28.57,263L41.41,276.4C73.38,245.5 86.5,190.8 55.41,148.5C29.47,113.3 42.97,75.78 69.44,56.78C82.68,47.38 99.21,43.08 115.6,46.28C131.2,49.38 147.2,59.48 161.6,80.88L102.5,115.1L126.6,157C77.2,220.4 68.15,310.1 110.7,384.1C166.7,481.3 290.6,514.6 387.5,458.5C484.4,402.4 517.5,278.1 461.5,180.9C419,107 337.3,69.98 258,81.08L233.8,39.08L177.8,71.58C161,46.18 140.3,31.78 119.1,27.58C114.3,26.68 109.5,26.28 104.8,26.28ZM288,112L272,256L400,240L240,448L304,288L192,320L288,112Z" style="fill:rgb(234,187,85);fill-rule:nonzero;"/>
</svg>
