<?xml version="1.0" encoding="UTF-8" standalone="no"?>
<!DOCTYPE svg PUBLIC "-//W3C//DTD SVG 1.1//EN" "http://www.w3.org/Graphics/SVG/1.1/DTD/svg11.dtd">
<svg width="100%" height="100%" viewBox="0 0 512 512" version="1.1" xmlns="http://www.w3.org/2000/svg" xmlns:xlink="http://www.w3.org/1999/xlink" xml:space="preserve" xmlns:serif="http://www.serif.com/" style="fill-rule:evenodd;clip-rule:evenodd;stroke-linejoin:round;stroke-miterlimit:2;">
    <rect x="0" y="0" width="512" height="512" style="fill-rule:nonzero;"/>
    <g>
        <path d="M256,50C234.4,50 217,67.35 217,89C217,110.6 234.4,128 256,128C277.6,128 295,110.6 295,89C295,67.35 277.6,50 256,50ZM208,139C186.4,139 169,156.4 169,178C169,199.6 186.4,217 208,217C229.6,217 247,199.6 247,178C247,156.4 229.6,139 208,139ZM304,139C282.4,139 265,156.4 265,178C265,199.6 282.4,217 304,217C325.6,217 343,199.6 343,178C343,156.4 325.6,139 304,139ZM160,229C138.4,229 121,246.4 121,268C121,289.6 138.4,307 160,307C181.6,307 199,289.6 199,268C199,246.4 181.6,229 160,229ZM256,229C234.4,229 217,246.4 217,268C217,289.6 234.4,307 256,307C277.6,307 295,289.6 295,268C295,246.4 277.6,229 256,229ZM352,229C330.4,229 313,246.4 313,268C313,289.6 330.4,307 352,307C373.6,307 391,289.6 391,268C391,246.4 373.6,229 352,229ZM112,318.4C90.35,318.4 73,335.8 73,357.4C73,379 90.35,396.4 112,396.4C133.6,396.4 151,379 151,357.4C151,335.8 133.6,318.4 112,318.4ZM208,318.4C186.4,318.4 169,335.8 169,357.4C169,379 186.4,396.4 208,396.4C229.6,396.4 247,379 247,357.4C247,335.8 229.6,318.4 208,318.4ZM304,318.4C282.4,318.4 265,335.8 265,357.4C265,379 282.4,396.4 304,396.4C325.6,396.4 343,379 343,357.4C343,335.8 325.6,318.4 304,318.4ZM400,318.4C378.4,318.4 361,335.8 361,357.4C361,379 378.4,396.4 400,396.4C421.6,396.4 439,379 439,357.4C439,335.8 421.6,318.4 400,318.4ZM64,409C42.35,409 25,426.4 25,448C25,469.6 42.35,487 64,487C85.65,487 103,469.6 103,448C103,426.4 85.65,409 64,409ZM160,409C138.4,409 121,426.4 121,448C121,469.6 138.4,487 160,487C181.6,487 199,469.6 199,448C199,426.4 181.6,409 160,409ZM256,409C234.4,409 217,426.4 217,448C217,469.6 234.4,487 256,487C277.6,487 295,469.6 295,448C295,426.4 277.6,409 256,409ZM352,409C330.4,409 313,426.4 313,448C313,469.6 330.4,487 352,487C373.6,487 391,469.6 391,448C391,426.4 373.6,409 352,409ZM448,409C426.4,409 409,426.4 409,448C409,469.6 426.4,487 448,487C469.6,487 487,469.6 487,448C487,426.4 469.6,409 448,409Z" style="fill:url(#_Linear1);fill-rule:nonzero;"/>
    </g>
    <defs>
        <linearGradient id="_Linear1" x1="0" y1="0" x2="1" y2="0" gradientUnits="userSpaceOnUse" gradientTransform="matrix(462,0,0,437,25,268.5)"><stop offset="0" style="stop-color:rgb(191,190,190);stop-opacity:1"/><stop offset="1" style="stop-color:rgb(101,101,101);stop-opacity:1"/></linearGradient>
    </defs>
</svg>
