<?xml version="1.0" encoding="UTF-8" standalone="no"?>
<!DOCTYPE svg PUBLIC "-//W3C//DTD SVG 1.1//EN" "http://www.w3.org/Graphics/SVG/1.1/DTD/svg11.dtd">
<svg width="100%" height="100%" viewBox="0 0 512 512" version="1.1" xmlns="http://www.w3.org/2000/svg" xmlns:xlink="http://www.w3.org/1999/xlink" xml:space="preserve" xmlns:serif="http://www.serif.com/" style="fill-rule:evenodd;clip-rule:evenodd;stroke-linejoin:round;stroke-miterlimit:2;">
    <rect x="0" y="0" width="512" height="512" style="fill-rule:nonzero;"/>
    <g>
        <path d="M482.2,66.37C419.4,88.98 342.7,123.9 262.9,162.4L408,162.4C439.3,130.6 463,96.38 482.2,66.37ZM491.3,85.28C462.4,129.7 423,182.1 363.8,223.3C296.6,270.1 204,301.6 74.98,290.2C77.17,345.6 103.9,387.6 142.9,433.9C327.5,371.7 409.7,306.3 448.9,242.7C481.3,190 484.8,137.3 491.3,85.28ZM226,180.4C216.5,185.1 206.9,189.8 197.4,194.5L372.4,194.5C378.2,189.9 383.7,185.2 389.1,180.4L226,180.4ZM161.2,212.5C127.9,229.2 95.01,245.7 62.95,261.9C63.21,262 63.47,262.2 63.72,262.3C67.82,264.7 71.59,268 73.96,272.2C197,283.8 283.8,255.2 347.8,212.5L161.2,212.5ZM39.57,274.5C33.27,274.5 27.68,276.1 24.35,278C21.02,279.9 20.73,281.3 20.73,281.4C20.73,281.5 21.02,282.9 24.35,284.8C27.68,286.7 33.27,288.3 39.57,288.3C45.87,288.3 51.46,286.7 54.79,284.8C58.12,282.9 58.41,281.5 58.41,281.4C58.41,281.3 58.12,279.9 54.79,278C51.46,276.1 45.87,274.5 39.57,274.5ZM57.91,303.2C52.41,305.2 46.19,306.3 39.57,306.3C35.24,306.3 31.09,305.8 27.19,304.9C29.64,333 40.02,365 53.91,391.2C63.45,409.3 74.54,424.7 84.76,434.3C94.98,444 103.3,446.7 107.7,445.3C113.4,443.5 119,441.7 124.5,439.9C89.6,397.7 63.37,355.8 57.91,303.2Z" style="fill:rgb(169,141,114);fill-rule:nonzero;"/>
    </g>
</svg>
