<?xml version="1.0" encoding="UTF-8" standalone="no"?>
<!DOCTYPE svg PUBLIC "-//W3C//DTD SVG 1.1//EN" "http://www.w3.org/Graphics/SVG/1.1/DTD/svg11.dtd">
<svg width="100%" height="100%" viewBox="0 0 512 512" version="1.1" xmlns="http://www.w3.org/2000/svg" xmlns:xlink="http://www.w3.org/1999/xlink" xml:space="preserve" xmlns:serif="http://www.serif.com/" style="fill-rule:evenodd;clip-rule:evenodd;stroke-linejoin:round;stroke-miterlimit:2;">
    <rect x="0" y="0" width="512" height="512" style="fill-rule:nonzero;"/>
    <g>
        <path d="M195.473,121.011C195.473,121.011 195.473,121.01 195.473,121.01L195.473,121.011ZM256.414,119.6C255.622,119.597 254.824,119.605 254.027,119.61C248.992,152.67 243.023,183.89 238.465,215.258C266.481,207.346 295.427,202.268 324.023,201.951C337.147,201.805 350.195,202.677 363.047,204.717C362.819,193.102 362.292,180.967 361.463,168.302C358.923,166.644 356.396,164.892 353.895,163.028C339.115,152.023 327.282,139.035 319.185,125.541C300.638,123.388 281.257,120.074 260.165,119.644C258.921,119.619 257.671,119.604 256.415,119.6L256.414,119.6ZM170.309,139.986C153.541,148.318 135.677,159.776 116.497,175.361C68.057,214.719 49.207,264.947 48.047,311.644C55.365,306.104 64.165,299.817 74.372,293.041C94.97,279.366 120.956,263.876 150.206,249.584C152.881,214.397 159.116,177.414 170.308,139.986L170.309,139.986ZM380.099,178.504C380.645,188.794 381.009,198.784 381.155,208.428C385.392,209.502 389.6,210.708 393.775,212.076C392.218,201.392 390.795,191.399 389.907,182.379C386.653,181.269 383.377,179.969 380.099,178.505L380.099,178.504ZM359.007,284.193C322.787,284.383 279.21,287.483 231.321,303.073C231.326,340.756 235.908,380.946 248.503,426.529C260.406,423.821 271.343,420.049 281.325,415.134C279.798,412.931 278.328,410.798 277.042,408.899C275.666,406.869 274.476,405.079 273.534,403.604C272.592,402.129 272.136,401.804 271.154,399.347L287.866,392.661C287.551,391.871 287.564,391.879 287.756,392.237C287.946,392.595 288.313,393.305 288.706,393.921C289.493,395.153 290.619,396.849 291.942,398.801C293.398,400.951 295.112,403.433 296.912,406.024C304.75,400.614 311.872,394.308 318.288,387.062C330.206,373.599 339.878,356.532 347.16,335.479L335.39,333.202L338.81,315.53L352.365,318.154C355.085,307.686 357.299,296.374 359.005,284.194L359.007,284.193ZM377.304,284.303C375.544,297.601 373.189,310.028 370.231,321.611L382.356,323.957L378.936,341.627L365.13,338.957C357.087,363.001 346.005,382.909 331.766,398.991C324.376,407.337 316.192,414.551 307.25,420.711C311.433,426.608 314.918,431.493 314.918,431.493L300.288,441.981C300.288,441.981 296.362,436.478 291.746,429.964C280.062,435.959 267.306,440.494 253.543,443.702C255.645,450.452 257.923,457.319 260.383,464.312C295.658,454.747 329.673,436.345 358.316,411.06C394.934,378.736 402.954,331.643 401.518,284.786C393.994,284.646 385.928,284.438 377.305,284.301L377.304,284.303ZM150.75,340.623C124.7,356.683 97.985,377.246 71,403.535C77.44,414.275 84.832,423.185 92.664,429.598L92.818,429.723L92.968,429.855C118.345,452.591 148.258,465.475 179.684,469.963C177.006,463.733 174.352,456.701 171.784,448.937C163.061,448.377 154.099,447.53 144.904,446.407L147.084,428.539C153.634,429.339 160.02,429.986 166.254,430.495C160.127,407.972 154.902,380.98 151.699,350.548C151.354,347.278 151.041,343.964 150.749,340.621L150.75,340.623Z" style="fill:rgb(186,186,186);fill-rule:nonzero;"/>
        <path d="M195.473,121.011C195.398,121.23 197.961,117.813 202.74,115.166C207.525,112.514 214.005,110.148 220.115,108.914C223.17,108.297 226.152,108.003 228.73,107.97L228.728,107.972C231.305,107.939 233.475,108.167 234.908,108.587C236.34,109.007 236.908,109.491 237.05,109.647C237.136,109.745 237.167,110.091 237.214,110.315C231.66,148.085 224.537,184.118 219.544,221.065C202.691,226.64 186.292,233.11 170.649,240.052C170.106,240.292 169.573,240.54 169.031,240.782C172.715,202.213 180.898,161.664 195.455,121.059L195.465,121.033L195.473,121.011ZM359.087,66.98C362.827,67.498 366.779,68.389 370.856,69.625C373.656,89.181 386.188,103.791 399.423,113.131C406.16,117.885 413.153,121.371 419.673,123.618C426.192,125.868 432.016,127.098 437.938,126.278L438.728,126.168C439.06,126.855 439.39,127.543 439.693,128.225C441.103,131.395 442.163,134.417 442.923,137.285C410.117,136.203 389.785,127.34 377.267,114.15C366.143,102.43 360.512,86.434 359.087,66.98ZM341.097,67.55L341.095,67.552C342.666,90.274 349.373,110.912 364.209,126.542C380.819,144.043 406.712,154.189 443.082,155.297C442.53,156.893 441.804,158.357 440.908,159.677C436.186,166.632 426.35,170.309 412.146,168.799C397.943,167.291 380.42,160.349 364.01,148.129C347.6,135.909 335.584,120.856 329.56,107.302C323.533,93.746 323.621,82.807 328.343,75.852C331.007,71.925 335.307,69.045 341.097,67.55ZM329.235,220.141L329.237,220.139C356.169,220.381 382.314,225.279 406.367,236.404C407.097,237.341 408.668,239.576 410.1,242.789C411.821,246.653 413.371,251.454 414.225,255.886C415.078,260.316 415.109,264.444 414.672,266.396C414.576,266.826 414.67,266.706 414.666,266.876C347.069,267.129 197.003,248.042 47.646,401.452C44.71,402.8 44.435,402.314 42.38,400.152C40.047,397.694 37.15,391.459 35.677,383.792C32.763,368.633 35.851,348.06 40.089,341.89C41.559,340.243 46.655,335.518 54.107,329.673C61.787,323.65 72.051,316.187 84.327,308.037C108.879,291.737 141.503,272.677 177.949,256.504C223.505,236.288 274.797,220.827 323.839,220.154C325.641,220.131 327.44,220.124 329.235,220.141ZM213.52,309.398C214.18,359.189 222.626,413.595 246.091,477.785L246.097,477.8L246.101,477.813C246.86,479.871 246.652,480.573 246.626,480.663C246.601,480.755 246.711,480.789 245.911,481.335C244.312,482.427 238.993,483.931 232.709,484.101C226.427,484.271 219.234,483.475 213.499,482.251C210.631,481.639 208.114,480.916 206.356,480.261C205.667,480.004 205.214,479.747 204.809,479.527C193.774,461.881 176.316,412.467 169.602,348.667C168.98,342.757 168.446,336.716 168.006,330.561C183.48,322.068 198.677,315.105 213.52,309.398Z" style="fill:rgb(195,150,75);"/>
        <path d="M409.249,29.684C446.817,37.284 467.379,54.167 476.021,80.789C453.977,77.381 438.95,70.294 428.504,60.954C419.12,52.566 413.077,42.097 409.249,29.684ZM394.868,42.894L394.869,42.891C399.606,54.707 406.552,65.471 416.506,74.371C427.884,84.545 442.91,92.033 462.144,96.438C454.598,100.398 444.947,104.317 434.824,108.401C433.468,108.436 429.907,108.109 425.54,106.603C420.73,104.945 415.098,102.167 409.8,98.427C399.566,91.203 390.935,80.729 388.83,67.709C390.944,59.784 392.698,50.664 394.868,42.894Z" style="fill:rgb(141,122,35);"/>
    </g>
</svg>
