<?xml version="1.0" encoding="UTF-8" standalone="no"?>
<!DOCTYPE svg PUBLIC "-//W3C//DTD SVG 1.1//EN" "http://www.w3.org/Graphics/SVG/1.1/DTD/svg11.dtd">
<svg width="100%" height="100%" viewBox="0 0 512 512" version="1.1" xmlns="http://www.w3.org/2000/svg" xmlns:xlink="http://www.w3.org/1999/xlink" xml:space="preserve" xmlns:serif="http://www.serif.com/" style="fill-rule:evenodd;clip-rule:evenodd;stroke-linejoin:round;stroke-miterlimit:2;">
    <rect x="0" y="0" width="512" height="512" style="fill-rule:nonzero;"/>
    <path d="M186.436,86.738C177.392,86.738 167.324,92.608 159.701,107.852L152.894,121.472C155.374,121.269 157.862,121.162 160.349,121.162C178.369,121.162 196.354,126.525 212.219,137.139L212.219,106.155C204.719,92.238 195.117,86.737 186.437,86.737L186.436,86.738ZM325.564,86.738C316.884,86.738 307.284,92.238 299.784,106.156L299.784,137.15C317.848,125.09 338.679,119.87 359.129,121.512L352.299,107.852C344.675,92.607 334.607,86.738 325.563,86.738L325.564,86.738ZM160.348,138.664C141.298,138.664 122.268,146.357 106.608,161.664L69.228,227.082C83.72,220.339 99.861,216.564 116.868,216.564C156.828,216.564 192.028,237.356 212.218,268.688L212.218,159.846C196.925,145.731 178.638,138.664 160.348,138.664ZM352.781,138.697C334.119,138.391 315.391,145.437 299.784,159.842L299.784,268.687C319.974,237.357 355.174,216.564 395.132,216.564C412.142,216.564 428.282,220.339 442.775,227.082L405.395,161.664C390.045,146.661 371.445,139.004 352.783,138.697L352.781,138.697ZM256,151.957C250.887,151.957 244.118,154.732 230.217,161.584L230.217,294.598C237.463,289.284 246.381,286.131 256,286.131C265.62,286.131 274.537,289.285 281.783,294.599L281.783,161.584C267.883,154.732 261.113,151.957 256,151.957ZM256,304.13C241.654,304.13 230.217,315.566 230.217,329.912C230.217,344.258 241.654,355.695 256,355.695C270.346,355.695 281.783,344.258 281.783,329.912C281.783,315.566 270.346,304.132 256,304.132L256,304.13Z" style="fill:rgb(164,164,164);fill-rule:nonzero;"/>
    <path d="M116.869,234.564C169.635,234.564 212.217,277.146 212.217,329.912C212.217,382.678 169.635,425.262 116.87,425.262C64.103,425.262 21.52,382.678 21.52,329.912C21.52,277.146 64.102,234.564 116.869,234.564ZM115.303,253.568C114.08,253.587 112.857,253.633 111.639,253.705C101.13,254.258 91.091,257.158 82.033,261.852C92.449,265.508 99.467,275.397 99.48,286.436C99.478,300.746 87.703,312.52 73.393,312.52L73.39,312.52C62.358,312.506 52.474,305.495 48.814,295.087C43.747,304.875 40.781,315.801 40.614,327.211C38.398,366.116 69.026,401.829 107.774,405.694C145.914,411.034 183.717,384.267 191.369,346.524C200.492,309.078 177.589,268.757 140.747,257.414C133.671,255.06 126.321,253.823 118.977,253.598C117.751,253.56 116.526,253.55 115.303,253.568ZM395.131,234.564C447.898,234.564 490.481,277.146 490.481,329.912C490.481,382.678 447.898,425.262 395.131,425.262C342.365,425.262 299.783,382.678 299.783,329.912C299.783,277.146 342.366,234.564 395.131,234.564ZM393.563,253.568C392.339,253.587 391.118,253.633 389.898,253.705C379.39,254.258 369.352,257.158 360.295,261.852C370.709,265.509 377.726,275.398 377.738,286.436C377.736,300.745 365.961,312.519 351.652,312.52C340.62,312.505 330.737,305.494 327.077,295.087C322.01,304.875 319.044,315.799 318.877,327.209C316.66,366.115 347.29,401.832 386.04,405.697C424.177,411.034 461.978,384.266 469.63,346.524C478.752,309.078 455.85,268.757 419.01,257.414C411.932,255.06 404.58,253.823 397.236,253.598C396.011,253.56 394.786,253.55 393.563,253.568Z" style="fill:rgb(124,202,250);"/>
</svg>
