<?xml version="1.0" encoding="UTF-8" standalone="no"?>
<!DOCTYPE svg PUBLIC "-//W3C//DTD SVG 1.1//EN" "http://www.w3.org/Graphics/SVG/1.1/DTD/svg11.dtd">
<svg width="100%" height="100%" viewBox="0 0 512 512" version="1.1" xmlns="http://www.w3.org/2000/svg" xmlns:xlink="http://www.w3.org/1999/xlink" xml:space="preserve" xmlns:serif="http://www.serif.com/" style="fill-rule:evenodd;clip-rule:evenodd;stroke-linejoin:round;stroke-miterlimit:2;">
    <rect x="0" y="0" width="512" height="512" style="fill-rule:nonzero;"/>
    <g>
        <path d="M60.406,156.688L24,259.75L203.938,324C203.7,315.095 205.5,305.983 209.563,297.406C216.583,282.584 229.103,272.061 243.469,267.219L219.029,213.311L199.905,267.436L166.905,194.718L147.811,248.811L114.811,176.091L94.843,232.623L60.405,156.685L60.406,156.688ZM460.187,156.688L425.719,232.625L405.749,176.095L372.749,248.813L353.655,194.719L320.655,267.437L301.53,213.312L269.594,283.78C267.302,283.25 264.992,282.93 262.688,282.844C262.226,282.826 261.773,282.814 261.313,282.814C247.033,282.807 233.216,291.097 226.438,305.406C217.108,325.101 225.078,348.046 243.938,357.062C262.798,366.079 285.421,357.82 294.75,338.125C295.877,335.745 296.74,333.32 297.375,330.875L496.595,259.75L460.187,156.687L460.187,156.688ZM199.78,178.03L199.78,196.72L320.375,196.72L320.375,178.03L199.78,178.03ZM249.906,213.375L249.906,266.281L268.594,266.281L268.594,213.376L249.906,213.376L249.906,213.375ZM260.156,303.938C269.834,303.938 277.686,311.762 277.686,321.438C277.688,331.113 269.832,338.968 260.156,338.968C250.48,338.968 242.626,331.115 242.626,321.438C242.626,311.76 250.478,303.938 260.156,303.938ZM99.53,336.967C49.38,350.595 16.97,370.797 16.97,393.187C16.97,434.204 123.514,467.53 254.688,467.53C385.861,467.53 492.375,434.203 492.375,393.188C492.375,370.875 460.251,350.593 410.405,336.968C427.637,345.846 437.938,356.243 437.938,367.438C437.938,399.565 355.625,425.968 254.688,425.968C153.75,425.968 72.031,399.565 72.031,367.438C72.031,356.181 82.126,345.878 99.531,336.968L99.53,336.967Z" style="fill:rgb(180,180,180);fill-rule:nonzero;"/>
    </g>
</svg>
