<?xml version="1.0" encoding="UTF-8" standalone="no"?>
<!DOCTYPE svg PUBLIC "-//W3C//DTD SVG 1.1//EN" "http://www.w3.org/Graphics/SVG/1.1/DTD/svg11.dtd">
<svg width="100%" height="100%" viewBox="0 0 512 512" version="1.1" xmlns="http://www.w3.org/2000/svg" xmlns:xlink="http://www.w3.org/1999/xlink" xml:space="preserve" xmlns:serif="http://www.serif.com/" style="fill-rule:evenodd;clip-rule:evenodd;stroke-linejoin:round;stroke-miterlimit:2;">
    <rect x="0" y="0" width="512" height="512" style="fill-rule:nonzero;"/>
    <g>
        <path d="M452.7,45.03C451.5,45.03 450.4,45.13 449.1,45.3C439.3,46.7 423.1,54.9 406.2,71.2C335.1,140 292.5,188.8 273.8,211.5C294.2,213.7 311.7,216.6 324.8,220.1C330.1,208.3 338.2,196.3 348.3,183.8C372.9,153.3 409.2,120.8 446.7,85.3C458.6,73.9 463.9,65 465.1,59.4C466,55 464.9,51.6 463,49.3C461,46.78 457.5,45.05 452.7,45.03ZM444.7,53.63C446.7,53.53 448.4,54.1 449.3,55.3C451.9,58.6 448.6,65.4 442,70.6C435.4,75.7 428,77.3 425.4,74C422.9,70.8 426.2,63.9 432.8,58.8C436.9,55.55 441.4,53.74 444.7,53.63ZM197.3,222.2C140.7,222.2 91.46,227.9 67.04,236C59.83,238.3 54.58,241.1 51.47,243.8C48.03,246.8 46.62,250.1 46.62,253.3C46.62,256.5 48.03,259.8 51.47,262.8C51.9,263.2 52.36,263.5 52.87,263.9L52.87,422.1C52.87,437.1 63.22,450.1 77.82,453.1C157.6,471.1 237.3,472.1 317,453.1C331.5,450.1 341.8,437.1 341.8,422.1L341.8,282.3C295.3,297.7 224.5,296.1 214.5,284.2C263.8,283.2 305.7,277.9 327.6,270.6C334.8,268.2 340.1,265.5 343.2,262.8C346.6,259.8 348,256.5 348,253.3C348,250.1 346.6,246.8 343.2,243.8C340.1,241.1 334.8,238.3 327.6,236C303.2,227.9 254,222.2 197.3,222.2ZM197.3,234.7C252.3,234.7 300,240 323.7,247.8C328.1,249.3 331.7,250.8 334,252.5C334.3,252.7 334.7,253 335,253.3C334.7,253.6 334.3,253.9 334,254.1C331.7,255.8 328.1,257.3 323.7,258.8C300,266.6 252.3,271.8 197.3,271.8C142.4,271.8 94.65,266.6 70.97,258.8C66.52,257.3 63.01,255.8 60.64,254.1C60.32,253.9 59.95,253.6 59.65,253.3C59.95,253 60.32,252.7 60.64,252.5C63.01,250.8 66.52,249.3 70.97,247.8C94.65,240 142.4,234.7 197.3,234.7Z" style="fill:rgb(201,201,201);fill-rule:nonzero;"/>
    </g>
</svg>
