<?xml version="1.0" encoding="UTF-8" standalone="no"?>
<!DOCTYPE svg PUBLIC "-//W3C//DTD SVG 1.1//EN" "http://www.w3.org/Graphics/SVG/1.1/DTD/svg11.dtd">
<svg width="100%" height="100%" viewBox="0 0 512 512" version="1.1" xmlns="http://www.w3.org/2000/svg" xmlns:xlink="http://www.w3.org/1999/xlink" xml:space="preserve" xmlns:serif="http://www.serif.com/" style="fill-rule:evenodd;clip-rule:evenodd;stroke-linejoin:round;stroke-miterlimit:2;">
    <rect x="0" y="0" width="512" height="512" style="fill-rule:nonzero;"/>
    <g>
        <path d="M315.576,243.554C315.626,243.526 315.667,243.508 315.7,243.5C315.814,243.473 315.767,243.493 315.576,243.554ZM393.4,94.95L291,230.9L448.4,118L393.4,94.95ZM288,118.3L274.9,228.2L321.1,134.7L288,118.3ZM460.9,209.5L316.8,272.7L460.9,238.5L460.9,209.5ZM25.26,280L42.09,329.7L200.7,295.5L25.26,280ZM207.1,312.6L34.66,434.6L66.64,474.6L207.1,312.6ZM228,328.9L176.9,461.1L202,461.1L228,328.9Z" style="fill:rgb(250,210,73);fill-rule:nonzero;"/>
        <path d="M315.576,243.554C312.628,245.222 280.9,281.4 280.9,281.4L296.5,304.3C316.5,306.7 340.5,307.3 362.4,307.7L399,329.3L424.2,315.1C429.9,316.9 436.3,319.1 443.3,321.7L452,361.1L419.2,400.4L470.6,378.1L474.5,335.7L488,380.4L458.8,460.4L381.1,449.5L357.6,430.9L320.5,470.3L290.6,480.7L258.1,409.6C269.1,376.5 278.3,343.4 286.7,309.5L266.1,296.7L253,358.4L240.5,289.6L185.6,265.5L209.6,266.9L143.1,234.5L146.1,202L115.2,220.1L116,193.6L88.65,208L46.51,187.5L24.05,91.34L35.04,84.71L78.74,103.5L58.45,70.6L123.5,31.34L204.9,87.91L142.3,76.71L78.57,135.4L161.4,108.4L230,105.5L254.2,122.3L229.7,205.8L265.4,258.4C265.4,258.4 312.256,244.629 315.576,243.554ZM225.6,219.9L211.7,267L239.4,268.6L225.6,219.9Z" style="fill:rgb(154,154,154);"/>
    </g>
</svg>
