<?xml version="1.0" encoding="UTF-8" standalone="no"?>
<!DOCTYPE svg PUBLIC "-//W3C//DTD SVG 1.1//EN" "http://www.w3.org/Graphics/SVG/1.1/DTD/svg11.dtd">
<svg width="100%" height="100%" viewBox="0 0 512 512" version="1.1" xmlns="http://www.w3.org/2000/svg" xmlns:xlink="http://www.w3.org/1999/xlink" xml:space="preserve" xmlns:serif="http://www.serif.com/" style="fill-rule:evenodd;clip-rule:evenodd;stroke-linejoin:round;stroke-miterlimit:2;">
    <rect x="0" y="0" width="512" height="512" style="fill-rule:nonzero;"/>
    <g>
        <path d="M187.125,19.53C186.392,19.522 185.671,19.534 184.937,19.562C181.027,19.714 177.114,20.402 173.281,21.719C157.951,26.979 147.807,40.759 143.438,56.937C139.07,73.114 139.968,92.202 146.563,111.187C147.619,114.225 148.813,117.175 150.095,120.03L159.815,148.25L214.501,167.094C217.375,166.768 220.241,166.124 223.064,165.156C238.394,159.894 248.539,146.116 252.907,129.936C257.275,113.76 256.377,94.672 249.782,75.686C243.187,56.703 232.027,41.131 218.564,31.094C209.099,24.036 198.129,19.674 187.127,19.531L187.125,19.53ZM185.845,38.187C192.569,37.931 199.957,40.509 207.405,46.063C217.338,53.467 226.655,66.07 232.125,81.813C237.595,97.555 238.055,113.166 234.845,125.063C231.632,136.959 225.272,144.619 216.969,147.469C208.666,150.317 198.869,148.185 188.937,140.779C185.629,138.315 182.394,135.256 179.343,131.719L163.218,102.029C158.696,87.329 158.462,72.909 161.468,61.779C164.678,49.884 171.038,42.255 179.342,39.405C181.418,38.693 183.6,38.272 185.842,38.187L185.845,38.187ZM74.25,144.187C67.52,144.325 61.067,145.207 55,146.844C38.822,151.212 25.043,161.388 19.78,176.719C14.52,192.049 19.12,208.505 29.156,221.969C39.193,235.429 54.766,246.622 73.75,253.219C92.735,259.814 111.822,260.679 128,256.312C141.807,252.582 153.866,244.652 160.375,232.874L160.438,232.937L174.781,207.217L181.376,210.78C181.402,210.856 181.412,210.862 181.439,210.937L239.376,242.281L239.406,242.313L490.596,378.657C504.832,337.497 454.39,269.595 346.97,232.437L118.156,153.532C115.281,152.242 112.311,151.034 109.25,149.972C97.385,145.848 85.465,143.962 74.25,144.19L74.25,144.187ZM74.594,162.907C76.367,162.872 78.191,162.901 80.031,163C86.405,163.345 93.165,164.512 99.971,166.594L129.781,182.781C133.321,185.838 136.379,189.069 138.845,192.376C146.25,202.308 148.382,212.106 145.532,220.406C142.682,228.71 135.022,235.07 123.127,238.282C111.231,241.495 95.62,241.034 79.877,235.564C64.134,230.094 51.532,220.746 44.127,210.814C36.722,200.884 34.621,191.086 37.471,182.784C40.321,174.48 47.949,168.12 59.845,164.908C64.305,163.704 69.275,163.012 74.595,162.908L74.594,162.907ZM190.438,237.094C202.858,273.11 215.962,311.117 229.031,348.906C266.187,456.326 334.091,506.768 375.251,492.531L255.75,272.44L190.437,237.096L190.438,237.094Z" style="fill:rgb(162,162,162);fill-rule:nonzero;"/>
    </g>
</svg>
