<?xml version="1.0" encoding="UTF-8" standalone="no"?>
<!DOCTYPE svg PUBLIC "-//W3C//DTD SVG 1.1//EN" "http://www.w3.org/Graphics/SVG/1.1/DTD/svg11.dtd">
<svg width="100%" height="100%" viewBox="0 0 512 512" version="1.1" xmlns="http://www.w3.org/2000/svg" xmlns:xlink="http://www.w3.org/1999/xlink" xml:space="preserve" xmlns:serif="http://www.serif.com/" style="fill-rule:evenodd;clip-rule:evenodd;stroke-linejoin:round;stroke-miterlimit:2;">
    <rect x="0" y="0" width="512" height="512" style="fill-rule:nonzero;"/>
    <g>
        <path d="M417.186,30.744C430.183,41.877 459.776,87.09 456.492,128.379C455.43,171.829 448.45,211.502 436.166,244.289L382.723,307.962C371.203,335.965 362.283,368.449 349.699,392.722L333.769,384.339C347.112,354.585 357.542,324.299 366.921,298.789L420.337,235.145C447.997,160.45 441.172,104.237 422.952,69.062C376.204,-20.648 291.466,81.99 255.252,133.884L159.284,266.472C159.284,266.472 168.917,278.062 175.411,285.708C190.257,265.255 242.585,195.893 280.228,151.961C307.788,119.793 352.106,66.234 382.268,82.635C391.025,87.285 391.535,92.41 396.638,109.898C401.742,127.388 401.624,216.132 382.4,254.996L351.93,293.736L320.7,391.236L341.89,408.586L361.875,405.116L413.575,333.262L397.245,392.885L389.822,420.289L379.775,425.039L406.732,430.384L412.25,424.847C420.71,411.257 447.53,371.507 456.332,341.527L460.746,259.197C488.598,195.105 510.613,91.963 439.286,39.825C428.354,32.883 428.332,32.875 417.184,30.743L417.186,30.744ZM361.366,103.774C338.278,113.968 321.964,130.864 294.716,162.449C250.74,213.419 294.716,162.449 190.338,295.789C199.194,299.304 212,304.763 212,304.763C257.562,255.443 325.515,107.943 396.64,109.899C394.81,106.069 392.433,103.356 389.96,101.549C380.898,95.636 369.97,99.486 361.367,103.774L361.366,103.774Z" style="fill:rgb(228,121,121);fill-rule:nonzero;"/>
        <path d="M149.686,278.602L171.693,304.77L203.99,316.314L75.52,494L18,494L18,460.734L149.686,278.602Z" style="fill:rgb(151,151,151);"/>
    </g>
</svg>
