<?xml version="1.0" encoding="UTF-8" standalone="no"?>
<!DOCTYPE svg PUBLIC "-//W3C//DTD SVG 1.1//EN" "http://www.w3.org/Graphics/SVG/1.1/DTD/svg11.dtd">
<svg width="100%" height="100%" viewBox="0 0 512 512" version="1.1" xmlns="http://www.w3.org/2000/svg" xmlns:xlink="http://www.w3.org/1999/xlink" xml:space="preserve" xmlns:serif="http://www.serif.com/" style="fill-rule:evenodd;clip-rule:evenodd;stroke-linejoin:round;stroke-miterlimit:2;">
    <rect x="0" y="0" width="512" height="512" style="fill-rule:nonzero;"/>
    <g>
        <path d="M173.844,15.563L173.844,15.593L226.064,207.75C233.099,204.59 240.816,201.72 248.75,199.344C257.644,196.681 266.756,194.661 275.47,193.624L227,15.565L173.844,15.563Z" style="fill:rgb(177,146,88);fill-rule:nonzero;"/>
        <path d="M413.875,199.53C450.953,336.145 435.997,443.633 388.75,496.22L228.155,496.22C179.475,455.864 135.433,381.776 107.843,280.126C124.776,285.503 164.437,282.243 209.969,273.813C216.952,289.131 225.71,306.271 235.187,322.501C244.625,338.663 254.663,353.676 264.75,364.721C269.794,370.241 274.847,374.808 280.344,378.031C285.84,381.256 292.406,383.317 299.156,381.531C305.905,379.745 310.577,374.685 313.72,369.155C316.86,363.625 318.896,357.155 320.47,349.875C323.615,335.314 324.73,317.378 324.72,298.72C324.707,280.451 323.64,261.794 322,245.376C365.014,231.277 400.83,214.94 413.875,199.53ZM286.031,211.595L286.033,211.593C291.257,211.545 295.46,212.26 298.19,213.155C301.762,229.007 306.012,265.321 306.032,298.719C306.045,316.596 304.87,333.674 302.222,345.936C300.896,352.069 299.142,356.962 297.472,359.906C295.798,362.85 294.666,363.393 294.378,363.47C294.09,363.547 292.748,363.647 289.783,361.907C286.819,360.169 282.823,356.758 278.565,352.094C270.047,342.768 260.391,328.586 251.347,313.094C234.763,284.696 220.34,251.98 215.127,236.094C217.365,234.086 220.778,231.374 226.032,228.564C233.751,224.434 243.787,220.337 254.095,217.251C264.401,214.165 275.027,212.097 283.721,211.657C284.506,211.617 285.286,211.602 286.031,211.595Z" style="fill:rgb(144,144,144);"/>
    </g>
</svg>
