<?xml version="1.0" encoding="UTF-8" standalone="no"?>
<!DOCTYPE svg PUBLIC "-//W3C//DTD SVG 1.1//EN" "http://www.w3.org/Graphics/SVG/1.1/DTD/svg11.dtd">
<svg width="100%" height="100%" viewBox="0 0 512 512" version="1.1" xmlns="http://www.w3.org/2000/svg" xmlns:xlink="http://www.w3.org/1999/xlink" xml:space="preserve" xmlns:serif="http://www.serif.com/" style="fill-rule:evenodd;clip-rule:evenodd;stroke-linejoin:round;stroke-miterlimit:2;">
    <rect x="0" y="0" width="512" height="512" style="fill-rule:nonzero;"/>
    <g>
        <path d="M131.656,49.656L22.312,159L34.656,171.344L81.469,142.438L114.155,109.75L114.093,109.687L144,62L131.656,49.656ZM379.344,49.656L367,62L393.906,105.563L431.594,143.25L476.344,171.344L488.688,159L379.344,49.656ZM384.25,122.344L371.094,135.5L391.781,156.188L358.971,147.594L348.001,158.594L369.031,179.624L335.689,170.874L324.907,181.688L346.282,203.063L312.408,194.156L87.97,418.626L66.405,472.03L119.718,450.375L416,154.095L384.25,122.345L384.25,122.344ZM127.375,122.969L95.625,154.719L106.281,165.374L127.281,144.374L118.563,177.654L129.376,188.468L150.72,167.123L141.844,200.936L152.469,211.561L174.155,189.873L165.125,224.217L210.685,269.777L242.435,238.027L127.375,122.967L127.375,122.969ZM300.313,295.874L268.563,327.624L391.313,450.374L444.688,471.937L423.031,418.624L300.314,295.874L300.313,295.874Z" style="fill:rgb(169,169,169);fill-rule:nonzero;"/>
    </g>
</svg>
