<?xml version="1.0" encoding="UTF-8" standalone="no"?>
<!DOCTYPE svg PUBLIC "-//W3C//DTD SVG 1.1//EN" "http://www.w3.org/Graphics/SVG/1.1/DTD/svg11.dtd">
<svg width="100%" height="100%" viewBox="0 0 512 512" version="1.1" xmlns="http://www.w3.org/2000/svg" xmlns:xlink="http://www.w3.org/1999/xlink" xml:space="preserve" xmlns:serif="http://www.serif.com/" style="fill-rule:evenodd;clip-rule:evenodd;stroke-linejoin:round;stroke-miterlimit:2;">
    <rect x="0" y="0" width="512" height="512" style="fill-rule:nonzero;"/>
    <path d="M454.26,312.874C454.26,402.782 365.33,476 256,476C146.67,476 57.74,402.83 57.74,312.874C57.762,294.318 61.559,275.96 68.9,258.918C76.195,279.908 94.177,298.973 121.322,313.968C155.764,333.011 201.364,343.501 249.706,343.501C298.049,343.501 343.649,333.011 378.091,313.971C412.533,294.928 432.381,269.166 434.054,241.261C447.168,262.852 454.154,287.614 454.26,312.875L454.26,312.874Z" style="fill:rgb(184,142,142);fill-rule:nonzero;"/>
    <path d="M268.678,150.338L163.3,270.997C154.684,280.821 148.73,292.692 146.01,305.473C140.547,303.123 135.291,300.586 130.323,297.843C100.295,281.209 83.755,259.804 83.755,237.409C83.755,215.013 100.296,193.573 130.323,176.975C162.079,159.42 204.508,149.748 249.785,149.748C256.087,149.752 262.388,149.949 268.678,150.338ZM369.248,297.878L369.19,297.845C350.044,308.426 326.992,316.126 301.782,320.551L381.236,184.421C403.656,199.774 415.816,218.274 415.816,237.444C415.816,259.84 399.275,281.28 369.248,297.878Z" style="fill:rgb(179,88,88);"/>
    <path d="M416.842,64.578L416.844,64.578C441.269,85.856 451.102,106.016 446.226,112.494L438.238,123.41C435.69,126.877 430.833,127.795 427.195,125.497L426.515,125.07C422.245,122.361 417.291,120.922 412.234,120.922C402.762,120.922 393.974,125.97 389.203,134.153L278.628,323.71C269.071,324.61 259.378,325.07 249.741,325.07C219.161,325.07 189.514,320.585 163.487,312.055C165.255,301.324 170,291.303 177.18,283.135L346.138,89.602C354.719,79.832 354.93,65.127 346.633,55.115C343.791,51.659 344.251,46.488 347.659,43.588L352.869,39.162L353.423,38.654C357.203,34.874 365.814,35.139 377.029,39.404C389.352,44.072 403.852,53.248 416.842,64.578Z" style="fill:rgb(184,144,144);"/>
</svg>
