<?xml version="1.0" encoding="UTF-8" standalone="no"?>
<!DOCTYPE svg PUBLIC "-//W3C//DTD SVG 1.1//EN" "http://www.w3.org/Graphics/SVG/1.1/DTD/svg11.dtd">
<svg width="100%" height="100%" viewBox="0 0 512 512" version="1.1" xmlns="http://www.w3.org/2000/svg" xmlns:xlink="http://www.w3.org/1999/xlink" xml:space="preserve" xmlns:serif="http://www.serif.com/" style="fill-rule:evenodd;clip-rule:evenodd;stroke-linejoin:round;stroke-miterlimit:2;">
    <rect x="0" y="0" width="512" height="512" style="fill-rule:nonzero;"/>
    <g>
        <path d="M203.97,23L185.938,27.844L197.594,71.312C171.757,79.388 147.274,92.965 126,112.062L94.53,80.594L81.312,93.814L112.688,125.188C93.221,146.313 79.274,170.718 70.875,196.531L28.562,185.188L23.719,203.251L65.969,214.564C59.912,241.864 59.812,270.22 65.624,297.564L23.72,308.78L28.563,326.844L70.375,315.624C77.068,336.849 87.489,357.149 101.625,375.5L71.655,428.188L54.845,457.781L84.405,440.939L137.062,410.969C155.472,425.185 175.846,435.659 197.156,442.376L185.936,484.22L203.969,489.03L215.187,447.125C242.532,452.933 270.885,452.811 298.187,446.75L309.499,489.03L327.562,484.22L316.218,441.844C342.03,433.444 366.435,419.529 387.56,400.064L418.935,431.437L432.155,418.219L400.685,386.749C419.775,365.483 433.328,341.011 441.405,315.186L484.935,326.843L489.748,308.78L446.123,297.094C451.803,270.05 451.699,242.034 445.779,215.031L489.749,203.251L484.936,185.188L440.908,197C434.178,176.134 423.828,156.21 409.876,138.156L439.846,85.5L456.688,55.937L427.095,72.781L374.439,102.751C356.441,88.876 336.565,78.553 315.782,71.845L327.565,27.845L309.5,23L297.72,66.97C270.72,61.045 242.7,60.92 215.656,66.594L203.97,23ZM405.53,108L297.25,298.313L296.5,298.75L255.656,257.875L106.936,406.595L104.75,407.845L213.875,216.095L255.655,257.875L405.532,108L405.53,108ZM255.844,118.594C277.702,118.594 299.561,123.76 319.438,134.064L202.813,200.406L200.593,201.686L199.313,203.906L133.063,320.312C106.121,268.272 114.447,202.709 158.093,159.062C185.083,132.074 220.473,118.594 255.843,118.594L255.844,118.594ZM378.564,193.188C405.558,245.242 397.234,310.86 353.562,354.531C309.902,398.193 244.299,406.536 192.25,379.564L308.688,313.282L310.938,312.032L312.188,309.782L378.563,193.19L378.564,193.188Z" style="fill:rgb(187,154,120);fill-rule:nonzero;"/>
    </g>
</svg>
