<?xml version="1.0" encoding="UTF-8" standalone="no"?>
<!DOCTYPE svg PUBLIC "-//W3C//DTD SVG 1.1//EN" "http://www.w3.org/Graphics/SVG/1.1/DTD/svg11.dtd">
<svg width="100%" height="100%" viewBox="0 0 512 512" version="1.1" xmlns="http://www.w3.org/2000/svg" xmlns:xlink="http://www.w3.org/1999/xlink" xml:space="preserve" xmlns:serif="http://www.serif.com/" style="fill-rule:evenodd;clip-rule:evenodd;stroke-linejoin:round;stroke-miterlimit:2;">
    <rect x="0" y="0" width="512" height="512" style="fill-rule:nonzero;"/>
    <g>
        <path d="M256,22.98L256,40.98C264.4,40.98 268.5,40.84 271.3,43.61C274.2,46.38 278.5,55.98 279,80.16L279,247L297,247L297,79.81C297.8,62.67 294,41.23 283.9,30.74C277.2,24.22 269.1,23.12 262.3,22.98L256,22.98ZM448,23C434.3,23 423,34.3 423,48C423,54.78 425.8,60.96 430.2,65.49C429.8,66.16 429.3,66.85 428.9,67.55C425,74.25 423,82.51 423,91.52C423,100.5 425,108.8 428.9,115.5C431.3,119.6 434.7,123.4 439,125.7L439,244.1C442,243.4 445,243 448,243C451,243 454,243.4 457,244.1L457,125.7C461.3,123.4 464.7,119.6 467.1,115.5C471,108.8 473,100.5 473,91.52C473,82.51 471,74.25 467.1,67.55C466.7,66.85 466.2,66.16 465.8,65.49C470.2,60.96 473,54.78 473,48C473,34.3 461.7,23 448,23ZM380,23.95L331.9,48L363.9,64L336.8,77.54L359,99.73L359,215L377,215L377,92.27L367.2,82.47L404.1,64L372.1,48L388,40.05L380,23.95ZM119,24L119,247L137,247L137,64L119,24ZM183,55L183,105L199,105L199,266.4L217,257.4L217,105L233,105L233,55L183,55ZM39,64L39,266.3L48,275.3L57,266.3L57,169L80,169L80,151L57,151L57,137L80,137L80,119L57,119L57,105L80,105L80,87L57,87L57,64L39,64Z" style="fill:rgb(202,202,202);fill-rule:nonzero;"/>
        <path d="M345,233L391,233L391,480C391,500 345,500 345,480L345,233ZM448,261C459.5,261 471,268 471,288L471,480C471,500 425,500 425,480L425,288C425,268 436.5,261 448,261ZM105,265L151,265L151,480C151,500 105,500 105,480L105,265ZM265,265L311,265L311,480C311,500 265,500 265,480L265,265ZM231,270.6L231,480C231,500 185,500 185,480L185,293.6L231,270.6ZM25,277.7L48,300.7L71,277.7L71,480C71,500 25,500 25,480L25,277.7Z" style="fill:rgb(179,156,125);"/>
    </g>
</svg>
