<?xml version="1.0" encoding="UTF-8" standalone="no"?>
<!DOCTYPE svg PUBLIC "-//W3C//DTD SVG 1.1//EN" "http://www.w3.org/Graphics/SVG/1.1/DTD/svg11.dtd">
<svg width="100%" height="100%" viewBox="0 0 512 512" version="1.1" xmlns="http://www.w3.org/2000/svg" xmlns:xlink="http://www.w3.org/1999/xlink" xml:space="preserve" xmlns:serif="http://www.serif.com/" style="fill-rule:evenodd;clip-rule:evenodd;stroke-linejoin:round;stroke-miterlimit:2;">
    <rect x="0" y="0" width="512" height="512" style="fill-rule:nonzero;"/>
    <path d="M361.155,91.245L343.155,91.438L343.575,130.418C297.802,143.703 235.042,150.156 177.101,153.991C212.198,250.275 276.458,327.761 334.946,411.121C355.664,391.466 386.056,379.138 418.406,375.111C397.606,357.002 381.772,347.145 359.573,304.673C390.843,341.758 412.152,353.14 437.196,366.679C440.459,353.585 446.134,342.041 455.917,334.005C464.584,326.885 475.943,323.351 489.447,323.661C442.573,263.898 387.777,206.607 361.617,134.226L361.155,91.246L361.155,91.245ZM163.25,102.92L145.252,103.164C145.252,103.164 145.502,121.504 145.812,140.134C145.968,149.45 146.137,158.837 146.301,166.063C146.361,168.699 146.418,170.643 146.475,172.605C112.097,256.338 77.321,333.598 22.555,406.047C56.19,404.66 88.881,404.844 121.107,406.006C143.37,343.389 144.453,271.151 156.734,204C168.151,272.562 167.3,343.445 190.217,409.83C233.179,412.912 275.907,417.028 319.567,420.756C263.897,341.605 201.354,265.719 164.449,171.391C164.399,169.609 164.349,167.995 164.297,165.654C164.135,158.498 163.964,149.131 163.809,139.834C163.499,121.24 163.25,102.92 163.25,102.92Z" style="fill:rgb(80,142,116);fill-rule:nonzero;"/>
</svg>
