<?xml version="1.0" encoding="UTF-8" standalone="no"?>
<!DOCTYPE svg PUBLIC "-//W3C//DTD SVG 1.1//EN" "http://www.w3.org/Graphics/SVG/1.1/DTD/svg11.dtd">
<svg width="100%" height="100%" viewBox="0 0 512 512" version="1.1" xmlns="http://www.w3.org/2000/svg" xmlns:xlink="http://www.w3.org/1999/xlink" xml:space="preserve" xmlns:serif="http://www.serif.com/" style="fill-rule:evenodd;clip-rule:evenodd;stroke-linejoin:round;stroke-miterlimit:2;">
    <rect x="0" y="0" width="512" height="512" style="fill-rule:nonzero;"/>
    <g>
        <path d="M431.1,23.53C421.6,40.87 405.7,46.87 381.5,37.68C399.4,47.92 410,62.67 406.1,86.32C418.5,65.03 435.3,61.83 455.5,72.21C437.2,60.93 422.1,47.99 431.1,23.53ZM206,45.39C202.6,72.56 195.2,96.59 159.1,97.49C186.5,100.6 203.4,116.6 206,149.7C208.3,123.6 220.6,104 252.8,97.49C218.7,92.84 204.8,74.31 206,45.39ZM85.7,101.2C80.2,123.2 66.7,133.7 42.5,129C62.9,141.6 67,159.3 62.9,179.6C71.9,155.3 86.9,147.3 106.3,151.6C81.9,142.2 82.1,122.4 85.7,101.2ZM396.1,102C399.7,123.2 399.9,143 375.6,152.4C394.9,148.1 409.9,156.1 418.9,180.4C414.8,160.2 418.9,142.4 439.3,129.8C415.1,134.5 401.6,124 396.1,102ZM256.7,154C247.1,154 238.6,156.4 233,159.8C227.5,163.2 225.7,166.5 225.7,169.1C225.7,171.7 227.5,175 233,178.4C238.6,181.7 247.1,184.1 256.7,184.1C260.6,184.1 264.4,183.7 267.8,183C273.3,176.9 280.3,172.8 287.5,170.4C288.1,165.5 282.8,161.3 280.4,159.8C274.8,156.4 266.3,154 256.7,154ZM211.6,182.2C205.4,183.1 202.5,185.3 201.4,187.6C199.5,200.1 214.4,209.8 223.5,214.1C232.2,218 241,219.3 247.4,218.6C253.8,217.9 256.8,215.5 257.9,213.2C259,210.8 258.7,207.1 255.3,202.1C243.3,201.9 232.5,199 223.8,193.8C218.9,190.8 214.5,186.9 211.6,182.2ZM310.2,184.8C300.6,184.8 292.1,187.2 286.5,190.5C281,193.9 279.2,197.2 279.2,199.8C279.2,202.4 281,205.7 286.5,209.1C292.1,212.4 300.6,214.8 310.2,214.8C319.8,214.8 328.3,212.4 333.9,209.1C339.4,205.7 341.2,202.4 341.2,199.8C341.2,197.2 339.4,193.9 333.9,190.5C328.3,187.2 319.8,184.8 310.2,184.8ZM359,197.1C364.1,207.5 348.7,220.9 341.4,225.5C342.8,226.2 344.6,226.8 346.9,227.3C353.3,228.5 362.1,227.9 371.1,224.6C378.8,221.8 385.2,217.6 389.5,213.3C389.9,207.6 390.7,202.3 394.2,198.3C383.7,191.4 369.4,193.2 359,197.1ZM157,195.6C147.4,195.6 138.9,198 133.3,201.3C137.9,207.6 139,214.5 137.8,222.1C143,224.2 149.7,225.6 157,225.6C166.6,225.6 175.1,223.2 180.7,219.9C186.2,216.5 188,213.2 188,210.6C188,208 186.2,204.7 180.7,201.3C175.1,198 166.6,195.6 157,195.6ZM408.1,209.8C405.4,222 419.9,232.8 428.6,237.5C437.1,241.9 445.7,243.7 452.2,243.4C458.6,243 461.8,240.9 463,238.6C464.2,236.3 464.2,232.5 460.8,227C457.4,221.5 451,215.4 442.5,210.9C436,207.8 413.6,199.8 408.1,209.8ZM105.6,208.9C99.7,208.8 92.5,210.1 85.3,213.1C76.5,216.8 69.6,222.3 65.8,227.5C62,232.8 61.6,236.5 62.6,238.9C63.6,241.3 66.6,243.7 73,244.7C79.3,245.6 88.1,244.5 97,240.7C105.9,237 112.8,231.5 116.6,226.3C120.4,221 120.8,217.3 119.8,214.9C115.5,210 111.3,208.9 105.6,208.9ZM273.6,222C270.5,227.8 265.3,231.8 259.2,234.1C265.6,238 270.7,243.8 272.3,251.3C274.5,261.8 269.3,271.7 261.6,278.8C253.9,286 243.4,291.2 231.1,293.7C218.9,296.3 207.1,295.8 197.2,292.4C187.3,289 178.6,282 176.4,271.6C174.2,261.1 179.3,251.2 187,244.1C194.1,237.5 203.7,232.5 214.7,229.8C210.3,227.8 206.3,225.4 202.7,222.7C199.8,227.9 195.2,232.1 189.9,235.3C180.9,240.7 169.5,243.6 157,243.6C147.1,243.6 137.9,241.8 130,238.3C123.9,246.2 114.8,252.8 104,257.3C93.5,261.7 83,263.6 73.4,262.8C69.6,270.3 62,275.2 53.8,277.8C43.7,280.9 31.9,281 19.8,278C19.5,277.9 19.2,277.9 19,277.8L19,324C21.8,322.5 24.9,321.4 28,320.7C31.4,319.9 35,319.5 38.7,319.4L38.7,319.2C35.8,308.9 40.4,298.7 47.6,291.1C54.8,283.5 65,277.6 77.1,274.3C88.66,271.3 100.2,270.6 111,273.5C121.1,276.3 130.3,282.7 133.1,293C136,303.3 131.5,313.5 124.2,321.1C117,328.7 106.8,334.5 94.7,337.9C92.9,338.4 91,338.8 89.1,339.2C96.56,347.6 100.9,360.9 98.4,369.4C95.1,379.5 85.7,385.5 75.5,387.9C65.2,390.3 53.5,389.5 41.6,385.7C32.9,382.9 25.2,378.8 19,373.6L19,487.5L96.2,487.5C92.2,476.8 100.1,476.1 89,471.4C77.4,466.7 68,459.6 61.7,451.2C55.4,442.8 52.2,432.1 56.2,422.2C60.3,412.4 70.1,407.1 80.5,405.5C90.9,404 102.6,405.6 114.1,410.4C125.7,415.1 135.1,422.2 141.4,430.6C143.7,433.7 145.6,437 146.9,440.5C155.3,439.9 163.3,440.9 170.4,443.3C180.3,446.7 189,453.7 191.2,464.1C193,472.7 189.9,480.9 184.5,487.5L440.6,487.5C434.3,480.2 430.6,470.9 433.2,461.3C436,451 445.1,444.6 455.2,441.7C465.3,438.8 477.1,439 489.1,442.3C490.8,442.8 492.4,443.3 494,443.9L494,342.7C483,344.5 472.4,343.8 463.4,340.7C453.5,337.3 444.8,330.3 442.6,319.9C440.4,309.4 445.5,299.5 453.2,292.4C466.4,282.3 479,277 494,276.1L494,275C479,275.2 458.1,269.5 449.1,261.4C439.8,261.2 429.9,258.5 420.2,253.4C409.5,247.8 401.1,240.3 395.6,231.7C390.3,235.7 384.1,239 377.3,241.5C365.5,245.8 353.8,247 343.5,245C334.9,243.3 326.8,239.1 322.2,231.9C318.4,232.5 314.3,232.8 310.2,232.8C297.7,232.8 286.3,229.9 277.3,224.5C276,223.7 274.8,222.9 273.6,222ZM480.6,227.9C482.5,239 480.9,247.8 472.6,254.6C480.4,256.8 486.8,257.5 494,257L494,227.4C489.5,227.1 484.7,227.2 480.6,227.9ZM18,229.7L18,258.6C27.44,261.8 39.18,263.3 48.4,260.6C51.7,259.6 53.9,258.4 55.4,257C48.19,251.7 44.16,244.7 44.1,236.3C40.4,234.3 36.1,232.6 31.3,231.4C26.7,230.3 22.1,229.7 18,229.7ZM221.2,246.8C211.8,248.8 204,252.9 199.2,257.2C194.5,261.7 193.5,265.3 194,267.9C194.5,270.4 197,273.3 203.1,275.4C209.2,277.5 218,278.1 227.4,276.1C236.8,274.1 244.6,270 249.4,265.7C254.1,261.2 255.2,257.6 254.7,255.1C254.1,252.5 251.7,249.7 245.6,247.5C237.3,245.1 229,245.1 221.2,246.8ZM81.9,291.6C72.6,294.2 65,298.8 60.6,303.4C56.2,308.2 55.3,311.8 56,314.4C56.7,316.9 59.3,319.5 65.6,321.4C71.7,323.1 80.6,323.1 89.9,320.5C99.1,318 106.8,313.4 111.2,308.7C115.6,304 116.5,300.3 115.8,297.8C115.1,295.3 112.4,292.6 106.2,290.8C98.29,288.8 89.37,289.5 81.9,291.6ZM342.9,291.7C349.4,291.8 355.5,292.8 361.1,294.7C371.1,298.2 379.8,305.1 382,315.6C383,320.5 382.4,325.4 380.6,329.9C390.5,333.3 398.9,338.5 405.2,344.9C412.4,352.5 417,362.7 414.2,373C411.4,383.3 402.3,389.8 392.2,392.6C382.1,395.5 370.4,395.3 358.3,392C346.2,388.8 336,383 328.7,375.4C324.3,370.8 320.8,365.3 319.5,359.3C315.1,358.9 310.8,358 306.9,356.6C297,353.2 288.3,346.3 286.1,335.8C283.9,325.3 289.1,315.5 296.8,308.3C304.4,301.2 315,296 327.2,293.4C332.6,292.3 337.8,291.7 342.9,291.7ZM494,294.1C491.8,294.3 489.6,294.6 487.4,295.1C478,297.1 470.2,301.2 465.4,305.5C460.7,310 459.7,313.6 460.2,316.2C460.7,318.7 463.2,321.6 469.2,323.7C475.4,325.8 484.2,326.4 493.6,324.4C493.7,324.4 493.9,324.3 494,324.3L494,294.1ZM330.9,311C321.6,313 313.7,317.1 308.9,321.5C304.3,325.9 303.2,329.5 303.7,332.1C304.2,334.6 306.7,337.5 312.8,339.7C318.9,341.8 327.7,342.4 337.1,340.4C346.5,338.4 354.4,334.3 359.1,329.9C363.8,325.4 364.9,321.8 364.4,319.3C363.8,316.8 361.4,313.9 355.3,311.7C347,309.3 338.7,309.3 330.9,311ZM197.5,316.7C209.7,319.3 220.2,324.6 227.9,331.8C235.5,339 240.7,348.9 238.4,359.3C236.1,369.8 227.4,376.7 217.4,380.1C207.5,383.4 195.7,383.9 183.5,381.2C171.3,378.6 160.8,373.3 153.1,366.2C145.5,359 140.3,349.1 142.6,338.6C144.9,328.1 153.6,321.2 163.6,317.9C175.1,314.3 186.6,314.5 197.5,316.7ZM169.3,334.9C163.2,337 160.7,339.9 160.2,342.4C159.6,345 160.7,348.6 165.4,353C170.1,357.5 177.9,361.6 187.3,363.6C196.7,365.7 205.5,365.1 211.7,363.1C217.8,360.9 220.2,358.1 220.8,355.5C221.3,353 220.3,349.4 215.6,344.9C210.8,340.5 203,336.3 193.7,334.3C185.7,332.8 177,332.5 169.3,334.9ZM32,338.2C25.8,339.7 23,342.3 22.2,344.8C21.4,347.3 22.1,350.9 26.3,355.9C30.6,360.7 38,365.6 47.1,368.6C56.3,371.5 65.1,371.9 71.4,370.4C77.7,368.9 80.4,366.3 81.2,363.8C82,361.4 81.3,357.7 77.1,352.7C72.8,347.9 65.5,343 56.3,340C48.03,337.7 39.94,336.6 32,338.2ZM368.9,345.2C358.6,352.1 348.8,356.7 338.3,358.5C343.6,367 355.1,372.5 363,374.7C372.3,377.2 381.1,377.1 387.4,375.4C393.6,373.5 396.2,370.8 396.9,368.3C397.5,365.8 396.7,362.1 392.2,357.4C384.5,351.2 377,347 368.9,345.2ZM315.2,380.1C325.1,383.5 333.8,390.4 336,400.9C338.2,411.4 333,421.3 325.3,428.4C317.7,435.5 307.1,440.7 294.9,443.3C282.6,445.9 270.9,445.4 261,442C251,438.5 242.3,431.6 240.1,421.1C237.9,410.7 243.1,400.8 250.8,393.6C258.5,386.5 269,381.3 281.2,378.7C292.3,376.4 304.8,376.5 315.2,380.1ZM285,396.3C275.6,398.3 267.7,402.4 263,406.8C258.3,411.3 257.2,414.9 257.7,417.4C258.3,420 260.7,422.8 266.8,425C272.9,427.1 281.8,427.7 291.2,425.7C300.5,423.7 308.4,419.6 313.2,415.2C317.8,410.8 318.9,407.2 318.4,404.6C317.9,402.1 315.4,399.2 309.3,397C301.2,394.7 293,394.7 285,396.3ZM83.2,423.3C76.8,424.3 73.9,426.7 72.9,429.1C71.9,431.5 72.3,435.2 76.1,440.5C80,445.7 87,451.1 95.8,454.8C104.8,458.4 113.5,459.4 120,458.5C126.3,457.5 129.3,455.1 130.3,452.7C131.2,450.3 130.8,446.6 127,441.3C123.1,436.1 116.2,430.7 107.3,427C99.15,424.2 91.17,422.3 83.2,423.3ZM471.1,457.8C464.6,457.9 452.6,458.8 450.6,466C450.5,478.5 466.6,485.8 476.2,488.5L494,488.5L494,463.2C486.7,459.8 478.8,458 471.1,457.8ZM147.3,458.6C143,468.5 131,474.9 122.6,476.3C119.6,476.7 116.5,476.9 113.3,476.8C111.4,482.9 118.9,487.1 123,488.5L148.2,488.5C156.8,486.5 163.9,482.5 168.3,478.5C173,474 174.2,470.4 173.6,467.9C173.1,465.3 170.6,462.5 164.5,460.3C158.3,458.7 153.1,457.9 147.3,458.6Z" style="fill:rgb(247,230,41);fill-rule:nonzero;"/>
    </g>
</svg>
