<?xml version="1.0" encoding="UTF-8" standalone="no"?>
<!DOCTYPE svg PUBLIC "-//W3C//DTD SVG 1.1//EN" "http://www.w3.org/Graphics/SVG/1.1/DTD/svg11.dtd">
<svg width="100%" height="100%" viewBox="0 0 512 512" version="1.1" xmlns="http://www.w3.org/2000/svg" xmlns:xlink="http://www.w3.org/1999/xlink" xml:space="preserve" xmlns:serif="http://www.serif.com/" style="fill-rule:evenodd;clip-rule:evenodd;stroke-linejoin:round;stroke-miterlimit:2;">
    <rect x="0" y="0" width="512" height="512" style="fill-rule:nonzero;"/>
    <path d="M261.936,16.281C306.056,16.281 345.984,21.607 375.656,30.563C390.492,35.04 402.776,40.364 412.03,46.97C421.278,53.567 428.268,62.288 428.28,73L428.28,73.031C428.28,86.892 427.143,100.457 425,113.594C420.912,111.177 416.278,109.674 411.406,109.5C410.688,109.474 409.973,109.47 409.25,109.5C408.527,109.53 407.798,109.597 407.063,109.687C395.3,111.157 385.6,118.881 378.407,128.875C371.213,138.87 366.294,151.564 364.937,165.25C363.58,178.935 365.95,191.35 372,200.845C375.02,205.583 379.238,209.565 384.188,212.155C353.971,252.589 310.648,278.125 261.938,278.125C212.669,278.125 168.891,252.02 138.625,210.78C142.598,208.247 146.018,204.837 148.562,200.843C154.612,191.349 156.982,178.935 155.625,165.249C154.268,151.564 149.381,138.868 142.188,128.874C134.994,118.88 125.263,111.157 113.5,109.687C112.03,109.503 110.593,109.449 109.156,109.499C105.452,109.631 101.884,110.521 98.594,111.999C96.614,99.347 95.564,86.314 95.564,72.999L95.594,72.969C95.621,62.269 102.606,53.559 111.844,46.969C121.098,40.364 133.383,35.04 148.218,30.562C177.891,21.607 217.817,16.281 261.936,16.281ZM152.78,48.72C139.609,52.763 129.183,57.554 122.688,62.188C116.054,66.923 114.281,70.671 114.281,73.031C114.281,75.391 116.053,79.141 122.687,83.875C129.322,88.609 140.048,93.496 153.625,97.593C180.78,105.789 219.342,111.063 261.937,111.063C304.533,111.063 343.095,105.789 370.25,97.595C383.828,93.495 394.553,88.609 401.188,83.875C407.822,79.14 409.594,75.39 409.594,73.03C409.594,70.67 407.822,66.921 401.188,62.187C394.683,57.545 384.23,52.765 371.03,48.719C375.52,52.45 378,56.456 378,60.656C378,80 326.04,95.688 261.938,95.688C197.834,95.688 145.844,80.004 145.844,60.656C145.844,56.462 148.303,52.446 152.78,48.72ZM262.125,139.938C250.274,139.938 240.074,146.903 233.406,156.47C226.74,166.034 223,178.466 223,192.03C223,205.597 226.74,218.028 233.406,227.595C240.076,237.16 250.276,244.125 262.126,244.125C273.976,244.125 284.208,237.16 290.876,227.595C297.544,218.029 301.281,205.597 301.281,192.031C301.281,178.466 297.543,166.034 290.875,156.468C284.207,146.903 273.976,139.938 262.125,139.938ZM222.905,287.345C221.631,293.379 220.305,299.34 218.905,305.155C219.405,305.338 219.91,305.512 220.437,305.688C230.122,308.905 244.577,311.125 260.562,311.125C276.332,311.125 290.632,308.959 300.312,305.812C298.817,300.382 297.39,294.817 296,289.187C286.03,291.332 274.93,292.531 263.22,292.531C248.46,292.531 234.674,290.647 222.906,287.345L222.905,287.345ZM214.25,323.312C202.524,365.968 187.34,400.492 169.594,418.687C170.092,419.837 171.244,421.397 173.719,423.407C177.521,426.495 184.017,429.919 192.437,432.813C209.275,438.6 233.647,442.438 260.562,442.438C287.475,442.438 311.879,438.6 328.718,432.813C337.136,429.919 343.632,426.495 347.435,423.406C350.598,420.838 351.597,419.021 351.842,417.844C334.616,399.53 318.555,365.624 305.562,323.75C293.329,327.648 277.73,329.813 260.56,329.813C242.896,329.813 226.91,327.519 214.53,323.406C214.434,323.376 214.343,323.344 214.248,323.312L214.25,323.312ZM366.813,429.562C364.813,432.714 362.169,435.51 359.219,437.906C352.829,443.096 344.579,447.132 334.779,450.5C315.179,457.237 289.213,461.125 260.562,461.125C231.91,461.125 205.974,457.237 186.374,450.5C176.574,447.132 168.324,443.095 161.936,437.906C159.046,435.558 156.452,432.824 154.468,429.75C154.068,429.93 153.68,430.148 153.278,430.313C141.533,435.13 132.205,441.731 129.81,451.843C125.33,470.773 188.658,490.153 261.685,490.156C334.713,490.158 394.092,472.883 394.092,451.844C394.092,443.208 382.692,438.474 366.812,429.564L366.813,429.562Z" style="fill:rgb(225,210,82);fill-rule:nonzero;"/>
    <path d="M262.125,158.625C266.73,158.625 271.414,161.249 275.53,167.156C279.648,173.063 282.593,181.986 282.593,192.03C282.593,199.245 281.067,205.864 278.687,211.22C278.748,210.617 278.781,209.997 278.781,209.377C278.781,199.45 270.737,191.407 260.811,191.407C252.375,191.407 245.34,197.226 243.405,205.063C242.327,201.083 241.687,196.681 241.687,192.031C241.687,181.985 244.599,173.063 248.719,167.155C252.835,161.249 257.519,158.625 262.125,158.625ZM109.53,128.125C110.054,128.132 110.61,128.178 111.187,128.25C115.805,128.827 121.9,132.694 127,139.78C132.1,146.867 136.007,156.759 137.03,167.093C137.286,169.665 137.35,172.121 137.25,174.437C134.276,168.618 128.234,164.624 121.25,164.624C112.031,164.624 104.441,171.559 103.406,180.499C99.78,174.013 97.13,166.063 96.312,157.813C95.288,147.478 97.406,138.997 100.53,134.093C102.875,130.414 105.113,128.637 108.03,128.219C108.518,128.149 109.008,128.118 109.53,128.125ZM411.03,128.125C411.554,128.118 412.045,128.15 412.53,128.22C415.45,128.639 417.688,130.415 420.03,134.095C423.156,138.999 425.274,147.48 424.25,157.813C423.31,167.283 419.977,176.373 415.5,183.281C415.509,183.052 415.532,182.825 415.532,182.595C415.532,172.668 407.488,164.625 397.562,164.625C391.738,164.625 386.572,167.393 383.282,171.688C383.298,170.199 383.374,168.674 383.532,167.094C384.556,156.76 388.462,146.868 393.562,139.78C398.665,132.694 404.757,128.827 409.375,128.25C409.952,128.178 410.508,128.132 411.03,128.125Z" style="fill:rgb(82,91,224);"/>
</svg>
