<?xml version="1.0" encoding="UTF-8" standalone="no"?>
<!DOCTYPE svg PUBLIC "-//W3C//DTD SVG 1.1//EN" "http://www.w3.org/Graphics/SVG/1.1/DTD/svg11.dtd">
<svg width="100%" height="100%" viewBox="0 0 512 512" version="1.1" xmlns="http://www.w3.org/2000/svg" xmlns:xlink="http://www.w3.org/1999/xlink" xml:space="preserve" xmlns:serif="http://www.serif.com/" style="fill-rule:evenodd;clip-rule:evenodd;stroke-linejoin:round;stroke-miterlimit:2;">
    <rect x="0" y="0" width="512" height="512" style="fill-rule:nonzero;"/>
    <path d="M296,57.01C279.5,57.01 264.7,60.41 254.8,65.41C244.8,70.41 241,76.01 241,80.01C241,83.91 244.8,89.62 254.8,94.51C264.7,99.51 279.5,103 296,103C300.6,103 305,102.7 309.2,102.2C313.5,96.71 319.6,91.84 326.7,88.6C334.9,84.9 344.4,81.9 351,80.01C351,76.01 347.2,70.41 337.2,65.41C327.3,60.41 312.5,57.01 296,57.01ZM241,107.4L241,109.8C243.9,110.8 246.7,112 249.3,113.3C258.3,117.8 266.1,124.1 270.1,132C280.3,134.5 291.8,135.4 303,134.7L303,120.8C300.7,120.9 298.4,121 296,121C277.1,121 259.9,117.3 246.7,110.7C244.7,109.7 242.8,108.6 241,107.4ZM273,151L273,164.7C282.4,166.6 292.9,167.3 303,166.7L303,152.9C292.9,153.4 282.7,152.8 273,151ZM273,183L273,196.7C282.4,198.6 292.9,199.3 303,198.7L303,184.9C292.9,185.4 282.7,184.8 273,183ZM273,215L273,228.7C282.4,230.6 292.9,231.3 303,230.7L303,216.9C292.9,217.4 282.7,216.8 273,215ZM273,247L273,260.7C282.4,262.6 292.9,263.3 303,262.7L303,248.9C292.9,249.4 282.7,248.8 273,247ZM431,274.8C428.2,276.6 425.1,278.2 421.7,279.7C424.8,280 427.9,280.4 430.8,280.9C431.2,278.9 431,276.9 431,274.8ZM273,279L273,292.6C283.9,294.7 293,295.2 303,294.8L303,280.9C292.9,281.4 282.7,280.8 273,279Z" style="fill:rgb(187,177,177);fill-rule:nonzero;"/>
    <path d="M104,249C120.5,249 135.3,252.5 145.2,257.4C155.2,262.4 159,268 159,272C159,276 155.2,281.6 145.2,286.6C135.3,291.6 120.5,295 104,295C87.51,295 72.71,291.6 62.71,286.6C52.81,281.6 49.01,276 49.01,272C49.01,268 52.81,262.4 62.71,257.4C72.71,252.5 87.51,249 104,249ZM49.01,299.4C64.12,309.4 84.39,311.4 104,313C122.9,313 140.1,309.3 153.3,302.7C155.3,301.7 157.2,300.6 159,299.4C158.9,312.3 146.2,319.4 133.5,323.1C115.6,328.2 92.41,328.2 74.51,323.1C64.32,320.1 48.72,314.2 49.01,299.4ZM49.01,331.5C54.81,335.2 61.71,338.1 69.51,340.4C91.21,346.6 116.8,346.6 138.5,340.4C146.3,338.1 153.2,335.2 159,331.5C158.9,344.3 146.1,351.4 133.5,355.1C115.6,360.2 92.41,360.2 74.51,355.1C64.53,352.1 48.67,346.1 49.01,331.5ZM49.01,363.5C54.81,367.2 61.71,370.1 69.51,372.4C91.21,378.6 116.8,378.6 138.5,372.4C146.3,370.1 153.2,367.2 159,363.5C158.9,376.3 146.1,383.4 133.5,387.1C115.6,392.2 92.41,392.2 74.51,387.1C64.53,384.1 48.67,378.1 49.01,363.5ZM49.01,395.5C54.81,399.2 61.71,402.1 69.51,404.4C91.21,410.6 116.8,410.6 138.5,404.4C146.3,402.1 153.2,399.2 159,395.5C158.9,408.3 146.1,415.4 133.5,419.1C115.6,424.2 92.41,424.2 74.51,419.1C64.53,416.1 48.67,410.1 49.01,395.5ZM49.01,427.5C54.81,431.2 61.71,434.1 69.51,436.4C91.21,442.6 116.8,442.6 138.5,436.4C146.3,434.1 153.2,431.2 159,427.5C158.9,440.3 146.1,447.4 133.5,451.1C115.6,456.2 92.41,456.2 74.51,451.1C64.53,448.1 48.67,442.1 49.01,427.5ZM49.01,459.5C54.81,463.2 61.71,466.1 69.51,468.4C91.21,474.6 116.8,474.6 138.5,468.4C146.3,466.1 153.2,463.2 159,459.5C159,470 155.1,472.4 145.2,478.6C135.3,483.6 120.5,487 104,487C87.51,487 72.71,483.6 62.71,478.6C56.89,475.6 48.57,469.7 49.01,459.5Z" style="fill:rgb(187,177,177);"/>
    <path d="M376,96.31C392.5,96.31 407.3,99.71 417.2,104.8C427.2,109.7 431,115.4 431,119.3C431,123.3 427.2,128.9 417.2,133.9C407.3,138.9 392.5,142.3 376,142.3C359.5,142.3 344.7,138.9 334.8,133.9C324.8,128.9 321,123.3 321,119.3C321,115.4 324.8,109.7 334.8,104.8C344.7,99.71 359.5,96.31 376,96.31ZM321,146.8C322.8,147.9 324.7,149 326.7,150C339.9,156.6 357.1,160.3 376,160.3C394.9,160.3 412.1,156.6 425.3,150C427.3,149 429.2,147.9 431,146.8C430.9,159.7 418.2,166.7 405.5,170.4C387.6,175.6 364.4,175.6 346.5,170.4C336.4,167.4 320.8,161.5 321,146.8ZM321,178.8C326.8,182.5 333.7,185.4 341.5,187.7C363.2,194 388.8,194 410.5,187.7C418.3,185.4 425.2,182.5 431,178.8C430.9,191.7 418.2,198.7 405.5,202.4C387.6,207.6 364.4,207.6 346.5,202.4C336.4,199.4 320.8,193.5 321,178.8ZM321,210.8C326.8,214.5 333.7,217.4 341.5,219.7C363.2,226 388.8,226 410.5,219.7C418.3,217.4 425.2,214.5 431,210.8C430.9,223.7 418.2,230.7 405.5,234.4C387.6,239.6 364.4,239.6 346.5,234.4C336.4,231.4 320.8,225.5 321,210.8ZM321,242.8C326.8,246.5 333.7,249.4 341.5,251.7C363.2,258 388.8,258 410.5,251.7C418.3,249.4 425.2,246.5 431,242.8C430.9,255.7 418.2,262.7 405.5,266.4C387.6,271.6 364.4,271.6 346.5,266.4C336.4,263.4 320.8,257.5 321,242.8ZM321,274.8C326.8,278.5 333.7,281.4 341.5,283.7C348.1,285.6 355.1,286.9 362.3,287.7C356.3,290.2 351.2,293.6 345.6,298.1C335.7,295.1 320.7,289 321,274.8ZM321,306.8C325.1,309.4 329.8,311.7 335,313.6L335,326C334.9,326 334.8,325.9 334.8,325.9C329,322.9 320.6,317.1 321,306.8Z" style="fill:rgb(236,193,40);"/>
    <path d="M136,25.01C152.5,25.01 167.3,28.41 177.2,33.41C187.2,38.41 191,44.01 191,48.01C191,51.91 187.2,57.62 177.2,62.51C167.3,67.51 152.5,71.01 136,71.01C119.5,71.01 104.7,67.51 94.71,62.51C84.81,57.62 81.01,51.91 81.01,48.01C81.01,44.01 84.81,38.41 94.71,33.41C104.7,28.41 119.5,25.01 136,25.01ZM81.01,75.4C96.02,85.35 116.5,87.37 136,89C151.4,88.89 174.9,86.03 191,75.4C190.9,88.28 178.3,95.34 165.5,99C147.6,104.2 124.4,104.2 106.5,99C96.49,96.04 80.61,90.06 81.01,75.4ZM81.01,107.5C86.81,111.2 93.71,114.1 101.5,116.4C113.2,119.7 126.1,121.3 138.9,121C134.3,124.9 130.7,129.5 128.7,134.7C120.9,134.3 113.3,133 106.5,131.1C96.53,128.1 80.67,122.1 81.01,107.5ZM81.01,139.5C86.81,143.2 93.71,146.1 101.5,148.4C109.6,150.7 118.2,152.2 127,152.8L127,166.6C119.8,166.1 112.8,164.9 106.5,163.1C96.53,160.1 80.67,154.1 81.01,139.5ZM81.01,171.5C86.81,175.2 93.71,178.1 101.5,180.4C109.6,182.7 118.2,184.2 127,184.8L127,198.6C119.8,198.1 112.8,196.9 106.5,195.1C96.53,192.1 80.67,186.1 81.01,171.5ZM81.01,203.5C86.81,207.2 93.71,210.1 101.5,212.4C109.6,214.7 118.2,216.2 127,216.8L127,230.6C119.8,230.1 112.8,228.9 106.5,227.1C96.53,224.1 80.67,218.1 81.01,203.5Z" style="fill:rgb(236,193,40);"/>
    <path d="M264,345C280.5,345 295.3,348.5 305.2,353.4C315.2,358.4 319,364 319,368C319,372 315.2,377.6 305.2,382.6C295.3,387.6 280.5,391 264,391C247.5,391 232.7,387.6 222.8,382.6C212.8,377.6 209,372 209,368C209,364 212.8,358.4 222.8,353.4C232.7,348.5 247.5,345 264,345ZM209,395.4C210.8,396.6 212.7,397.7 214.7,398.7C227.9,405.3 245.1,409 264,409C282.9,409 300.1,405.3 313.3,398.7C315.3,397.7 317.2,396.6 319,395.4L319,400C319,402.5 317.7,405.6 313.5,409.2C309.3,412.8 302.5,416.5 293.5,419.1C275.6,424.2 252.4,424.2 234.5,419.1C225.5,416.5 218.7,412.8 214.5,409.2C211.2,406.3 208.5,401.4 209,395.4ZM209,427.5C214.8,431.2 221.7,434.1 229.5,436.4C251.2,442.6 276.8,442.6 298.5,436.4C306.3,434.1 313.2,431.2 319,427.5C319,438 315.1,440.4 305.2,446.6C295.3,451.6 280.5,455 264,455C247.5,455 232.7,451.6 222.8,446.6C217,443.6 208.6,437.8 209,427.5Z" style="fill:rgb(236,193,40);"/>
    <path d="M408,297C424.5,297 439.3,300.5 449.2,305.4C459.2,310.4 463,316 463,320C463,324 459.2,329.6 449.2,334.6C439.3,339.6 424.5,343 408,343C391.5,343 376.7,339.6 366.8,334.6C356.8,329.6 353,324 353,320C353,316 356.8,310.4 366.8,305.4C376.7,300.5 391.5,297 408,297ZM353,347.4C368.1,357.4 388.4,359.4 408,361C423.3,360.9 447.2,357 463,347.4C462.9,360.3 450.2,367.4 437.5,371.1C419.6,376.2 396.4,376.2 378.5,371.1C368.2,368.1 352.9,362.2 353,347.4ZM353,379.5C358.8,383.2 365.7,386.1 373.5,388.4C395.2,394.6 420.8,394.6 442.5,388.4C450.3,386.1 457.2,383.2 463,379.5C462.9,392.3 450.1,399.4 437.5,403.1C419.6,408.2 396.4,408.2 378.5,403.1C368.4,400.1 352.8,394.2 353,379.5ZM353,411.5C358.8,415.2 365.7,418.1 373.5,420.4C395.2,426.6 420.8,426.6 442.5,420.4C450.3,418.1 457.2,415.2 463,411.5C462.9,424.3 450.1,431.4 437.5,435.1C419.6,440.2 396.4,440.2 378.5,435.1C368.4,432.1 352.8,426.2 353,411.5ZM353,443.5C358.8,447.2 365.7,450.1 373.5,452.4C395.2,458.6 420.8,458.6 442.5,452.4C450.3,450.1 457.2,447.2 463,443.5C463,454 459.1,456.4 449.2,462.6C439.3,467.6 424.5,471 408,471C391.5,471 376.7,467.6 366.8,462.6C361,459.6 352.6,453.8 353,443.5Z" style="fill:rgb(226,116,116);"/>
    <path d="M200,121C216.5,121 231.3,124.5 241.2,129.4C251.2,134.4 255,140 255,144C255,148 251.2,153.6 241.2,158.6C231.3,163.6 216.5,167 200,167C183.5,167 168.7,163.6 158.8,158.6C148.8,153.6 145,148 145,144C145,140 148.8,134.4 158.8,129.4C168.7,124.5 183.5,121 200,121ZM145,171.4C146.8,172.6 148.7,173.7 150.7,174.7C163.9,181.3 181.1,185 200,185C218.9,185 236.1,181.3 249.3,174.7C251.3,173.7 253.2,172.6 255,171.4C255,177.1 254.4,181.1 249.5,185.2C245.3,188.8 238.5,192.5 229.5,195.1C211.6,200.2 188.4,200.2 170.5,195.1C161.5,192.5 154.7,188.8 150.5,185.2C147.2,182.3 144.5,177.4 145,171.4ZM145,203.5C150.8,207.2 157.7,210.1 165.5,212.4C187.2,218.6 212.8,218.6 234.5,212.4C242.3,210.1 249.2,207.2 255,203.5C255,209.2 254.4,213.1 249.5,217.2C245.3,220.8 238.5,224.5 229.5,227.1C211.6,232.2 188.4,232.2 170.5,227.1C161.5,224.5 154.7,220.8 150.5,217.2C147.2,214.3 144.5,209.5 145,203.5ZM145,235.5C150.8,239.2 157.7,242.1 165.5,244.4C187.2,250.6 212.8,250.6 234.5,244.4C242.3,242.1 249.2,239.2 255,235.5C255,241.2 254.4,245.1 249.5,249.2C245.3,252.8 238.5,256.5 229.5,259.1C212.8,263.9 191.4,264.2 174.1,260C170.1,252.1 162.3,245.8 153.3,241.3C150.7,240 147.9,238.8 145,237.8L145,235.5ZM255,267.5C254.9,280.3 242.1,287.4 229.5,291.1C213.7,295.6 193.8,296.2 177,292.7L177,279C195.9,282.4 216.5,281.5 234.5,276.4C242.3,274.1 249.2,271.2 255,267.5ZM255,299.5C254.9,312.3 242.1,319.4 229.5,323.1C213.7,327.6 193.8,328.2 177,324.7L177,311C195.9,314.4 216.5,313.5 234.5,308.4C242.3,306.1 249.2,303.2 255,299.5ZM177,343C185.4,344.5 194.2,345.2 202.9,345C198.3,348.9 194.7,353.5 192.7,358.8C187.2,358.4 181.9,357.7 177,356.6L177,343Z" style="fill:rgb(226,116,116);"/>
</svg>
