<?xml version="1.0" encoding="UTF-8" standalone="no"?>
<!DOCTYPE svg PUBLIC "-//W3C//DTD SVG 1.1//EN" "http://www.w3.org/Graphics/SVG/1.1/DTD/svg11.dtd">
<svg width="100%" height="100%" viewBox="0 0 512 512" version="1.1" xmlns="http://www.w3.org/2000/svg" xmlns:xlink="http://www.w3.org/1999/xlink" xml:space="preserve" xmlns:serif="http://www.serif.com/" style="fill-rule:evenodd;clip-rule:evenodd;stroke-linejoin:round;stroke-miterlimit:2;">
    <rect x="0" y="0" width="512" height="512" style="fill-rule:nonzero;"/>
    <g>
        <path d="M322.248,85.684L61.432,224.717L20.287,334.657L27.52,338.507L181.193,420.307L489.688,256.092L451.936,156.189L322.248,85.683L322.248,85.684ZM441.283,180.871L466.393,247.321L363.833,301.915L430.39,186.64L441.283,180.87L441.283,180.871ZM351.707,228.288L284.957,343.9L243.287,366.082L315.482,247.462L351.707,228.287L351.707,228.288ZM72.38,248.78L100.59,263.713L46.578,317.725L72.38,248.78ZM283.207,264.547L211.19,382.87L211.45,383.03L194.242,392.19L200.037,308.572L283.207,264.547ZM117.873,272.859L134.836,281.839L74.391,342.284L57.461,333.272L117.874,272.858L117.873,272.859ZM181.42,306.9L175.246,395.97L121.146,367.172L181.42,306.9Z" style="fill:rgb(109,200,230);fill-rule:nonzero;"/>
    </g>
</svg>
