<?xml version="1.0" encoding="UTF-8" standalone="no"?>
<!DOCTYPE svg PUBLIC "-//W3C//DTD SVG 1.1//EN" "http://www.w3.org/Graphics/SVG/1.1/DTD/svg11.dtd">
<svg width="100%" height="100%" viewBox="0 0 512 512" version="1.1" xmlns="http://www.w3.org/2000/svg" xmlns:xlink="http://www.w3.org/1999/xlink" xml:space="preserve" xmlns:serif="http://www.serif.com/" style="fill-rule:evenodd;clip-rule:evenodd;stroke-linejoin:round;stroke-miterlimit:2;">
    <rect x="0" y="0" width="512" height="512" style="fill-rule:nonzero;"/>
    <path d="M247.8,128.4L247.8,136.5C238.9,137 230.2,138.3 221.8,140.3L219.5,132.5C228.8,130.3 238.2,128.9 247.8,128.4ZM379.3,187.3C385.1,194.4 390.2,201.9 394.6,209.9L387.5,213.9C383.6,206.5 378.9,199.6 373.6,193.1L379.3,187.3ZM164.4,157.2L168.6,164.3C161.6,169.2 155,174.8 149.1,180.9L143.3,175.1C149.8,168.6 156.9,162.6 164.4,157.2ZM264,128.4C273.6,128.9 283.1,130.3 292.2,132.5L290,140.3C281.7,138.3 273,137 264,136.5L264,128.4ZM204,136.9L206.2,144.8C197.9,147.7 190,151.3 182.3,155.6L178.2,148.5C186.4,143.9 195,140.1 204,136.9ZM307.7,136.9C316.8,140.1 325.5,143.9 333.7,148.5L329.5,155.6C321.9,151.3 314.1,147.7 305.7,144.8L307.7,136.9ZM132.5,187.3L138.2,193.1C133,199.6 128.3,206.5 124.2,213.9L117.1,209.9C121.6,201.9 126.7,194.4 132.5,187.3ZM110.1,224.4L117,228.6L116.7,229.2C111.7,232.4 107.2,236.7 103.8,241.7L103.7,242C105.5,235.8 107.6,230.1 110.1,224.4ZM401.9,224.4C405.3,232.3 408.1,240.8 410.2,249.6L402.3,251.7C400.4,243.7 397.9,235.9 394.7,228.6L401.9,224.4ZM98.61,265.6L106.6,267.7C105.8,274 105.4,280.4 105.4,286.9L105.4,291.1L97.31,291.1C97.31,289.8 97.21,288.2 97.21,286.9C97.21,279.6 97.71,272.5 98.61,265.6ZM413.2,265.6C414.1,272.5 414.6,279.6 414.6,286.9L414.6,291.1L406.4,291.1C406.6,289.8 406.6,288.2 406.6,286.9C406.6,280.4 406,274 405.3,267.7L413.2,265.6ZM98.51,307.4L106.7,307.4C107.7,315 109.4,322.4 111.5,329.6L103.6,331.7C101.4,323.8 99.51,315.6 98.51,307.4ZM405.2,307.4L413.4,307.4C412.3,315.6 410.4,323.8 408.2,331.7L400.4,329.6C402.5,322.4 404.1,315 405.2,307.4ZM116.8,345C119.8,351.6 123,358.2 126.8,364.4L119.9,368.6C115.7,361.7 112,354.6 108.9,347L116.8,345ZM136,377.9C140.2,383.5 144.8,388.8 149.9,393.8L144.2,399.3C138.6,394.1 133.6,388.2 128.9,382L136,377.9ZM379.9,380.2L382.9,382C378.2,388.2 373.2,394.1 367.7,399.3L361.9,393.8C366.1,389.8 369.8,385.5 373.4,381L373.5,381C375.7,380.9 377.6,380.6 379.7,380.3L379.9,380.2ZM162.1,404.2C167.4,409.1 173.1,413 178.8,415.9L175,423.7C168.4,419.8 162.2,414.9 156.2,410.1L162.1,404.2ZM349.8,404.2L355.6,410.1C349.7,414.9 343.4,419.8 336.9,423.7L333,415.9C338.7,413 344.4,409.1 349.8,404.2ZM193.4,423.7C199.5,426.6 205.7,429.5 212.2,431.4L210,439.3C203,436.3 195.9,434.5 189.3,430.5L193.4,423.7ZM318.6,423.7L322.5,430.5C315.8,434.5 309,436.3 301.8,439.3L299.5,431.4C306.1,429.5 312.4,426.6 318.6,423.7ZM227.9,435.4C234.3,436.3 241,437.4 247.8,437.4L247.8,445.1C240.4,445.1 233,444.2 225.9,443.2L227.9,435.4ZM283.8,435.4L286.1,443.2C278.8,444.2 271.5,445.1 264,445.1L264,437.4C270.8,437.4 277.5,436.3 283.8,435.4ZM347.3,157.2C354.8,162.6 362,168.6 368.5,175.1L362.8,180.9C356.8,174.8 350.2,169.2 343.3,164.3L347.3,157.2Z" style="fill:rgb(255,215,54);fill-rule:nonzero;"/>
    <path d="M140.7,235.9C143.8,235.8 147,236.3 150.1,237.2C192.5,250 264.9,271.5 264.9,271.5C281.5,276.5 291.1,294.1 286.2,310.6L400.8,345C395.8,361.6 378.3,371 361.7,366L247,331.8C230.4,326.8 220.9,309.3 225.8,292.6L111,258.4C115,244.9 127.3,236 140.7,235.9ZM255.9,290.3C249.6,290.3 244.4,295.3 244.4,301.6C244.4,308 249.6,313.2 255.9,313.2C262.2,313.2 267.4,308 267.4,301.6C267.4,295.3 262.2,290.3 255.9,290.3Z" style="fill:rgb(235,224,40);"/>
    <path d="M255.9,168.7C294.8,168.7 326.5,200.3 326.5,239.2C326.5,252.5 322.7,264.9 316.4,275.5C336.9,258.4 349.9,232.4 349.9,203.7C349.9,196.7 349.1,189.8 347.6,183.3C351.1,186.4 354.2,189.5 357.4,192.8C357.8,196.4 358,199.9 358,203.7C358,243.9 334.6,278.7 300.8,295.4L300.8,295C300.2,292.1 299.4,289.4 298.5,286.4C297.4,283.4 296.1,280.5 294.4,277.8L294.3,277.7C304.1,267.9 310.3,254.2 310.3,239.2C310.3,209.3 286,184.9 255.9,184.9C226.2,184.9 202.2,208.7 201.5,238.3L185.6,233.6C188.5,197.3 218.9,168.7 255.9,168.7ZM164.1,183.3C162.7,189.8 162,196.7 162,203.7C162,211.9 163,219.8 165.1,227.3L156,224.6C154.6,217.9 153.9,211 153.9,203.7C153.9,199.9 154.1,196.4 154.4,192.8C157.6,189.5 160.8,186.4 164.1,183.3ZM213.9,318.3C215.8,323.4 218.7,328 222.5,332.1C208.1,342.4 198.8,359.4 198.8,378.4C198.8,394.6 205.5,409.1 216.3,419.8C206.6,416.9 197.5,413 188.7,408.1C184.8,398.8 182.5,388.8 182.5,378.4C182.5,353.6 194.9,331.6 213.9,318.3ZM311.6,365.5L328.9,370.7C329.1,373.2 329.3,375.7 329.3,378.4C329.3,388.8 327.1,398.8 323.1,408.1C314.4,413 305.2,416.9 295.6,419.8C306.3,409.1 313,394.6 313,378.4C313,374 312.5,369.6 311.6,365.5Z" style="fill:rgb(183,174,147);"/>
    <path d="M256,89.48C366.8,89.48 456.7,179.5 456.7,290.3C456.7,401.1 366.8,491 256,491C145.2,491 55.28,401.1 55.28,290.3C55.28,179.5 145.2,89.48 256,89.48ZM256,122.1C163.1,122.1 87.74,197.4 87.74,290.3C87.74,383.1 163.1,458.5 256,458.5C348.9,458.5 424.2,383.1 424.2,290.3C424.2,197.4 348.9,122.1 256,122.1Z" style="fill:rgb(167,140,110);"/>
    <path d="M255.9,21.04C267.7,21.04 278.2,25.12 284.6,31.05C290.1,36.03 293.1,42.46 293.1,49.16C293.1,54.71 291.1,60.17 287.2,64.64C303.6,69.61 317.3,78.28 326.2,89.17C304.2,81.5 280.5,77.31 255.9,77.31C231.3,77.31 207.7,81.5 185.6,89.17C194.5,78.28 208.2,69.61 224.6,64.64C220.9,60.17 218.7,54.71 218.7,49.16C218.7,42.46 221.7,36.03 227.3,31.05C233.7,25.12 244.1,21.04 255.9,21.04ZM255.9,41.38C250.6,41.38 245.8,42.65 242.3,44.9C240.7,46.06 239,47.33 239,49.17C239,50.93 240.7,52.2 242.3,53.36C245.8,55.69 250.6,56.97 255.9,56.97C261.2,56.97 266,55.69 269.5,53.36C271.2,52.2 272.9,50.93 272.9,49.17C272.9,47.33 271.2,46.06 269.5,44.9C266,42.65 261.2,41.38 255.9,41.38Z" style="fill:rgb(167,140,110);"/>
</svg>
