<?xml version="1.0" encoding="UTF-8" standalone="no"?>
<!DOCTYPE svg PUBLIC "-//W3C//DTD SVG 1.1//EN" "http://www.w3.org/Graphics/SVG/1.1/DTD/svg11.dtd">
<svg width="100%" height="100%" viewBox="0 0 512 512" version="1.1" xmlns="http://www.w3.org/2000/svg" xmlns:xlink="http://www.w3.org/1999/xlink" xml:space="preserve" xmlns:serif="http://www.serif.com/" style="fill-rule:evenodd;clip-rule:evenodd;stroke-linejoin:round;stroke-miterlimit:2;">
    <rect x="0" y="0" width="512" height="512" style="fill-rule:nonzero;"/>
    <g>
        <path d="M369.4,33.6C357.1,33.9 343.8,38.7 330.6,48.6L341.4,63C355.8,52.2 367.9,50.2 377.3,52.3C386.6,54.4 393.9,60.8 397.8,69.5C405.7,86.9 401.2,112.8 364.7,127.4L359,129.7L359,174.8L377,174.8L377,141.6C415.7,123.3 425.8,87.5 414.2,62.1C408.1,48.7 396.4,38.1 381.2,34.7C377.4,33.9 373.5,33.5 369.4,33.6ZM145.4,33.64C133.1,33.96 119.8,38.71 106.6,48.6L117.4,63C131.8,52.19 143.9,50.23 153.3,52.33C162.6,54.43 169.9,60.84 173.8,69.52C181.7,86.89 177.2,112.8 140.7,127.4L135,129.7L135,174.8L153,174.8L153,141.6C191.7,123.3 201.8,87.5 190.2,62.08C184.1,48.76 172.4,38.17 157.2,34.77C153.4,33.92 149.5,33.53 145.4,33.64ZM89,192.8L89,222.8L199,222.8L199,192.8L89,192.8ZM313,192.8L313,222.8L423,222.8L423,192.8L313,192.8Z" style="fill:rgb(246,223,101);fill-rule:nonzero;"/>
        <path d="M125.3,240.8L162.7,240.8L218.3,310.3L144,496L69.7,310.3L125.3,240.8ZM135,307.3L92.2,318L135,425.1L135,307.3ZM153,307.3L153,425.1L195.8,318L153,307.3ZM349.3,240.8L386.7,240.8L442.3,310.3L368,496L293.7,310.3L349.3,240.8ZM377,257.4L377,288.8L408.3,296.6L377,257.4ZM359,307.3L316.2,318L359,425.1L359,307.3ZM377,307.3L377,425.1L419.8,318L377,307.3Z" style="fill:url(#_Linear1);"/>
    </g>
    <defs>
        <linearGradient id="_Linear1" x1="0" y1="0" x2="1" y2="0" gradientUnits="userSpaceOnUse" gradientTransform="matrix(372.6,0,0,255.2,69.7,368.4)"><stop offset="0" style="stop-color:rgb(0,224,255);stop-opacity:1"/><stop offset="1" style="stop-color:rgb(235,235,235);stop-opacity:1"/></linearGradient>
    </defs>
</svg>
