<?xml version="1.0" encoding="UTF-8" standalone="no"?>
<!DOCTYPE svg PUBLIC "-//W3C//DTD SVG 1.1//EN" "http://www.w3.org/Graphics/SVG/1.1/DTD/svg11.dtd">
<svg width="100%" height="100%" viewBox="0 0 512 512" version="1.1" xmlns="http://www.w3.org/2000/svg" xmlns:xlink="http://www.w3.org/1999/xlink" xml:space="preserve" xmlns:serif="http://www.serif.com/" style="fill-rule:evenodd;clip-rule:evenodd;stroke-linejoin:round;stroke-miterlimit:2;">
    <rect x="0" y="0" width="512" height="512" style="fill-rule:nonzero;"/>
    <g>
        <path d="M233.2,232.287C235.198,230.315 237.121,228.27 238.967,226.156L189.858,176.381L254.645,202.802C257.156,197.78 259.28,192.575 261,187.23L198.705,161.824L265.978,162.277C266.438,156.682 266.476,151.058 266.091,145.457L196.124,144.986L260.622,117.856C258.842,112.53 256.659,107.348 254.091,102.354L186.283,130.876C196.979,145.899 195.525,167.054 182.003,180.396C168.479,193.738 147.306,194.907 132.429,184.009L102.996,251.427C107.991,254.082 113.145,256.327 118.409,258.167L146.405,194.039L145.933,264.007C151.529,264.467 157.153,264.505 162.753,264.12L163.207,196.848L187.771,259.479C193.139,257.831 198.373,255.777 203.429,253.334L177.882,188.197L226.992,237.971C229.131,236.154 231.201,234.259 233.199,232.288L233.2,232.287Z" style="fill:rgb(231,185,98);fill-rule:nonzero;"/>
        <path d="M392.121,381.388L380.145,393.203L347.232,359.843C322.712,382.663 295.172,400.314 265.972,412.796L287.661,468.098L272.002,474.24L250.312,418.937C221.642,429.207 191.662,434.68 161.599,435.367L161.221,491.517L144.401,491.404L144.778,435.254C112.466,434.074 80.323,427.371 49.878,415.138L33.925,451.678L18.51,444.948L96.265,266.845C101.251,269.423 106.403,271.669 111.686,273.567C122.722,277.519 134.247,279.941 145.94,280.767C146.928,280.837 147.917,280.885 148.907,280.933C149.348,280.954 149.788,280.982 150.228,280.998C151.21,281.036 152.192,281.051 153.174,281.066C153.616,281.073 154.059,281.086 154.501,281.088C155.476,281.093 156.451,281.079 157.426,281.061C157.883,281.053 158.339,281.049 158.796,281.036C159.733,281.009 160.67,280.966 161.606,280.919C172.668,280.367 183.612,278.387 194.166,275.029C194.891,274.798 195.609,274.549 196.331,274.304C196.958,274.091 197.586,273.884 198.211,273.661C199.012,273.376 199.809,273.074 200.605,272.771C201.14,272.569 201.676,272.371 202.208,272.161C203.081,271.817 203.948,271.455 204.813,271.091C205.247,270.909 205.681,270.729 206.113,270.542C207.012,270.152 207.906,269.748 208.797,269.338C219.965,264.186 230.328,257.442 239.56,249.315C240.338,248.633 241.115,247.948 241.88,247.244C242.942,246.268 243.987,245.273 245.015,244.262C246.04,243.247 247.048,242.215 248.039,241.167C248.753,240.411 249.449,239.644 250.142,238.875C258.392,229.753 265.275,219.483 270.577,208.385C271,207.499 271.415,206.611 271.817,205.718C272.01,205.288 272.195,204.857 272.383,204.425C272.759,203.565 273.133,202.702 273.489,201.835C273.706,201.305 273.911,200.772 274.121,200.24C274.433,199.448 274.746,198.655 275.043,197.858C275.274,197.236 275.49,196.611 275.711,195.986C275.965,195.268 276.225,194.552 276.465,193.832C279.986,183.279 282.089,172.355 282.793,161.354C282.853,160.419 282.907,159.482 282.947,158.546C282.966,158.089 282.977,157.633 282.991,157.176C283.022,156.202 283.049,155.227 283.057,154.252C283.061,153.81 283.054,153.367 283.053,152.925C283.052,151.943 283.049,150.96 283.026,149.978C283.015,149.537 282.993,149.096 282.978,148.656C282.944,147.667 282.909,146.677 282.852,145.688C282.184,133.985 279.916,122.428 276.113,111.34C274.287,106.032 272.111,100.85 269.6,95.829L448.733,20.483L455.256,35.987L418.504,51.447C430.326,82.054 436.595,114.285 437.339,146.61L493.489,146.988L493.376,163.808L437.226,163.43C436.134,193.481 430.257,223.385 419.602,251.913L474.607,274.346L468.255,289.921L413.251,267.49C400.376,296.518 382.356,323.818 359.208,348.028L392.121,381.388Z" style="fill:rgb(51,18,191);"/>
        <path d="M170.188,168.42C161.667,176.828 148.198,176.737 139.791,168.215C131.383,159.694 131.474,146.225 139.995,137.817C148.517,129.41 161.986,129.501 170.393,138.022C178.801,146.544 178.71,160.013 170.188,168.42Z" style="fill:rgb(166,166,166);"/>
    </g>
</svg>
