<?xml version="1.0" encoding="UTF-8" standalone="no"?>
<!DOCTYPE svg PUBLIC "-//W3C//DTD SVG 1.1//EN" "http://www.w3.org/Graphics/SVG/1.1/DTD/svg11.dtd">
<svg width="100%" height="100%" viewBox="0 0 512 512" version="1.1" xmlns="http://www.w3.org/2000/svg" xmlns:xlink="http://www.w3.org/1999/xlink" xml:space="preserve" xmlns:serif="http://www.serif.com/" style="fill-rule:evenodd;clip-rule:evenodd;stroke-linejoin:round;stroke-miterlimit:2;">
    <rect x="0" y="0" width="512" height="512" style="fill-rule:nonzero;"/>
    <path d="M375.4,395.8C368.4,404 356.8,411 342.7,416C318.4,425 287.2,429 256,429C224.8,429 193.6,425 169.3,416C155.2,411 143.6,404 136.6,395.8L110.8,417C121,429 137.4,440 157.9,447C185.4,457 220.7,462 256,462C291.3,462 326.6,457 354.1,447C374.7,440 391,429 401.2,417L375.4,395.8ZM144.7,379L367.3,379C344.6,422 167.4,422 144.7,379ZM62.17,257.7C46.82,253.9 35.42,240.1 35.42,223.6C35.42,204.2 51.14,188.5 70.5,188.5C89.86,188.5 105.6,204.2 105.6,223.6C105.6,240.1 94.18,253.9 78.83,257.7L78.83,340.7L334,340.7L334,357.3L62.17,357.3L62.17,257.7ZM435.7,263.8C423.2,260.2 414,248.7 414,235C414,218.4 427.4,205 444,205C460.6,205 474,218.4 474,235C474,248.7 464.8,260.2 452.3,263.8L452.3,325.3L204.3,325.3L204.3,308.7L435.7,308.7L435.7,263.8ZM387.7,167C378.5,163.6 372,154.8 372,144.5C372,131.3 382.8,120.5 396,120.5C409.2,120.5 420,131.3 420,144.5C420,154.8 413.5,163.6 404.3,167L404.3,210.4C399.9,217.6 397.3,226 397.3,235C397.3,244 399.9,252.4 404.3,259.6L404.3,292.3L214.3,292.3L214.3,275.7L387.7,275.7L387.7,167Z" style="fill:rgb(223,207,101);fill-rule:nonzero;"/>
    <path d="M256,75C306.8,75 348,116.2 348,167C348,217.8 306.8,259 256,259C205.2,259 164,217.8 164,167C164,116.2 205.2,75 256,75Z" style="fill:rgb(223,207,101);"/>
</svg>
