<?xml version="1.0" encoding="UTF-8" standalone="no"?>
<!DOCTYPE svg PUBLIC "-//W3C//DTD SVG 1.1//EN" "http://www.w3.org/Graphics/SVG/1.1/DTD/svg11.dtd">
<svg width="100%" height="100%" viewBox="0 0 512 512" version="1.1" xmlns="http://www.w3.org/2000/svg" xmlns:xlink="http://www.w3.org/1999/xlink" xml:space="preserve" xmlns:serif="http://www.serif.com/" style="fill-rule:evenodd;clip-rule:evenodd;stroke-linejoin:round;stroke-miterlimit:2;">
    <rect x="0" y="0" width="512" height="512" style="fill-rule:nonzero;"/>
    <g>
        <path d="M120.72,237.968L120.72,238L108.313,238C108.313,253.576 116.266,263.735 126.625,268.47L126.625,297.22C126.625,332.712 155.852,361.937 191.345,361.937L243.375,361.937L243.375,454.375C221.245,457.9 202.375,469.809 202.375,490.063L312.72,490.063C312.72,469.749 293.873,457.873 271.75,454.375L271.75,361.937L323.656,361.937C359.15,361.937 387.5,332.407 387.5,297.219L387.5,268.719C398.1,264.103 406.313,253.873 406.313,237.999L392.25,237.999L392.25,237.969L353.437,237.969L353.437,237.999L340.875,237.999C340.875,253.544 348.797,263.691 359.125,268.437L359.125,297.217C359.125,317.397 343.535,333.561 323.655,333.561L271.75,333.561L271.75,268.593C282.214,263.921 290.28,253.733 290.28,237.999L275.313,237.999L275.313,237.969L236.5,237.969L236.5,237.999L224.844,237.999C224.844,253.683 232.911,263.871 243.374,268.562L243.374,333.562L191.344,333.562C171.464,333.562 155,317.097 155,297.218L155,268.685C165.57,264.058 173.75,253.84 173.75,237.998L159.53,237.998L159.53,237.968L120.72,237.968Z" style="fill:rgb(255,183,0);fill-rule:nonzero;"/>
        <path d="M255.438,19.938C267.168,20.026 278.987,32.686 283.437,59.906C286.395,77.992 280.953,89.63 272.437,95.438C275.015,90.945 276.18,84.598 274.875,76.22C271.875,56.967 264.016,48.311 256.22,48.407C247.918,48.509 239.686,58.531 237.47,76.221C236.48,84.109 238.257,90.429 241.5,95.031C231.89,88.878 225.062,76.953 227.25,59.906C230.575,33.996 242.951,19.844 255.438,19.938ZM139.813,27.969C152.371,28.169 164.775,41.801 168.125,65.749C170.117,79.994 164.7,90.505 156.5,96.719C158.202,92.695 158.968,87.793 158.25,82.063C155.965,63.837 147.3,53.734 138.75,54.25C131.204,54.705 123.747,63.432 120.844,82.062C119.746,89.107 120.394,94.72 122.156,99C113.775,93.534 108.496,82.67 111.438,65.75C115.837,40.442 127.156,28.61 138.593,28C138.999,27.978 139.407,27.963 139.813,27.969ZM373.968,35.501C386.143,35.75 398.186,50.695 401.438,76.845C403.698,95.011 396.151,107.767 385.938,113.937C390.145,109.247 392.67,102.237 391.53,93.157C389.314,75.468 381.082,65.447 372.78,65.345C364.984,65.249 357.124,73.905 354.124,93.157C352.623,102.797 354.381,109.757 357.811,114.281C349.113,108.564 343.464,96.382 346.469,76.844C350.733,49.095 361.693,36.17 372.779,35.53C373.173,35.51 373.574,35.493 373.968,35.501Z" style="fill:rgb(255,99,0);"/>
        <path d="M139.623,91.127L147.748,120.937C151.676,120.257 155.601,118.945 159.528,116.907L159.528,219.28L120.718,219.28L120.718,116.906C124.351,118.46 127.993,119.648 131.623,120.438L139.623,91.127ZM256.843,83.97L264.499,112.063C268.102,111.243 271.708,110.077 275.312,108.72L275.312,219.28L236.499,219.28L236.499,108.72C240.647,111.055 244.79,112.387 248.937,112.97L256.843,83.97ZM372.97,102.751L381.03,132.251C384.774,131.553 388.507,130.039 392.25,127.407L392.25,219.281L353.437,219.281L353.437,127.406C357.357,128.848 361.27,130.248 365.187,131.25L372.97,102.751Z" style="fill:white;"/>
    </g>
</svg>
