<?xml version="1.0" encoding="UTF-8" standalone="no"?>
<!DOCTYPE svg PUBLIC "-//W3C//DTD SVG 1.1//EN" "http://www.w3.org/Graphics/SVG/1.1/DTD/svg11.dtd">
<svg width="100%" height="100%" viewBox="0 0 512 512" version="1.1" xmlns="http://www.w3.org/2000/svg" xmlns:xlink="http://www.w3.org/1999/xlink" xml:space="preserve" xmlns:serif="http://www.serif.com/" style="fill-rule:evenodd;clip-rule:evenodd;stroke-linejoin:round;stroke-miterlimit:2;">
    <rect x="0" y="0" width="512" height="512" style="fill-rule:nonzero;"/>
    <path d="M476.719,51.383C476.718,51.38 476.718,51.378 476.717,51.375L476.72,51.375C476.72,51.378 476.719,51.38 476.719,51.383ZM246.874,186.063L190.094,256.188L269.28,343.094L344.375,293.094L246.875,186.064L246.874,186.063ZM184.53,276.188L21.657,467.625L43.095,491.155L248.845,346.781L184.532,276.189L184.53,276.188Z" style="fill:rgb(163,140,82);fill-rule:nonzero;"/>
    <path d="M476.719,51.383C484.841,87.633 473.479,182.199 437.967,196.563C451.809,198.034 460.329,199.2 493.967,180.25C474.951,216.039 452.209,246.942 408.187,255.282C414.062,262.138 426.409,265.592 441.187,266.812C431.497,288.993 385.983,296.477 357.593,281.687L338.719,260.97C357.156,268.737 365.909,265.923 378.312,263.157C386.952,259.762 377.724,265.187 374.812,247.877C371.901,230.567 403.932,223.893 413.375,221.657C405.458,213.956 398.01,203.618 399.25,196.031C402.972,173.286 422.877,154.611 438.125,140.563C403.985,148.372 339.982,183.145 349.375,129.625C315.808,156.357 311.077,143.269 297.313,122.655C278.217,145.68 275.673,162.907 277.813,194.125L260.375,175C252.967,150.767 260.895,65.394 315.72,62.594C286.693,91.67 314.034,113.63 394.25,68.25C351.732,159.267 471.42,81.573 476.719,51.383Z" style="fill:url(#_Linear1);"/>
    <defs>
        <linearGradient id="_Linear1" x1="0" y1="0" x2="1" y2="0" gradientUnits="userSpaceOnUse" gradientTransform="matrix(235.944,0,0,237.974,258.023,170.369)"><stop offset="0" style="stop-color:rgb(227,48,48);stop-opacity:1"/><stop offset="1" style="stop-color:rgb(198,150,36);stop-opacity:1"/></linearGradient>
    </defs>
</svg>
