<?xml version="1.0" encoding="UTF-8" standalone="no"?>
<!DOCTYPE svg PUBLIC "-//W3C//DTD SVG 1.1//EN" "http://www.w3.org/Graphics/SVG/1.1/DTD/svg11.dtd">
<svg width="100%" height="100%" viewBox="0 0 512 512" version="1.1" xmlns="http://www.w3.org/2000/svg" xmlns:xlink="http://www.w3.org/1999/xlink" xml:space="preserve" xmlns:serif="http://www.serif.com/" style="fill-rule:evenodd;clip-rule:evenodd;stroke-linejoin:round;stroke-miterlimit:2;">
    <rect x="0" y="0" width="512" height="512" style="fill-rule:nonzero;"/>
    <g>
        <path d="M75.1,27.19L74,163.1L84.7,173L73.8,184.2L73.5,217.1L97.2,237.5L73.3,249L71.3,484.8L99.2,484.6L112.2,456.1C112.2,456.1 135.8,477.5 136.2,476C136.5,474.5 218.2,466.6 218.2,466.6L227.2,483.6L440.7,481.7L440.6,375.4L417.7,356.7L440.5,346.4L440.2,63.47L405.9,28.13L129.4,27.36L119.7,53.76L108.7,27.3L75.1,27.19ZM269.4,35.89C274.065,35.81 279.494,40.347 282.6,46.92C286.381,54.938 285.494,63.416 280.635,65.714C280.623,65.719 280.612,65.725 280.6,65.73C277.621,67.124 273.672,65.962 270.1,62.64L247.3,71.22L242.2,65.71L262.9,49.3C261.719,43.247 263.259,38.185 266.8,36.48C267.595,36.104 268.469,35.905 269.4,35.89ZM101.7,93.51L113.7,93.51L122.1,133.2L130.4,93.51L142.5,93.51L150.9,133.2L159.3,93.51L171.2,93.51L159.7,148.1L145.3,148.1L136.4,106.6L127.7,148.1L113.3,148.1L101.7,93.51ZM188.6,93.51L203.6,93.51L221.6,148.1L209,148.1L205.9,138.2L186.3,138.2L183.2,148.1L170.6,148.1L188.6,93.51ZM228,93.51L242,93.51L259.6,130.9L259.6,93.51L271.5,93.51L271.5,148.1L257.5,148.1L239.8,110.6L239.8,148.1L228,148.1L228,93.51ZM278,93.51L322.8,93.51L322.8,104.1L306.7,104.1L306.7,148.1L294.2,148.1L294.2,104.1L278,104.1L278,93.51ZM329.3,93.51L363.1,93.51L363.1,104.1L341.8,104.1L341.8,114.3L361.8,114.3L361.8,124.9L341.8,124.9L341.8,137.5L363.8,137.5L363.8,148.1L329.3,148.1L329.3,93.51ZM374.8,93.51L388,93.51C395.4,93.51 400.9,94.1 404.5,95.3C408.1,96.47 411.2,98.47 413.8,101.3C416.1,103.7 417.8,106.6 418.9,109.8C420,113 420.6,116.7 420.6,120.7C420.6,124.9 420,128.5 418.9,131.8C417.8,135 416.1,137.8 413.8,140.3C411.2,143.1 408.1,145.1 404.4,146.3C400.8,147.5 395.3,148.1 388,148.1L374.8,148.1L374.8,93.51ZM387.4,104.1L387.4,137.5L391.8,137.5C397,137.5 400.9,136 403.6,133.2C406.3,130.3 407.6,126.2 407.6,120.7C407.6,115.3 406.3,111.2 403.6,108.4C400.9,105.6 397,104.1 391.8,104.1L387.4,104.1ZM196.1,106.3L189.4,128L202.7,128L196.1,106.3ZM380.3,166.7L379.8,372.4L128.2,371.9L131.6,177.2L131.8,168.5L380.3,166.7ZM362.3,184.9L149.4,186.3L146.6,353.9L187.6,354C192.1,338.5 199.1,322.3 231.4,317.1C224.014,307.884 219.791,294.707 219.8,280.9C219.834,278.453 220.001,276.012 220.3,273.6L170.6,274L170.4,256L218,255.6C223,242 222.8,226.8 222.9,211.1C248.4,217.6 263.9,217.2 283.3,211.1C283.1,225.9 283.8,239.8 289.7,254.9L336.6,254.5L336.8,272.5L289.1,272.9C289.425,275.543 289.592,278.219 289.6,280.9C289.59,294.933 285.21,308.293 277.6,317.5C303.5,322.9 318.1,338 322.4,354.3L361.8,354.4L362.3,184.9ZM152.9,392.7L359.2,393.5L359.2,411.5L152.9,410.7L152.9,392.7ZM265.6,432.5L359.3,433.3L359.1,451.3L265.4,450.5L265.6,432.5Z" style="fill:rgb(203,196,170);fill-rule:nonzero;"/>
    </g>
</svg>
