<?xml version="1.0" encoding="UTF-8" standalone="no"?>
<!DOCTYPE svg PUBLIC "-//W3C//DTD SVG 1.1//EN" "http://www.w3.org/Graphics/SVG/1.1/DTD/svg11.dtd">
<svg width="100%" height="100%" viewBox="0 0 512 512" version="1.1" xmlns="http://www.w3.org/2000/svg" xmlns:xlink="http://www.w3.org/1999/xlink" xml:space="preserve" xmlns:serif="http://www.serif.com/" style="fill-rule:evenodd;clip-rule:evenodd;stroke-linejoin:round;stroke-miterlimit:2;">
    <rect x="0" y="0" width="512" height="512" style="fill-rule:nonzero;"/>
    <path d="M164,32.14C157,32.14 150.3,34.94 145.2,39.88C140.2,44.83 137.4,51.6 137.4,58.7L137.5,88.98L137.5,100.7C132,102.3 127.7,107.4 127.7,113.5C127.7,121 133.9,127 141.3,127L157.8,127L157.8,135.6L133.5,152.3C116.2,164.3 106,183.7 106,204.5L106,415.5C106,451 135,479.9 170.5,479.9L341.6,479.9C377.1,479.9 406,451 406,415.5L406,204.5C406,183.7 395.8,164.3 378.5,152.3L354.3,135.6L354.3,127L370.8,127C378.1,127 384.1,121 384.1,113.5C384.1,107.4 380,102.3 374.5,100.7L374.5,58.7C374.5,51.6 371.7,44.83 366.7,39.88C361.6,34.94 354.9,32.14 347.9,32.14L164,32.14ZM164,49.99L348,49.99C350.2,49.99 352.5,50.96 354.1,52.57C355.4,53.87 356.2,55.47 356.4,57.3L244.3,69.45C239.3,69.99 235.8,74.4 236.3,79.35C236.8,84.33 241.3,87.85 246.1,87.33L356.5,75.26L356.5,100.1L155.4,100.1L155.4,97.16L199.4,92.4C204.4,91.78 207.9,87.43 207.4,82.46C206.9,77.52 202.4,73.97 197.6,74.5L155.4,79.13L155.4,58.7C155.4,56.33 156.4,54.19 157.9,52.57C159.5,50.96 161.9,49.99 164,49.99ZM180.1,127L331.8,127L331.8,147.4L365.9,170.8C376.9,178.4 383.6,191.1 383.6,204.5L383.6,415.5C383.6,439.1 364.7,457.4 341.6,457.4L170.5,457.4C147.3,457.4 128.5,439.1 128.5,415.5L128.5,204.5C128.5,191.1 135.1,178.4 146.1,170.8L180.1,147.4L180.1,127ZM289,147.1L289,170.9L338.6,205.2C339.8,206.1 340.6,207.4 340.6,209L340.6,411.1C340.6,420.8 337.6,429.4 332.1,437C345,435.8 359.1,424 359.1,411.1L359.1,208.9C359.1,200.6 355.1,192.7 348.3,188L307.6,159.9L307.6,147.1L289,147.1Z" style="fill:rgb(124,187,205);fill-rule:nonzero;"/>
</svg>
