<?xml version="1.0" encoding="UTF-8" standalone="no"?>
<!DOCTYPE svg PUBLIC "-//W3C//DTD SVG 1.1//EN" "http://www.w3.org/Graphics/SVG/1.1/DTD/svg11.dtd">
<svg width="100%" height="100%" viewBox="0 0 512 512" version="1.1" xmlns="http://www.w3.org/2000/svg" xmlns:xlink="http://www.w3.org/1999/xlink" xml:space="preserve" xmlns:serif="http://www.serif.com/" style="fill-rule:evenodd;clip-rule:evenodd;stroke-linejoin:round;stroke-miterlimit:2;">
    <rect x="0" y="0" width="512" height="512" style="fill-rule:nonzero;"/>
    <g>
        <path d="M150.156,82.406C148.313,82.498 146.493,82.852 144.812,83.469L41.094,121.53C36.611,123.175 32.601,126.887 30.594,131.22C28.587,135.55 28.356,141.018 30,145.5L96.72,327.375C98.363,331.857 102.074,335.899 106.406,337.905C110.738,339.913 116.206,340.145 120.686,338.5L224.406,300.437C228.889,298.793 232.899,295.082 234.906,290.75L234.936,290.687C236.918,286.365 237.136,280.93 235.5,276.469L168.78,94.593C167.145,90.133 163.462,86.109 159.156,84.093L159.094,84.063C156.928,83.058 154.471,82.507 152,82.405C151.382,82.38 150.77,82.375 150.156,82.405L150.156,82.406ZM105.156,147.625C129.614,172.561 173.176,165.365 185.906,193.155C197.781,219.082 171.396,239.161 147.936,231.562L164.936,262.344L146.156,269.25L135.219,237.562C124.829,260.186 92.166,261.308 81.062,237.032C67.532,207.455 105.082,182.832 105.155,147.625L105.156,147.625Z" style="fill:white;fill-rule:nonzero;"/>
        <path d="M189.22,96.03L189.219,96.028L274.156,99.968C278.926,100.191 283.878,102.531 287.094,106.061C290.309,109.591 292.159,114.761 291.937,119.529L282.937,313.029C282.715,317.799 280.373,322.752 276.845,325.969C273.315,329.183 268.175,331.066 263.405,330.843L203.405,328.063L230.845,318C240.141,314.59 247.712,307.611 251.875,298.625C256.038,289.64 256.473,279.33 253.063,270.03L189.22,96.03ZM310.22,129.28L310.221,129.282L378.781,152.064C383.312,153.569 387.455,157.169 389.595,161.439C391.732,165.708 392.132,171.189 390.625,175.721L329.47,359.531C327.963,364.062 324.395,368.205 320.125,370.345C315.857,372.482 310.375,372.882 305.845,371.375L236.471,348.28L262.531,349.5C272.424,349.96 282.118,346.482 289.438,339.812C296.758,333.143 301.134,323.799 301.594,313.906L310.22,129.28ZM406.595,186.844L473.031,243.624C476.661,246.726 479.159,251.614 479.531,256.374C479.905,261.134 478.227,266.339 475.125,269.969L349.25,417.279C346.148,420.909 341.29,423.375 336.53,423.749C331.77,424.122 326.535,422.444 322.905,419.342L279.593,382.312L299.969,389.092C309.336,392.208 319.572,391.488 328.406,387.092L328.5,387.062C337.355,382.627 344.093,374.834 347.22,365.437L406.595,186.844Z" style="fill:rgb(207,70,70);"/>
    </g>
</svg>
