<?xml version="1.0" encoding="UTF-8" standalone="no"?>
<!DOCTYPE svg PUBLIC "-//W3C//DTD SVG 1.1//EN" "http://www.w3.org/Graphics/SVG/1.1/DTD/svg11.dtd">
<svg width="100%" height="100%" viewBox="0 0 512 512" version="1.1" xmlns="http://www.w3.org/2000/svg" xmlns:xlink="http://www.w3.org/1999/xlink" xml:space="preserve" xmlns:serif="http://www.serif.com/" style="fill-rule:evenodd;clip-rule:evenodd;stroke-linejoin:round;stroke-miterlimit:2;">
    <rect x="0" y="0" width="512" height="512" style="fill-rule:nonzero;"/>
    <g>
        <path d="M56.469,179.375C23.546,223.947 11.19,289.253 28.874,355.25C47.082,423.207 92.436,474.244 145.187,495.28C106.595,464.862 72.927,412.057 55.437,346.78C38.763,284.552 40.513,224.414 56.467,179.375L56.469,179.375ZM455.905,179.375C471.86,224.415 473.61,284.552 456.935,346.781C439.445,412.058 405.778,464.863 367.187,495.281C419.937,474.245 465.322,423.208 483.53,355.251C501.216,289.254 488.828,223.948 455.906,179.376L455.905,179.375ZM105.687,210.28C75.977,244.71 63.254,294.02 76.344,342.875C89.822,393.181 127.189,429.957 171.844,444.031C139.654,422.481 112.384,384.011 99.438,335.689C87.094,289.623 90.542,244.514 105.688,210.282L105.687,210.28ZM406.719,210.28C421.863,244.513 425.279,289.622 412.936,335.687C399.989,384.009 372.751,422.48 340.561,444.031C385.216,429.958 422.551,393.181 436.031,342.876C449.121,294.02 436.427,244.71 406.718,210.282L406.719,210.28Z" style="fill:white;fill-rule:nonzero;"/>
        <path d="M254.125,26.188C271.502,26.191 285.81,40.467 285.812,57.844C285.814,65.23 283.216,72.06 278.906,77.47C290.449,81.228 299.119,88.457 307.344,100.064C320.407,118.496 331.018,149.089 342.75,192.846C353.018,231.136 367.122,249.853 377.438,263.406C387.753,276.961 393.684,283.733 393.688,306.096C393.688,309.603 391.708,313.412 385.25,318.126C383.322,319.534 380.987,320.905 378.375,322.281C373.53,325.392 368.045,327.759 362.25,329.814C344.237,336.196 323.035,339.051 310.905,340.094L310.905,339.97C293.493,342.1 274.509,343.254 255.125,343.25C217.317,343.242 180.93,338.892 154.875,331.28C141.847,327.475 131.433,322.809 124.97,318.092C118.505,313.376 116.532,309.562 116.53,306.062C116.528,283.699 122.47,276.924 132.78,263.374C143.092,249.823 157.18,231.101 167.437,192.811C179.156,149.059 189.786,118.459 202.843,100.029C210.706,88.932 218.959,81.845 229.749,77.969C225.202,72.484 222.469,65.461 222.469,57.844C222.465,40.468 236.748,26.185 254.125,26.188ZM254.125,44.875C246.848,44.873 241.155,50.57 241.155,57.843C241.157,65.117 246.847,70.811 254.125,70.813C261.403,70.815 267.125,65.117 267.125,57.845C267.125,50.569 261.403,44.875 254.125,44.875ZM263.345,88.095L263.343,88.093C261.947,88.523 260.529,88.86 259.061,89.093C281.371,107.521 299.164,147.83 298.561,210.873C298.046,264.793 330.081,280.319 331.811,318.343C339.999,316.833 348.633,314.829 355.999,312.219C363.589,309.529 369.74,306.053 372.405,303.313C373.497,302.191 374.172,301.538 374.499,300.905C367.121,272.635 336.459,254.215 321.469,189.655C312.905,152.781 297.961,98.283 263.345,88.095ZM146.531,348.25C147.566,348.57 148.596,348.909 149.656,349.219C162.647,353.014 177.484,355.984 193.47,358.094C189.172,365.765 180.952,370.938 171.53,370.938C158.474,370.936 147.749,360.986 146.531,348.25Z" style="fill:url(#_Linear1);"/>
    </g>
    <defs>
        <linearGradient id="_Linear1" x1="0" y1="0" x2="1" y2="0" gradientUnits="userSpaceOnUse" gradientTransform="matrix(277.158,0,0,344.751,116.53,198.563)"><stop offset="0" style="stop-color:rgb(200,167,42);stop-opacity:1"/><stop offset="1" style="stop-color:rgb(241,116,73);stop-opacity:1"/></linearGradient>
    </defs>
</svg>
