<?xml version="1.0" encoding="UTF-8" standalone="no"?>
<!DOCTYPE svg PUBLIC "-//W3C//DTD SVG 1.1//EN" "http://www.w3.org/Graphics/SVG/1.1/DTD/svg11.dtd">
<svg width="100%" height="100%" viewBox="0 0 512 512" version="1.1" xmlns="http://www.w3.org/2000/svg" xmlns:xlink="http://www.w3.org/1999/xlink" xml:space="preserve" xmlns:serif="http://www.serif.com/" style="fill-rule:evenodd;clip-rule:evenodd;stroke-linejoin:round;stroke-miterlimit:2;">
    <rect x="0" y="0" width="512" height="512" style="fill-rule:nonzero;"/>
    <path d="M438.582,296.069L491.884,281.375L491.86,230.647L438.582,215.904C433.822,194.003 425.137,173.579 413.397,155.296L440.72,107.139L404.816,71.284L356.738,98.584C338.4,86.818 317.975,78.16 296.053,73.347L281.307,20.123L230.64,20.123L215.87,73.347C193.996,78.16 173.546,86.819 155.26,98.582L107.13,71.284L71.25,107.167L98.55,155.244C86.81,173.58 78.149,194.004 73.314,215.904L20.116,230.648L20.116,281.375L73.314,296.069C78.065,317.623 86.61,338.163 98.549,356.727L71.251,404.884L107.131,440.714L155.259,413.44C173.827,425.363 194.367,433.891 215.919,438.626L230.639,491.876L281.332,491.852L296.052,438.627C317.975,433.814 338.4,425.157 356.738,413.415L404.865,440.742L440.67,404.859L413.397,356.704C425.111,338.394 433.797,317.996 438.582,296.069ZM200.588,122.394L311.407,122.394L389.74,200.752L389.74,209.959L334.578,209.959C318.734,183.026 289.444,164.908 255.996,164.908C222.551,164.908 193.261,183.026 177.418,209.959L122.23,209.959L122.23,200.752L200.588,122.394ZM255.996,210.936C280.876,210.936 301.068,231.132 301.068,255.988C301.068,280.917 280.878,301.088 255.996,301.088C231.124,301.088 210.928,280.918 210.928,255.988C210.928,231.132 231.124,210.936 255.996,210.936ZM311.407,389.986L200.588,389.986L122.231,311.628L122.231,302.016L177.337,302.016C181.286,308.736 186.075,314.925 191.59,320.433C208.796,337.639 231.672,347.114 255.997,347.114C280.33,347.114 303.205,337.638 320.412,320.431C325.926,314.924 330.714,308.735 334.662,302.016L389.741,302.016L389.741,311.628L311.407,389.986Z" style="fill:rgb(164,164,164);fill-rule:nonzero;"/>
</svg>
