<?xml version="1.0" encoding="UTF-8" standalone="no"?>
<!DOCTYPE svg PUBLIC "-//W3C//DTD SVG 1.1//EN" "http://www.w3.org/Graphics/SVG/1.1/DTD/svg11.dtd">
<svg width="100%" height="100%" viewBox="0 0 512 512" version="1.1" xmlns="http://www.w3.org/2000/svg" xmlns:xlink="http://www.w3.org/1999/xlink" xml:space="preserve" xmlns:serif="http://www.serif.com/" style="fill-rule:evenodd;clip-rule:evenodd;stroke-linejoin:round;stroke-miterlimit:2;">
    <rect x="0" y="0" width="512" height="512" style="fill-rule:nonzero;"/>
    <path d="M254.563,20.75C211.603,20.75 168.645,37.137 135.875,69.906C70.335,135.446 70.023,242.056 135.562,307.594C201.102,373.134 307.712,372.82 373.25,307.281C438.79,241.743 438.79,135.446 373.25,69.907C340.48,37.137 297.522,20.751 254.562,20.751L254.563,20.75ZM254.406,39.22C280.086,39.273 305.769,45.944 328.719,59.188C315.146,55.204 302.453,56.733 294.499,64.688C280.062,79.125 286.703,109.173 309.312,131.781C331.92,154.391 361.937,161.001 376.374,146.563C384.897,138.041 386.08,124.095 380.968,109.438C417.32,167.122 410.554,244.038 360.278,294.313C331.12,323.473 292.925,338.086 254.718,338.126C264.154,335.826 272.48,331.394 279.154,324.72C308.039,295.834 294.794,235.766 249.56,190.53C204.326,145.297 144.258,132.02 115.373,160.906C111.321,164.958 108.107,169.629 105.685,174.781C108.777,141.244 123.158,108.559 148.842,82.876C178.04,53.676 216.226,39.139 254.404,39.22L254.406,39.22Z" style="fill:rgb(130,194,202);fill-rule:nonzero;"/>
    <path d="M386.97,319.28L386.97,319.282C399.187,328.802 406.157,339.759 406.157,351.439C406.157,387.964 338.091,417.564 254.064,417.564C170.036,417.564 102.721,387.962 102.721,351.439C102.721,339.823 109.544,328.922 121.531,319.439C121.805,319.716 122.067,320.006 122.345,320.281C195.123,393.061 313.595,392.686 386.375,319.906C386.58,319.702 386.765,319.486 386.97,319.28ZM426.687,373.844C439.657,385.222 446.97,398.082 446.97,411.719C446.97,458.649 360.518,496.749 254,496.749C147.482,496.749 61.938,458.647 61.936,411.719C61.936,398.208 69.018,385.456 81.656,374.156C104.108,406.29 172.89,429.75 254.062,429.75C335.495,429.75 404.462,406.134 426.687,373.844Z" style="fill:rgb(235,172,38);"/>
</svg>
