<?xml version="1.0" encoding="UTF-8" standalone="no"?>
<!DOCTYPE svg PUBLIC "-//W3C//DTD SVG 1.1//EN" "http://www.w3.org/Graphics/SVG/1.1/DTD/svg11.dtd">
<svg width="100%" height="100%" viewBox="0 0 512 512" version="1.1" xmlns="http://www.w3.org/2000/svg" xmlns:xlink="http://www.w3.org/1999/xlink" xml:space="preserve" xmlns:serif="http://www.serif.com/" style="fill-rule:evenodd;clip-rule:evenodd;stroke-linejoin:round;stroke-miterlimit:2;">
    <rect x="0" y="0" width="512" height="512" style="fill-rule:nonzero;"/>
    <g>
        <path d="M385.157,263.908C385.156,263.908 385.155,263.907 385.154,263.907L385.155,263.905C385.156,263.906 385.156,263.907 385.157,263.908ZM17.406,17.156L17.406,54.97C96.951,89.307 196.33,128.72 279.312,152.313C225.525,98.153 154.142,48.62 100.094,17.156L17.406,17.156ZM136.219,17.156C195.259,54.111 265.894,106.676 315.437,163.656L334.717,185.876L306.155,178.876C218.233,157.345 106.5,113.523 17.406,75.28L17.406,116.75C185.604,190.39 362.659,245.305 493.75,268.25C455.993,227.122 417.573,190.09 379.5,156.75C314.105,99.484 250,53.816 192.03,17.156L136.219,17.156Z" style="fill:rgb(189,189,189);fill-rule:nonzero;"/>
        <path d="M212.157,212.376C261.671,229.238 310.075,243.982 356.031,256.314C338.345,273.375 326.97,324.344 335.125,348.281C337.488,355.211 346.438,373.692 346.438,382.186C346.435,393.703 337.417,402.813 325.905,402.906C314.395,402.998 305.375,394.047 305.375,382.53C305.377,373.985 315.322,355.498 317.405,348.405C326.457,317.593 323.145,270.733 301.125,268.469C275.907,265.871 265.122,366.356 279.875,409.656C283.796,421.161 299.688,452.773 299.688,466.876C299.688,485.992 284.107,501.006 265,501.156C245.893,501.308 231,486.554 231,467.438C231,453.25 248.288,421.71 251.53,409.875C263.272,367.045 255.293,260.532 212.157,212.376ZM385.157,263.908C413.409,271.01 440.581,277.124 466.31,282.157C437.696,296.261 417.106,337.863 430.404,385.937C434.204,399.675 454.968,434.946 454.968,451.562C454.968,473.95 437.002,493.45 414.624,494C392.246,494.551 374.249,476.325 374.249,453.938C374.251,437.421 394.225,400.943 397.935,387.063C409.888,342.35 403.632,289.489 385.157,263.908ZM42.843,148C68.739,158.9 94.746,169.31 120.686,179.25C95.774,194.878 78.394,248.472 89.06,287.032C92.118,298.082 108.81,326.446 108.81,339.812C108.809,357.82 94.374,373.524 76.374,373.97C58.372,374.414 43.904,359.76 43.904,341.75C43.904,328.464 59.982,299.104 62.968,287.938C72.59,251.934 60.773,181.19 42.843,148Z" style="fill:rgb(40,221,58);"/>
    </g>
</svg>
