<?xml version="1.0" encoding="UTF-8" standalone="no"?>
<!DOCTYPE svg PUBLIC "-//W3C//DTD SVG 1.1//EN" "http://www.w3.org/Graphics/SVG/1.1/DTD/svg11.dtd">
<svg width="100%" height="100%" viewBox="0 0 512 512" version="1.1" xmlns="http://www.w3.org/2000/svg" xmlns:xlink="http://www.w3.org/1999/xlink" xml:space="preserve" xmlns:serif="http://www.serif.com/" style="fill-rule:evenodd;clip-rule:evenodd;stroke-linejoin:round;stroke-miterlimit:2;">
    <rect x="0" y="0" width="512" height="512" style="fill-rule:nonzero;"/>
    <path d="M186.438,20.56L173.254,46.925C180.054,46.665 186.88,46.437 193.724,46.239L197.564,38.559L314.438,38.559L318.208,46.099C325.046,46.286 331.866,46.507 338.664,46.759L325.562,20.559L186.437,20.559L186.438,20.56ZM255.998,63.302C210.241,63.358 164.546,64.868 120.618,67.665C117.378,118.245 112.218,168.652 119.832,213.489C209.129,225.884 299.934,226.474 392.596,213.435C399.651,182.447 397.713,128.755 391.556,67.545C347.582,64.652 301.826,63.245 255.998,63.301L255.998,63.302ZM409.781,68.842C416.201,132.962 418.894,188.667 408.646,224.062L407.036,229.622L401.31,230.464C302.51,244.992 205.697,244.274 110.705,230.466L104.42,229.552L103.174,223.322C93.284,173.832 99.089,120.537 102.51,68.902C97.62,69.256 92.745,69.622 87.908,70.009C79.312,128.577 78.518,186.966 87.858,245.301C198.098,257.389 310.133,257.506 424.061,245.291C432.563,187.461 432.351,129.041 424.044,69.978C419.319,69.578 414.559,69.202 409.782,68.838L409.781,68.842ZM255.966,92.3C288.492,92.275 321.033,95.046 353.54,100.69L361,101.985L361,109.557C361,125.111 362.683,144.662 348.31,159.807C338.398,170.251 322.655,177.144 297,180.392L297,198.556L215,198.556L215,180.104C191.008,176.734 175.648,169.929 165.637,159.919C150.807,145.093 151,125.56 151,109.56L151,101.966L158.484,100.688C190.928,95.148 223.439,92.326 255.964,92.302L255.966,92.3ZM255.978,110.294C227.018,110.316 198.065,112.738 169.12,117.29C169.385,129.57 170.755,139.586 178.363,147.194C184.277,153.108 195.315,158.61 215,161.776L215,132.556L297,132.556L297,162.066C318.367,158.951 329.66,153.311 335.254,147.416C342.287,140.006 342.95,129.914 342.984,117.292C313.984,112.662 284.978,110.272 255.977,110.294L255.978,110.294ZM233,150.56L233,180.56L279,180.56L279,150.56L233,150.56ZM442.674,242.98C442.171,246.605 441.632,250.23 441.064,253.85C441.278,256.202 441.484,258.556 441.694,260.91L471,290.213L471,267.973L442.674,242.978L442.674,242.98ZM69.189,243.1L41,267.973L41,290.213L70.318,260.895C70.523,258.568 70.724,256.24 70.934,253.913C70.316,250.308 69.732,246.703 69.189,243.1ZM423.823,263.497C413.533,264.587 403.259,265.573 392.999,266.464L392.999,340.559L408.999,340.559L408.999,406.559L392.999,406.559L392.999,487.174C403.317,486.541 413.629,485.861 423.927,485.092C433.372,411.082 430.405,337.394 423.823,263.496L423.823,263.497ZM88.247,263.527C81.725,338.09 78.58,412.1 88.06,485.1C98.384,485.89 108.698,486.604 119,487.245L119,406.56L103,406.56L103,340.56L119,340.56L119,266.536C108.734,265.634 98.483,264.633 88.248,263.526L88.247,263.527ZM374.999,267.927C364.985,268.687 354.985,269.351 344.999,269.919L344.999,340.559L374.999,340.559L374.999,267.927ZM136.999,268.012L136.999,340.559L166.999,340.559L166.999,270.009C156.984,269.441 146.985,268.772 136.999,268.012ZM326.999,270.837C279.349,273.01 232.015,273.027 184.999,270.915L184.999,290.229C208.949,285.064 232.799,282.577 256.515,282.639C280.153,282.699 303.66,285.293 326.999,290.265L326.999,270.835L326.999,270.837ZM68.05,288.62L41,315.67L41,372.56L64.06,372.56C64.436,344.573 65.94,316.585 68.05,288.62ZM443.998,288.667C446.118,316.539 447.608,344.497 447.955,372.559L471,372.559L471,315.669L443.998,288.666L443.998,288.667ZM256.478,300.617C232.798,300.554 208.991,303.194 185,308.669L185,340.559L201,340.559L201,359.002C218.033,364.348 232.73,367.495 247,368.428L247,365.558L265,365.558L265,368.426C279.27,367.494 293.967,364.346 311,359.001L311,340.56L327,340.56L327,308.694C303.58,303.427 280.093,300.678 256.477,300.616L256.478,300.617ZM121,358.558L121,388.558L143,388.558L143,365.558L161,365.558L161,388.558L183,388.558L183,358.558L121,358.558ZM329,358.558L329,388.558L351,388.558L351,365.558L369,365.558L369,388.558L391,388.558L391,358.558L329,358.558ZM201,377.799L201,406.56L185,406.56L185,422.417C233.528,433.282 280.713,433.081 327,422.462L327,406.56L311,406.56L311,377.8C294.668,382.547 279.717,385.32 265,386.126L265,397.559L247,397.559L247,386.125C232.283,385.319 217.332,382.545 201,377.799ZM41,390.56L41,404.56L64.14,404.56C64.05,399.893 63.997,395.226 63.977,390.56L41,390.56ZM448.012,390.56C447.985,395.223 447.929,399.89 447.832,404.56L471,404.56L471,390.56L448.012,390.56ZM137,406.56L137,426.358C143.137,433.572 148.222,436.128 151.934,436.202C155.668,436.277 160.631,434.08 167,426.412L167,406.56L161,406.56L161,413.56L143,413.56L143,406.56L137,406.56ZM345,406.56L345,426.358C351.137,433.572 356.222,436.128 359.934,436.202C363.668,436.277 368.631,434.08 375,426.412L375,406.56L369,406.56L369,413.56L351,413.56L351,406.56L345,406.56ZM41,422.559L41,457.714C46.596,463.224 49.677,465.964 52.846,467.02C55.3,467.838 60.559,468.17 67.891,468.337C66.347,453.087 65.305,437.827 64.687,422.559L41,422.559ZM447.27,422.56C446.642,437.784 445.596,453.043 444.06,468.34C451.418,468.172 456.695,467.84 459.154,467.02C462.324,465.964 465.404,463.225 471,457.714L471,422.56L447.27,422.56ZM185,440.842L185,490.34C232.55,491.85 279.877,491.786 327,490.266L327,440.9C280.684,450.93 233.26,451.085 185,440.843L185,440.842ZM137,449.965L137,488.283C147.01,488.823 157.01,489.291 167,489.691L167,450.013C162.14,452.799 156.99,454.306 151.57,454.197C146.378,454.093 141.534,452.573 137,449.965ZM345,449.965L345,489.619C355.01,489.216 365.01,488.741 375,488.207L375,450.013C370.14,452.799 364.99,454.306 359.57,454.197C354.378,454.093 349.534,452.573 345,449.965Z" style="fill:rgb(190,167,100);fill-rule:nonzero;"/>
</svg>
