<?xml version="1.0" encoding="UTF-8" standalone="no"?>
<!DOCTYPE svg PUBLIC "-//W3C//DTD SVG 1.1//EN" "http://www.w3.org/Graphics/SVG/1.1/DTD/svg11.dtd">
<svg width="100%" height="100%" viewBox="0 0 512 512" version="1.1" xmlns="http://www.w3.org/2000/svg" xmlns:xlink="http://www.w3.org/1999/xlink" xml:space="preserve" xmlns:serif="http://www.serif.com/" style="fill-rule:evenodd;clip-rule:evenodd;stroke-linejoin:round;stroke-miterlimit:2;">
    <g>
        <path d="M262.406,17.188C235.186,26.01 208.389,45.2 190.031,72.718C207.575,120.616 207.575,129.978 190.031,177.875C209.951,193.338 230.335,202.635 250.813,205.345C248.75,179.782 247.183,154.215 251.938,128.655C238.313,127.172 228.564,122.66 214.938,114.781L214.938,82.563C250.804,101.659 276.778,101.34 313.751,82.563L313.751,114.783C300.387,121.28 291.865,125.943 278.501,128.001C282.115,153.569 281.981,179.151 279.876,204.721C298.52,201.456 317.112,192.608 335.376,177.876C321.023,129.979 321.021,120.616 335.376,72.72C318.394,44.712 287.923,26.087 262.406,17.188ZM132.812,25.406C106.906,135.82 105.462,240.736 105.412,356.328C86.572,354.791 67.83,351.208 49.385,345.208L49.385,373.762L118.451,373.762C127.166,408.787 124.923,443.814 117.415,478.84L145.545,478.84C138.35,443.814 137.308,408.787 144.673,373.762L213.577,373.762L213.577,345.207C195.087,350.149 176.321,353.759 157.48,355.667C157.562,240.727 159.976,132.599 132.813,25.407L132.812,25.406ZM222.282,227.781C222.282,345.051 247.799,461.123 342.437,485.751C446.62,464.716 462.72,345.374 462.72,227.78L222.28,227.78L222.282,227.781Z" style="fill:white;fill-rule:nonzero;"/>
    </g>
</svg>
