<?xml version="1.0" encoding="UTF-8" standalone="no"?>
<!DOCTYPE svg PUBLIC "-//W3C//DTD SVG 1.1//EN" "http://www.w3.org/Graphics/SVG/1.1/DTD/svg11.dtd">
<svg width="100%" height="100%" viewBox="0 0 512 512" version="1.1" xmlns="http://www.w3.org/2000/svg" xmlns:xlink="http://www.w3.org/1999/xlink" xml:space="preserve" xmlns:serif="http://www.serif.com/" style="fill-rule:evenodd;clip-rule:evenodd;stroke-linejoin:round;stroke-miterlimit:2;">
    <g>
        <path d="M39.648,195.601C62.061,147.429 106.591,117.129 156.156,115.405C166.206,115.055 177.07,116.223 188.25,118.469C199.84,120.796 211.216,124.466 222.22,129.344C221.871,144.235 222.097,159.504 222.845,175.75C198.228,169.128 177.429,155.574 167.595,137.594C165.513,145.501 166.323,153.84 170.689,161.937C185.261,188.965 226.241,206.394 270.531,197.28C273.135,196.746 275.696,196.106 278.221,195.406C309.911,186.611 334.733,165.379 335.031,145.436C325.975,160.442 307.652,172.551 282.687,177.686C281.447,177.942 280.187,178.158 278.937,178.374C279.997,161.623 282.438,146.394 286.343,131.779C299.137,125.171 312.553,120.245 326.313,117.219C335.897,115.11 345.246,114.039 354.313,113.906C355.608,113.886 356.903,113.886 358.187,113.906C388.981,114.366 416.288,125.914 437.935,145.874C466.801,172.488 485.478,214.479 486.155,266.094C486.202,269.704 486.169,273.309 486.056,276.906C480.405,270.182 473.97,264.139 466.893,258.917C464.655,257.265 462.352,255.696 459.99,254.214C456.11,210.292 435.653,174.045 404.22,155.031C417.058,182.632 424.189,211.413 426.111,240.146C418.107,238.306 409.773,237.333 401.214,237.333C388.491,237.333 376.266,239.482 364.883,243.437C321.56,258.489 290.428,299.697 290.428,348.119C290.428,379.109 303.18,407.145 323.719,427.26C329.623,433.043 336.172,438.171 343.246,442.527C330.314,454.372 316.02,465.083 300.468,474.407C319.987,475.433 342.027,467.111 363.344,452.253C365.731,453.122 368.155,453.912 370.615,454.618C379.178,457.077 388.165,458.531 397.438,458.842C378.459,473.371 357.207,483.81 334.469,488.812C323.639,491.195 309.708,492.17 297.125,491C284.542,489.83 273.378,486.206 268,481.78L261.595,476.53L255.625,482.25C249.995,487.644 239.503,491.268 227.22,492.406C214.934,493.544 201.178,492.37 190,490.124C123.154,476.702 63.226,416.436 37.573,343.101C52.288,353.643 70.314,359.85 89.778,359.85C139.328,359.85 179.556,319.622 179.556,270.072C179.556,220.522 139.328,180.294 89.778,180.294C71.219,180.294 53.967,185.938 39.648,195.601ZM255.563,19.75C242.253,77.572 238.938,120.436 241.656,176.688L260.469,176.718C263.779,127.102 279.029,88.1 306.343,43.718C301.483,34.584 292.878,28.762 282.53,24.938C273.622,21.645 263.71,20.168 255.563,19.75Z" style="fill:white;fill-rule:nonzero;"/>
    </g>
</svg>
