<?xml version="1.0" encoding="UTF-8" standalone="no"?>
<!DOCTYPE svg PUBLIC "-//W3C//DTD SVG 1.1//EN" "http://www.w3.org/Graphics/SVG/1.1/DTD/svg11.dtd">
<svg width="100%" height="100%" viewBox="0 0 12 12" version="1.1" xmlns="http://www.w3.org/2000/svg" xmlns:xlink="http://www.w3.org/1999/xlink" xml:space="preserve" xmlns:serif="http://www.serif.com/" style="fill-rule:evenodd;clip-rule:evenodd;stroke-linejoin:round;stroke-miterlimit:2;">
    <g transform="matrix(2.26739,0,0,2.26739,-9.39492,-9.70268)">
        <circle cx="6.79" cy="6.925" r="1.587" style="fill:white;"/>
    </g>
    <path d="M10.235,3.31L6.285,1.09C6.205,1.03 6.105,1 6,1C5.895,1 5.795,1.03 5.715,1.09L1.765,3.31C1.605,3.395 1.5,3.56 1.5,3.75L1.5,8.25C1.5,8.44 1.605,8.605 1.765,8.69L5.715,10.91C5.795,10.97 5.895,11 6,11C6.105,11 6.205,10.97 6.285,10.91L10.235,8.69C10.395,8.605 10.5,8.44 10.5,8.25L10.5,3.75C10.5,3.56 10.395,3.395 10.235,3.31M5.725,7.98L3.155,7.965L3.155,7.455C3.155,7.455 4.87,5.79 4.875,5.285C4.875,4.665 4.365,4.73 4.365,4.73C4.365,4.73 3.875,4.75 3.82,5.355L3.07,5.38C3.07,5.38 3.09,4.13 4.415,4.13C5.6,4.13 5.615,5.02 5.615,5.25C5.615,6.09 4.075,7.385 4.075,7.385L5.725,7.38L5.725,7.98M8.75,6.75C8.75,7.45 8.175,8.025 7.465,8.025C6.75,8.025 6.18,7.45 6.18,6.75L6.18,5.42C6.18,4.71 6.75,4.135 7.465,4.135C8.18,4.135 8.75,4.71 8.75,5.42L8.75,6.75M8,5.385L8,6.765C8,7.06 7.75,7.3 7.46,7.3C7.17,7.3 6.93,7.06 6.93,6.765L6.93,5.385C6.93,5.09 7.17,4.855 7.46,4.855C7.75,4.855 8,5.09 8,5.385Z" style="fill:white;fill-rule:nonzero;"/>
</svg>
