<?xml version="1.0" encoding="UTF-8" standalone="no"?>
<!DOCTYPE svg PUBLIC "-//W3C//DTD SVG 1.1//EN" "http://www.w3.org/Graphics/SVG/1.1/DTD/svg11.dtd">
<svg width="100%" height="100%" viewBox="0 0 12 12" version="1.1" xmlns="http://www.w3.org/2000/svg" xmlns:xlink="http://www.w3.org/1999/xlink" xml:space="preserve" xmlns:serif="http://www.serif.com/" style="fill-rule:evenodd;clip-rule:evenodd;stroke-linecap:round;stroke-linejoin:round;stroke-miterlimit:1.5;">
    <g transform="matrix(0.0264885,0.0264885,-0.0264885,0.0264885,6.8828,-3.0061)">
        <path d="M266,85.68L266,208.32C266,214.766 260.766,220 254.32,220L131.68,220C125.234,220 120,214.766 120,208.32L120,85.68C120,79.234 125.234,74 131.68,74L254.32,74C260.766,74 266,79.234 266,85.68Z" style="stroke:white;stroke-width:5.34px;"/>
    </g>
    <g transform="matrix(0.0264885,0.0264885,-0.0264885,0.0264885,2.68025,-3.0061)">
        <path d="M266,85.68L266,208.32C266,214.766 260.766,220 254.32,220L131.68,220C125.234,220 120,214.766 120,208.32L120,85.68C120,79.234 125.234,74 131.68,74L254.32,74C260.766,74 266,79.234 266,85.68Z" style="stroke:white;stroke-width:5.34px;"/>
    </g>
    <g transform="matrix(0.0590227,0,0,0.0590227,-6.78842,-1.12349)">
        <g transform="matrix(50,0,0,50,208.493,136.545)">
        </g>
        <text x="152.693px" y="136.545px" style="font-family:'DINCondensed-Bold', 'DIN Condensed';font-weight:700;font-stretch:condensed;font-size:50px;fill:white;">100</text>
    </g>
</svg>
