<?xml version="1.0" encoding="UTF-8" standalone="no"?>
<!DOCTYPE svg PUBLIC "-//W3C//DTD SVG 1.1//EN" "http://www.w3.org/Graphics/SVG/1.1/DTD/svg11.dtd">
<svg width="100%" height="100%" viewBox="0 0 12 12" version="1.1" xmlns="http://www.w3.org/2000/svg" xmlns:xlink="http://www.w3.org/1999/xlink" xml:space="preserve" xmlns:serif="http://www.serif.com/" style="fill-rule:evenodd;clip-rule:evenodd;stroke-linejoin:round;stroke-miterlimit:2;">
    <g transform="matrix(1,0,0,1,-0.148127,0.0852256)">
        <circle cx="6.148" cy="5.915" r="2.576" style="fill:rgb(235,235,235);"/>
    </g>
    <path d="M6.525,6.75C6.525,7.135 6.305,7.415 6,7.415C5.695,7.415 5.425,7.135 5.425,6.75L5.415,6.39C5.415,6.39 5.605,6 5.975,6.05C6.28,6.05 6.525,6.365 6.525,6.75M10.5,2.5L10.5,9.5C10.5,10.055 10.055,10.5 9.5,10.5L2.5,10.5C1.951,10.5 1.5,10.049 1.5,9.5L1.5,2.5C1.5,1.95 1.95,1.5 2.5,1.5L9.5,1.5C10.049,1.5 10.5,1.951 10.5,2.5M7.275,6.705C7.25,5.725 6.595,5.435 6.265,5.435C5.705,5.435 5.43,5.765 5.43,5.765C5.43,5.765 5.445,4.75 6.695,4.765L6.695,4.165C6.695,4.165 4.665,3.97 4.65,6.33C4.635,8.43 6.385,8 6.385,8C6.385,8 7.305,7.735 7.275,6.705Z" style="fill-rule:nonzero;"/>
</svg>
