<?xml version="1.0" encoding="UTF-8" standalone="no"?>
<!DOCTYPE svg PUBLIC "-//W3C//DTD SVG 1.1//EN" "http://www.w3.org/Graphics/SVG/1.1/DTD/svg11.dtd">
<svg width="100%" height="100%" viewBox="0 0 12 12" version="1.1" xmlns="http://www.w3.org/2000/svg" xmlns:xlink="http://www.w3.org/1999/xlink" xml:space="preserve" xmlns:serif="http://www.serif.com/" style="fill-rule:evenodd;clip-rule:evenodd;stroke-linejoin:round;stroke-miterlimit:2;">
    <g transform="matrix(1,0,0,1,-0.470009,-0.0166246)">
        <circle cx="6.47" cy="6.017" r="2.509" style="fill:rgb(235,235,235);"/>
    </g>
    <path d="M6,1C5.75,1 5.5,1.095 5.295,1.295L1.295,5.295C0.9,5.685 0.9,6.315 1.295,6.705L5.295,10.705C5.685,11.1 6.315,11.1 6.705,10.705L10.705,6.705C11.1,6.315 11.1,5.685 10.705,5.295L6.705,1.295C6.5,1.095 6.25,1 6,1M6,4.125C6.655,4.125 7.19,4.6 7.19,5.19C7.19,5.535 7,5.84 6.72,6.035C7.07,6.23 7.3,6.565 7.3,6.95C7.3,7.56 6.72,8.05 6,8.05C5.28,8.05 4.7,7.56 4.7,6.95C4.7,6.565 4.93,6.23 5.28,6.035C5,5.84 4.815,5.535 4.815,5.19C4.815,4.6 5.345,4.125 6,4.125M6,4.75C5.75,4.75 5.55,4.975 5.55,5.25C5.55,5.525 5.75,5.75 6,5.75C6.25,5.75 6.45,5.525 6.45,5.25C6.45,4.975 6.25,4.75 6,4.75M6,6.325C5.695,6.325 5.45,6.57 5.45,6.875C5.45,7.18 5.695,7.425 6,7.425C6.305,7.425 6.55,7.18 6.55,6.875C6.55,6.57 6.305,6.325 6,6.325Z" style="fill-rule:nonzero;"/>
</svg>
