<?xml version="1.0" encoding="UTF-8" standalone="no"?>
<!DOCTYPE svg PUBLIC "-//W3C//DTD SVG 1.1//EN" "http://www.w3.org/Graphics/SVG/1.1/DTD/svg11.dtd">
<svg width="100%" height="100%" viewBox="0 0 12 12" version="1.1" xmlns="http://www.w3.org/2000/svg" xmlns:xlink="http://www.w3.org/1999/xlink" xml:space="preserve" xmlns:serif="http://www.serif.com/" style="fill-rule:evenodd;clip-rule:evenodd;stroke-linejoin:round;stroke-miterlimit:2;">
    <g transform="matrix(1,0,0,1,-0.307188,-0.239997)">
        <circle cx="6.307" cy="7.342" r="2.327" style="fill:rgb(235,235,235);"/>
    </g>
    <path d="M5.125,7.575L5.96,6.235L5.96,7.575L5.125,7.575M10.96,10.5L1.04,10.5C0.62,10.5 0.36,10.04 0.58,9.68L5.54,1.565C5.75,1.22 6.25,1.22 6.46,1.565L11.42,9.68C11.64,10.04 11.38,10.5 10.96,10.5M7.145,7.575L6.715,7.575L6.715,5.21L5.955,5.21L4.375,7.705L4.41,8.18L5.96,8.18L5.96,9L6.715,9L6.715,8.18L7.145,8.18L7.145,7.575Z" style="fill-rule:nonzero;"/>
</svg>
