<?xml version="1.0" encoding="UTF-8" standalone="no"?>
<!DOCTYPE svg PUBLIC "-//W3C//DTD SVG 1.1//EN" "http://www.w3.org/Graphics/SVG/1.1/DTD/svg11.dtd">
<svg width="100%" height="100%" viewBox="0 0 12 12" version="1.1" xmlns="http://www.w3.org/2000/svg" xmlns:xlink="http://www.w3.org/1999/xlink" xml:space="preserve" xmlns:serif="http://www.serif.com/" style="fill-rule:evenodd;clip-rule:evenodd;stroke-linejoin:round;stroke-miterlimit:2;">
    <g transform="matrix(1.19835,0,0,1.15816,-1.36652,-1.1493)">
        <ellipse cx="6.147" cy="6.174" rx="2.751" ry="2.576" style="fill:rgb(235,235,235);"/>
    </g>
    <path d="M6,1C5.75,1 5.5,1.095 5.295,1.295L1.295,5.295C0.9,5.685 0.9,6.315 1.295,6.705L5.295,10.705C5.685,11.1 6.315,11.1 6.705,10.705L10.705,6.705C11.1,6.315 11.1,5.685 10.705,5.295L6.705,1.295C6.5,1.095 6.25,1 6,1M7.035,4.105C7.75,4.105 8.32,4.68 8.32,5.39L8.32,6.71C8.32,7.42 7.75,8 7.035,8C6.32,8 5.75,7.42 5.75,6.71L5.75,5.39C5.75,4.685 6.33,4.105 7.035,4.105M5.18,4.205L5.25,4.205L5.25,8L4.5,8L4.5,5.105L3.61,5.38L3.61,4.765L5.18,4.205M7.03,4.825C6.735,4.825 6.5,5.065 6.5,5.355L6.5,6.75C6.5,7.035 6.735,7.27 7.03,7.27C7.32,7.27 7.57,7.03 7.57,6.75L7.57,5.355C7.57,5.06 7.32,4.825 7.03,4.825Z" style="fill-rule:nonzero;"/>
</svg>
