<?xml version="1.0" encoding="UTF-8" standalone="no"?>
<!DOCTYPE svg PUBLIC "-//W3C//DTD SVG 1.1//EN" "http://www.w3.org/Graphics/SVG/1.1/DTD/svg11.dtd">
<svg width="100%" height="100%" viewBox="0 0 512 512" version="1.1" xmlns="http://www.w3.org/2000/svg" xmlns:xlink="http://www.w3.org/1999/xlink" xml:space="preserve" xmlns:serif="http://www.serif.com/" style="fill-rule:evenodd;clip-rule:evenodd;stroke-linejoin:round;stroke-miterlimit:2;">
    <g transform="matrix(0.857201,0,0,1.01284,37.7156,-48.041)">
        <rect x="123.621" y="96.859" width="262.055" height="394.592" style="fill:rgb(33,33,33);"/>
    </g>
    <g transform="matrix(2.39855e-16,-3.91712,0.374969,2.29602e-17,-16.7819,588.119)">
        <g transform="matrix(1.30579,-4.70147e-22,2.28587e-24,1,-26.404,0)">
            <path d="M125.414,402.921L47.279,402.921L56.224,141.261L113.7,96.859L125.414,402.921Z" style="fill:rgb(33,33,33);"/>
        </g>
        <g transform="matrix(1.30579,-1.67054e-15,-1.1723e-17,-1,-26.4045,1453.99)">
            <path d="M125.414,402.921L47.279,402.921L56.224,141.261L113.7,96.859L125.414,402.921Z" style="fill:rgb(33,33,33);"/>
        </g>
    </g>
    <g transform="matrix(0.390634,0,0,0.390634,155.86,110.333)">
        <g id="wyvern.svg">
            <g>
                <g>
                    <path d="M324.97,17.54C325,17.574 325.027,17.61 325.057,17.646L290.133,50.074L327.037,46.322L311.641,76.442L349.689,60.367C375.836,130.332 350.312,214.644 297.134,226.629C290.58,201.259 263.004,188.684 261.079,169.247C261.382,169.34 261.683,169.434 261.991,169.517C266.824,170.812 271.727,170.7 276.265,169.447L301.403,192.337L322.056,175.96C314.693,178.796 293.468,174.558 288.806,162.037C291.96,158.797 294.356,154.753 295.599,150.115C296.084,148.302 296.356,146.48 296.459,144.67L307.983,167.447L313.203,150.507C320.828,156.082 325.677,164.112 324.693,171.643L341.366,142.243L269.226,112.683L211.169,64.653L228.269,95.903L180.063,76.15L215.203,107.387C174.601,135.545 193.118,192.427 213.407,226.677C155.907,216.992 110.279,149.242 117.644,81.647L166.854,60.281L135.774,55.141L164.981,21.724L132.966,33.264C133.003,33.197 133.036,33.129 133.073,33.062C-35.287,99.392 16.66,400.062 69.345,451.052C69.155,449.735 68.981,448.472 68.805,447.197C53.883,390.953 48.43,321.573 51.305,256.667C54.325,188.43 66.139,125.507 88.099,87.145L104.319,96.428C85.425,129.436 72.919,190.991 69.974,257.492C68.032,301.352 70.08,347.514 76.249,389.574C82.373,391.466 91.295,399.189 103.544,412.814C98.726,399.464 96.764,386.314 97.062,374.534C117.348,416.199 164.402,443.768 201.695,436.842C224.139,432.672 243.498,424.112 259.505,412.367L266.815,427.785C246.747,432.821 244.008,460.42 252.078,482.897C253.826,463.015 263.438,453.103 273.808,450.594C267.21,466.461 269.11,481.217 270.691,494.752C280.841,482.605 292.161,470.959 294.319,455.398C303.057,462.73 306.636,476.888 295.513,494.455C321.833,478.982 327.078,452.461 303.491,436.77L271.421,402.473C277.339,396.923 282.661,390.873 287.368,384.407L326.648,400.183C322.706,413.873 332.481,431.695 346.418,443.493C338.363,426.205 341.592,413.413 348.98,406.39C350.61,423.78 359.62,435.583 367.713,446.454C370.443,430.789 374.503,414.961 367.5,400.467C378.516,402.027 388.7,412.035 387.838,432.344C402.2,407.031 393.948,382.642 367.096,380.824L295.961,370.932C308.718,347.95 314.637,321.109 312.976,293.457C327.164,258.749 363.034,281.641 367.499,342.617C394.924,262.27 434.58,304 426.324,367.13C438.132,343.75 448.159,332.117 456.186,330.883C445.414,238.958 415.728,139.313 378.549,80.135L394.372,70.193C444.7,150.299 479.484,290.843 479.252,401.74C521.655,285.828 476.905,45.13 324.97,17.54ZM295.512,494.453L295.486,494.469L295.471,494.519C295.486,494.499 295.498,494.475 295.513,494.452L295.512,494.453ZM322.055,175.961L322.065,175.961L322.065,175.954L322.055,175.962L322.055,175.961ZM268.707,134.245C269.573,134.218 270.464,134.318 271.359,134.558C276.133,135.838 278.826,140.503 277.546,145.278C276.266,150.054 271.603,152.748 266.826,151.468C262.051,150.188 259.358,145.525 260.638,140.748C261.598,137.164 264.461,134.755 267.848,134.313C268.13,134.277 268.416,134.253 268.705,134.245L268.707,134.245ZM204.904,297.13C216.782,296.93 227.541,303.886 231.076,319.617C231.068,355.497 221.519,388.44 188.939,397.029C161.315,404.312 119.214,385.631 104.819,343.366C117.099,322.288 142.181,321.38 167.657,365.958C155.074,324.362 182.043,297.514 204.903,297.128L204.904,297.13Z" style="fill:white;fill-rule:nonzero;"/>
                </g>
            </g>
        </g>
    </g>
</svg>
